<svg width="156" height="97" viewBox="0 0 156 97" fill="none" xmlns="http://www.w3.org/2000/svg">
<path d="M69.6 33.984C69.888 33.696 69.888 33.984 69.888 34.08C70.368 34.08 70.464 33.696 70.368 33.408C69.888 32.64 69.984 32.16 70.656 31.584C71.04 31.104 71.232 30.432 71.616 30.24C72 29.76 72.192 29.28 71.808 28.8C71.424 28.416 72 28.032 72.192 27.648C72.192 26.208 72.768 24.768 73.344 23.424C73.44 23.136 74.016 22.56 73.248 22.368C73.056 21.984 72.864 21.312 73.056 20.832C73.056 20.352 73.344 19.776 73.824 19.488C74.016 19.392 74.208 19.2 74.208 19.008C74.4 18.144 74.112 17.088 74.592 16.128C74.688 16.032 74.688 15.936 74.592 15.936C74.112 15.168 74.4 14.208 74.208 13.536C74.208 12.864 74.112 12.576 73.824 12.288C73.44 12.096 73.344 11.808 73.44 11.52C74.016 10.944 73.44 10.272 73.056 10.176C72.576 9.888 72.48 9.504 72.576 9.12C72.576 8.16 72.48 7.488 71.616 6.912C71.616 6.528 71.424 6.336 71.232 6.144C70.944 5.088 70.176 4.41599 69.216 3.84C68.64 3.55199 68.064 3.07199 67.488 2.784C67.008 2.304 66.24 2.112 65.76 1.72799C65.184 1.056 64.416 1.536 63.84 1.056C63.168 0.671997 62.4 1.056 61.632 0.671997C60.96 1.056 60.576 0.287996 60.096 0.479994C59.52 0.479994 58.752 0.287996 58.272 0.479994C57.504 0.959999 56.736 0.287996 56.16 0.959999H54.72C54.048 0.959999 53.568 1.44 52.992 1.44C52.32 1.44 51.36 1.72799 50.592 2.016C49.92 2.304 49.344 2.784 48.768 3.07199C48.576 3.07199 48.576 3.264 48.576 3.264C48.48 3.264 48.48 3.36 48.48 3.36C48.576 3.36 48.768 3.55199 48.96 3.55199C49.728 3.55199 50.304 2.784 51.072 2.784C51.744 2.784 52.32 2.112 52.896 2.304C53.568 2.304 54.336 1.92 54.912 1.92C55.776 1.92 56.544 1.44 57.216 1.44H62.592C62.592 1.44 62.784 1.44 62.784 1.536L62.592 1.72799C61.344 1.72799 60.096 1.72799 58.752 1.92C58.272 1.92 57.792 1.92 57.504 2.016C56.352 2.496 54.912 2.68799 53.568 3.07199C52.32 3.648 50.784 3.936 49.152 4.512C47.904 5.088 46.656 5.75999 45.312 6.23999C43.776 6.72 42.336 7.296 40.896 8.16C38.976 9.408 36.864 10.272 35.04 11.712C34.752 11.808 34.464 12.096 34.08 12.096C33.216 12.096 32.832 12.384 32.448 13.152C32.256 13.536 31.872 13.536 31.488 13.536C31.296 14.112 30.816 14.208 30.432 14.4C29.856 14.688 29.664 14.784 28.992 14.496C28.992 14.4 28.704 14.784 28.608 14.976C28.608 15.168 28.896 15.36 28.704 15.552C28.224 16.128 27.456 16.512 26.88 16.8C25.632 17.376 24.48 18.144 23.424 19.2C23.04 19.488 22.848 19.2 22.56 19.008C22.368 19.008 22.272 19.2 22.08 19.2C22.656 20.352 21.408 20.256 21.024 20.544C20.832 20.832 20.448 20.736 20.16 21.024C19.776 21.216 19.68 21.408 19.392 21.6C18.432 21.984 18.048 23.136 16.992 23.136C16.608 23.808 15.552 24.192 14.976 24.96C14.784 25.536 13.92 25.536 13.344 25.536C13.536 25.248 13.152 24.576 13.92 24.96C13.92 24.96 14.208 24.768 14.208 24.576V23.808C13.536 23.808 12.96 24.192 12.576 24.576C12.288 25.056 11.712 25.056 11.424 25.536C11.136 26.016 10.56 26.4 10.176 26.784C9.6 26.88 9.6 27.648 9.12 27.648C8.352 27.648 8.16 28.224 7.776 28.608L6.144 29.856C5.568 30.432 4.896 30.816 4.512 31.2C3.36 32.256 2.496 33.504 1.44 34.56C1.344 34.848 1.344 35.232 1.152 35.328C0.96 35.616 0.96 35.904 1.152 36.096C1.344 36.48 0.96 36.864 0.864 37.056V38.016C0.96 38.304 1.152 38.784 1.344 39.072C2.112 40.128 2.784 41.088 3.84 41.856C4.32 42.24 4.896 42.432 5.568 42.432C6.336 42.24 6.336 42.24 6.336 41.472C6.528 40.416 6.336 39.648 5.184 39.456C4.704 39.264 4.608 38.784 4.896 38.208C5.376 37.056 6.528 36.288 7.2 35.232C7.968 34.848 8.064 34.272 8.544 33.792C9.12 33.408 9.6 32.928 10.176 32.448C10.56 32.064 11.136 31.392 11.52 31.104C12.576 30.048 13.632 29.184 14.784 28.224C16.416 27.168 17.76 26.016 19.008 24.768C19.68 24.384 19.968 23.808 20.736 23.712C20.832 23.712 21.024 23.616 21.216 23.424C21.408 22.848 21.792 22.656 22.272 22.368C23.232 21.984 24.192 21.312 25.056 20.544C25.632 20.16 26.208 19.584 26.784 19.2C27.36 18.72 28.032 18.336 28.608 17.952C29.184 17.568 29.856 17.376 30.432 16.992C31.008 16.512 31.488 16.032 32.256 15.936C33.504 14.688 35.52 14.208 36.672 12.864C37.056 12.576 37.44 12.288 37.92 12.288C38.496 12.096 38.976 11.808 39.456 11.52C39.744 11.136 40.032 10.944 40.512 10.944L41.856 10.176C42.912 9.504 43.968 8.736 45.12 8.352C47.136 7.584 49.056 6.912 50.88 6.144C52.704 5.27999 54.72 5.184 56.352 4.41599C57.408 4.512 58.272 3.936 59.328 3.936H63.84C64.992 3.936 65.76 4.32 66.72 4.512C68.256 5.088 69.216 6.23999 69.888 7.776L70.656 10.176C70.656 10.272 70.848 10.56 70.656 10.752C70.464 11.136 70.464 11.52 70.656 12C70.848 12.96 70.656 14.208 70.848 15.36C70.176 16.032 70.368 16.8 70.368 17.568C70.368 17.856 70.368 18.144 70.176 18.432C69.888 19.488 69.792 20.736 69.408 21.792C69.216 22.944 69.024 24 68.64 25.248C68.352 26.208 68.256 27.072 67.776 27.936C67.2 29.472 66.624 31.104 65.952 32.64C65.184 34.08 64.992 35.808 63.744 36.864C63.264 37.248 63.264 37.728 62.976 38.208C62.784 38.688 62.784 39.072 62.496 39.456C61.632 40.608 61.44 42.24 60.384 43.296C59.616 45.312 58.176 46.752 57.216 48.672C57.216 48.864 57.12 49.056 56.928 49.056C56.352 49.344 55.968 49.92 55.776 50.496L54.72 52.224C54.528 52.512 54.144 52.704 53.76 52.896C50.592 53.76 47.52 54.912 44.256 55.872C42.144 56.448 40.128 57.12 37.92 57.696C37.152 57.792 36.48 58.272 35.808 58.944C35.232 59.616 35.232 60.672 35.712 61.536C35.808 61.728 36.096 62.016 36.288 62.208C36.48 62.592 36.672 62.784 37.056 62.784C38.304 62.976 39.456 62.304 40.704 62.016C41.568 61.92 42.336 61.344 43.2 61.344C43.68 61.344 43.968 61.344 44.256 60.96C44.736 60.576 45.312 60.192 45.888 60.192C46.752 60.096 47.52 59.616 48.288 59.52C48.576 59.52 48.96 59.328 49.152 59.328C49.344 59.328 49.536 59.52 49.536 59.52V59.904C48.288 61.344 47.328 62.784 46.368 64.416L45.888 64.896C44.736 66.144 43.968 67.584 43.104 69.12L42.144 70.368C40.32 72.768 38.496 75.264 36.864 77.856C36.48 78.816 36.096 79.68 36.288 80.64C36.288 81.312 36.48 81.312 37.056 81.216C37.344 81.024 37.44 81.024 37.44 81.312C37.44 81.6 37.44 82.08 37.344 82.464C37.344 82.848 37.344 83.04 37.44 83.136C37.632 83.232 37.92 83.616 38.208 83.904C38.496 84.288 38.496 84.192 39.264 83.904C39.744 83.712 40.032 83.424 40.128 82.848C40.128 82.08 40.896 81.6 41.376 81.216C41.856 80.448 41.664 79.488 42.336 78.912C43.104 78.24 43.296 77.568 43.968 76.8C44.736 75.552 45.12 74.4 46.56 73.632C46.56 73.632 46.56 73.152 46.368 73.152C46.176 73.056 45.888 73.056 45.696 73.056C45.888 72.768 46.08 72.288 46.368 72C46.56 71.52 46.752 71.424 47.424 71.616C47.52 71.808 48 71.52 47.904 71.232C47.52 70.752 47.52 70.464 48 70.176C48.768 69.984 48.96 69.216 49.728 68.928C50.304 68.64 50.496 67.776 50.784 67.2C50.784 67.008 50.784 67.008 50.88 67.008C51.168 66.528 51.648 66.24 51.744 65.76C51.744 65.376 52.512 65.568 52.416 64.896C52.32 64.128 52.896 64.128 53.28 63.936C53.472 63.84 53.472 63.552 53.568 63.36C54.048 62.592 54.528 62.016 55.104 61.344C55.872 60.384 56.736 59.52 57.12 58.08C57.216 57.504 57.792 57.216 58.176 56.544C58.368 56.352 59.04 56.16 59.52 55.968C59.616 55.968 59.808 56.16 60.096 55.968C60.768 55.296 62.4 55.68 63.168 54.72C63.168 54.624 63.36 54.624 63.552 54.72C63.84 54.912 64.32 54.912 64.8 54.72C65.376 54.336 66.24 54.336 66.816 53.856C67.2 53.76 67.488 53.568 67.584 53.76C68.832 53.76 69.792 53.28 70.848 52.992C71.424 52.896 72.192 52.992 72.864 52.32C73.44 51.936 73.632 51.168 72.864 50.496C72.576 50.496 72.192 50.304 72.288 49.92C72.576 49.536 72.288 49.248 72 49.056C71.616 48.768 71.232 48.672 70.848 48.288C70.368 48 69.888 48 69.6 48C67.392 48.768 64.992 49.056 62.784 50.112H62.496C62.4 50.112 62.208 49.824 62.208 49.824L63.84 47.52C64.032 47.232 64.128 46.944 64.416 46.752C64.992 46.656 64.32 46.176 64.416 45.888C64.8 45.504 65.184 45.312 65.184 44.64C65.184 44.352 65.568 44.064 65.664 43.872C66.432 43.776 66.432 43.008 66.72 42.432C67.008 41.856 67.008 41.088 67.584 40.608C67.968 40.32 67.968 39.648 67.776 39.456C67.392 38.688 67.584 38.208 68.064 37.632C68.544 37.056 69.024 36.672 69.6 36.096C69.6 35.904 69.792 35.616 69.792 35.616C69.408 35.04 69.984 34.656 69.888 34.08C69.888 34.08 69.792 34.08 69.6 33.984ZM71.616 24.768C71.04 26.208 70.656 27.936 70.368 29.472C69.984 30.432 69.408 31.392 69.12 32.256C68.832 32.928 68.544 33.408 68.64 33.984C68.64 34.08 68.544 34.464 68.352 34.56C67.776 35.328 67.584 36.288 67.392 37.056C67.2 37.632 67.008 38.016 66.72 38.496C65.952 39.648 65.568 41.28 64.416 42.528C64.32 43.776 63.36 44.64 62.976 45.696C62.784 46.08 62.592 46.176 62.496 46.464C62.208 46.944 61.632 47.328 61.44 48C61.152 48.672 60.768 49.248 60.768 49.824C60.384 50.496 59.808 50.88 59.136 51.072C58.944 51.168 58.368 51.072 58.368 50.688C58.368 50.496 58.368 50.304 58.56 50.304C59.328 49.344 59.52 48.096 60.192 47.232C60.768 46.272 61.344 45.312 61.728 44.256C62.4 43.008 62.976 41.856 63.744 40.704C64.416 39.648 64.8 38.688 65.664 37.728C66.24 36.096 67.008 34.464 67.776 32.928L68.544 31.104C68.64 30.432 69.024 30.048 69.12 29.472C69.12 29.184 69.12 28.704 69.792 28.608C69.792 28.416 69.888 28.032 69.888 27.936C69.984 27.456 69.984 27.072 70.176 26.784C70.656 26.016 70.944 25.056 70.848 24.384C70.848 24.192 70.944 24 71.04 24H71.232C71.424 24.384 71.616 24.576 71.616 24.768ZM50.496 60.96C50.784 60.576 51.072 60.096 51.36 59.52C51.648 58.56 52.416 58.272 53.184 57.984C53.28 57.984 53.472 57.984 53.568 58.08C54.048 58.272 53.76 58.368 53.568 58.56C52.416 59.904 51.552 61.344 50.592 62.976C49.92 64.128 48.96 64.896 48.192 66.144C47.904 66.528 47.52 67.008 47.328 67.392C45.888 69.216 44.736 71.232 43.296 73.056C43.104 73.344 42.912 73.824 42.336 73.92V73.056C42.336 72.576 42.432 72.192 42.72 72C43.488 71.616 43.68 71.424 43.68 70.56C43.68 70.368 43.968 69.792 44.064 69.6C44.256 69.12 44.352 69.408 44.544 69.408C44.928 69.408 45.12 69.216 45.12 68.832C44.928 68.352 45.12 68.352 45.504 68.352C45.888 68.352 46.176 68.16 45.888 67.776C46.368 66.816 46.752 65.952 47.328 64.992C47.328 64.992 47.424 64.896 47.52 64.896C47.904 64.896 48.288 64.704 48.288 64.32C48.48 64.128 48.576 63.936 48.768 63.84C49.824 63.36 50.112 62.496 50.112 61.344L50.496 60.96ZM41.856 75.456C41.088 76.224 40.512 76.992 39.84 77.664C39.552 78.24 38.976 79.008 38.112 79.008C37.92 79.008 37.728 79.008 37.728 78.912V78.816L37.92 78.624C38.496 77.376 39.264 76.416 40.704 75.744C40.896 75.552 40.896 75.264 40.704 74.784C40.704 74.4 40.896 73.92 41.376 74.016C41.856 74.4 41.952 73.92 42.336 73.92C42.336 74.592 42.336 74.976 41.856 75.456ZM15.552 23.232C15.552 23.136 15.744 22.944 15.936 22.944C16.608 22.848 17.28 21.984 17.856 21.6C18.432 21.216 19.008 20.736 19.392 19.968H18.816C17.28 21.024 15.744 21.984 14.208 23.232V23.808C14.784 23.808 15.36 24 15.552 23.232ZM63.264 51.744C64.032 51.36 64.8 51.648 65.568 51.168C65.664 51.168 65.76 51.36 66.144 51.456C65.76 52.128 65.184 51.936 64.992 52.224C63.744 52.224 62.496 52.896 61.344 52.896C61.44 52.704 61.44 52.512 61.632 52.512C62.208 52.32 62.784 52.224 63.264 51.744ZM37.344 8.64C38.112 8.352 38.88 8.064 39.456 7.776C39.744 7.584 39.84 7.296 40.032 7.10399C40.128 7.10399 40.128 6.912 40.032 6.912L39.84 6.72C39.072 6.912 38.304 7.296 37.728 7.584C37.44 7.776 37.152 7.872 37.152 8.352C37.152 8.544 37.344 8.64 37.344 8.64ZM27.84 14.688C28.032 14.496 28.032 14.208 28.032 14.112C27.84 13.92 27.456 13.92 27.36 13.92C27.072 13.92 26.784 14.112 26.592 14.208C26.304 14.976 25.632 15.36 25.056 15.744C25.056 15.744 25.056 15.936 24.96 16.032C25.248 16.032 25.632 16.032 25.824 15.936C26.496 15.36 27.072 15.168 27.84 14.688ZM21.408 18.912V18.72L21.216 18.624C20.448 18.624 19.776 18.912 19.392 19.488V19.968C20.256 19.968 20.832 19.488 21.408 18.912ZM31.68 12.096L33.408 10.944V10.56C33.408 10.464 33.408 10.464 33.216 10.464H32.64C32.256 10.752 31.68 11.136 31.584 11.712V12L31.68 12.096ZM47.904 3.648V3.36C47.712 3.36 47.52 3.264 47.52 3.264C46.752 3.55199 46.08 3.55199 45.696 4.41599C46.656 4.512 47.328 4.128 47.904 3.648ZM41.376 6.528C42.144 6.528 42.912 6.144 43.296 5.664L43.488 5.472L43.296 5.27999C42.528 5.664 41.952 5.664 41.376 5.952C41.28 6.144 41.28 6.23999 41.088 6.336C41.28 6.336 41.376 6.528 41.376 6.528ZM24.96 16.032C24 16.128 23.232 16.512 22.848 17.376C23.808 17.184 24.672 16.992 24.96 16.032ZM73.632 15.552C73.344 16.32 73.344 16.992 73.344 17.76C73.344 17.856 73.248 17.952 73.248 17.952C73.056 17.952 73.056 17.856 73.056 17.76C72.864 17.376 73.056 16.992 73.056 16.128V14.976C73.056 14.976 73.056 14.784 73.248 14.784L73.344 14.976C73.44 15.168 73.824 15.552 73.632 15.552ZM34.464 10.464C34.752 10.176 35.232 9.984 35.52 9.696C35.712 9.504 35.712 9.408 35.712 9.408C35.52 9.31199 35.328 9.12 35.04 9.12C34.464 9.12 34.464 9.888 34.08 10.176L34.272 10.272L34.464 10.464ZM44.352 5.184C44.832 5.088 45.504 4.89599 45.696 4.41599H44.256C44.256 4.512 44.064 4.89599 44.064 5.088C44.064 5.088 44.256 5.184 44.352 5.184ZM72 23.232V23.616C72 23.616 71.808 23.616 71.808 23.712C71.808 23.616 71.616 23.616 71.616 23.616V22.56C71.616 22.368 71.808 22.368 71.808 22.368C71.808 22.368 72 22.368 72 22.56C72.192 22.656 72 22.944 72 23.232ZM22.368 18.144C22.56 18.144 22.656 17.856 22.848 17.76V17.376H22.368C22.272 17.376 22.08 17.568 22.08 17.76C21.984 17.952 22.272 18.144 22.368 18.144ZM50.784 55.104H50.88C50.784 55.296 50.784 55.296 50.592 55.296C50.304 55.296 49.92 55.392 49.728 55.392C49.824 54.72 50.304 54.912 50.784 55.104ZM29.856 13.152C29.856 12.96 30.048 12.864 30.24 12.576L29.472 12.864C29.28 12.864 29.28 12.96 29.472 13.152C29.472 13.152 29.664 13.344 29.856 13.152ZM66.72 51.168V51.36C66.816 51.36 66.72 51.36 66.72 51.456H66.144C66.144 51.168 66.432 51.072 66.72 51.168ZM12.576 26.4C12.384 26.4 12.384 26.304 12.288 26.208C12.384 26.016 12.768 26.016 12.96 26.016C12.768 26.208 12.576 26.208 12.576 26.4ZM63.168 50.688L63.264 50.88C63.168 50.88 63.168 51.072 62.976 51.072C62.784 51.072 62.784 50.88 62.784 50.88C62.784 50.88 62.976 50.688 63.168 50.688ZM12.96 26.016C13.056 25.632 13.056 25.632 13.344 25.536C13.344 25.824 13.152 26.016 12.96 26.016ZM56.736 51.744C56.64 51.648 56.64 51.456 56.64 51.36L56.736 51.168C56.736 51.36 56.928 51.456 56.928 51.648C56.928 51.648 56.736 51.648 56.736 51.744ZM52.896 54.144C52.992 54.144 53.184 54.336 53.28 54.336C53.28 54.336 53.28 54.528 53.184 54.528C52.992 54.528 52.992 54.336 52.896 54.336V54.144ZM51.648 54.624H51.936C51.936 54.624 52.128 54.624 52.128 54.72C51.936 54.72 51.744 54.72 51.744 54.912C51.648 54.912 51.648 54.72 51.552 54.72C51.552 54.72 51.552 54.624 51.648 54.624ZM49.344 55.68C49.152 55.392 49.344 55.392 49.536 55.392C49.536 55.488 49.536 55.488 49.344 55.68ZM31.104 13.344C31.2 13.344 31.392 13.344 31.488 13.44C31.488 13.248 31.392 13.056 31.104 13.344ZM73.44 18.912C73.44 18.72 73.632 18.72 73.632 18.72C73.632 18.72 73.824 18.912 73.632 18.912C73.632 19.008 73.44 19.008 73.44 18.912ZM30.432 12.288C30.432 12.384 30.24 12.384 30.24 12.576C30.432 12.576 30.624 12.576 30.432 12.288ZM61.152 53.088C60.768 52.992 61.056 52.896 61.248 52.896C61.152 52.992 61.152 53.088 61.152 53.088ZM72.288 21.6C72.288 21.6 72.288 21.408 72.192 21.408C72.288 21.408 72.288 21.312 72.288 21.312C72.288 21.408 72.48 21.408 72.48 21.408L72.288 21.6ZM35.232 50.304L35.04 50.496H35.232C35.328 50.496 35.328 50.496 35.232 50.304ZM50.88 61.152C50.784 61.152 50.592 61.152 50.592 60.96C50.592 61.152 50.592 61.344 50.88 61.152ZM45.6 73.344C45.312 73.152 45.6 73.152 45.696 73.152C45.6 73.152 45.6 73.344 45.6 73.344ZM58.56 49.056C58.56 49.248 58.368 49.248 58.368 49.056H58.56ZM61.92 51.168C62.208 51.168 62.016 51.36 61.92 51.36V51.168ZM65.76 41.856V41.664L65.952 41.856H65.76ZM64.128 2.112C64.032 2.112 64.032 2.016 64.032 2.016L64.128 1.92C64.128 2.016 64.128 2.016 64.32 2.016C64.128 2.016 64.128 2.112 64.128 2.112ZM10.944 27.456V27.36L11.136 27.456H10.944ZM65.76 49.824V49.92V49.824ZM130.144 64.992H129.76V63.936L128.704 64.992C128.704 64.512 128.704 63.936 128.992 63.36C129.184 62.784 129.184 61.92 129.472 61.248C129.472 61.152 129.664 61.056 129.76 60.864C129.76 61.152 129.76 61.44 130.144 61.536C130.144 61.824 130.144 62.112 130.048 62.208C129.76 62.784 129.76 63.264 129.76 63.84H130.144C130.24 63.936 130.24 64.032 130.432 64.032C130.432 64.224 130.528 64.032 130.72 64.032L130.528 63.936C130.432 63.84 130.24 63.84 130.144 63.84V63.264C130.24 62.976 130.24 62.88 130.528 62.784C131.2 62.496 131.2 62.496 131.104 61.92C130.912 61.536 130.912 61.152 130.912 60.864C130.816 61.056 130.72 61.152 130.528 61.248C130.432 61.44 130.24 61.44 130.144 61.536C130.144 61.248 130.144 60.864 129.76 60.768C129.76 60.384 130.048 60 130.144 59.712C130.528 59.136 130.72 59.136 131.296 59.712C130.72 59.712 130.72 59.808 130.816 60.192C130.912 60.48 130.912 60.576 130.912 60.768C131.488 60.48 131.296 60.096 131.296 59.712H131.968C132.16 59.52 132.256 59.52 132.448 59.424C132.544 59.136 132.256 59.04 132.16 58.848C132.16 58.656 132.16 58.368 132.256 58.272C132.64 58.08 132.928 57.792 133.024 57.6C133.504 56.928 133.6 55.968 134.272 55.392C134.368 55.392 134.368 54.912 134.176 54.816C133.984 54.816 133.696 54.816 133.6 54.912C133.504 55.2 133.312 55.584 133.216 54.912V54.336L132.832 54.624C132.64 55.008 132.64 55.296 132.544 55.68C132.448 55.968 132.544 56.064 132.832 56.256C132.832 56.736 132.832 57.408 132.16 57.6C131.584 57.696 131.488 57.984 131.488 58.464C131.488 58.656 131.2 58.752 131.104 58.752C130.912 58.848 130.72 58.752 130.72 58.656C130.528 58.368 130.72 58.08 130.72 57.792L130.912 56.64C130.816 56.736 130.72 56.736 130.72 56.736L129.184 60.384C128.704 62.304 128.032 64.32 127.264 66.336C127.264 66.432 127.072 66.624 127.264 66.72C127.264 66.816 127.264 67.104 127.36 67.296H127.936C127.936 67.968 127.648 68.736 127.936 69.408C127.936 69.696 127.648 69.792 127.072 69.888V68.064C126.304 68.832 126.304 69.888 126.016 70.848C125.92 70.944 126.016 71.136 126.016 71.424L126.592 71.136H126.688V72.192H126.304C126.208 72 126.208 71.904 126.016 71.904C125.92 71.904 125.632 72 125.632 72.192C125.632 72.576 125.632 72.96 125.728 73.248C125.92 73.728 126.208 74.304 126.304 74.88C126.304 75.072 126.4 75.36 126.016 75.456C125.92 75.456 125.728 75.36 125.632 75.36C125.632 76.032 125.344 76.608 125.248 77.184C125.056 77.856 125.056 77.856 124.672 77.376C124.672 77.184 124.576 77.376 124.576 77.472C124.48 77.76 124.48 78.24 124.576 78.432C125.344 79.104 124.672 79.776 124.672 80.448H124.576C124.48 80.448 124.192 80.256 124.192 80.544C124.192 80.64 124.48 80.832 124.48 80.928C124.672 81.216 124.576 81.888 124.288 81.984C124.288 81.984 124.192 81.696 124 81.696C124 81.6 123.904 81.6 123.904 81.6L123.808 81.696C123.808 82.368 124.192 83.04 124 83.904C124 84.096 124.288 84.768 123.52 84.576C123.52 84.672 123.328 84.96 123.328 85.056C123.904 85.632 123.232 86.304 123.616 86.784C123.616 86.88 123.328 87.168 123.328 87.456C123.328 87.552 123.52 87.552 123.52 87.552C123.328 87.744 123.328 87.552 123.328 87.456C122.752 87.552 123.136 88.224 122.56 88.416C122.56 87.168 122.464 86.016 122.848 84.768C122.944 84.576 122.848 84.288 122.848 83.904C122.848 81.504 123.328 79.104 123.904 76.704C124.192 75.648 124.288 74.592 124.576 73.536L126.016 67.776C126.016 67.68 126.016 67.488 126.208 67.488C126.784 65.28 127.648 62.976 128.416 60.864C128.704 60 129.184 59.136 129.376 58.272C129.664 56.928 130.144 55.68 130.72 54.528C131.488 52.608 132.256 50.88 132.928 49.056C133.312 47.904 133.888 46.656 134.368 45.6C135.424 43.392 136.384 41.184 137.44 39.072C138.208 37.632 139.072 36.192 139.744 34.752C139.84 34.176 140.128 33.792 140.416 33.408C140.512 33.216 140.608 33.12 140.8 33.024C140.8 33.408 140.8 33.792 140.608 34.08C140.416 34.848 139.936 35.52 139.552 36.192C139.168 36.96 138.88 37.92 138.496 38.688L137.728 40.32C136.672 42.048 135.712 43.968 135.04 45.984C134.272 48.096 133.312 50.112 132.448 52.224C131.872 53.28 131.488 54.528 130.912 55.68V56.64C131.776 55.968 131.968 55.008 132.448 54.24C132.64 53.568 132.64 53.568 133.216 54.144V54.24C133.504 54.144 133.696 53.952 133.888 53.664C133.984 53.472 133.984 53.088 133.6 52.8C133.696 52.416 133.984 52.416 134.272 52.416C134.272 52.8 134.368 53.088 134.752 53.184V53.568H135.04C135.232 53.568 135.232 53.472 135.232 53.472C135.232 53.28 135.232 53.28 135.04 53.184H134.752C134.944 52.608 135.328 52.128 135.424 51.552C135.616 51.36 135.424 50.88 135.04 50.88V50.112C134.752 50.016 134.656 49.824 134.368 49.728C134.368 49.344 134.176 48.96 134.752 48.672C135.424 49.056 136.096 49.152 136.48 48.768C136.672 48.576 136.768 48.096 136.48 47.904C136.384 47.712 136.384 47.616 136.672 47.424C136.768 47.424 137.056 47.424 137.152 47.328C137.44 47.232 137.44 47.04 137.056 46.656V45.984C137.056 45.696 137.152 45.6 137.44 45.6C137.44 45.696 137.344 45.888 137.44 45.888C137.44 45.984 137.632 46.176 137.632 46.176C137.632 46.176 137.728 45.984 137.728 45.888C137.728 45.696 137.632 45.696 137.44 45.6C137.632 45.504 137.632 45.312 137.728 45.216C138.016 45.216 138.112 45.216 138.208 45.12C138.4 45.12 138.4 44.928 138.4 44.832C138.4 44.64 138.208 44.64 138.208 44.64C137.728 44.64 137.824 44.256 137.824 43.968C138.016 43.968 138.112 43.872 138.208 43.872C138.496 43.872 138.88 43.968 139.072 43.584C139.072 43.2 139.36 42.912 139.456 42.528C139.744 42.144 139.552 41.856 139.36 41.472C139.36 41.472 139.456 41.376 139.456 41.184H139.744C139.84 41.376 139.936 41.472 139.936 41.472H140.416C140.416 40.992 140.896 40.512 140.416 40.032C140.224 39.936 140.128 39.648 140.416 39.456C140.896 39.456 141.184 39.264 141.28 38.784C141.664 38.016 142.144 37.344 142.816 36.864C142.624 36.672 142.336 36.576 142.528 36.48C142.624 36 142.816 35.616 143.008 35.232C143.392 34.752 143.872 34.176 143.968 33.408C143.968 33.216 144.064 33.024 144.256 32.832C145.12 32.448 145.12 31.68 145.312 31.008C145.024 30.624 145.408 30.336 145.6 29.952C145.792 29.28 146.464 28.896 146.848 28.224C147.424 27.36 147.808 26.496 148.192 25.632C148.48 25.248 148.864 25.152 149.056 24.864C149.152 24.48 149.152 24.192 149.536 24.192C149.632 24.192 149.824 24.096 149.824 23.904C149.632 23.328 150.304 23.04 150.304 22.464C150.304 22.176 150.784 22.08 150.88 21.792L152.224 19.68C152.992 18.336 153.76 16.896 154.624 15.552C155.392 14.208 155.968 12.768 155.392 11.328C155.392 11.232 155.392 11.04 155.488 10.944C155.776 10.368 155.488 9.984 155.104 9.888C154.336 9.504 153.664 8.928 152.704 8.832C152.224 8.64 151.36 8.64 150.976 8.16C150.592 8.16 150.304 7.96799 150.112 7.776C149.632 7.488 149.152 7.776 148.768 7.584C148.48 7.392 148.192 7.488 147.904 7.776C147.712 8.16 147.328 8.44799 147.04 8.832C146.464 9.696 145.984 10.656 145.408 11.712C144.736 12.96 143.968 14.112 143.2 15.36C141.568 17.28 140.416 19.584 138.88 21.696L137.344 24.096C136.768 25.056 136.096 25.824 135.616 26.784C134.752 27.936 134.272 29.28 133.504 30.432C132.544 32.064 131.488 33.696 130.432 35.232C129.856 36.192 129.184 37.248 128.704 38.304C128.032 39.36 127.36 40.416 126.688 41.664L124 45.888L122.752 47.904C122.08 49.632 121.024 51.168 120.064 52.608L119.488 53.472L118.624 55.488C117.568 55.68 115.264 60.096 115.456 59.808C115.168 60.48 114.4 60.864 114.4 61.536C114.4 61.824 114.112 62.112 113.92 62.304C113.248 63.264 112.864 64.512 112.288 65.568L111.136 67.968C110.272 69.12 109.216 70.176 108.736 71.52C108.544 72 108.16 72.48 107.68 72.576V72.96L107.488 73.152C107.488 73.152 107.392 72.96 107.488 72.864C107.488 72.672 107.68 72.672 107.68 72.576C107.2 72.192 107.104 72.192 107.008 72.576C107.008 72.864 106.816 73.152 106.816 73.152C106.432 73.152 106.72 72.864 106.528 72.576V71.904C107.776 71.808 107.776 71.808 107.776 70.752V69.12C107.872 69.024 108.064 69.024 108.064 68.832C108.16 67.392 108.736 66.048 108.448 64.608C108.16 64.704 108.064 64.992 107.776 65.088H107.488V63.936L107.68 64.032C108.256 64.224 108.064 63.648 108.16 63.552C108.256 63.552 108.448 63.648 108.448 63.936V64.608C108.544 64.608 108.736 64.512 108.736 64.512C109.504 63.552 109.12 62.496 109.504 61.536C109.6 61.248 109.6 60.768 109.6 60.48C109.6 60.384 109.504 60.192 109.504 60.192C109.408 60.384 109.216 60.384 109.216 60.384C109.12 61.152 108.928 61.824 108.736 62.784C108.256 61.824 108.064 61.056 108.16 60.192C108.16 60.096 108.16 59.712 108.448 59.808C108.928 60.096 109.216 59.136 109.792 59.52C110.272 59.136 109.984 58.656 110.176 58.272C110.464 57.6 110.464 57.024 110.56 56.352C110.56 56.256 110.464 55.968 110.464 55.872C110.176 55.68 109.984 55.584 109.984 55.296C109.984 55.008 109.888 54.816 109.6 54.816C109.792 54.528 109.792 54.144 109.888 54.144C110.176 53.856 110.464 53.568 110.464 53.184L110.56 53.088C110.656 53.184 110.656 53.28 110.656 53.28C110.656 53.664 110.656 53.952 110.56 54.24C110.272 54.816 110.464 55.296 110.464 55.872C110.944 55.296 111.136 54.624 111.232 53.856C111.232 52.896 111.52 52.128 112 51.36C112.192 51.168 112 50.88 112 50.688C111.904 50.208 111.904 49.728 112.192 49.152C112.288 49.056 112.576 48.768 112.576 48.576C112.384 47.328 112.96 46.368 113.248 45.216C113.44 44.16 113.92 42.912 113.92 41.76C113.92 41.664 114.016 41.472 114.016 41.376C114.4 40.32 114.688 39.072 114.784 37.92C114.976 37.056 115.072 36.192 115.36 35.424C115.648 34.272 116.128 33.408 116.128 32.352C116.512 31.68 116.416 31.008 116.704 30.336C116.896 29.76 116.8 29.088 117.568 28.992C117.472 28.512 117.376 27.936 117.376 27.36V27.168C118.048 26.112 118.048 24.768 118.144 23.52C118.432 22.176 118.816 20.928 119.2 19.68C119.296 19.296 119.296 18.816 119.488 18.24C119.872 16.896 119.872 15.456 120.256 14.112C120.832 12.48 121.312 10.752 121.216 9.024C121.216 8.44799 121.312 7.872 121.312 7.2C121.312 6.72 121.216 6.144 121.024 5.472C120.832 4.032 119.68 2.976 118.816 1.92C118.144 1.248 117.376 1.34399 116.704 1.34399C116.416 1.34399 116.128 1.056 115.84 1.056H114.976C114.688 1.056 114.4 1.34399 114.304 1.632C114.112 2.20799 114.112 2.68799 114.784 2.784C115.456 3.07199 115.744 3.456 115.84 4.128C116.128 5.088 116.32 6.144 115.744 7.10399L114.784 8.64C114.304 9.504 113.728 10.272 113.92 11.328C114.112 11.424 114.112 11.616 113.728 11.712V11.424L113.44 11.712H113.728C113.632 12 113.632 12 113.44 11.712C113.248 11.904 112.96 12 112.864 12.096C112.576 12.384 112.672 12.672 113.056 12.768C112.96 13.152 112.96 13.44 112.672 13.632C112.576 14.112 112.384 14.496 111.904 14.784C111.904 15.072 111.904 15.36 111.52 15.552C111.328 15.744 110.944 15.936 110.944 16.128C111.136 16.608 110.848 17.088 110.56 17.28C109.6 18.24 109.216 19.392 108.544 20.544C108.448 20.64 108.544 20.928 108.448 21.12C108.736 21.12 108.928 21.024 109.216 20.928C109.216 21.408 108.928 21.696 108.448 21.984V21.12C108.256 21.312 108.16 21.312 108.16 21.312C107.488 22.368 106.816 23.424 106.336 24.48C106.144 24.576 106.144 24.864 106.144 25.056L107.008 24.576C106.816 25.536 106.336 26.208 105.952 26.976C105.76 27.168 105.664 27.264 105.472 27.264C105.376 27.648 105.376 27.936 105.088 28.032C104.992 28.32 104.992 28.704 104.704 28.896C104.704 28.608 104.704 28.224 104.992 28.032C105.088 27.84 105.088 27.36 105.376 27.264C105.664 26.88 105.76 26.496 105.952 26.112C106.048 25.632 106.144 25.44 106.144 25.056C105.76 25.152 105.472 25.536 105.376 25.92L103.264 29.664C103.264 29.76 103.264 30.048 103.168 30.336C103.552 30.336 103.648 29.952 103.936 29.664L104.32 29.28C104.224 30.336 103.648 30.816 103.168 31.392V30.336C102.88 30.624 102.592 30.72 102.496 31.008L101.632 32.544L97.0238 41.472C96.8318 41.664 96.7358 41.76 96.6398 42.048C96.0638 43.2 95.1038 44.256 94.6238 45.6C94.3358 46.272 94.0478 47.04 93.2798 47.424C93.2798 48 92.8958 48.576 92.6078 48.96C92.5118 49.152 92.2238 49.344 92.1278 49.344C91.4557 49.44 91.5518 49.44 91.8398 50.016C92.1278 50.208 91.8398 50.688 91.4557 50.88C91.2638 51.168 91.4557 51.552 91.0718 51.744C91.0718 52.128 90.8798 52.416 90.8798 52.8C90.1118 53.184 90.0157 54.24 89.5358 54.912C89.5358 54.912 89.7278 55.008 89.8238 55.2C90.0157 55.2 90.1118 55.296 90.1118 55.296C89.8238 55.872 89.7278 56.352 89.0558 56.64V55.872H88.6718V55.584C88.6718 55.392 88.4798 55.296 88.4798 55.2C88.3838 55.296 88.3838 55.392 88.3838 55.584C88.2878 55.584 88.3838 55.68 88.3838 55.872H88.6718V56.64H89.0558C89.0558 56.928 89.0558 57.12 88.6718 57.312V56.64H88.3838C88.3838 56.352 88.2878 56.064 88.2878 55.872H87.9998C87.7118 55.968 87.7118 56.064 87.7118 56.256C87.8078 56.352 87.8078 56.544 87.9998 56.64H88.2878V57.408C88.0958 57.408 87.8078 57.6 87.6158 57.696C87.7118 57.312 87.8078 57.024 87.8078 56.64H87.4238C86.7518 57.408 86.2718 58.272 85.6958 59.04C85.0238 60.192 84.3518 61.44 83.5838 62.592C81.9518 64.896 80.2238 67.104 78.4958 69.408C77.9198 70.464 77.0557 71.52 76.1917 72.288L74.6557 74.016C74.2717 74.4 72.0637 76.128 71.6797 76.608C70.4317 77.184 69.2797 77.472 68.0317 77.856C67.6477 78.048 67.2637 78.144 66.9757 78.528C66.6877 78.72 66.6877 78.912 66.9757 79.2C67.5517 79.584 68.2237 79.968 68.9917 79.584C69.2797 79.488 69.6637 79.488 69.9517 79.488C71.7757 79.392 73.4077 78.72 74.8477 77.76L76.3837 76.704C77.7278 75.936 78.6878 74.88 79.6478 73.728C80.4158 72.672 81.1838 71.616 82.1438 70.56C82.8158 69.696 83.5838 68.832 84.2558 67.776C84.9278 66.624 85.8878 65.664 86.0798 64.32C86.0798 64.224 86.2718 63.936 86.3678 63.936C87.0398 63.552 87.1358 62.976 87.6158 62.304C87.8078 61.824 88.2878 61.248 88.6718 60.576C89.1518 59.808 89.8238 59.136 90.2078 58.368C90.8798 57.12 91.2638 55.968 92.1278 54.816C92.5118 54.336 92.3198 53.568 92.8958 53.184C93.2798 52.8 93.3758 51.936 93.9518 51.552C94.6238 50.88 94.9118 50.112 95.0078 49.152C95.3918 47.616 96.4478 46.56 97.0238 45.12C97.1198 44.64 97.6958 44.544 97.6958 43.968C97.5038 43.488 98.1758 43.2 98.1758 42.72C98.3678 42.048 98.8478 41.472 99.1358 40.992C99.7118 40.032 100.192 39.072 100.768 38.208C101.44 36.864 101.824 35.232 102.976 34.08C103.168 33.888 103.168 33.792 103.264 33.504C103.36 32.544 104.032 31.968 104.416 31.104C105.088 30.048 105.76 28.992 106.144 27.936C106.72 26.784 107.776 25.92 108.064 24.768C108.16 24.384 108.448 24.192 108.544 23.904C108.832 23.712 109.12 23.424 109.216 23.136C109.216 22.464 109.6 21.792 109.984 21.6C110.656 21.024 110.656 20.256 111.328 19.968C112 18.912 113.056 17.952 113.632 16.8C114.112 15.744 114.784 14.784 115.744 13.44C115.744 14.016 115.744 14.208 115.648 14.496C115.168 16.512 114.784 18.624 114.4 20.64C113.728 23.808 113.056 26.88 112.288 30.048C111.52 33.12 110.848 36.48 109.888 39.456C109.792 40.32 109.792 41.184 109.504 42.048C108.832 44.256 108.256 46.56 108.064 48.96C107.68 51.552 106.816 54.144 106.336 56.736L105.088 62.592L103.744 69.504C103.648 70.272 103.552 71.232 103.36 72C102.976 73.632 102.688 75.264 102.688 76.992C102.688 77.472 102.688 78.048 102.592 78.432C102.304 79.2 102.688 79.776 103.168 80.448C103.264 80.544 103.552 80.448 103.552 80.256C103.648 79.968 103.744 79.872 104.032 80.16C104.224 80.256 104.224 80.448 104.32 80.64C104.704 81.504 105.376 81.888 106.336 81.696C106.432 81.696 106.72 81.6 106.816 81.504C106.816 80.64 107.776 80.16 108.16 79.488C108.928 78.048 110.176 76.608 110.944 74.976C111.904 73.248 113.056 71.616 114.016 69.792C114.592 68.832 115.168 67.968 115.456 66.72C115.456 66.432 115.84 66.336 116.128 66.24L115.744 67.296C115.744 67.392 115.84 67.392 115.84 67.392C115.84 67.488 116.032 67.392 116.032 67.392C116.512 67.104 116.512 66.72 116.128 66.24C116.416 65.088 116.704 64.416 117.472 63.456C117.664 63.36 117.76 63.36 117.76 63.072C118.24 62.592 120.832 58.464 121.024 58.272L122.752 55.2L123.904 53.184C124.48 52.128 125.248 51.168 125.728 50.112C126.016 49.632 126.304 49.056 126.688 48.576C127.36 47.904 127.36 46.944 128.032 46.272C129.088 45.12 129.664 43.488 130.528 42.048C131.872 40.32 132.928 38.304 133.984 36.288C134.368 35.52 135.04 34.944 135.424 34.176C136 33.12 136.672 32.064 137.44 31.008C138.112 30.24 138.688 29.28 139.168 28.32C139.36 28.032 139.456 27.84 139.744 27.552C140.416 26.88 140.8 26.112 141.28 25.248C141.856 24.192 142.528 23.328 143.2 22.368C143.968 21.408 144.736 20.352 145.408 19.296L146.464 17.568C146.848 17.184 147.136 16.608 147.52 16.224C147.712 15.936 147.808 15.84 147.904 15.552C148.096 15.552 148.384 15.456 148.48 15.552C148.576 15.552 148.768 15.84 148.768 15.936C148.48 16.416 148.384 16.8 148.096 17.184L144.928 23.04C144.256 24.192 143.584 25.536 142.912 26.88L140.128 31.776C139.552 32.832 139.072 34.08 138.496 35.232C138.4 35.52 138.4 35.808 138.112 36C137.344 37.056 136.768 38.4 136.288 39.648C135.904 40.512 135.616 41.472 135.04 42.432C134.368 43.488 133.984 44.832 133.504 45.984L131.872 49.632C131.296 51.072 130.816 52.512 130.144 53.952C129.664 55.008 129.376 55.968 128.992 57.024C128.8 57.312 128.8 57.696 128.704 58.08C127.744 60.768 126.784 63.36 125.92 66.24C125.056 68.736 124.288 71.424 123.808 74.208C123.52 75.264 123.136 76.128 122.944 77.184C122.944 78.816 122.464 80.256 122.56 81.696C122.56 81.984 122.56 82.272 122.464 82.56C122.176 83.328 122.176 84.096 122.176 84.96C122.176 87.168 121.888 89.472 122.56 91.584C122.464 93.408 123.52 94.752 124.576 96.096C124.576 96.192 124.864 96.192 124.96 96.192C124.96 96.096 125.056 96 124.96 95.808C124.864 95.04 124.288 94.08 124.672 93.12C124.864 92.928 124.672 92.64 124.576 92.352C124.576 92.256 124.576 92.064 124.48 91.872C124.48 91.2 124.576 90.624 124.864 89.952C124.96 89.472 124.48 88.8 124.672 88.128C124.864 87.744 124.864 87.36 124.864 86.88L125.056 84.288C125.248 83.232 125.728 81.984 125.728 80.928C125.728 79.872 126.304 78.816 126.208 77.664C126.4 77.376 126.208 76.704 126.688 76.416C126.688 75.648 126.688 74.688 127.264 74.016C127.456 73.536 127.456 72.96 127.648 72.48C127.744 71.808 127.936 71.232 127.936 70.752C127.936 70.56 128.128 70.464 128.32 70.272C128.32 69.792 128.128 69.12 128.8 68.832C129.472 68.544 129.472 68.16 129.184 67.68C129.088 67.392 129.088 67.104 129.184 67.008C129.856 66.72 129.76 66.24 129.76 65.76C129.376 65.376 129.376 65.376 129.76 64.992V65.76C130.144 65.664 130.144 65.28 130.144 64.992ZM104.608 76.128C104.608 76.608 104.416 76.992 104.32 77.184C104.224 77.664 103.648 77.856 103.648 77.76C103.648 77.472 103.552 77.184 103.648 76.992C103.744 76.128 103.744 75.264 103.936 74.4C104.224 72.672 104.608 70.944 104.8 69.216C104.8 68.832 105.088 68.448 104.992 68.064C104.992 67.296 105.28 66.432 105.472 65.664C105.664 64.704 106.048 63.936 106.144 62.976C106.432 60.48 107.008 58.08 107.68 55.872C107.872 55.008 107.872 54.336 107.872 53.568C108.064 52.128 108.544 50.688 108.928 49.152C109.216 48.288 109.12 47.328 109.504 46.368C109.888 45.6 109.984 44.832 109.984 43.872L110.656 41.664C110.656 41.376 111.136 40.992 111.136 40.704C111.136 39.36 111.616 38.304 111.904 37.056C112.192 36.192 112.384 35.232 112.576 34.176C112.864 33.504 112.96 32.736 113.056 32.064C113.056 31.776 113.056 31.488 113.248 31.296C114.016 28.992 114.304 26.496 114.976 24.096C115.168 23.136 115.456 22.176 115.744 21.12C115.744 21.024 115.648 20.64 116.032 20.736C116.032 20.736 116.032 21.024 116.128 21.12C116.032 21.408 116.032 21.696 116.032 21.984C115.456 24.576 114.784 27.168 114.4 29.664C113.92 32.448 112.96 35.136 112.576 37.728C112.384 38.976 112 40.032 111.712 41.088C111.52 42.816 111.232 44.448 110.656 46.176C110.176 48 109.888 49.824 109.408 51.744C108.736 54.336 108.16 57.024 107.68 59.712C107.392 61.248 107.104 62.88 106.72 64.512C106.336 66.048 106.144 67.488 105.76 69.12L104.992 73.92C104.704 74.688 104.704 75.36 104.608 76.128ZM117.664 57.216C117.664 56.832 117.76 56.544 117.952 56.352C117.952 56.256 118.048 56.256 118.24 56.256L117.952 56.64C117.952 56.736 118.048 56.928 118.048 57.024V58.368C118.72 57.216 119.392 56.064 119.872 54.912L120.736 53.664C121.216 52.8 122.08 51.744 122.464 50.688C122.848 49.824 123.232 49.152 123.616 48.576C123.904 48.096 124.192 47.712 124.288 47.328C124.672 46.176 125.92 45.312 126.304 44.16C127.072 43.2 127.648 42.144 128.32 40.992C128.992 39.744 129.664 38.592 130.432 37.536C131.584 35.616 132.832 33.792 133.888 31.776C135.424 29.28 137.152 26.784 138.88 24.192C138.88 24.096 139.168 23.904 139.36 23.904C139.168 24.864 138.688 25.632 138.112 26.304C137.344 27.552 136.48 28.608 135.904 29.664C134.656 32.064 133.024 34.176 131.776 36.576L128.416 42.144C127.648 43.488 127.072 44.832 126.016 45.888C124.48 48.768 122.752 51.552 121.12 54.528C120.544 55.488 118.048 59.616 117.088 61.44L115.936 62.592C115.936 62.496 117.664 59.232 117.664 59.136V57.216ZM144.928 26.496C144.352 27.36 143.872 28.512 143.296 29.376C142.816 30.24 142.24 31.008 141.952 31.776C141.664 32.352 141.472 32.832 140.8 33.024C140.8 32.544 140.896 32.16 141.184 31.776C141.664 31.008 142.24 30.048 142.624 29.088C143.008 28.32 143.68 27.552 144.064 26.592C144.256 26.208 144.64 25.92 144.928 25.536C145.024 25.824 145.024 26.208 144.928 26.496ZM139.36 39.936L138.88 41.088C138.784 41.376 138.496 41.376 138.112 41.376C138.208 40.704 138.496 40.032 138.88 39.456V39.072C139.072 38.976 139.168 38.784 139.36 38.976C139.456 38.976 139.552 39.072 139.744 39.072C139.744 39.36 139.744 39.744 139.36 39.936ZM128.512 65.952C128.416 65.952 128.416 65.76 128.32 65.76C128.32 65.376 128.32 65.088 128.704 64.992C129.184 65.664 129.088 66.336 128.512 67.008C128.416 67.104 128.128 67.296 127.936 67.296C127.936 66.72 127.744 66.24 128.32 65.76C128.32 65.952 128.32 66.048 128.512 65.952ZM139.744 38.304H140.128C139.936 38.208 139.84 38.016 139.744 38.016C139.84 37.056 140.416 36.48 140.8 35.808C140.896 35.904 140.896 36.192 140.896 36.288C140.896 36.48 141.088 36.672 141.088 36.672C140.512 37.056 140.512 37.92 140.128 38.304C139.936 38.688 140.128 38.976 139.744 39.072V38.304ZM135.904 48.672H134.752C134.752 48.096 134.656 47.712 135.04 47.424C135.232 47.232 135.424 47.04 135.712 47.232C136 47.424 135.712 47.616 135.616 47.904C135.424 47.904 135.232 47.904 135.424 48.096C135.424 48.288 135.712 48.288 135.712 48.288C135.904 48.288 136 48.384 136.096 48.384C136 48.576 135.904 48.672 135.904 48.672ZM108.928 57.408C108.832 56.256 108.928 55.392 109.6 54.816C109.792 55.584 109.408 56.352 108.928 57.408ZM87.6158 59.424C87.4238 59.424 87.4238 59.52 87.3278 59.52L87.1358 59.424C87.3278 59.136 87.3278 58.848 87.3278 58.752C87.3278 58.464 86.7518 58.464 87.0398 58.272C87.0398 57.984 87.3278 57.984 87.6158 57.792C87.8078 58.368 88.0958 58.848 87.6158 59.424ZM120.736 57.024C120.544 56.352 120.544 55.68 121.408 55.392C121.408 56.064 121.408 56.736 120.736 57.024ZM111.232 50.496C111.232 50.016 111.136 49.632 110.848 49.152C110.656 48.768 110.656 48.576 111.136 48.288C111.232 48.576 111.328 48.96 111.328 49.152C111.52 49.728 111.616 50.112 111.232 50.496ZM134.752 50.88H135.04C134.944 51.168 134.752 51.36 134.656 50.88C134.56 51.072 134.272 51.168 134.176 51.168C133.984 51.168 133.984 51.36 133.888 51.168L133.696 51.072C134.176 50.688 133.888 50.016 134.368 49.728C134.272 50.208 134.56 50.496 134.752 50.88ZM136.48 50.016V49.824C136.288 49.344 135.712 49.728 135.328 49.44C135.328 49.728 135.232 50.016 135.232 50.112C135.232 50.208 135.328 50.208 135.424 50.208C135.712 50.4 136.384 50.112 136.48 50.016ZM127.072 69.888C127.264 70.176 127.36 70.464 127.456 70.752C127.456 70.848 127.36 71.136 127.36 71.232C127.264 71.232 127.072 71.136 126.976 71.136H126.688C126.784 70.752 126.592 70.176 127.072 69.888ZM139.36 23.808C139.456 23.136 139.744 22.656 140.416 22.368C140.416 23.04 139.936 23.52 139.36 23.808ZM111.52 47.712C111.52 48 111.328 48.096 111.232 48.288C111.232 47.904 111.136 47.424 111.232 47.232C111.232 46.56 111.232 46.56 111.904 46.656C111.712 47.04 111.616 47.328 111.52 47.712ZM107.392 68.448C107.392 68.16 107.392 67.776 107.008 67.68C107.104 67.488 107.2 67.392 107.392 67.392C107.488 67.392 107.68 67.68 107.68 67.776C107.776 68.16 107.68 68.736 107.68 69.12C107.392 69.024 107.392 68.736 107.392 68.448ZM112.864 43.584C112.864 43.776 112.576 43.872 112.384 43.968C111.904 43.872 112 43.584 112 43.488C112 43.2 112 42.912 112.192 43.104C112.384 43.2 112.864 43.2 112.864 43.584ZM100.864 35.616C100.96 35.136 101.152 34.56 101.632 34.176C101.632 34.848 101.632 35.424 100.864 35.616ZM110.464 52.416C110.272 52.224 109.984 52.128 109.984 51.936C110.176 51.552 109.792 51.168 110.464 50.88C110.464 51.36 110.176 51.84 110.656 51.936L110.464 52.416ZM133.6 53.184C133.504 53.28 133.504 53.568 133.216 53.28C132.832 52.896 132.832 52.608 133.216 52.128C133.216 52.416 133.216 52.608 133.6 52.8V53.184ZM106.528 71.808C106.432 71.616 106.336 71.52 106.336 71.424C106.144 70.944 106.336 70.56 106.336 69.792C106.72 70.752 106.528 71.232 106.528 71.808ZM107.2 66.72C107.104 66.72 107.104 66.624 107.104 66.624V66.432C107.2 66.048 107.68 66.048 107.872 65.952L108.064 66.048C108.064 66.336 107.488 66.72 107.2 66.72ZM96.7358 43.2C96.7358 42.72 96.8318 42.432 97.4078 42.144C97.4078 42.72 97.3118 43.104 96.7358 43.2ZM99.0398 39.072C99.0398 38.592 99.1358 38.208 99.7118 38.016C99.7118 38.592 99.5198 38.976 99.0398 39.072ZM102.496 32.544C102.496 32.064 102.592 31.68 103.168 31.488C103.168 32.064 102.976 32.448 102.496 32.544ZM126.688 46.272C126.784 45.696 126.976 45.504 127.456 45.216C127.456 45.696 127.36 46.176 126.688 46.272ZM107.776 23.52C107.68 24.096 107.488 24.48 107.008 24.576C107.008 24.096 107.2 23.712 107.776 23.52ZM109.6 58.08C109.504 58.272 109.504 58.464 109.216 58.368C109.12 58.272 108.928 58.272 108.832 58.08C108.832 58.08 108.832 57.984 108.736 57.792H109.6V58.08ZM136.384 46.272C136.288 46.368 136.096 46.656 136 46.656C135.904 46.656 135.712 46.56 135.616 46.368C135.712 45.984 136 45.888 136.384 45.984V46.272ZM125.344 73.92V74.016C125.248 74.4 124.96 74.976 125.632 75.264C125.632 74.88 125.536 74.4 125.536 74.016C125.536 73.92 125.536 73.92 125.344 73.92ZM110.464 50.88V50.112L110.56 50.016C110.656 50.016 110.656 50.112 110.848 50.208C110.848 50.4 110.944 50.4 111.136 50.496C110.944 50.88 110.656 50.88 110.464 50.88ZM110.464 18.912C110.464 18.336 110.656 17.952 111.136 17.856C111.136 18.336 110.848 18.624 110.464 18.912ZM111.904 14.784C111.712 14.688 111.616 14.4 111.52 14.496C111.328 14.496 111.232 14.688 111.232 14.784C111.136 15.072 111.232 15.36 111.52 15.456C111.52 15.168 111.52 14.88 111.904 14.784ZM91.2638 50.88L91.0718 50.688C90.8798 50.688 90.5918 50.784 90.5918 50.88V51.552C90.7838 51.552 90.8798 51.552 90.8798 51.744C90.8798 51.36 90.8798 51.072 91.2638 50.88ZM107.776 23.52V23.424C107.776 23.136 107.776 22.848 108.064 22.752C108.16 22.464 108.064 22.08 108.448 21.984C108.448 22.176 108.448 22.656 108.16 22.752C108.064 23.04 108.064 23.328 107.776 23.52ZM136.672 44.448V43.968C136.768 43.872 136.96 43.776 137.056 43.872C137.152 43.968 137.344 43.968 137.344 43.968C137.344 44.448 136.96 44.448 136.672 44.448ZM113.728 13.728C113.728 13.824 113.632 13.824 113.632 13.728C113.632 13.728 113.44 13.728 113.44 13.632C113.632 13.344 113.728 13.056 114.112 12.96C114.112 13.152 114.016 13.632 113.728 13.728ZM137.44 42.816C137.44 42.528 137.344 42.048 137.728 41.76C137.728 42.144 138.016 42.72 137.44 42.816ZM98.5598 39.936C98.5598 39.456 98.5598 39.264 99.0398 39.072C99.0398 39.36 99.0398 39.744 98.5598 39.936ZM141.952 34.464C141.856 34.56 141.664 34.56 141.568 34.56V34.176L141.856 33.888C141.952 34.08 142.144 34.176 142.144 34.272L141.952 34.464ZM109.984 17.088C110.176 16.896 110.272 16.8 110.272 16.608C110.272 16.608 110.176 16.512 109.984 16.512C109.888 16.608 109.792 16.8 109.792 16.896C109.6 16.896 109.792 17.088 109.792 17.184C109.888 17.184 109.984 17.184 109.984 17.088ZM116.128 18.528C116.128 18.528 116.32 18.528 116.32 18.336L116.416 18.528V19.2C116.416 19.2 116.32 19.296 116.32 19.392C116.32 19.296 116.128 19.2 116.128 19.2V18.528ZM106.144 73.344C106.048 73.536 105.952 73.536 105.76 73.632C105.952 73.248 105.952 72.864 105.952 72.192C106.048 72.576 106.144 72.672 106.144 72.864V73.344ZM102.016 33.408C102.016 33.12 101.92 32.736 102.304 32.544C102.496 33.024 102.304 33.216 102.016 33.408ZM94.0478 48.288C94.0478 47.904 94.0478 47.616 94.3358 47.424C94.5278 47.904 94.3358 48.096 94.0478 48.288ZM92.5118 50.88C92.5118 50.496 92.5118 50.208 92.8958 50.112C92.8958 50.496 92.8958 50.784 92.5118 50.88ZM100.48 36.48C100.48 36.192 100.48 35.808 100.864 35.616C100.864 36 100.864 36.288 100.48 36.48ZM136.288 45.216C136.288 44.832 136.288 44.544 136.672 44.448C136.672 44.832 136.672 45.12 136.288 45.216ZM121.792 55.392H121.408V55.2C121.504 55.008 121.504 54.912 121.6 54.912C121.792 55.008 121.888 55.2 122.08 55.2C121.888 55.296 121.792 55.392 121.792 55.392ZM97.4078 42.144C97.4078 41.856 97.4078 41.472 97.7918 41.376C97.7918 41.76 97.7918 42.048 97.4078 42.144ZM100.096 37.248C100.096 36.864 100.096 36.576 100.48 36.48C100.48 36.672 100.48 37.056 100.096 37.248ZM107.2 70.944C107.2 71.136 107.104 71.136 107.104 71.232C107.104 71.136 107.008 71.136 107.008 71.136V70.272C107.008 70.272 107.104 70.176 107.2 70.176V70.944ZM101.632 34.176C101.632 33.792 101.632 33.504 102.016 33.408C101.92 33.696 102.016 34.08 101.632 34.176ZM93.2798 49.344C93.2798 49.056 93.2798 48.768 93.5678 48.672C93.6638 48.96 93.6638 49.344 93.2798 49.344ZM120.448 57.6C120.448 57.696 120.16 57.696 120.16 57.696C120.064 57.696 120.064 57.408 120.064 57.408C120.352 57.312 120.448 57.12 120.544 57.024C120.544 57.312 120.448 57.408 120.448 57.6ZM114.976 64.224C114.976 63.936 114.976 63.648 115.36 63.552C115.36 63.84 115.36 64.032 114.976 64.224ZM97.7918 41.376C97.7918 41.088 97.7918 40.8 98.1758 40.704C98.1758 40.992 98.1758 41.184 97.7918 41.376ZM140.8 35.616C140.896 35.424 140.896 35.136 141.184 34.944V35.616H140.8ZM92.8958 50.112C92.8958 49.824 92.8958 49.632 93.2798 49.44C93.2798 49.728 93.2798 50.016 92.8958 50.112ZM86.6558 60.768C86.5598 60.48 86.3678 60.48 86.3678 60.384C86.5598 60.192 86.5598 60 86.6558 59.808C86.6558 60 86.7518 60.096 86.7518 60.192C86.7518 60.384 86.6558 60.48 86.6558 60.768ZM142.816 32.16C142.816 31.968 142.624 31.68 143.008 31.488C143.2 31.776 143.008 32.064 142.816 32.16ZM112.288 15.84C112.288 15.552 112.384 15.36 112.672 15.168C112.672 15.456 112.672 15.744 112.288 15.84ZM130.144 40.512C130.144 40.32 130.144 40.032 130.528 39.936C130.528 40.128 130.528 40.416 130.144 40.512ZM98.1758 40.512C98.1758 40.32 98.1758 40.032 98.5598 39.936C98.5598 40.128 98.5598 40.416 98.1758 40.512ZM96.3518 43.968C96.3518 43.776 96.3518 43.488 96.6398 43.392C96.7358 43.584 96.7358 43.872 96.3518 43.968ZM143.2 31.488C143.2 31.296 143.2 30.816 143.392 30.72C143.392 31.008 143.584 31.392 143.2 31.488ZM99.8078 37.92C99.8078 37.632 99.7118 37.344 100.096 37.248C100.096 37.536 100.096 37.728 99.8078 37.92ZM123.808 51.552H123.616L123.52 51.36C123.616 51.264 123.808 51.168 123.904 50.976C123.904 51.264 123.904 51.456 123.808 51.552ZM126.4 47.04C126.4 46.848 126.4 46.56 126.688 46.368C126.688 46.656 126.688 46.944 126.4 47.04ZM115.648 63.264C115.648 63.36 115.456 63.36 115.36 63.36V63.168C115.36 62.976 115.456 62.976 115.648 62.88V63.264ZM123.232 52.608C123.136 52.608 123.136 52.8 122.944 52.8V52.416C122.944 52.416 123.136 52.416 123.232 52.224V52.608ZM88.6718 57.696C88.6718 57.792 88.4798 57.792 88.3838 57.792V57.408H88.6718V57.696ZM113.92 66.816C113.92 66.624 113.728 66.336 114.112 66.24C114.112 66.432 114.112 66.72 113.92 66.816ZM126.976 72.864C126.784 72.864 126.784 72.672 126.784 72.672C126.784 72.576 126.784 72.48 126.688 72.288C126.784 72.288 126.976 72.48 127.072 72.576C127.072 72.576 126.976 72.672 126.976 72.864ZM109.216 20.736C109.216 20.544 109.408 20.256 109.6 20.064C109.504 20.352 109.6 20.64 109.216 20.736ZM112.96 40.704C112.96 40.8 112.864 40.8 112.864 40.8V40.032H112.96C112.96 40.128 112.96 40.32 113.056 40.416C112.96 40.512 112.96 40.704 112.96 40.704ZM112.672 41.76C112.576 41.76 112.576 41.664 112.384 41.472H112.864C112.864 41.664 112.672 41.76 112.672 41.76ZM122.272 54.24C122.272 54.144 122.176 54.144 122.176 54.144C122.272 53.952 122.272 53.856 122.272 53.664L122.464 53.856C122.464 53.952 122.464 54.144 122.272 54.24ZM130.432 66.336C130.24 66.432 130.24 66.432 130.144 66.624C130.144 66.624 130.24 66.72 130.432 66.72C130.432 66.624 130.432 66.624 130.528 66.432L130.432 66.336ZM108.544 59.136V58.752L108.736 58.656C108.736 58.752 108.832 58.848 108.832 58.848C108.736 59.04 108.736 59.04 108.544 59.136ZM114.784 64.704V64.896C114.688 64.704 114.688 64.608 114.688 64.608C114.688 64.512 114.784 64.32 114.976 64.32C114.976 64.512 114.976 64.608 114.784 64.704ZM127.744 44.928C127.744 45.12 127.648 45.12 127.456 45.216C127.456 45.12 127.456 44.928 127.648 44.832C127.648 44.832 127.648 44.64 127.744 44.64V44.928ZM115.84 56.544L116.032 56.352C116.032 56.256 116.032 56.064 115.84 56.064C115.84 56.064 115.84 56.256 115.744 56.352L115.84 56.544ZM95.7758 44.832C95.7758 44.928 95.7758 44.928 95.6798 45.12V44.64C95.6798 44.544 95.7758 44.544 95.9678 44.544C95.9678 44.544 95.9678 44.64 95.7758 44.832ZM141.088 21.696C141.088 21.792 140.896 21.792 140.896 21.984C140.896 21.792 140.8 21.696 140.896 21.6L141.088 21.408C141.088 21.6 141.184 21.6 141.088 21.696ZM139.744 38.304C139.552 38.304 139.456 38.208 139.456 38.208C139.456 38.016 139.552 38.016 139.744 38.016V38.304ZM114.4 65.952C114.4 65.952 114.304 66.048 114.112 66.048C114.112 65.952 114.112 65.952 114.304 65.76C114.304 65.664 114.304 65.664 114.4 65.568V65.952ZM106.816 67.968C106.816 68.064 106.816 68.16 106.72 68.16V67.968C106.72 67.776 106.816 67.776 107.008 67.68C107.008 67.776 107.008 67.968 106.816 67.968ZM108.544 60.768C108.544 60.864 108.736 60.864 108.736 61.056C108.736 60.864 108.832 60.768 108.832 60.768C108.832 60.576 108.736 60.576 108.736 60.576L108.544 60.768ZM112.288 13.632H112.672C112.576 13.44 112.576 13.44 112.384 13.344C112.384 13.44 112.384 13.44 112.288 13.632ZM126.304 72.672L126.208 72.864C126.208 72.672 126.112 72.576 126.016 72.576C126.208 72.48 126.304 72.288 126.304 72.288V72.672ZM123.616 93.024C123.616 93.12 123.52 93.216 123.52 93.312C123.424 93.216 123.328 93.12 123.328 93.024C123.328 93.024 123.52 93.024 123.52 92.928C123.52 93.024 123.616 93.024 123.616 93.024ZM128.512 43.584C128.512 43.776 128.416 43.776 128.416 43.872C128.416 43.776 128.32 43.584 128.416 43.488L128.512 43.392C128.512 43.488 128.704 43.488 128.512 43.584ZM126.592 73.536C126.592 73.536 126.592 73.632 126.688 73.632C126.592 73.728 126.592 73.92 126.592 73.92C126.592 73.92 126.4 73.92 126.4 73.728C126.4 73.728 126.592 73.632 126.592 73.536ZM134.56 52.128C134.656 52.416 134.56 52.416 134.368 52.416C134.368 52.224 134.368 52.224 134.56 52.128ZM105.76 74.016C105.76 74.112 105.664 74.208 105.664 74.208C105.568 74.112 105.472 74.016 105.664 74.016C105.664 73.92 105.664 73.92 105.76 73.824V74.016ZM113.728 67.296L113.632 67.392C113.632 67.296 113.44 67.296 113.632 67.104C113.632 67.008 113.728 67.008 113.728 67.008V67.296ZM141.568 34.944C141.664 34.944 141.664 34.944 141.856 35.136C141.568 35.232 141.568 35.136 141.568 34.944ZM142.528 33.696C142.528 33.504 142.336 33.504 142.336 33.408H142.624C142.624 33.504 142.624 33.504 142.528 33.696ZM132.832 56.256C132.928 56.064 132.928 55.968 132.928 55.968C133.216 56.256 133.024 56.256 132.832 56.256ZM95.9678 44.448C96.0638 44.256 96.2558 44.16 96.2558 44.16C96.2558 44.256 96.2558 44.448 95.9678 44.448ZM89.1518 55.584C89.1518 55.68 89.1518 55.68 89.0558 55.872C89.1518 55.872 89.4398 55.872 89.1518 55.584ZM110.176 19.2C109.984 19.008 110.176 18.912 110.272 18.912C110.272 19.008 110.272 19.2 110.176 19.2ZM91.1678 53.088C91.1678 53.088 91.0718 52.896 91.0718 52.8H91.2638C91.2638 52.896 91.1678 53.088 91.1678 53.088ZM130.72 39.648C130.816 39.936 130.72 39.84 130.528 39.936C130.624 39.744 130.72 39.648 130.72 39.648ZM143.584 30.72C143.584 30.624 143.68 30.624 143.68 30.432C143.68 30.624 143.872 30.624 143.872 30.72H143.584ZM122.752 89.184C122.848 89.184 122.848 89.28 122.848 89.472C122.848 89.472 122.848 89.568 122.752 89.568V89.184ZM134.56 53.856C134.656 53.664 134.656 53.664 134.656 53.568C134.56 53.568 134.368 53.568 134.56 53.856ZM141.568 34.848H141.28C141.28 34.848 141.472 34.752 141.568 34.56V34.848ZM126.976 76.608L126.784 76.416C126.784 76.608 126.688 76.8 126.976 76.608ZM136.288 45.216C136.096 45.312 136.096 45.312 136.096 45.504C135.904 45.216 136.096 45.216 136.288 45.216ZM137.824 41.76C138.016 41.664 138.016 41.472 138.112 41.472C138.112 41.664 138.016 41.76 137.824 41.76ZM137.152 42.912H137.344C137.344 42.912 137.344 43.104 137.152 43.104V42.912ZM128.512 70.464C128.416 70.464 128.416 70.464 128.32 70.272C128.32 70.464 128.32 70.752 128.512 70.464ZM92.3198 51.168C92.2238 50.88 92.3198 50.88 92.5118 50.88C92.3198 51.072 92.3198 51.072 92.3198 51.168ZM112.192 16.128C111.904 15.936 112.192 15.936 112.288 15.936C112.192 15.936 112.192 16.128 112.192 16.128ZM127.264 67.776C127.264 67.776 127.264 67.968 127.072 68.064C127.264 67.968 127.456 68.064 127.264 67.776ZM115.168 11.232C114.976 11.04 115.168 11.04 115.36 10.944C115.168 11.04 115.168 11.232 115.168 11.232ZM142.912 36.576C142.912 36.576 142.816 36.672 142.816 36.864C142.912 36.672 143.008 36.864 142.912 36.576ZM133.312 51.744C133.6 51.936 133.312 51.936 133.216 51.936C133.312 51.936 133.312 51.84 133.312 51.744ZM91.4557 52.8V52.512C91.6478 52.8 91.5518 52.8 91.4557 52.8ZM137.632 43.776C137.632 43.872 137.728 43.968 137.728 43.968H137.44C137.536 43.968 137.632 43.872 137.632 43.776ZM108.064 63.36C108.064 63.36 107.872 63.36 107.872 63.264C108.064 63.168 108.064 63.264 108.064 63.36ZM90.4958 51.936V51.744C90.4958 51.744 90.2078 51.744 90.4958 51.936ZM145.984 30.624V30.432L145.792 30.624H145.984ZM112.384 42.24H112.576L112.384 42.432V42.24ZM129.664 41.664H129.472L129.664 41.472V41.664ZM144.064 29.76H144.256V29.952L144.064 29.76ZM138.208 42.432L138.4 42.24V42.432H138.208ZM142.624 32.544C142.336 32.352 142.528 32.352 142.624 32.352V32.544ZM130.432 64.704L130.24 64.896C130.432 64.896 130.432 64.896 130.432 64.704ZM92.9918 47.328L93.1838 47.424C93.1838 47.328 93.1838 47.232 92.9918 47.328ZM140.8 21.984C140.608 22.08 140.512 22.176 140.512 22.176C140.512 22.08 140.512 21.984 140.8 21.984ZM110.848 51.936C110.848 51.936 110.848 51.84 110.944 51.84C111.136 51.936 110.944 51.936 110.848 51.936ZM93.9518 48.288C93.9518 48.384 93.8558 48.576 93.7598 48.672L93.9518 48.288ZM130.048 40.8C129.856 40.704 130.048 40.704 130.144 40.704L130.048 40.8ZM136.96 46.944C136.672 46.848 136.96 46.848 136.96 46.848V46.944ZM113.248 12.768H113.056L113.248 12.672V12.768ZM115.072 60.192H115.168L115.072 60.384V60.192ZM144.352 30.048C144.352 30.144 144.448 30.144 144.544 30.24C144.352 30.24 144.352 30.24 144.352 30.048ZM107.872 62.592V62.496H108.064L107.872 62.592ZM142.528 19.2V19.008L142.624 19.2H142.528ZM141.28 35.808H141.472C141.184 36 141.28 35.808 141.28 35.808ZM111.616 45.696H111.712V45.888L111.616 45.696ZM117.376 64.512H117.472V64.32L117.376 64.512ZM129.856 67.488H130.048V67.392L129.856 67.488ZM142.912 33.216C142.912 33.408 142.816 33.408 142.816 33.408C142.816 33.216 142.912 33.216 142.912 33.216ZM124.96 76.32H125.056L124.96 76.128V76.32ZM132.16 56.736L132.256 56.928V56.736H132.16ZM105.472 75.456L105.664 75.36V75.456H105.472ZM114.4 41.856H114.304L114.4 42.048V41.856ZM117.472 60.384L117.376 60.192H117.472V60.384ZM95.3918 45.888L95.2958 45.696H95.3918V45.888ZM124.288 79.392V79.2H124.192L124.288 79.392ZM144.544 29.088L144.352 28.992H144.544V29.088ZM122.752 53.088C122.752 52.896 122.752 52.896 122.848 52.896L122.752 53.088ZM115.456 10.752C115.456 10.944 115.456 10.944 115.36 10.944L115.456 10.752ZM112.192 13.824V13.728C112.096 13.728 112 13.728 112.192 13.824ZM112.864 15.072H112.672C112.768 15.072 112.768 15.072 112.864 14.976V15.072ZM111.616 16.896L111.712 16.8V16.896H111.616ZM124.192 50.784L124.288 50.688C124.288 50.784 124.288 50.784 124.192 50.784ZM111.232 17.664C111.232 17.664 111.232 17.568 111.328 17.568C111.328 17.568 111.328 17.664 111.232 17.664ZM117.472 56.064L117.376 55.968H117.472V56.064ZM94.5278 47.424C94.5278 47.328 94.5278 47.328 94.6238 47.328L94.5278 47.424ZM106.816 22.08H106.72V22.176L106.816 22.08ZM95.0078 46.656L94.9118 46.56H95.0078V46.656ZM114.304 12.768C114.304 12.768 114.304 12.672 114.4 12.672L114.304 12.768ZM128.8 43.2H128.704C128.704 43.2 128.8 43.2 128.8 43.104V43.2Z" fill="black"/>
</svg>
