<svg width="466" height="289" viewBox="0 0 466 289" fill="none" xmlns="http://www.w3.org/2000/svg">
<path d="M206.8 101.952C207.664 101.088 207.664 101.952 207.664 102.24C209.104 102.24 209.392 101.088 209.104 100.224C207.664 97.92 207.952 96.48 209.968 94.752C211.12 93.312 211.696 91.296 212.848 90.72C214 89.28 214.576 87.84 213.424 86.4C212.272 85.248 214 84.096 214.576 82.944C214.576 78.624 216.304 74.304 218.032 70.272C218.32 69.408 220.048 67.68 217.744 67.104C217.168 65.952 216.592 63.936 217.168 62.496C217.168 61.056 218.032 59.328 219.472 58.464C220.048 58.176 220.624 57.6 220.624 57.024C221.2 54.432 220.336 51.264 221.776 48.384C222.064 48.096 222.064 47.808 221.776 47.808C220.336 45.504 221.2 42.624 220.624 40.608C220.624 38.592 220.336 37.728 219.472 36.864C218.32 36.288 218.032 35.424 218.32 34.56C220.048 32.832 218.32 30.816 217.168 30.528C215.728 29.664 215.44 28.512 215.728 27.36C215.728 24.48 215.44 22.464 212.848 20.736C212.848 19.584 212.272 19.008 211.696 18.432C210.832 15.264 208.528 13.248 205.648 11.52C203.92 10.656 202.192 9.21598 200.464 8.352C199.024 6.912 196.72 6.33599 195.28 5.18398C193.552 3.16799 191.248 4.60799 189.52 3.16799C187.504 2.01599 185.2 3.16799 182.896 2.01599C180.88 3.16799 179.728 0.863989 178.288 1.43998C176.56 1.43998 174.256 0.863989 172.816 1.43998C170.512 2.88 168.208 0.863989 166.48 2.88H162.16C160.144 2.88 158.704 4.32 156.976 4.32C154.96 4.32 152.08 5.18398 149.776 6.04799C147.76 6.912 146.032 8.352 144.304 9.21598C143.728 9.21598 143.728 9.79199 143.728 9.79199C143.44 9.79199 143.44 10.08 143.44 10.08C143.728 10.08 144.304 10.656 144.88 10.656C147.184 10.656 148.912 8.352 151.216 8.352C153.232 8.352 154.96 6.33599 156.688 6.912C158.704 6.912 161.008 5.75999 162.736 5.75999C165.328 5.75999 167.632 4.32 169.648 4.32H185.776C185.776 4.32 186.352 4.32 186.352 4.60799L185.776 5.18398C182.032 5.18398 178.288 5.18398 174.256 5.75999C172.816 5.75999 171.376 5.75999 170.512 6.04799C167.056 7.48799 162.736 8.06398 158.704 9.21598C154.96 10.944 150.352 11.808 145.456 13.536C141.712 15.264 137.968 17.28 133.936 18.72C129.328 20.16 125.008 21.888 120.688 24.48C114.928 28.224 108.592 30.816 103.12 35.136C102.256 35.424 101.392 36.288 100.24 36.288C97.648 36.288 96.496 37.152 95.344 39.456C94.768 40.608 93.616 40.608 92.464 40.608C91.888 42.336 90.448 42.624 89.296 43.2C87.568 44.064 86.992 44.352 84.976 43.488C84.976 43.2 84.112 44.352 83.824 44.928C83.824 45.504 84.688 46.08 84.112 46.656C82.672 48.384 80.368 49.536 78.64 50.4C74.896 52.128 71.44 54.432 68.272 57.6C67.12 58.464 66.544 57.6 65.68 57.024C65.104 57.024 64.816 57.6 64.24 57.6C65.968 61.056 62.224 60.768 61.072 61.632C60.496 62.496 59.344 62.208 58.48 63.072C57.328 63.648 57.04 64.224 56.176 64.8C53.296 65.952 52.144 69.408 48.976 69.408C47.824 71.424 44.656 72.576 42.928 74.88C42.352 76.608 39.76 76.608 38.032 76.608C38.608 75.744 37.456 73.728 39.76 74.88C39.76 74.88 40.624 74.304 40.624 73.728V71.424C38.608 71.424 36.88 72.576 35.728 73.728C34.864 75.168 33.136 75.168 32.272 76.608C31.408 78.048 29.68 79.2 28.528 80.352C26.8 80.64 26.8 82.944 25.36 82.944C23.056 82.944 22.48 84.672 21.328 85.824L16.432 89.568C14.704 91.296 12.688 92.448 11.536 93.6C8.08 96.768 5.488 100.512 2.32 103.68C2.032 104.544 2.032 105.696 1.456 105.984C0.88 106.848 0.88 107.712 1.456 108.288C2.032 109.44 0.88 110.592 0.592 111.168V114.048C0.88 114.912 1.456 116.352 2.032 117.216C4.336 120.384 6.352 123.264 9.52 125.568C10.96 126.72 12.688 127.296 14.704 127.296C17.008 126.72 17.008 126.72 17.008 124.416C17.584 121.248 17.008 118.944 13.552 118.368C12.112 117.792 11.824 116.352 12.688 114.624C14.128 111.168 17.584 108.864 19.6 105.696C21.904 104.544 22.192 102.816 23.632 101.376C25.36 100.224 26.8 98.784 28.528 97.344C29.68 96.192 31.408 94.176 32.56 93.312C35.728 90.144 38.896 87.552 42.352 84.672C47.248 81.504 51.28 78.048 55.024 74.304C57.04 73.152 57.904 71.424 60.208 71.136C60.496 71.136 61.072 70.848 61.648 70.272C62.224 68.544 63.376 67.968 64.816 67.104C67.696 65.952 70.576 63.936 73.168 61.632C74.896 60.48 76.624 58.752 78.352 57.6C80.08 56.16 82.096 55.008 83.824 53.856C85.552 52.704 87.568 52.128 89.296 50.976C91.024 49.536 92.464 48.096 94.768 47.808C98.512 44.064 104.56 42.624 108.016 38.592C109.168 37.728 110.32 36.864 111.76 36.864C113.488 36.288 114.928 35.424 116.368 34.56C117.232 33.408 118.096 32.832 119.536 32.832L123.568 30.528C126.736 28.512 129.904 26.208 133.36 25.056C139.408 22.752 145.168 20.736 150.64 18.432C156.112 15.84 162.16 15.552 167.056 13.248C170.224 13.536 172.816 11.808 175.984 11.808H189.52C192.976 11.808 195.28 12.96 198.16 13.536C202.768 15.264 205.648 18.72 207.664 23.328L209.968 30.528C209.968 30.816 210.544 31.68 209.968 32.256C209.392 33.408 209.392 34.56 209.968 36C210.544 38.88 209.968 42.624 210.544 46.08C208.528 48.096 209.104 50.4 209.104 52.704C209.104 53.568 209.104 54.432 208.528 55.296C207.664 58.464 207.376 62.208 206.224 65.376C205.648 68.832 205.072 72 203.92 75.744C203.056 78.624 202.768 81.216 201.328 83.808C199.6 88.416 197.872 93.312 195.856 97.92C193.552 102.24 192.976 107.424 189.232 110.592C187.792 111.744 187.792 113.184 186.928 114.624C186.352 116.064 186.352 117.216 185.488 118.368C182.896 121.824 182.32 126.72 179.152 129.888C176.848 135.936 172.528 140.256 169.648 146.016C169.648 146.592 169.36 147.168 168.784 147.168C167.056 148.032 165.904 149.76 165.328 151.488L162.16 156.672C161.584 157.536 160.432 158.112 159.28 158.688C149.776 161.28 140.56 164.736 130.768 167.616C124.432 169.344 118.384 171.36 111.76 173.088C109.456 173.376 107.44 174.816 105.424 176.832C103.696 178.848 103.696 182.016 105.136 184.608C105.424 185.184 106.288 186.048 106.864 186.624C107.44 187.776 108.016 188.352 109.168 188.352C112.912 188.928 116.368 186.912 120.112 186.048C122.704 185.76 125.008 184.032 127.6 184.032C129.04 184.032 129.904 184.032 130.768 182.88C132.208 181.728 133.936 180.576 135.664 180.576C138.256 180.288 140.56 178.848 142.864 178.56C143.728 178.56 144.88 177.984 145.456 177.984C146.032 177.984 146.608 178.56 146.608 178.56V179.712C142.864 184.032 139.984 188.352 137.104 193.248L135.664 194.688C132.208 198.432 129.904 202.752 127.312 207.36L124.432 211.104C118.96 218.304 113.488 225.792 108.592 233.568C107.44 236.448 106.288 239.04 106.864 241.92C106.864 243.936 107.44 243.936 109.168 243.648C110.032 243.072 110.32 243.072 110.32 243.936C110.32 244.8 110.32 246.24 110.032 247.392C110.032 248.544 110.032 249.12 110.32 249.408C110.896 249.696 111.76 250.848 112.624 251.712C113.488 252.864 113.488 252.576 115.792 251.712C117.232 251.136 118.096 250.272 118.384 248.544C118.384 246.24 120.688 244.8 122.128 243.648C123.568 241.344 122.992 238.464 125.008 236.736C127.312 234.72 127.888 232.704 129.904 230.4C132.208 226.656 133.36 223.2 137.68 220.896C137.68 220.896 137.68 219.456 137.104 219.456C136.528 219.168 135.664 219.168 135.088 219.168C135.664 218.304 136.24 216.864 137.104 216C137.68 214.56 138.256 214.272 140.272 214.848C140.56 215.424 142 214.56 141.712 213.696C140.56 212.256 140.56 211.392 142 210.528C144.304 209.952 144.88 207.648 147.184 206.784C148.912 205.92 149.488 203.328 150.352 201.6C150.352 201.024 150.352 201.024 150.64 201.024C151.504 199.584 152.944 198.72 153.232 197.28C153.232 196.128 155.536 196.704 155.248 194.688C154.96 192.384 156.688 192.384 157.84 191.808C158.416 191.52 158.416 190.656 158.704 190.08C160.144 187.776 161.584 186.048 163.312 184.032C165.616 181.152 168.208 178.56 169.36 174.24C169.648 172.512 171.376 171.648 172.528 169.632C173.104 169.056 175.12 168.48 176.56 167.904C176.848 167.904 177.424 168.48 178.288 167.904C180.304 165.888 185.2 167.04 187.504 164.16C187.504 163.872 188.08 163.872 188.656 164.16C189.52 164.736 190.96 164.736 192.4 164.16C194.128 163.008 196.72 163.008 198.448 161.568C199.6 161.28 200.464 160.704 200.752 161.28C204.496 161.28 207.376 159.84 210.544 158.976C212.272 158.688 214.576 158.976 216.592 156.96C218.32 155.808 218.896 153.504 216.592 151.488C215.728 151.488 214.576 150.912 214.864 149.76C215.728 148.608 214.864 147.744 214 147.168C212.848 146.304 211.696 146.016 210.544 144.864C209.104 144 207.664 144 206.8 144C200.176 146.304 192.976 147.168 186.352 150.336H185.488C185.2 150.336 184.624 149.472 184.624 149.472L189.52 142.56C190.096 141.696 190.384 140.832 191.248 140.256C192.976 139.968 190.96 138.528 191.248 137.664C192.4 136.512 193.552 135.936 193.552 133.92C193.552 133.056 194.704 132.192 194.992 131.616C197.296 131.328 197.296 129.024 198.16 127.296C199.024 125.568 199.024 123.264 200.752 121.824C201.904 120.96 201.904 118.944 201.328 118.368C200.176 116.064 200.752 114.624 202.192 112.896C203.632 111.168 205.072 110.016 206.8 108.288C206.8 107.712 207.376 106.848 207.376 106.848C206.224 105.12 207.952 103.968 207.664 102.24C207.664 102.24 207.376 102.24 206.8 101.952ZM212.848 74.304C211.12 78.624 209.968 83.808 209.104 88.416C207.952 91.296 206.224 94.176 205.36 96.768C204.496 98.784 203.632 100.224 203.92 101.952C203.92 102.24 203.632 103.392 203.056 103.68C201.328 105.984 200.752 108.864 200.176 111.168C199.6 112.896 199.024 114.048 198.16 115.488C195.856 118.944 194.704 123.84 191.248 127.584C190.96 131.328 188.08 133.92 186.928 137.088C186.352 138.24 185.776 138.528 185.488 139.392C184.624 140.832 182.896 141.984 182.32 144C181.456 146.016 180.304 147.744 180.304 149.472C179.152 151.488 177.424 152.64 175.408 153.216C174.832 153.504 173.104 153.216 173.104 152.064C173.104 151.488 173.104 150.912 173.68 150.912C175.984 148.032 176.56 144.288 178.576 141.696C180.304 138.816 182.032 135.936 183.184 132.768C185.2 129.024 186.928 125.568 189.232 122.112C191.248 118.944 192.4 116.064 194.992 113.184C196.72 108.288 199.024 103.392 201.328 98.784L203.632 93.312C203.92 91.296 205.072 90.144 205.36 88.416C205.36 87.552 205.36 86.112 207.376 85.824C207.376 85.248 207.664 84.096 207.664 83.808C207.952 82.368 207.952 81.216 208.528 80.352C209.968 78.048 210.832 75.168 210.544 73.152C210.544 72.576 210.832 72 211.12 72H211.696C212.272 73.152 212.848 73.728 212.848 74.304ZM149.488 182.88C150.352 181.728 151.216 180.288 152.08 178.56C152.944 175.68 155.248 174.816 157.552 173.952C157.84 173.952 158.416 173.952 158.704 174.24C160.144 174.816 159.28 175.104 158.704 175.68C155.248 179.712 152.656 184.032 149.776 188.928C147.76 192.384 144.88 194.688 142.576 198.432C141.712 199.584 140.56 201.024 139.984 202.176C135.664 207.648 132.208 213.696 127.888 219.168C127.312 220.032 126.736 221.472 125.008 221.76V219.168C125.008 217.728 125.296 216.576 126.16 216C128.464 214.848 129.04 214.272 129.04 211.68C129.04 211.104 129.904 209.376 130.192 208.8C130.768 207.36 131.056 208.224 131.632 208.224C132.784 208.224 133.36 207.648 133.36 206.496C132.784 205.056 133.36 205.056 134.512 205.056C135.664 205.056 136.528 204.48 135.664 203.328C137.104 200.448 138.256 197.856 139.984 194.976C139.984 194.976 140.272 194.688 140.56 194.688C141.712 194.688 142.864 194.112 142.864 192.96C143.44 192.384 143.728 191.808 144.304 191.52C147.472 190.08 148.336 187.488 148.336 184.032L149.488 182.88ZM123.568 226.368C121.264 228.672 119.536 230.976 117.52 232.992C116.656 234.72 114.928 237.024 112.336 237.024C111.76 237.024 111.184 237.024 111.184 236.736V236.448L111.76 235.872C113.488 232.128 115.792 229.248 120.112 227.232C120.688 226.656 120.688 225.792 120.112 224.352C120.112 223.2 120.688 221.76 122.128 222.048C123.568 223.2 123.856 221.76 125.008 221.76C125.008 223.776 125.008 224.928 123.568 226.368ZM44.656 69.696C44.656 69.408 45.232 68.832 45.808 68.832C47.824 68.544 49.84 65.952 51.568 64.8C53.296 63.648 55.024 62.208 56.176 59.904H54.448C49.84 63.072 45.232 65.952 40.624 69.696V71.424C42.352 71.424 44.08 72 44.656 69.696ZM187.792 155.232C190.096 154.08 192.4 154.944 194.704 153.504C194.992 153.504 195.28 154.08 196.432 154.368C195.28 156.384 193.552 155.808 192.976 156.672C189.232 156.672 185.488 158.688 182.032 158.688C182.32 158.112 182.32 157.536 182.896 157.536C184.624 156.96 186.352 156.672 187.792 155.232ZM110.032 25.92C112.336 25.056 114.64 24.192 116.368 23.328C117.232 22.752 117.52 21.888 118.096 21.312C118.384 21.312 118.384 20.736 118.096 20.736L117.52 20.16C115.216 20.736 112.912 21.888 111.184 22.752C110.32 23.328 109.456 23.616 109.456 25.056C109.456 25.632 110.032 25.92 110.032 25.92ZM81.52 44.064C82.096 43.488 82.096 42.624 82.096 42.336C81.52 41.76 80.368 41.76 80.08 41.76C79.216 41.76 78.352 42.336 77.776 42.624C76.912 44.928 74.896 46.08 73.168 47.232C73.168 47.232 73.168 47.808 72.88 48.096C73.744 48.096 74.896 48.096 75.472 47.808C77.488 46.08 79.216 45.504 81.52 44.064ZM62.224 56.736V56.16L61.648 55.872C59.344 55.872 57.328 56.736 56.176 58.464V59.904C58.768 59.904 60.496 58.464 62.224 56.736ZM93.04 36.288L98.224 32.832V31.68C98.224 31.392 98.224 31.392 97.648 31.392H95.92C94.768 32.256 93.04 33.408 92.752 35.136V36L93.04 36.288ZM141.712 10.944V10.08C141.136 10.08 140.56 9.79199 140.56 9.79199C138.256 10.656 136.24 10.656 135.088 13.248C137.968 13.536 139.984 12.384 141.712 10.944ZM122.128 19.584C124.432 19.584 126.736 18.432 127.888 16.992L128.464 16.416L127.888 15.84C125.584 16.992 123.856 16.992 122.128 17.856C121.84 18.432 121.84 18.72 121.264 19.008C121.84 19.008 122.128 19.584 122.128 19.584ZM72.88 48.096C70 48.384 67.696 49.536 66.544 52.128C69.424 51.552 72.016 50.976 72.88 48.096ZM218.896 46.656C218.032 48.96 218.032 50.976 218.032 53.28C218.032 53.568 217.744 53.856 217.744 53.856C217.168 53.856 217.168 53.568 217.168 53.28C216.592 52.128 217.168 50.976 217.168 48.384V44.928C217.168 44.928 217.168 44.352 217.744 44.352L218.032 44.928C218.32 45.504 219.472 46.656 218.896 46.656ZM101.392 31.392C102.256 30.528 103.696 29.952 104.56 29.088C105.136 28.512 105.136 28.224 105.136 28.224C104.56 27.936 103.984 27.36 103.12 27.36C101.392 27.36 101.392 29.664 100.24 30.528L100.816 30.816L101.392 31.392ZM131.056 15.552C132.496 15.264 134.512 14.688 135.088 13.248H130.768C130.768 13.536 130.192 14.688 130.192 15.264C130.192 15.264 130.768 15.552 131.056 15.552ZM214 69.696V70.848C214 70.848 213.424 70.848 213.424 71.136C213.424 70.848 212.848 70.848 212.848 70.848V67.68C212.848 67.104 213.424 67.104 213.424 67.104C213.424 67.104 214 67.104 214 67.68C214.576 67.968 214 68.832 214 69.696ZM65.104 54.432C65.68 54.432 65.968 53.568 66.544 53.28V52.128H65.104C64.816 52.128 64.24 52.704 64.24 53.28C63.952 53.856 64.816 54.432 65.104 54.432ZM150.352 165.312H150.64C150.352 165.888 150.352 165.888 149.776 165.888C148.912 165.888 147.76 166.176 147.184 166.176C147.472 164.16 148.912 164.736 150.352 165.312ZM87.568 39.456C87.568 38.88 88.144 38.592 88.72 37.728L86.416 38.592C85.84 38.592 85.84 38.88 86.416 39.456C86.416 39.456 86.992 40.032 87.568 39.456ZM198.16 153.504V154.08C198.448 154.08 198.16 154.08 198.16 154.368H196.432C196.432 153.504 197.296 153.216 198.16 153.504ZM35.728 79.2C35.152 79.2 35.152 78.912 34.864 78.624C35.152 78.048 36.304 78.048 36.88 78.048C36.304 78.624 35.728 78.624 35.728 79.2ZM187.504 152.064L187.792 152.64C187.504 152.64 187.504 153.216 186.928 153.216C186.352 153.216 186.352 152.64 186.352 152.64C186.352 152.64 186.928 152.064 187.504 152.064ZM36.88 78.048C37.168 76.896 37.168 76.896 38.032 76.608C38.032 77.472 37.456 78.048 36.88 78.048ZM168.208 155.232C167.92 154.944 167.92 154.368 167.92 154.08L168.208 153.504C168.208 154.08 168.784 154.368 168.784 154.944C168.784 154.944 168.208 154.944 168.208 155.232ZM156.688 162.432C156.976 162.432 157.552 163.008 157.84 163.008C157.84 163.008 157.84 163.584 157.552 163.584C156.976 163.584 156.976 163.008 156.688 163.008V162.432ZM152.944 163.872H153.808C153.808 163.872 154.384 163.872 154.384 164.16C153.808 164.16 153.232 164.16 153.232 164.736C152.944 164.736 152.944 164.16 152.656 164.16C152.656 164.16 152.656 163.872 152.944 163.872ZM146.032 167.04C145.456 166.176 146.032 166.176 146.608 166.176C146.608 166.464 146.608 166.464 146.032 167.04ZM91.312 40.032C91.6 40.032 92.176 40.032 92.464 40.32C92.464 39.744 92.176 39.168 91.312 40.032ZM218.32 56.736C218.32 56.16 218.896 56.16 218.896 56.16C218.896 56.16 219.472 56.736 218.896 56.736C218.896 57.024 218.32 57.024 218.32 56.736ZM89.296 36.864C89.296 37.152 88.72 37.152 88.72 37.728C89.296 37.728 89.872 37.728 89.296 36.864ZM181.456 159.264C180.304 158.976 181.168 158.688 181.744 158.688C181.456 158.976 181.456 159.264 181.456 159.264ZM214.864 64.8C214.864 64.8 214.864 64.224 214.576 64.224C214.864 64.224 214.864 63.936 214.864 63.936C214.864 64.224 215.44 64.224 215.44 64.224L214.864 64.8ZM103.696 150.912L103.12 151.488H103.696C103.984 151.488 103.984 151.488 103.696 150.912ZM150.64 183.456C150.352 183.456 149.776 183.456 149.776 182.88C149.776 183.456 149.776 184.032 150.64 183.456ZM134.8 220.032C133.936 219.456 134.8 219.456 135.088 219.456C134.8 219.456 134.8 220.032 134.8 220.032ZM173.68 147.168C173.68 147.744 173.104 147.744 173.104 147.168H173.68ZM183.76 153.504C184.624 153.504 184.048 154.08 183.76 154.08V153.504ZM195.28 125.568V124.992L195.856 125.568H195.28ZM190.384 6.33599C190.096 6.33599 190.096 6.04799 190.096 6.04799L190.384 5.75999C190.384 6.04799 190.384 6.04799 190.96 6.04799C190.384 6.04799 190.384 6.33599 190.384 6.33599ZM30.832 82.368V82.08L31.408 82.368H30.832ZM195.28 149.472V149.76V149.472ZM388.431 194.976H387.279V191.808L384.111 194.976C384.111 193.536 384.111 191.808 384.975 190.08C385.551 188.352 385.551 185.76 386.415 183.744C386.415 183.456 386.991 183.168 387.279 182.592C387.279 183.456 387.279 184.32 388.431 184.608C388.431 185.472 388.431 186.336 388.143 186.624C387.279 188.352 387.279 189.792 387.279 191.52H388.431C388.719 191.808 388.719 192.096 389.295 192.096C389.295 192.672 389.583 192.096 390.159 192.096L389.583 191.808C389.295 191.52 388.719 191.52 388.431 191.52V189.792C388.719 188.928 388.719 188.64 389.583 188.352C391.599 187.488 391.599 187.488 391.311 185.76C390.735 184.608 390.735 183.456 390.735 182.592C390.447 183.168 390.159 183.456 389.583 183.744C389.295 184.32 388.719 184.32 388.431 184.608C388.431 183.744 388.431 182.592 387.279 182.304C387.279 181.152 388.143 180 388.431 179.136C389.583 177.408 390.159 177.408 391.887 179.136C390.159 179.136 390.159 179.424 390.447 180.576C390.735 181.44 390.735 181.728 390.735 182.304C392.463 181.44 391.887 180.288 391.887 179.136H393.903C394.479 178.56 394.767 178.56 395.343 178.272C395.631 177.408 394.767 177.12 394.479 176.544C394.479 175.968 394.479 175.104 394.767 174.816C395.919 174.24 396.783 173.376 397.071 172.8C398.511 170.784 398.799 167.904 400.815 166.176C401.103 166.176 401.103 164.736 400.527 164.448C399.951 164.448 399.087 164.448 398.799 164.736C398.511 165.6 397.935 166.752 397.647 164.736V163.008L396.495 163.872C395.919 165.024 395.919 165.888 395.631 167.04C395.343 167.904 395.631 168.192 396.495 168.768C396.495 170.208 396.495 172.224 394.479 172.8C392.751 173.088 392.463 173.952 392.463 175.392C392.463 175.968 391.599 176.256 391.311 176.256C390.735 176.544 390.159 176.256 390.159 175.968C389.583 175.104 390.159 174.24 390.159 173.376L390.735 169.92C390.447 170.208 390.159 170.208 390.159 170.208L385.551 181.152C384.111 186.912 382.095 192.96 379.791 199.008C379.791 199.296 379.215 199.872 379.791 200.16C379.791 200.448 379.791 201.312 380.079 201.888H381.807C381.807 203.904 380.943 206.208 381.807 208.224C381.807 209.088 380.943 209.376 379.215 209.664V204.192C376.911 206.496 376.911 209.664 376.047 212.544C375.759 212.832 376.047 213.408 376.047 214.272L377.775 213.408H378.063V216.576H376.911C376.623 216 376.623 215.712 376.047 215.712C375.759 215.712 374.895 216 374.895 216.576C374.895 217.728 374.895 218.88 375.183 219.744C375.759 221.184 376.623 222.912 376.911 224.64C376.911 225.216 377.199 226.08 376.047 226.368C375.759 226.368 375.183 226.08 374.895 226.08C374.895 228.096 374.031 229.824 373.743 231.552C373.167 233.568 373.167 233.568 372.015 232.128C372.015 231.552 371.727 232.128 371.727 232.416C371.439 233.28 371.439 234.72 371.727 235.296C374.031 237.312 372.015 239.328 372.015 241.344H371.727C371.439 241.344 370.575 240.768 370.575 241.632C370.575 241.92 371.439 242.496 371.439 242.784C372.015 243.648 371.727 245.664 370.863 245.952C370.863 245.952 370.575 245.088 369.999 245.088C369.999 244.8 369.711 244.8 369.711 244.8L369.423 245.088C369.423 247.104 370.575 249.12 369.999 251.712C369.999 252.288 370.863 254.304 368.559 253.728C368.559 254.016 367.983 254.88 367.983 255.168C369.711 256.896 367.695 258.912 368.847 260.352C368.847 260.64 367.983 261.504 367.983 262.368C367.983 262.656 368.559 262.656 368.559 262.656C367.983 263.232 367.983 262.656 367.983 262.368C366.255 262.656 367.407 264.672 365.679 265.248C365.679 261.504 365.391 258.048 366.543 254.304C366.831 253.728 366.543 252.864 366.543 251.712C366.543 244.512 367.983 237.312 369.711 230.112C370.575 226.944 370.863 223.776 371.727 220.608L376.047 203.328C376.047 203.04 376.047 202.464 376.623 202.464C378.351 195.84 380.943 188.928 383.247 182.592C384.111 180 385.551 177.408 386.127 174.816C386.991 170.784 388.431 167.04 390.159 163.584C392.463 157.824 394.767 152.64 396.783 147.168C397.935 143.712 399.663 139.968 401.103 136.8C404.271 130.176 407.151 123.552 410.319 117.216C412.623 112.896 415.215 108.576 417.231 104.256C417.519 102.528 418.383 101.376 419.247 100.224C419.535 99.648 419.823 99.36 420.399 99.072C420.399 100.224 420.399 101.376 419.823 102.24C419.247 104.544 417.807 106.56 416.655 108.576C415.503 110.88 414.639 113.76 413.487 116.064L411.183 120.96C408.015 126.144 405.135 131.904 403.119 137.952C400.815 144.288 397.935 150.336 395.343 156.672C393.615 159.84 392.463 163.584 390.735 167.04V169.92C393.327 167.904 393.903 165.024 395.343 162.72C395.919 160.704 395.919 160.704 397.647 162.432V162.72C398.511 162.432 399.087 161.856 399.663 160.992C399.951 160.416 399.951 159.264 398.799 158.4C399.087 157.248 399.951 157.248 400.815 157.248C400.815 158.4 401.103 159.264 402.255 159.552V160.704H403.119C403.695 160.704 403.695 160.416 403.695 160.416C403.695 159.84 403.695 159.84 403.119 159.552H402.255C402.831 157.824 403.983 156.384 404.271 154.656C404.847 154.08 404.271 152.64 403.119 152.64V150.336C402.255 150.048 401.967 149.472 401.103 149.184C401.103 148.032 400.527 146.88 402.255 146.016C404.271 147.168 406.287 147.456 407.439 146.304C408.015 145.728 408.303 144.288 407.439 143.712C407.151 143.136 407.151 142.848 408.015 142.272C408.303 142.272 409.167 142.272 409.455 141.984C410.319 141.696 410.319 141.12 409.167 139.968V137.952C409.167 137.088 409.455 136.8 410.319 136.8C410.319 137.088 410.031 137.664 410.319 137.664C410.319 137.952 410.895 138.528 410.895 138.528C410.895 138.528 411.183 137.952 411.183 137.664C411.183 137.088 410.895 137.088 410.319 136.8C410.895 136.512 410.895 135.936 411.183 135.648C412.047 135.648 412.335 135.648 412.623 135.36C413.199 135.36 413.199 134.784 413.199 134.496C413.199 133.92 412.623 133.92 412.623 133.92C411.183 133.92 411.471 132.768 411.471 131.904C412.047 131.904 412.335 131.616 412.623 131.616C413.487 131.616 414.639 131.904 415.215 130.752C415.215 129.6 416.079 128.736 416.367 127.584C417.231 126.432 416.655 125.568 416.079 124.416C416.079 124.416 416.367 124.128 416.367 123.552H417.231C417.519 124.128 417.807 124.416 417.807 124.416H419.247C419.247 122.976 420.687 121.536 419.247 120.096C418.671 119.808 418.383 118.944 419.247 118.368C420.687 118.368 421.551 117.792 421.839 116.352C422.991 114.048 424.431 112.032 426.447 110.592C425.871 110.016 425.007 109.728 425.583 109.44C425.871 108 426.447 106.848 427.023 105.696C428.175 104.256 429.615 102.528 429.903 100.224C429.903 99.648 430.191 99.072 430.767 98.496C433.359 97.344 433.359 95.04 433.935 93.024C433.071 91.872 434.223 91.008 434.799 89.856C435.375 87.84 437.391 86.688 438.543 84.672C440.271 82.08 441.423 79.488 442.575 76.896C443.439 75.744 444.591 75.456 445.167 74.592C445.455 73.44 445.455 72.576 446.607 72.576C446.895 72.576 447.471 72.288 447.471 71.712C446.895 69.984 448.911 69.12 448.911 67.392C448.911 66.528 450.351 66.24 450.639 65.376L454.671 59.04C456.975 55.008 459.279 50.688 461.871 46.656C464.175 42.624 465.903 38.304 464.175 33.984C464.175 33.696 464.175 33.12 464.463 32.832C465.327 31.104 464.463 29.952 463.311 29.664C461.007 28.512 458.991 26.784 456.111 26.496C454.671 25.92 452.079 25.92 450.927 24.48C449.775 24.48 448.911 23.904 448.335 23.328C446.895 22.464 445.455 23.328 444.303 22.752C443.439 22.176 442.575 22.464 441.711 23.328C441.135 24.48 439.983 25.344 439.119 26.496C437.391 29.088 435.951 31.968 434.223 35.136C432.207 38.88 429.903 42.336 427.599 46.08C422.703 51.84 419.247 58.752 414.639 65.088L410.031 72.288C408.303 75.168 406.287 77.472 404.847 80.352C402.255 83.808 400.815 87.84 398.511 91.296C395.631 96.192 392.463 101.088 389.295 105.696C387.567 108.576 385.551 111.744 384.111 114.912C382.095 118.08 380.079 121.248 378.063 124.992L369.999 137.664L366.255 143.712C364.239 148.896 361.071 153.504 358.191 157.824L356.463 160.416L353.871 166.464C350.703 167.04 343.791 180.288 344.367 179.424C343.503 181.44 341.199 182.592 341.199 184.608C341.199 185.472 340.335 186.336 339.759 186.912C337.743 189.792 336.591 193.536 334.863 196.704L331.407 203.904C328.815 207.36 325.647 210.528 324.207 214.56C323.631 216 322.479 217.44 321.039 217.728V218.88L320.463 219.456C320.463 219.456 320.175 218.88 320.463 218.592C320.463 218.016 321.039 218.016 321.039 217.728C319.599 216.576 319.311 216.576 319.023 217.728C319.023 218.592 318.447 219.456 318.447 219.456C317.295 219.456 318.159 218.592 317.583 217.728V215.712C321.327 215.424 321.327 215.424 321.327 212.256V207.36C321.615 207.072 322.191 207.072 322.191 206.496C322.479 202.176 324.207 198.144 323.343 193.824C322.479 194.112 322.191 194.976 321.327 195.264H320.463V191.808L321.039 192.096C322.767 192.672 322.191 190.944 322.479 190.656C322.767 190.656 323.343 190.944 323.343 191.808V193.824C323.631 193.824 324.207 193.536 324.207 193.536C326.511 190.656 325.359 187.488 326.511 184.608C326.799 183.744 326.799 182.304 326.799 181.44C326.799 181.152 326.511 180.576 326.511 180.576C326.223 181.152 325.647 181.152 325.647 181.152C325.359 183.456 324.783 185.472 324.207 188.352C322.767 185.472 322.191 183.168 322.479 180.576C322.479 180.288 322.479 179.136 323.343 179.424C324.783 180.288 325.647 177.408 327.375 178.56C328.815 177.408 327.951 175.968 328.527 174.816C329.391 172.8 329.391 171.072 329.679 169.056C329.679 168.768 329.391 167.904 329.391 167.616C328.527 167.04 327.951 166.752 327.951 165.888C327.951 165.024 327.663 164.448 326.799 164.448C327.375 163.584 327.375 162.432 327.663 162.432C328.527 161.568 329.391 160.704 329.391 159.552L329.679 159.264C329.967 159.552 329.967 159.84 329.967 159.84C329.967 160.992 329.967 161.856 329.679 162.72C328.815 164.448 329.391 165.888 329.391 167.616C330.831 165.888 331.407 163.872 331.695 161.568C331.695 158.688 332.559 156.384 333.999 154.08C334.575 153.504 333.999 152.64 333.999 152.064C333.711 150.624 333.711 149.184 334.575 147.456C334.863 147.168 335.727 146.304 335.727 145.728C335.151 141.984 336.879 139.104 337.743 135.648C338.319 132.48 339.759 128.736 339.759 125.28C339.759 124.992 340.047 124.416 340.047 124.128C341.199 120.96 342.063 117.216 342.351 113.76C342.927 111.168 343.215 108.576 344.079 106.272C344.943 102.816 346.383 100.224 346.383 97.056C347.535 95.04 347.247 93.024 348.111 91.008C348.687 89.28 348.399 87.264 350.703 86.976C350.415 85.536 350.127 83.808 350.127 82.08V81.504C352.143 78.336 352.143 74.304 352.431 70.56C353.295 66.528 354.447 62.784 355.599 59.04C355.887 57.888 355.887 56.448 356.463 54.72C357.615 50.688 357.615 46.368 358.767 42.336C360.495 37.44 361.935 32.256 361.647 27.072C361.647 25.344 361.935 23.616 361.935 21.6C361.935 20.16 361.647 18.432 361.071 16.416C360.495 12.096 357.039 8.92799 354.447 5.75999C352.431 3.74399 350.127 4.03198 348.111 4.03198C347.247 4.03198 346.383 3.16799 345.519 3.16799H342.927C342.063 3.16799 341.199 4.03198 340.911 4.89599C340.335 6.62398 340.335 8.06398 342.351 8.352C344.367 9.21598 345.231 10.368 345.519 12.384C346.383 15.264 346.959 18.432 345.231 21.312L342.351 25.92C340.911 28.512 339.183 30.816 339.759 33.984C340.335 34.272 340.335 34.848 339.183 35.136V34.272L338.319 35.136H339.183C338.895 36 338.895 36 338.319 35.136C337.743 35.712 336.879 36 336.591 36.288C335.727 37.152 336.015 38.016 337.167 38.304C336.879 39.456 336.879 40.32 336.015 40.896C335.727 42.336 335.151 43.488 333.711 44.352C333.711 45.216 333.711 46.08 332.559 46.656C331.983 47.232 330.831 47.808 330.831 48.384C331.407 49.824 330.543 51.264 329.679 51.84C326.799 54.72 325.647 58.176 323.631 61.632C323.343 61.92 323.631 62.784 323.343 63.36C324.207 63.36 324.783 63.072 325.647 62.784C325.647 64.224 324.783 65.088 323.343 65.952V63.36C322.767 63.936 322.479 63.936 322.479 63.936C320.463 67.104 318.447 70.272 317.007 73.44C316.431 73.728 316.431 74.592 316.431 75.168L319.023 73.728C318.447 76.608 317.007 78.624 315.855 80.928C315.279 81.504 314.991 81.792 314.415 81.792C314.127 82.944 314.127 83.808 313.263 84.096C312.975 84.96 312.975 86.112 312.111 86.688C312.111 85.824 312.111 84.672 312.975 84.096C313.263 83.52 313.263 82.08 314.127 81.792C314.991 80.64 315.279 79.488 315.855 78.336C316.143 76.896 316.431 76.32 316.431 75.168C315.279 75.456 314.415 76.608 314.127 77.76L307.791 88.992C307.791 89.28 307.791 90.144 307.503 91.008C308.655 91.008 308.943 89.856 309.807 88.992L310.959 87.84C310.671 91.008 308.943 92.448 307.503 94.176V91.008C306.639 91.872 305.775 92.16 305.487 93.024L302.895 97.632L289.071 124.416C288.495 124.992 288.207 125.28 287.919 126.144C286.191 129.6 283.311 132.768 281.871 136.8C281.007 138.816 280.143 141.12 277.839 142.272C277.839 144 276.687 145.728 275.823 146.88C275.535 147.456 274.671 148.032 274.383 148.032C272.367 148.32 272.655 148.32 273.519 150.048C274.383 150.624 273.519 152.064 272.367 152.64C271.791 153.504 272.367 154.656 271.215 155.232C271.215 156.384 270.639 157.248 270.639 158.4C268.335 159.552 268.047 162.72 266.607 164.736C266.607 164.736 267.183 165.024 267.471 165.6C268.047 165.6 268.335 165.888 268.335 165.888C267.471 167.616 267.183 169.056 265.167 169.92V167.616H264.015V166.752C264.015 166.176 263.439 165.888 263.439 165.6C263.151 165.888 263.151 166.176 263.151 166.752C262.863 166.752 263.151 167.04 263.151 167.616H264.015V169.92H265.167C265.167 170.784 265.167 171.36 264.015 171.936V169.92H263.151C263.151 169.056 262.863 168.192 262.863 167.616H261.999C261.135 167.904 261.135 168.192 261.135 168.768C261.423 169.056 261.423 169.632 261.999 169.92H262.863V172.224C262.287 172.224 261.423 172.8 260.847 173.088C261.135 171.936 261.423 171.072 261.423 169.92H260.271C258.255 172.224 256.815 174.816 255.087 177.12C253.071 180.576 251.055 184.32 248.751 187.776C243.855 194.688 238.671 201.312 233.487 208.224C231.759 211.392 229.167 214.56 226.575 216.864L221.967 222.048C220.815 223.2 214.191 228.384 213.039 229.824C209.295 231.552 205.839 232.416 202.095 233.568C200.943 234.144 199.791 234.432 198.927 235.584C198.063 236.16 198.063 236.736 198.927 237.6C200.655 238.752 202.671 239.904 204.975 238.752C205.839 238.464 206.991 238.464 207.855 238.464C213.327 238.176 218.223 236.16 222.543 233.28L227.151 230.112C231.183 227.808 234.063 224.64 236.943 221.184C239.247 218.016 241.551 214.848 244.431 211.68C246.447 209.088 248.751 206.496 250.767 203.328C252.783 199.872 255.663 196.992 256.239 192.96C256.239 192.672 256.815 191.808 257.103 191.808C259.119 190.656 259.407 188.928 260.847 186.912C261.423 185.472 262.863 183.744 264.015 181.728C265.455 179.424 267.471 177.408 268.623 175.104C270.639 171.36 271.791 167.904 274.383 164.448C275.535 163.008 274.959 160.704 276.687 159.552C277.839 158.4 278.127 155.808 279.855 154.656C281.871 152.64 282.735 150.336 283.023 147.456C284.175 142.848 287.343 139.68 289.071 135.36C289.359 133.92 291.087 133.632 291.087 131.904C290.511 130.464 292.527 129.6 292.527 128.16C293.103 126.144 294.543 124.416 295.407 122.976C297.135 120.096 298.575 117.216 300.303 114.624C302.319 110.592 303.471 105.696 306.927 102.24C307.503 101.664 307.503 101.376 307.791 100.512C308.079 97.632 310.095 95.904 311.247 93.312C313.263 90.144 315.279 86.976 316.431 83.808C318.159 80.352 321.327 77.76 322.191 74.304C322.479 73.152 323.343 72.576 323.631 71.712C324.495 71.136 325.359 70.272 325.647 69.408C325.647 67.392 326.799 65.376 327.951 64.8C329.967 63.072 329.967 60.768 331.983 59.904C333.999 56.736 337.167 53.856 338.895 50.4C340.335 47.232 342.351 44.352 345.231 40.32C345.231 42.048 345.231 42.624 344.943 43.488C343.503 49.536 342.351 55.872 341.199 61.92C339.183 71.424 337.167 80.64 334.863 90.144C332.559 99.36 330.543 109.44 327.663 118.368C327.375 120.96 327.375 123.552 326.511 126.144C324.495 132.768 322.767 139.68 322.191 146.88C321.039 154.656 318.447 162.432 317.007 170.208L313.263 187.776L309.231 208.512C308.943 210.816 308.655 213.696 308.079 216C306.927 220.896 306.063 225.792 306.063 230.976C306.063 232.416 306.063 234.144 305.775 235.296C304.911 237.6 306.063 239.328 307.503 241.344C307.791 241.632 308.655 241.344 308.655 240.768C308.943 239.904 309.231 239.616 310.095 240.48C310.671 240.768 310.671 241.344 310.959 241.92C312.111 244.512 314.127 245.664 317.007 245.088C317.295 245.088 318.159 244.8 318.447 244.512C318.447 241.92 321.327 240.48 322.479 238.464C324.783 234.144 328.527 229.824 330.831 224.928C333.711 219.744 337.167 214.848 340.047 209.376C341.775 206.496 343.503 203.904 344.367 200.16C344.367 199.296 345.519 199.008 346.383 198.72L345.231 201.888C345.231 202.176 345.519 202.176 345.519 202.176C345.519 202.464 346.095 202.176 346.095 202.176C347.535 201.312 347.535 200.16 346.383 198.72C347.247 195.264 348.111 193.248 350.415 190.368C350.991 190.08 351.279 190.08 351.279 189.216C352.719 187.776 360.495 175.392 361.071 174.816L366.255 165.6L369.711 159.552C371.439 156.384 373.743 153.504 375.183 150.336C376.047 148.896 376.911 147.168 378.063 145.728C380.079 143.712 380.079 140.832 382.095 138.816C385.263 135.36 386.991 130.464 389.583 126.144C393.615 120.96 396.783 114.912 399.951 108.864C401.103 106.56 403.119 104.832 404.271 102.528C405.999 99.36 408.015 96.192 410.319 93.024C412.335 90.72 414.063 87.84 415.503 84.96C416.079 84.096 416.367 83.52 417.231 82.656C419.247 80.64 420.399 78.336 421.839 75.744C423.567 72.576 425.583 69.984 427.599 67.104C429.903 64.224 432.207 61.056 434.223 57.888L437.391 52.704C438.543 51.552 439.407 49.824 440.559 48.672C441.135 47.808 441.423 47.52 441.711 46.656C442.287 46.656 443.151 46.368 443.439 46.656C443.727 46.656 444.303 47.52 444.303 47.808C443.439 49.248 443.151 50.4 442.287 51.552L432.783 69.12C430.767 72.576 428.751 76.608 426.735 80.64L418.383 95.328C416.655 98.496 415.215 102.24 413.487 105.696C413.199 106.56 413.199 107.424 412.335 108C410.031 111.168 408.303 115.2 406.863 118.944C405.711 121.536 404.847 124.416 403.119 127.296C401.103 130.464 399.951 134.496 398.511 137.952L393.615 148.896C391.887 153.216 390.447 157.536 388.431 161.856C386.991 165.024 386.127 167.904 384.975 171.072C384.399 171.936 384.399 173.088 384.111 174.24C381.231 182.304 378.351 190.08 375.759 198.72C373.167 206.208 370.863 214.272 369.423 222.624C368.559 225.792 367.407 228.384 366.831 231.552C366.831 236.448 365.391 240.768 365.679 245.088C365.679 245.952 365.679 246.816 365.391 247.68C364.527 249.984 364.527 252.288 364.527 254.88C364.527 261.504 363.663 268.416 365.679 274.752C365.391 280.224 368.559 284.256 371.727 288.288C371.727 288.576 372.591 288.576 372.879 288.576C372.879 288.288 373.167 288 372.879 287.424C372.591 285.12 370.863 282.24 372.015 279.36C372.591 278.784 372.015 277.92 371.727 277.056C371.727 276.768 371.727 276.192 371.439 275.616C371.439 273.6 371.727 271.872 372.591 269.856C372.879 268.416 371.439 266.4 372.015 264.384C372.591 263.232 372.591 262.08 372.591 260.64L373.167 252.864C373.743 249.696 375.183 245.952 375.183 242.784C375.183 239.616 376.911 236.448 376.623 232.992C377.199 232.128 376.623 230.112 378.063 229.248C378.063 226.944 378.063 224.064 379.791 222.048C380.367 220.608 380.367 218.88 380.943 217.44C381.231 215.424 381.807 213.696 381.807 212.256C381.807 211.68 382.383 211.392 382.959 210.816C382.959 209.376 382.383 207.36 384.399 206.496C386.415 205.632 386.415 204.48 385.551 203.04C385.263 202.176 385.263 201.312 385.551 201.024C387.567 200.16 387.279 198.72 387.279 197.28C386.127 196.128 386.127 196.128 387.279 194.976V197.28C388.431 196.992 388.431 195.84 388.431 194.976ZM311.823 228.384C311.823 229.824 311.247 230.976 310.959 231.552C310.671 232.992 308.943 233.568 308.943 233.28C308.943 232.416 308.655 231.552 308.943 230.976C309.231 228.384 309.231 225.792 309.807 223.2C310.671 218.016 311.823 212.832 312.399 207.648C312.399 206.496 313.263 205.344 312.975 204.192C312.975 201.888 313.839 199.296 314.415 196.992C314.991 194.112 316.143 191.808 316.431 188.928C317.295 181.44 319.023 174.24 321.039 167.616C321.615 165.024 321.615 163.008 321.615 160.704C322.191 156.384 323.631 152.064 324.783 147.456C325.647 144.864 325.359 141.984 326.511 139.104C327.663 136.8 327.951 134.496 327.951 131.616L329.967 124.992C329.967 124.128 331.407 122.976 331.407 122.112C331.407 118.08 332.847 114.912 333.711 111.168C334.575 108.576 335.151 105.696 335.727 102.528C336.591 100.512 336.879 98.208 337.167 96.192C337.167 95.328 337.167 94.464 337.743 93.888C340.047 86.976 340.911 79.488 342.927 72.288C343.503 69.408 344.367 66.528 345.231 63.36C345.231 63.072 344.943 61.92 346.095 62.208C346.095 62.208 346.095 63.072 346.383 63.36C346.095 64.224 346.095 65.088 346.095 65.952C344.367 73.728 342.351 81.504 341.199 88.992C339.759 97.344 336.879 105.408 335.727 113.184C335.151 116.928 333.999 120.096 333.135 123.264C332.559 128.448 331.695 133.344 329.967 138.528C328.527 144 327.663 149.472 326.223 155.232C324.207 163.008 322.479 171.072 321.039 179.136C320.175 183.744 319.311 188.64 318.159 193.536C317.007 198.144 316.431 202.464 315.279 207.36L312.975 221.76C312.111 224.064 312.111 226.08 311.823 228.384ZM350.991 171.648C350.991 170.496 351.279 169.632 351.855 169.056C351.855 168.768 352.143 168.768 352.719 168.768L351.855 169.92C351.855 170.208 352.143 170.784 352.143 171.072V175.104C354.159 171.648 356.175 168.192 357.615 164.736L360.207 160.992C361.647 158.4 364.239 155.232 365.391 152.064C366.543 149.472 367.695 147.456 368.847 145.728C369.711 144.288 370.575 143.136 370.863 141.984C372.015 138.528 375.759 135.936 376.911 132.48C379.215 129.6 380.943 126.432 382.959 122.976C384.975 119.232 386.991 115.776 389.295 112.608C392.751 106.848 396.495 101.376 399.663 95.328C404.271 87.84 409.455 80.352 414.639 72.576C414.639 72.288 415.503 71.712 416.079 71.712C415.503 74.592 414.063 76.896 412.335 78.912C410.031 82.656 407.439 85.824 405.711 88.992C401.967 96.192 397.071 102.528 393.327 109.728L383.247 126.432C380.943 130.464 379.215 134.496 376.047 137.664C371.439 146.304 366.255 154.656 361.359 163.584C359.631 166.464 352.143 178.848 349.263 184.32L345.807 187.776C345.807 187.488 350.991 177.696 350.991 177.408V171.648ZM432.783 79.488C431.055 82.08 429.615 85.536 427.887 88.128C426.447 90.72 424.719 93.024 423.855 95.328C422.991 97.056 422.415 98.496 420.399 99.072C420.399 97.632 420.687 96.48 421.551 95.328C422.991 93.024 424.719 90.144 425.871 87.264C427.023 84.96 429.039 82.656 430.191 79.776C430.767 78.624 431.919 77.76 432.783 76.608C433.071 77.472 433.071 78.624 432.783 79.488ZM416.079 119.808L414.639 123.264C414.351 124.128 413.487 124.128 412.335 124.128C412.623 122.112 413.487 120.096 414.639 118.368V117.216C415.215 116.928 415.503 116.352 416.079 116.928C416.367 116.928 416.655 117.216 417.231 117.216C417.231 118.08 417.231 119.232 416.079 119.808ZM383.535 197.856C383.247 197.856 383.247 197.28 382.959 197.28C382.959 196.128 382.959 195.264 384.111 194.976C385.551 196.992 385.263 199.008 383.535 201.024C383.247 201.312 382.383 201.888 381.807 201.888C381.807 200.16 381.231 198.72 382.959 197.28C382.959 197.856 382.959 198.144 383.535 197.856ZM417.231 114.912H418.383C417.807 114.624 417.519 114.048 417.231 114.048C417.519 111.168 419.247 109.44 420.399 107.424C420.687 107.712 420.687 108.576 420.687 108.864C420.687 109.44 421.263 110.016 421.263 110.016C419.535 111.168 419.535 113.76 418.383 114.912C417.807 116.064 418.383 116.928 417.231 117.216V114.912ZM405.711 146.016H402.255C402.255 144.288 401.967 143.136 403.119 142.272C403.695 141.696 404.271 141.12 405.135 141.696C405.999 142.272 405.135 142.848 404.847 143.712C404.271 143.712 403.695 143.712 404.271 144.288C404.271 144.864 405.135 144.864 405.135 144.864C405.711 144.864 405.999 145.152 406.287 145.152C405.999 145.728 405.711 146.016 405.711 146.016ZM324.783 172.224C324.495 168.768 324.783 166.176 326.799 164.448C327.375 166.752 326.223 169.056 324.783 172.224ZM260.847 178.272C260.271 178.272 260.271 178.56 259.983 178.56L259.407 178.272C259.983 177.408 259.983 176.544 259.983 176.256C259.983 175.392 258.255 175.392 259.119 174.816C259.119 173.952 259.983 173.952 260.847 173.376C261.423 175.104 262.287 176.544 260.847 178.272ZM360.207 171.072C359.631 169.056 359.631 167.04 362.223 166.176C362.223 168.192 362.223 170.208 360.207 171.072ZM331.695 151.488C331.695 150.048 331.407 148.896 330.543 147.456C329.967 146.304 329.967 145.728 331.407 144.864C331.695 145.728 331.983 146.88 331.983 147.456C332.559 149.184 332.847 150.336 331.695 151.488ZM402.255 152.64H403.119C402.831 153.504 402.255 154.08 401.967 152.64C401.679 153.216 400.815 153.504 400.527 153.504C399.951 153.504 399.951 154.08 399.663 153.504L399.087 153.216C400.527 152.064 399.663 150.048 401.103 149.184C400.815 150.624 401.679 151.488 402.255 152.64ZM407.439 150.048V149.472C406.863 148.032 405.135 149.184 403.983 148.32C403.983 149.184 403.695 150.048 403.695 150.336C403.695 150.624 403.983 150.624 404.271 150.624C405.135 151.2 407.151 150.336 407.439 150.048ZM379.215 209.664C379.791 210.528 380.079 211.392 380.367 212.256C380.367 212.544 380.079 213.408 380.079 213.696C379.791 213.696 379.215 213.408 378.927 213.408H378.063C378.351 212.256 377.775 210.528 379.215 209.664ZM416.079 71.424C416.367 69.408 417.231 67.968 419.247 67.104C419.247 69.12 417.807 70.56 416.079 71.424ZM332.559 143.136C332.559 144 331.983 144.288 331.695 144.864C331.695 143.712 331.407 142.272 331.695 141.696C331.695 139.68 331.695 139.68 333.711 139.968C333.135 141.12 332.847 141.984 332.559 143.136ZM320.175 205.344C320.175 204.48 320.175 203.328 319.023 203.04C319.311 202.464 319.599 202.176 320.175 202.176C320.463 202.176 321.039 203.04 321.039 203.328C321.327 204.48 321.039 206.208 321.039 207.36C320.175 207.072 320.175 206.208 320.175 205.344ZM336.591 130.752C336.591 131.328 335.727 131.616 335.151 131.904C333.711 131.616 333.999 130.752 333.999 130.464C333.999 129.6 333.999 128.736 334.575 129.312C335.151 129.6 336.591 129.6 336.591 130.752ZM300.591 106.848C300.879 105.408 301.455 103.68 302.895 102.528C302.895 104.544 302.895 106.272 300.591 106.848ZM329.391 157.248C328.815 156.672 327.951 156.384 327.951 155.808C328.527 154.656 327.375 153.504 329.391 152.64C329.391 154.08 328.527 155.52 329.967 155.808L329.391 157.248ZM398.799 159.552C398.511 159.84 398.511 160.704 397.647 159.84C396.495 158.688 396.495 157.824 397.647 156.384C397.647 157.248 397.647 157.824 398.799 158.4V159.552ZM317.583 215.424C317.295 214.848 317.007 214.56 317.007 214.272C316.431 212.832 317.007 211.68 317.007 209.376C318.159 212.256 317.583 213.696 317.583 215.424ZM319.599 200.16C319.311 200.16 319.311 199.872 319.311 199.872V199.296C319.599 198.144 321.039 198.144 321.615 197.856L322.191 198.144C322.191 199.008 320.463 200.16 319.599 200.16ZM288.207 129.6C288.207 128.16 288.495 127.296 290.223 126.432C290.223 128.16 289.935 129.312 288.207 129.6ZM295.119 117.216C295.119 115.776 295.407 114.624 297.135 114.048C297.135 115.776 296.559 116.928 295.119 117.216ZM305.487 97.632C305.487 96.192 305.775 95.04 307.503 94.464C307.503 96.192 306.927 97.344 305.487 97.632ZM378.063 138.816C378.351 137.088 378.927 136.512 380.367 135.648C380.367 137.088 380.079 138.528 378.063 138.816ZM321.327 70.56C321.039 72.288 320.463 73.44 319.023 73.728C319.023 72.288 319.599 71.136 321.327 70.56ZM326.799 174.24C326.511 174.816 326.511 175.392 325.647 175.104C325.359 174.816 324.783 174.816 324.495 174.24C324.495 174.24 324.495 173.952 324.207 173.376H326.799V174.24ZM407.151 138.816C406.863 139.104 406.287 139.968 405.999 139.968C405.711 139.968 405.135 139.68 404.847 139.104C405.135 137.952 405.999 137.664 407.151 137.952V138.816ZM374.031 221.76V222.048C373.743 223.2 372.879 224.928 374.895 225.792C374.895 224.64 374.607 223.2 374.607 222.048C374.607 221.76 374.607 221.76 374.031 221.76ZM329.391 152.64V150.336L329.679 150.048C329.967 150.048 329.967 150.336 330.543 150.624C330.543 151.2 330.831 151.2 331.407 151.488C330.831 152.64 329.967 152.64 329.391 152.64ZM329.391 56.736C329.391 55.008 329.967 53.856 331.407 53.568C331.407 55.008 330.543 55.872 329.391 56.736ZM333.711 44.352C333.135 44.064 332.847 43.2 332.559 43.488C331.983 43.488 331.695 44.064 331.695 44.352C331.407 45.216 331.695 46.08 332.559 46.368C332.559 45.504 332.559 44.64 333.711 44.352ZM271.791 152.64L271.215 152.064C270.639 152.064 269.775 152.352 269.775 152.64V154.656C270.351 154.656 270.639 154.656 270.639 155.232C270.639 154.08 270.639 153.216 271.791 152.64ZM321.327 70.56V70.272C321.327 69.408 321.327 68.544 322.191 68.256C322.479 67.392 322.191 66.24 323.343 65.952C323.343 66.528 323.343 67.968 322.479 68.256C322.191 69.12 322.191 69.984 321.327 70.56ZM408.015 133.344V131.904C408.303 131.616 408.879 131.328 409.167 131.616C409.455 131.904 410.031 131.904 410.031 131.904C410.031 133.344 408.879 133.344 408.015 133.344ZM339.183 41.184C339.183 41.472 338.895 41.472 338.895 41.184C338.895 41.184 338.319 41.184 338.319 40.896C338.895 40.032 339.183 39.168 340.335 38.88C340.335 39.456 340.047 40.896 339.183 41.184ZM410.319 128.448C410.319 127.584 410.031 126.144 411.183 125.28C411.183 126.432 412.047 128.16 410.319 128.448ZM293.679 119.808C293.679 118.368 293.679 117.792 295.119 117.216C295.119 118.08 295.119 119.232 293.679 119.808ZM423.855 103.392C423.567 103.68 422.991 103.68 422.703 103.68V102.528L423.567 101.664C423.855 102.24 424.431 102.528 424.431 102.816L423.855 103.392ZM327.951 51.264C328.527 50.688 328.815 50.4 328.815 49.824C328.815 49.824 328.527 49.536 327.951 49.536C327.663 49.824 327.375 50.4 327.375 50.688C326.799 50.688 327.375 51.264 327.375 51.552C327.663 51.552 327.951 51.552 327.951 51.264ZM346.383 55.584C346.383 55.584 346.959 55.584 346.959 55.008L347.247 55.584V57.6C347.247 57.6 346.959 57.888 346.959 58.176C346.959 57.888 346.383 57.6 346.383 57.6V55.584ZM316.431 220.032C316.143 220.608 315.855 220.608 315.279 220.896C315.855 219.744 315.855 218.592 315.855 216.576C316.143 217.728 316.431 218.016 316.431 218.592V220.032ZM304.047 100.224C304.047 99.36 303.759 98.208 304.911 97.632C305.487 99.072 304.911 99.648 304.047 100.224ZM280.143 144.864C280.143 143.712 280.143 142.848 281.007 142.272C281.583 143.712 281.007 144.288 280.143 144.864ZM275.535 152.64C275.535 151.488 275.535 150.624 276.687 150.336C276.687 151.488 276.687 152.352 275.535 152.64ZM299.439 109.44C299.439 108.576 299.439 107.424 300.591 106.848C300.591 108 300.591 108.864 299.439 109.44ZM406.863 135.648C406.863 134.496 406.863 133.632 408.015 133.344C408.015 134.496 408.015 135.36 406.863 135.648ZM363.375 166.176H362.223V165.6C362.511 165.024 362.511 164.736 362.799 164.736C363.375 165.024 363.663 165.6 364.239 165.6C363.663 165.888 363.375 166.176 363.375 166.176ZM290.223 126.432C290.223 125.568 290.223 124.416 291.375 124.128C291.375 125.28 291.375 126.144 290.223 126.432ZM298.287 111.744C298.287 110.592 298.287 109.728 299.439 109.44C299.439 110.016 299.439 111.168 298.287 111.744ZM319.599 212.832C319.599 213.408 319.311 213.408 319.311 213.696C319.311 213.408 319.023 213.408 319.023 213.408V210.816C319.023 210.816 319.311 210.528 319.599 210.528V212.832ZM302.895 102.528C302.895 101.376 302.895 100.512 304.047 100.224C303.759 101.088 304.047 102.24 302.895 102.528ZM277.839 148.032C277.839 147.168 277.839 146.304 278.703 146.016C278.991 146.88 278.991 148.032 277.839 148.032ZM359.343 172.8C359.343 173.088 358.479 173.088 358.479 173.088C358.191 173.088 358.191 172.224 358.191 172.224C359.055 171.936 359.343 171.36 359.631 171.072C359.631 171.936 359.343 172.224 359.343 172.8ZM342.927 192.672C342.927 191.808 342.927 190.944 344.079 190.656C344.079 191.52 344.079 192.096 342.927 192.672ZM291.375 124.128C291.375 123.264 291.375 122.4 292.527 122.112C292.527 122.976 292.527 123.552 291.375 124.128ZM420.399 106.848C420.687 106.272 420.687 105.408 421.551 104.832V106.848H420.399ZM276.687 150.336C276.687 149.472 276.687 148.896 277.839 148.32C277.839 149.184 277.839 150.048 276.687 150.336ZM257.967 182.304C257.679 181.44 257.103 181.44 257.103 181.152C257.679 180.576 257.679 180 257.967 179.424C257.967 180 258.255 180.288 258.255 180.576C258.255 181.152 257.967 181.44 257.967 182.304ZM426.447 96.48C426.447 95.904 425.871 95.04 427.023 94.464C427.599 95.328 427.023 96.192 426.447 96.48ZM334.863 47.52C334.863 46.656 335.151 46.08 336.015 45.504C336.015 46.368 336.015 47.232 334.863 47.52ZM388.431 121.536C388.431 120.96 388.431 120.096 389.583 119.808C389.583 120.384 389.583 121.248 388.431 121.536ZM292.527 121.536C292.527 120.96 292.527 120.096 293.679 119.808C293.679 120.384 293.679 121.248 292.527 121.536ZM287.055 131.904C287.055 131.328 287.055 130.464 287.919 130.176C288.207 130.752 288.207 131.616 287.055 131.904ZM427.599 94.464C427.599 93.888 427.599 92.448 428.175 92.16C428.175 93.024 428.751 94.176 427.599 94.464ZM297.423 113.76C297.423 112.896 297.135 112.032 298.287 111.744C298.287 112.608 298.287 113.184 297.423 113.76ZM369.423 154.656H368.847L368.559 154.08C368.847 153.792 369.423 153.504 369.711 152.928C369.711 153.792 369.711 154.368 369.423 154.656ZM377.199 141.12C377.199 140.544 377.199 139.68 378.063 139.104C378.063 139.968 378.063 140.832 377.199 141.12ZM344.943 189.792C344.943 190.08 344.367 190.08 344.079 190.08V189.504C344.079 188.928 344.367 188.928 344.943 188.64V189.792ZM367.695 157.824C367.407 157.824 367.407 158.4 366.831 158.4V157.248C366.831 157.248 367.407 157.248 367.695 156.672V157.824ZM264.015 173.088C264.015 173.376 263.439 173.376 263.151 173.376V172.224H264.015V173.088ZM339.759 200.448C339.759 199.872 339.183 199.008 340.335 198.72C340.335 199.296 340.335 200.16 339.759 200.448ZM378.927 218.592C378.351 218.592 378.351 218.016 378.351 218.016C378.351 217.728 378.351 217.44 378.063 216.864C378.351 216.864 378.927 217.44 379.215 217.728C379.215 217.728 378.927 218.016 378.927 218.592ZM325.647 62.208C325.647 61.632 326.223 60.768 326.799 60.192C326.511 61.056 326.799 61.92 325.647 62.208ZM336.879 122.112C336.879 122.4 336.591 122.4 336.591 122.4V120.096H336.879C336.879 120.384 336.879 120.96 337.167 121.248C336.879 121.536 336.879 122.112 336.879 122.112ZM336.015 125.28C335.727 125.28 335.727 124.992 335.151 124.416H336.591C336.591 124.992 336.015 125.28 336.015 125.28ZM364.815 162.72C364.815 162.432 364.527 162.432 364.527 162.432C364.815 161.856 364.815 161.568 364.815 160.992L365.391 161.568C365.391 161.856 365.391 162.432 364.815 162.72ZM389.295 199.008C388.719 199.296 388.719 199.296 388.431 199.872C388.431 199.872 388.719 200.16 389.295 200.16C389.295 199.872 389.295 199.872 389.583 199.296L389.295 199.008ZM323.631 177.408V176.256L324.207 175.968C324.207 176.256 324.495 176.544 324.495 176.544C324.207 177.12 324.207 177.12 323.631 177.408ZM342.351 194.112V194.688C342.063 194.112 342.063 193.824 342.063 193.824C342.063 193.536 342.351 192.96 342.927 192.96C342.927 193.536 342.927 193.824 342.351 194.112ZM381.231 134.784C381.231 135.36 380.943 135.36 380.367 135.648C380.367 135.36 380.367 134.784 380.943 134.496C380.943 134.496 380.943 133.92 381.231 133.92V134.784ZM345.519 169.632L346.095 169.056C346.095 168.768 346.095 168.192 345.519 168.192C345.519 168.192 345.519 168.768 345.231 169.056L345.519 169.632ZM285.327 134.496C285.327 134.784 285.327 134.784 285.039 135.36V133.92C285.039 133.632 285.327 133.632 285.903 133.632C285.903 133.632 285.903 133.92 285.327 134.496ZM421.263 65.088C421.263 65.376 420.687 65.376 420.687 65.952C420.687 65.376 420.399 65.088 420.687 64.8L421.263 64.224C421.263 64.8 421.551 64.8 421.263 65.088ZM417.231 114.912C416.655 114.912 416.367 114.624 416.367 114.624C416.367 114.048 416.655 114.048 417.231 114.048V114.912ZM341.199 197.856C341.199 197.856 340.911 198.144 340.335 198.144C340.335 197.856 340.335 197.856 340.911 197.28C340.911 196.992 340.911 196.992 341.199 196.704V197.856ZM318.447 203.904C318.447 204.192 318.447 204.48 318.159 204.48V203.904C318.159 203.328 318.447 203.328 319.023 203.04C319.023 203.328 319.023 203.904 318.447 203.904ZM323.631 182.304C323.631 182.592 324.207 182.592 324.207 183.168C324.207 182.592 324.495 182.304 324.495 182.304C324.495 181.728 324.207 181.728 324.207 181.728L323.631 182.304ZM334.863 40.896H336.015C335.727 40.32 335.727 40.32 335.151 40.032C335.151 40.32 335.151 40.32 334.863 40.896ZM376.911 218.016L376.623 218.592C376.623 218.016 376.335 217.728 376.047 217.728C376.623 217.44 376.911 216.864 376.911 216.864V218.016ZM368.847 279.072C368.847 279.36 368.559 279.648 368.559 279.936C368.271 279.648 367.983 279.36 367.983 279.072C367.983 279.072 368.559 279.072 368.559 278.784C368.559 279.072 368.847 279.072 368.847 279.072ZM383.535 130.752C383.535 131.328 383.247 131.328 383.247 131.616C383.247 131.328 382.959 130.752 383.247 130.464L383.535 130.176C383.535 130.464 384.111 130.464 383.535 130.752ZM377.775 220.608C377.775 220.608 377.775 220.896 378.063 220.896C377.775 221.184 377.775 221.76 377.775 221.76C377.775 221.76 377.199 221.76 377.199 221.184C377.199 221.184 377.775 220.896 377.775 220.608ZM401.679 156.384C401.967 157.248 401.679 157.248 401.103 157.248C401.103 156.672 401.103 156.672 401.679 156.384ZM315.279 222.048C315.279 222.336 314.991 222.624 314.991 222.624C314.703 222.336 314.415 222.048 314.991 222.048C314.991 221.76 314.991 221.76 315.279 221.472V222.048ZM339.183 201.888L338.895 202.176C338.895 201.888 338.319 201.888 338.895 201.312C338.895 201.024 339.183 201.024 339.183 201.024V201.888ZM422.703 104.832C422.991 104.832 422.991 104.832 423.567 105.408C422.703 105.696 422.703 105.408 422.703 104.832ZM425.583 101.088C425.583 100.512 425.007 100.512 425.007 100.224H425.871C425.871 100.512 425.871 100.512 425.583 101.088ZM396.495 168.768C396.783 168.192 396.783 167.904 396.783 167.904C397.647 168.768 397.071 168.768 396.495 168.768ZM285.903 133.344C286.191 132.768 286.767 132.48 286.767 132.48C286.767 132.768 286.767 133.344 285.903 133.344ZM265.455 166.752C265.455 167.04 265.455 167.04 265.167 167.616C265.455 167.616 266.319 167.616 265.455 166.752ZM328.527 57.6C327.951 57.024 328.527 56.736 328.815 56.736C328.815 57.024 328.815 57.6 328.527 57.6ZM271.503 159.264C271.503 159.264 271.215 158.688 271.215 158.4H271.791C271.791 158.688 271.503 159.264 271.503 159.264ZM390.159 118.944C390.447 119.808 390.159 119.52 389.583 119.808C389.871 119.232 390.159 118.944 390.159 118.944ZM428.751 92.16C428.751 91.872 429.039 91.872 429.039 91.296C429.039 91.872 429.615 91.872 429.615 92.16H428.751ZM366.255 267.552C366.543 267.552 366.543 267.84 366.543 268.416C366.543 268.416 366.543 268.704 366.255 268.704V267.552ZM401.679 161.568C401.967 160.992 401.967 160.992 401.967 160.704C401.679 160.704 401.103 160.704 401.679 161.568ZM422.703 104.544H421.839C421.839 104.544 422.415 104.256 422.703 103.68V104.544ZM378.927 229.824L378.351 229.248C378.351 229.824 378.063 230.4 378.927 229.824ZM406.863 135.648C406.287 135.936 406.287 135.936 406.287 136.512C405.711 135.648 406.287 135.648 406.863 135.648ZM411.471 125.28C412.047 124.992 412.047 124.416 412.335 124.416C412.335 124.992 412.047 125.28 411.471 125.28ZM409.455 128.736H410.031C410.031 128.736 410.031 129.312 409.455 129.312V128.736ZM383.535 211.392C383.247 211.392 383.247 211.392 382.959 210.816C382.959 211.392 382.959 212.256 383.535 211.392ZM274.959 153.504C274.671 152.64 274.959 152.64 275.535 152.64C274.959 153.216 274.959 153.216 274.959 153.504ZM334.575 48.384C333.711 47.808 334.575 47.808 334.863 47.808C334.575 47.808 334.575 48.384 334.575 48.384ZM379.791 203.328C379.791 203.328 379.791 203.904 379.215 204.192C379.791 203.904 380.367 204.192 379.791 203.328ZM343.503 33.696C342.927 33.12 343.503 33.12 344.079 32.832C343.503 33.12 343.503 33.696 343.503 33.696ZM426.735 109.728C426.735 109.728 426.447 110.016 426.447 110.592C426.735 110.016 427.023 110.592 426.735 109.728ZM397.935 155.232C398.799 155.808 397.935 155.808 397.647 155.808C397.935 155.808 397.935 155.52 397.935 155.232ZM272.367 158.4V157.536C272.943 158.4 272.655 158.4 272.367 158.4ZM410.895 131.328C410.895 131.616 411.183 131.904 411.183 131.904H410.319C410.607 131.904 410.895 131.616 410.895 131.328ZM322.191 190.08C322.191 190.08 321.615 190.08 321.615 189.792C322.191 189.504 322.191 189.792 322.191 190.08ZM269.487 155.808V155.232C269.487 155.232 268.623 155.232 269.487 155.808ZM435.951 91.872V91.296L435.375 91.872H435.951ZM335.151 126.72H335.727L335.151 127.296V126.72ZM386.991 124.992H386.415L386.991 124.416V124.992ZM430.191 89.28H430.767V89.856L430.191 89.28ZM412.623 127.296L413.199 126.72V127.296H412.623ZM425.871 97.632C425.007 97.056 425.583 97.056 425.871 97.056V97.632ZM389.295 194.112L388.719 194.688C389.295 194.688 389.295 194.688 389.295 194.112ZM276.975 141.984L277.551 142.272C277.551 141.984 277.551 141.696 276.975 141.984ZM420.399 65.952C419.823 66.24 419.535 66.528 419.535 66.528C419.535 66.24 419.535 65.952 420.399 65.952ZM330.543 155.808C330.543 155.808 330.543 155.52 330.831 155.52C331.407 155.808 330.831 155.808 330.543 155.808ZM279.855 144.864C279.855 145.152 279.567 145.728 279.279 146.016L279.855 144.864ZM388.143 122.4C387.567 122.112 388.143 122.112 388.431 122.112L388.143 122.4ZM408.879 140.832C408.015 140.544 408.879 140.544 408.879 140.544V140.832ZM337.743 38.304H337.167L337.743 38.016V38.304ZM343.215 180.576H343.503L343.215 181.152V180.576ZM431.055 90.144C431.055 90.432 431.343 90.432 431.631 90.72C431.055 90.72 431.055 90.72 431.055 90.144ZM321.615 187.776V187.488H322.191L321.615 187.776ZM425.583 57.6V57.024L425.871 57.6H425.583ZM421.839 107.424H422.415C421.551 108 421.839 107.424 421.839 107.424ZM332.847 137.088H333.135V137.664L332.847 137.088ZM350.127 193.536H350.415V192.96L350.127 193.536ZM387.567 202.464H388.143V202.176L387.567 202.464ZM426.735 99.648C426.735 100.224 426.447 100.224 426.447 100.224C426.447 99.648 426.735 99.648 426.735 99.648ZM372.879 228.96H373.167L372.879 228.384V228.96ZM394.479 170.208L394.767 170.784V170.208H394.479ZM314.415 226.368L314.991 226.08V226.368H314.415ZM341.199 125.568H340.911L341.199 126.144V125.568ZM350.415 181.152L350.127 180.576H350.415V181.152ZM284.175 137.664L283.887 137.088H284.175V137.664ZM370.863 238.176V237.6H370.575L370.863 238.176ZM431.631 87.264L431.055 86.976H431.631V87.264ZM366.255 159.264C366.255 158.688 366.255 158.688 366.543 158.688L366.255 159.264ZM344.367 32.256C344.367 32.832 344.367 32.832 344.079 32.832L344.367 32.256ZM334.575 41.472V41.184C334.287 41.184 333.999 41.184 334.575 41.472ZM336.591 45.216H336.015C336.303 45.216 336.303 45.216 336.591 44.928V45.216ZM332.847 50.688L333.135 50.4V50.688H332.847ZM370.575 152.352L370.863 152.064C370.863 152.352 370.863 152.352 370.575 152.352ZM331.695 52.992C331.695 52.992 331.695 52.704 331.983 52.704C331.983 52.704 331.983 52.992 331.695 52.992ZM350.415 168.192L350.127 167.904H350.415V168.192ZM281.583 142.272C281.583 141.984 281.583 141.984 281.871 141.984L281.583 142.272ZM318.447 66.24H318.159V66.528L318.447 66.24ZM283.023 139.968L282.735 139.68H283.023V139.968ZM340.911 38.304C340.911 38.304 340.911 38.016 341.199 38.016L340.911 38.304ZM384.399 129.6H384.111C384.111 129.6 384.399 129.6 384.399 129.312V129.6Z" fill="white"/>
</svg>
