<svg xmlns="http://www.w3.org/2000/svg" width="35.68" height="34.734" viewBox="0 0 35.68 34.734">
  <g id="Group_78" data-name="Group 78" transform="translate(35.68 32.955) rotate(177)">
    <g id="Group_79" data-name="Group 79" transform="translate(0 0)">
      <ellipse id="Ellipse_56" data-name="Ellipse 56" cx="17" cy="16.5" rx="17" ry="16.5" transform="translate(0 0)" fill="#42506b"/>
      <path id="Path_776" data-name="Path 776" d="M12.394,10.647C18.879,8.148,21.648.167,25.94,0,30.1-.158,34,5.186,34,10A16.756,16.756,0,0,1,17,26.5,16.756,16.756,0,0,1,0,10C0,.884,5.909,13.145,12.394,10.647Z" transform="translate(0 6.503)" fill="#5f739b"/>
      <path id="Path_775" data-name="Path 775" d="M20.119,10.235C23.922,3.781,34-5.25,34,3.863a16.756,16.756,0,0,1-17,16.5A16.756,16.756,0,0,1,0,3.863c0-4.9,6.828,5.609,9.388,7.166S16.316,16.689,20.119,10.235Z" transform="translate(0 12.637)" fill="#e45a5a"/>
    </g>
  </g>
</svg>
