<svg xmlns="http://www.w3.org/2000/svg" width="35.68" height="34.734" viewBox="0 0 35.68 34.734">
  <g id="Group_78" data-name="Group 78" transform="translate(-98.389 -3.078) rotate(-3)">
    <g id="Group_79" data-name="Group 79">
      <ellipse id="Ellipse_56" data-name="Ellipse 56" cx="17" cy="16.5" rx="17" ry="16.5" transform="translate(98 10)" fill="#42506b"/>
      <path id="Path_776" data-name="Path 776" d="M12.394,17.15c6.485-2.5,9.254-10.48,13.546-10.643C30.1,6.344,34,11.688,34,16.5A16.756,16.756,0,0,1,17,33,16.756,16.756,0,0,1,0,16.5C0,7.387,5.909,19.648,12.394,17.15Z" transform="translate(98 10)" fill="#5f739b"/>
      <path id="Path_775" data-name="Path 775" d="M21.028,20.737C22.263,13.04,34,7.387,34,16.5A16.756,16.756,0,0,1,17,33,16.756,16.756,0,0,1,0,16.5c0-4.9,6.828,5.609,9.388,7.166S19.793,28.434,21.028,20.737Z" transform="translate(98 10)" fill="#e45a5a"/>
    </g>
  </g>
</svg>
