<svg xmlns="http://www.w3.org/2000/svg" xmlns:xlink="http://www.w3.org/1999/xlink" width="324" height="299" viewBox="0 0 324 299">
  <defs>
    <clipPath id="clip-path">
      <rect id="Rectangle_40" data-name="Rectangle 40" width="281" height="220" transform="translate(-0.076 -0.491)" fill="#fff"/>
    </clipPath>
  </defs>
  <g id="Group_63" data-name="Group 63" transform="translate(-1629 -1803)">
    <g id="Ellipse_53" data-name="Ellipse 53" transform="translate(1629 1803)" fill="#fff" stroke="#b12222" stroke-width="4">
      <ellipse cx="162" cy="149.5" rx="162" ry="149.5" stroke="none"/>
      <ellipse cx="162" cy="149.5" rx="160" ry="147.5" fill="none"/>
    </g>
    <g id="hero_logo_2" transform="translate(1644.076 1830.491)" clip-path="url(#clip-path)">
      <g id="Group_23" data-name="Group 23" transform="translate(-0.07 0.194)" opacity="0.92">
        <path id="Path_521" data-name="Path 521" d="M93.8,271.705c-3.958,1.409-16.191,5.207-29.8.382-2.258-.8-22.687-5.167-24.123-22.715-.662-8.113-2.027-15.939-3.368-29.769-.654-6.728-7.182-5.406-25.3-21.433-1.013-.9-1.851-1.648-2.4-2.141a22.128,22.128,0,0,1-3.774-3.981c-1.588-2.141-5.865-6.911-4.229-11.122,1.62-4.172,5.211-6.982,12.624-11.258a86.387,86.387,0,0,1,17.029-7.5q5.829-1.027,11.651-2.062l4.892.358s-.223-1.242-.559-3.233c-3.679-21.958-4.07-25.748-1.875-28.519,1.061-1.346,3.28-3.169,8.4-3.5a71.108,71.108,0,0,1,15.042,3.456A73.576,73.576,0,0,1,87.628,139.3a78.75,78.75,0,0,1,20.445,23.153l18.513,28.654s18.968,30.859,20.516,31.544,6.855,13.663,16.064,20.748c9.145,7.038,14.492,8.463,15.234,14.164,1.165,9-11.746,18.368-13.039,19.292-.551.39-1.094.756-1.652,1.106-.79.5-1.588.956-2.394,1.378s-1.628.812-2.458,1.171c-7.653,3.288-15.76,3.63-24.083,3.973a92.631,92.631,0,0,1-14.818-.565,52.068,52.068,0,0,1-20.748-7.834c-7.621-5.008-12.05-10.963-16.75-18.1-9.376-14.236-17.372-26.369-24.419-45.907a198.1,198.1,0,0,1-11.044-51.616" transform="translate(-0.44 -66.26)" fill="none" stroke="#b12222" stroke-miterlimit="10" stroke-width="3" opacity="0.92"/>
        <path id="Path_522" data-name="Path 522" d="M275.256,246.712c8.443-2.054,17.308-3.989,26.565-5.74,10.23-1.942,20.045-3.5,29.4-4.729,10.917-1.441,19.224-2.5,24.116-3.057,9.592-1.091,18-1.911,24.889-2.516,1.453-.064,6.137-.43,8.2-3.686,1.7-2.675.814-6-.758-10.374a121.639,121.639,0,0,0-9.863-20.884c-1.4-2.182-3.862-6.043-6.895-10.916-6.743-10.828-8.53-14.092-10.868-15.374a6.036,6.036,0,0,0-1.341-.533c-5.02-1.489-10.526,2.078-16.375,5.963-.933.621-2.13,1.449-3.5,2.484q-8.235,5.553-16.47,11.1l-19.455,12.858-4.046,2.421-4.309,2.572L281.6,214.037a98.52,98.52,0,0,0,8.881-5.573,80.8,80.8,0,0,0,11.818-9.793,71.628,71.628,0,0,0,6.041-7.022c-.439.589-.79,1.035-1.117,1.441-1.117,1.377-2.194,2.611-2.21,2.6s1.763-2.046,3.319-4.037a57.135,57.135,0,0,0,9.352-16.29c.479-1.369.958-2.969,1.892-6.083.08-.279,1-3.193,1.82-6.314,1.955-7.4,3.04-12.205,3.607-14.2,3.479-12.07,13.749-11.768,21.705-25.127,1.117-1.871,6.927-13.177,3.176-22.205-4.253-10.255-19.559-14.268-19.463-14.451.024-.04.822.342.83.326.024-.048-8.155-3.638-16.845-8.877-1.875-1.131-2.259-1.425-4.182-2.54-4.3-2.492-7.956-4.252-10.4-5.358-1.516-.764-3.735-1.823-6.424-3.065a59.394,59.394,0,0,0-7.988-3.312c-6.209-1.783-11.97-.215-14.731.541-6.073,1.664-10.143,4.6-13.829,7.261A61.53,61.53,0,0,0,246.2,81.769c-.9-.581-1.812-1.17-2.713-1.752l-8.922-4.594a6.993,6.993,0,0,0-.83-.382c-3.376-1.266-7.062.581-8.706,1.545a12.841,12.841,0,0,0-2.729,2.548c-4.214,5.247-2.929,15.5-2.713,17.723.543,5.692.351,13.909-3.176,24.6,1.029,1.576,2.051,3.153,3.08,4.729q5.47,8.384,10.957,16.68,5.769,8.981,11.539,17.969l1.5,2.4,4.476,7.19c.439.7.878,1.393,1.317,2.094a164.911,164.911,0,0,0,38.886-9.6c25.8-9.785,42.6-23.368,42.589-23.383a174.922,174.922,0,0,1-43.515,23.67,165.981,165.981,0,0,1-37.968,9.307q-2.622-4.144-5.251-8.288c2.546-1.393,6.623-3.527,11.787-5.812,6.544-2.89,8.578-3.257,17.324-6.863,6.807-2.811,11.874-5.191,13.821-6.115,6.312-3,11.491-5.765,15.226-7.843,2.634-1.513,6.44-3.782,10.916-6.743,5.147-3.416,7.725-5.119,9.752-6.959,1.923-1.744,9.536-8.838,11.786-19.9.71-3.5,1.955-9.61-1.4-14.307a11.537,11.537,0,0,0-4.2-3.567c-2.785-1.258-6.855-3.217-11.675-5.963-2.554-1.457-2.011-1.25-2.945-1.728-9.073-4.618-19-3.01-23.413-2.293-.423.072-.758.127-.909.159a27.538,27.538,0,0,0-11,8.009c-4.173,5.1-8.554,14.307-5.362,20.087.582,1.051,3.287,2.532,8.674,5.446,3.511,1.9,8.993,4.737,15.2,5.541a8.387,8.387,0,0,0,4.964-.621,9.328,9.328,0,0,0,3.894-3.885c.256-.454,3.256-5.963.2-10.343a7.915,7.915,0,0,0-8.914-2.946,8.96,8.96,0,0,0-4.677,3.646" transform="translate(-114.389 -33.615)" fill="none" stroke="#b12222" stroke-miterlimit="10" stroke-width="3" opacity="0.92"/>
        <path id="Path_523" data-name="Path 523" d="M279.523,102.372a96.893,96.893,0,0,0,13.981,14.06c5.331,4.363,9.336,6.68,17.3,11.3,9.3,5.4,13.861,7.046,18.9,7.771a41.231,41.231,0,0,0,4.876.406" transform="translate(-147.687 -54.211)" fill="none" stroke="#b12222" stroke-miterlimit="10" stroke-width="3" opacity="0.92"/>
        <path id="Path_524" data-name="Path 524" d="M143.522,63.414c-.12-.056-.223-.12-.335-.183-3.711-2.508.71-15.223,2.873-20.884a27.287,27.287,0,0,1,3.272-6.043,33.861,33.861,0,0,1,9.7-9.116,102.639,102.639,0,0,1,22.128-11.242c55.508-18.177,66.266-16.059,71.572-14.6,10.869,2.994,16.112,7.962,18.2,10.263,1.955,2.158,11.092,12.237,7.764,24.092a22.059,22.059,0,0,1-5.33,9.188" transform="translate(-74.999 -0.42)" fill="none" stroke="#b12222" stroke-miterlimit="10" stroke-width="3" opacity="0.92"/>
        <path id="Path_525" data-name="Path 525" d="M391.588,63.148a54.978,54.978,0,0,1,16.622-2.795c29.191-.223,56.554,24.793,60.4,53.973.742,5.629,1.875,15.183-2.977,25.605-6.28,13.487-22.7,20.207-36.149,26.218-3.487,1.561-6.4,2.683-8.315,3.384q-9.086,6.354-18.577,12.691-24.586,16.409-48.167,30.247" transform="translate(-187.206 -32.04)" fill="none" stroke="#b12222" stroke-miterlimit="10" stroke-width="3" opacity="0.92"/>
      </g>
      <path id="Path_526" data-name="Path 526" d="M213.828,332.676H205v5.749h7.677v1.122H205v7.333h-1.125V331.554h9.943v1.122Z" transform="translate(-107.845 -174.935)" fill="#b12222" stroke="#fff" stroke-miterlimit="10" stroke-width="0.75"/>
      <path id="Path_527" data-name="Path 527" d="M243.163,346.88H232.071V331.554h10.717v1.122H233.2v5.669h8.993v1.123H233.2v6.3h9.975v1.123Z" transform="translate(-122.721 -174.935)" fill="#b12222" stroke="#fff" stroke-miterlimit="10" stroke-width="0.75"/>
      <path id="Path_528" data-name="Path 528" d="M267.629,346.839a10.23,10.23,0,0,1-2.721-.326,5.649,5.649,0,0,1-1.955-.94,4.069,4.069,0,0,1-1.213-1.473,5.2,5.2,0,0,1-.495-1.934h1.109a4.177,4.177,0,0,0,.631,1.72,3.623,3.623,0,0,0,1.141,1.091,4.794,4.794,0,0,0,1.548.573,9.764,9.764,0,0,0,1.851.167,7.419,7.419,0,0,0,1.844-.215,4.465,4.465,0,0,0,1.4-.629,2.8,2.8,0,0,0,.894-1,2.722,2.722,0,0,0,.311-1.306,2.893,2.893,0,0,0-.264-1.3,2.386,2.386,0,0,0-.894-.915,6.858,6.858,0,0,0-1.66-.7c-.686-.207-1.54-.414-2.561-.629a13.366,13.366,0,0,1-2.171-.645,5.807,5.807,0,0,1-1.492-.844,3.008,3.008,0,0,1-.87-1.106,3.555,3.555,0,0,1-.279-1.449,3.617,3.617,0,0,1,.375-1.64,3.7,3.7,0,0,1,1.069-1.274,5.178,5.178,0,0,1,1.668-.828,7.306,7.306,0,0,1,2.155-.295,8.016,8.016,0,0,1,2.163.271,5.576,5.576,0,0,1,1.716.788,4.174,4.174,0,0,1,1.771,2.938h-1.078a3.687,3.687,0,0,0-.5-1.147,3.386,3.386,0,0,0-.9-.915,4.548,4.548,0,0,0-1.317-.605,6.181,6.181,0,0,0-1.748-.215,5.366,5.366,0,0,0-3.12.756,2.417,2.417,0,0,0-1.061,2.07,2.549,2.549,0,0,0,.2,1.051,2.085,2.085,0,0,0,.662.8,4.52,4.52,0,0,0,1.245.629,15.223,15.223,0,0,0,1.923.509c.447.1.91.191,1.389.295s.941.223,1.4.366a8.781,8.781,0,0,1,1.3.518,4.027,4.027,0,0,1,1.069.756,3.325,3.325,0,0,1,.726,1.067,3.762,3.762,0,0,1,.272,1.473,3.9,3.9,0,0,1-.415,1.8,4.371,4.371,0,0,1-1.149,1.417,5.414,5.414,0,0,1-1.756.924,7.029,7.029,0,0,1-2.21.326Z" transform="translate(-138.113 -174.615)" fill="#b12222" stroke="#fff" stroke-miterlimit="10" stroke-width="0.75"/>
      <path id="Path_529" data-name="Path 529" d="M302.786,332.676h-5.371v14.2h-1.125v-14.2h-5.315v-1.122h11.81Z" transform="translate(-153.8 -174.935)" fill="#b12222" stroke="#fff" stroke-miterlimit="10" stroke-width="0.75"/>
      <path id="Path_530" data-name="Path 530" d="M323.961,346.88h-1.125V331.554h1.125Z" transform="translate(-170.609 -174.935)" fill="#b12222" stroke="#fff" stroke-miterlimit="10" stroke-width="0.75"/>
      <path id="Path_531" data-name="Path 531" d="M345,331.554l-6.017,15.326h-1.445l-6.017-15.326h1.245l5.5,13.925,5.5-13.925Z" transform="translate(-175.19 -174.935)" fill="#b12222" stroke="#fff" stroke-miterlimit="10" stroke-width="0.75"/>
      <path id="Path_532" data-name="Path 532" d="M375.783,346.863h-1.349l-1.883-4.928h-7.557c-.271.772-.566,1.592-.886,2.452s-.622,1.688-.909,2.468H362.01c.5-1.322,1.005-2.619,1.492-3.893s.981-2.532,1.468-3.782.974-2.516,1.468-3.782.99-2.564,1.492-3.877h1.588l6.272,15.342Zm-3.551-5.8-3.559-8.527-3.384,8.527Z" transform="translate(-191.278 -174.918)" fill="#b12222" stroke="#fff" stroke-miterlimit="10" stroke-width="0.75"/>
      <path id="Path_533" data-name="Path 533" d="M405.368,346.88h-9.049V331.554h1.125v14.2h7.924Z" transform="translate(-209.379 -174.935)" fill="#b12222" stroke="#fff" stroke-miterlimit="10" stroke-width="0.75"/>
      <path id="Path_534" data-name="Path 534" d="M33.678,240.32,24.4,244.563c-.184-.414-.327-.717-.415-.907-.184-.048-.3-.207-.351-.486v-.764q-.766-3.344-3.487-11.17T14.7,216.721c-1.811-4.45-2.992-7.42-3.519-8.909a18.561,18.561,0,0,1-1.013-3.965,4.547,4.547,0,0,1,.207-.693h.072l8.227-2.293c.375.231.862,1.465,1.468,3.686a189.945,189.945,0,0,0,9.281,25.613,86.539,86.539,0,0,0,4.461-21.783,36.953,36.953,0,0,1,1.221-8.042,6.053,6.053,0,0,1,2.649-3.479A8.261,8.261,0,0,1,40.3,195.71c2.554.048,4.189,1.115,4.884,3.2l-3.695,7.444c-.375.836-.814,1.807-1.325,2.922Q36.4,217.84,33.822,232.8a33.3,33.3,0,0,0-.559,5.151A4.381,4.381,0,0,0,33.678,240.32Z" transform="translate(-5.644 -103.263)" fill="#b12222"/>
      <path id="Path_535" data-name="Path 535" d="M86.8,242.462q1.041-12.528,1.045-25.964v-1.114q0-2.58-.351-11.76v-1.393l-.072-1.043A1.957,1.957,0,0,1,87.776,200l.559-.136h.072l5.929-2.994c.933.326,1.508,1.672,1.748,4.037v1.529c0,.932-.184,3.861-.559,8.806s-.558,9.57-.558,13.885.183,8.424.558,12.317c.886.374,1.325,1.369,1.325,2.994v3.407a56.964,56.964,0,0,1-3.559,4.73,1.4,1.4,0,0,1-.91.35,7.5,7.5,0,0,1-2.474-1.361q-1.987-1.361-3.176-2.126l-.072-.836.136-2.158Z" transform="translate(-46 -103.877)" fill="#b12222"/>
      <path id="Path_536" data-name="Path 536" d="M140.591,250.34l-1.117-.207c-.048,0-.567-.1-1.572-.279a29.32,29.32,0,0,0-4.78-.279,35.447,35.447,0,0,0-12.209,1.879,7.274,7.274,0,0,1-1.189.207h-.415l-1.117-7.794a3.337,3.337,0,0,1,.559-.557v-2.572q0-12.874-1.325-28.742a25.374,25.374,0,0,1-.207-3.2,3.155,3.155,0,0,1,.694-2.293l7.461-.764a2.982,2.982,0,0,1,.527.8,8.9,8.9,0,0,1,.248,2.746v1.529l-.072,4.451a233.127,233.127,0,0,0,1.253,26.242q4.884-.418,10.286-.414c3.6,0,5.873.207,6.8.629a2.133,2.133,0,0,1,1.045,1.847,4.784,4.784,0,0,1-.487,2.126,5.169,5.169,0,0,1-1.4,1.115l-.838-.351-1.189.836a4.328,4.328,0,0,0-.631,2.086c0,.645-.12.971-.351.971Z" transform="translate(-62.123 -108.554)" fill="#b12222"/>
      <path id="Path_537" data-name="Path 537" d="M182.379,233.026l.973-.072a1.119,1.119,0,0,1,.838.557,5.729,5.729,0,0,0,1.325,1.186v-.279a204.28,204.28,0,0,0-1.4-23.805c-.231.557-.4.836-.487.836a1.187,1.187,0,0,1-.351-.071l-5.793,2.643a3.616,3.616,0,0,1-.487-1.983,11.314,11.314,0,0,1,.351-2.683q1.257-3.69,5.929-7.866a24.372,24.372,0,0,1,9.624-4.873,36.641,36.641,0,0,1,4.533-.486,17.332,17.332,0,0,1,9.209,2.643q8.582,5.638,9.56,18.3a30.356,30.356,0,0,1-2.234,11.274,27.488,27.488,0,0,1-13.606,14.9q-.276.143-2.442.836a28.989,28.989,0,0,1-6.87.764,31.4,31.4,0,0,1-8.124-1.186q-4.74-1.744-6.7-4.315a5.543,5.543,0,0,1-.974-3.272,9.414,9.414,0,0,1,.415-2.293q.622-1.11,4.046-1.951l.415.135.63.629a3.3,3.3,0,0,0,1.6.414Zm25.185-15.868a14.3,14.3,0,0,0-4.6-11.139,9.836,9.836,0,0,0-6.767-2.715,13.859,13.859,0,0,0-4.182.629,100.686,100.686,0,0,1,.487,10.995q.2,11.071,1.253,21.155,10.114-1.326,13.183-13.3a20.87,20.87,0,0,0,.631-4.451v-1.178Z" transform="translate(-92.747 -103.485)" fill="#b12222"/>
      <path id="Path_538" data-name="Path 538" d="M275.309,232.883,274.75,234v.35q.623,1.529,5.195,1.5a79.283,79.283,0,0,0,13.773-1.911,1.184,1.184,0,0,1,.8.35,1.106,1.106,0,0,0,.59.351l.351-.207v-.486c0-.741-1.74-2.062-5.235-3.965-2.139-.932-3.655-1.576-4.533-1.95q-8.235-3.4-11.228-5.5-5.925-4.24-6.56-10.087c-.048-.414-.1-.717-.136-.908a20.818,20.818,0,0,1,.694-5.08,11.573,11.573,0,0,1,1.676-3.272,13.776,13.776,0,0,1,1.676-2.022,29.524,29.524,0,0,1,2.442-1.744,19.348,19.348,0,0,1,10.885-3.551,16.593,16.593,0,0,1,7.565,2.022,14.9,14.9,0,0,1,6.177,5.844,8.852,8.852,0,0,1,1.189,3.169,4.162,4.162,0,0,1-.208,1.425l-8.092.907a.6.6,0,0,1-.279.072c-.1,0-.183-.12-.279-.35a9.2,9.2,0,0,0-5.442-4.387,19.917,19.917,0,0,0-2.091-.279q-7.05.2-7.046,6.473,0,2.783,4.118,6.33a1.444,1.444,0,0,0,.487.351,56.71,56.71,0,0,0,10.078,5.947q6.871,3.38,7.884,4.108a20.242,20.242,0,0,1,1.915,1.568l.909.836a5.935,5.935,0,0,1,1.4,3.447,9.117,9.117,0,0,1-.352,2.683q-1.113,3.2-6.136,5.565a22.277,22.277,0,0,0-3.208,1.529,44.37,44.37,0,0,1-13.39,2.086h-1.6q-7.182-.49-10.326-3.376a9.336,9.336,0,0,1-3.208-6.927,8.824,8.824,0,0,1,2.514-5.637,14.136,14.136,0,0,1,2.618-1.29,5.533,5.533,0,0,1,1.117-.1,11.479,11.479,0,0,1,2.266.414l.136.136a33.374,33.374,0,0,1,1.532,3.2l-.072.693v.565Z" transform="translate(-140.199 -103.343)" fill="#b12222"/>
      <path id="Path_539" data-name="Path 539" d="M354.135,224.134l-.415-15.589c0-1.855.3-2.811.91-2.85l6.839-1.879c.558.462.933,1.7,1.117,3.687v1.322q-.072,2.09-.247,5.637t-.176,5.08a104.923,104.923,0,0,0,14.579-13.575,7.682,7.682,0,0,1,1.6-1.6l.63-.207h.072l6,2.922a.6.6,0,0,1,.072.278v.279a.484.484,0,0,1-.175.414,3.4,3.4,0,0,0-.527.629q-1.676,2.019-15.489,13.638c-.654.557-1.253,1.091-1.811,1.6q1.747,1.744,9.033,10.087t9.448,9.539c-.934.692-2.394,1.783-4.4,3.272s-3.463,2.572-4.4,3.272v-.207l-.072.072a12.323,12.323,0,0,0-1.468-2.85,72.531,72.531,0,0,0-13.111-15.031q.276,8.634,1.045,14.267l-.415,1.187a61.025,61.025,0,0,1-8.858,1.114c-.1,0-.184-.111-.279-.35v-.557q.563-10.438.558-16.354v-4.108l-.423-2.293a1.554,1.554,0,0,1,.351-.836Zm.072,23.455c.048,0,.232-.024.559-.071A4.127,4.127,0,0,1,354.206,247.59Z" transform="translate(-186.866 -107.54)" fill="#b12222"/>
      <path id="Path_540" data-name="Path 540" d="M424.023,212.885q1.329-5.147,1.916-5.151c.391,0,3.2.231,8.4.693v.693a32.017,32.017,0,0,1-.694,3.758,74.175,74.175,0,0,0-2.163,15.589q.072,10.163,3.352,14.267a2.872,2.872,0,0,0,2.059,1.186,2.909,2.909,0,0,0,1.572-.35,6.462,6.462,0,0,1,.591-.35c.024,0,.032.008.032.032a2.415,2.415,0,0,1-.351.382,21.282,21.282,0,0,0,3.072-2.993,33.4,33.4,0,0,0,4.533-9.395l-.694-17.189a29.383,29.383,0,0,1,.383-4.769,9.062,9.062,0,0,0,.311-1.322.918.918,0,0,1,.279-.661,36.555,36.555,0,0,1,4.294-.8c2.067-.3,3.248-.478,3.527-.525l.207,1.672.28,6.123q-.42,3.965-.415,11.9a123.625,123.625,0,0,0,.734,14.2q.731,6.258,1.636,8.28l-1.468,3.893c-1.213,1.719-2.394,2.572-3.559,2.572a6.377,6.377,0,0,1-3.838-1.672q-1.113-.908-1.189-4.037-.2-3.344-.351-9.952a42.679,42.679,0,0,1-1.676,4.562q-.563,1.146-1.6,2.818c-.279.231-.933.86-1.955,1.879-2.051,1.95-4.046,2.922-6,2.922a9.579,9.579,0,0,1-5.65-1.951q-6.272-4.526-6.28-22.619,0-3.69.694-13.71Z" transform="translate(-223.622 -108.678)" fill="#b12222"/>
      <path id="Path_541" data-name="Path 541" d="M504.751,233.026l.974-.072a1.12,1.12,0,0,1,.838.557,5.721,5.721,0,0,0,1.325,1.186v-.279a204.5,204.5,0,0,0-1.4-23.805c-.231.557-.4.836-.487.836a1.184,1.184,0,0,1-.351-.071l-5.785,2.643a3.612,3.612,0,0,1-.487-1.983,11.749,11.749,0,0,1,.351-2.683q1.256-3.69,5.929-7.866a24.371,24.371,0,0,1,9.624-4.873,36.643,36.643,0,0,1,4.533-.486,17.336,17.336,0,0,1,9.209,2.643q8.582,5.638,9.56,18.3a30.349,30.349,0,0,1-2.234,11.274,27.485,27.485,0,0,1-13.606,14.9q-.276.143-2.442.836a28.994,28.994,0,0,1-6.871.764,31.4,31.4,0,0,1-8.123-1.186q-4.74-1.744-6.7-4.315a5.54,5.54,0,0,1-.974-3.272,9.268,9.268,0,0,1,.423-2.293q.622-1.11,4.046-1.951l.415.135.631.629a3.3,3.3,0,0,0,1.6.414Zm25.185-15.868a14.3,14.3,0,0,0-4.6-11.139,9.836,9.836,0,0,0-6.767-2.715,13.946,13.946,0,0,0-4.189.629,100.8,100.8,0,0,1,.487,10.995q.2,11.071,1.253,21.155,10.114-1.326,13.183-13.3a20.835,20.835,0,0,0,.63-4.451V217.15Z" transform="translate(-262.838 -103.485)" fill="#b12222"/>
    </g>
  </g>
</svg>
