<svg xmlns="http://www.w3.org/2000/svg" width="761.762" height="470.317" viewBox="0 0 761.762 470.317">
  <g id="Group_69" data-name="Group 69" transform="translate(-1055.453 -2553.265)">
    <g id="PLANTEN" transform="translate(1034.665 2588.666) rotate(-14)">
      <path id="Path_494" data-name="Path 494" d="M10.134,124.487C15.05,108.552,13.8,97.031,11.7,89.413,8.992,79.548,2.995,69.407.592,55.6a58.535,58.535,0,0,1-.1-15.846A26.765,26.765,0,0,1,2.6,32.071c.486-1.057.9-1.767,1.1-2.114C6.655,24.694,8.987,12.641,3.466,4.7c-.307-.443-.577-.78-.707-.94L10.132,0A49.364,49.364,0,0,1,12.8,15.669C12.836,28.947,7.21,34.5,7.859,47.357c.175,3.472,1.189,7.094,3.217,14.341C18.01,86.487,28.587,92.93,25.192,107.6a92.507,92.507,0,0,0-1.96,17.238H12.519" transform="translate(107.259 116.508)" fill="#8a501a" stroke="#040505" stroke-miterlimit="10" stroke-width="1"/>
      <path id="Path_495" data-name="Path 495" d="M19.853,120.551a6.676,6.676,0,0,1-4.952-7.92c.7-2.832,1.644-5.57,2.086-8.458v-.307c0-.261.031-.519.046-.777.04-.792.074-1.585.086-2.375a40.63,40.63,0,0,0-.132-4.283c-.034-.4-.089-.789-.132-1.186v-.021c-.16-.59-.261-1.192-.436-1.782-.4-1.364-.937-2.7-1.419-4.037q-1.484-4.126-2.919-8.267c-1.88-5.465-3.656-11-5.155-16.614-.731-2.728-1.266-5.53-2.1-8.227a56.269,56.269,0,0,1-2.356-9.011,17.383,17.383,0,0,1,.8-8.1c.234-.657.5-1.3.777-1.929a7.681,7.681,0,0,1,1.61-3.687c.058-.071.114-.15.172-.221.141-.25.307-.492.439-.744l.286-.614a5.4,5.4,0,0,1,.673-1.118,1.61,1.61,0,0,0,.172-.7q-.443,1.229-.2.531c.074-.215.141-.427.209-.645.135-.433.258-.872.372-1.312.231-.885.421-1.782.581-2.682.077-.452.15-.9.212-1.352.018-.138.067-.372.117-.568.077-.633.055-1.324.077-1.929.071-1.886.027-3.782-.031-5.668-.077-2.4-.228-4.791-.4-7.179C8.253,8.332,8.18,7.3,8.1,6.261c-.027-.4-.071-.789-.111-1.183A6.943,6.943,0,0,1,5.791.406V0L2.759,1.536c.129.16.4.5.707.94,5.53,7.941,3.189,20,.237,25.259-.2.349-.614,1.057-1.1,2.114A26.764,26.764,0,0,0,.488,37.53a58.537,58.537,0,0,0,.1,15.846C2.994,67.2,8.992,77.339,11.7,87.191c2.1,7.619,3.348,19.139-1.57,35.075l2.384.362H23.234s0-.863.074-2.3a7.118,7.118,0,0,1-3.454.218Z" transform="translate(107.273 118.7)" fill="#533014" opacity="0.48"/>
      <g id="Group_123" data-name="Group 123" transform="translate(60.941 235.562)" opacity="0.4">
        <path id="Path_496" data-name="Path 496" d="M1.783,12.132C-.453,9.981-.674,5.158,1.624,2.457,4.466-.886,10.263.083,11.507.289h0C26.2,2.746,82.886,1.726,82.886,1.726c7.315,0,5.717,0,18.564-.307,8.6-.2,9.376-.194,11.241-.427,1.946-.243,3.908-.369,5.856-.614a15.681,15.681,0,0,1,4.713-.286,6.853,6.853,0,0,1,4.283,1.747c1.266,1.338,1.347,2.994,1.463,5.02.1,1.637.307,5.284-2.151,8.212a8.974,8.974,0,0,1-1.776,1.619C117,29.226,108.488,34.142,102.172,36.3c-31.91,10.888-80.8-23.753-95.014-22.734C6.456,13.593,3.6,13.88,1.783,12.132Z" transform="translate(0 0)" fill="#0d0c0b" stroke="#040505" stroke-miterlimit="10" stroke-width="2"/>
        <path id="Path_497" data-name="Path 497" d="M17.413,88.477Q13.7,69.337,9.942,50.2,5.005,25.109,0,0A518.267,518.267,0,0,0,58.205,5.223a519.174,519.174,0,0,0,66.2-2.059l-16,84.7a17.86,17.86,0,0,1-1.413,3.767C94.9,115.244,26.013,113.3,18.2,93.2a12.085,12.085,0,0,1-.789-4.719Z" transform="translate(2.097 11.963)" fill="#0d0c0b" stroke="#040505" stroke-miterlimit="10" stroke-width="2"/>
      </g>
      <path id="Path_498" data-name="Path 498" d="M1.783,12.133c-2.237-2.15-2.458-6.977-.16-9.674C4.466-.884,10.263.082,11.507.287h0C26.2,2.745,82.886,1.725,82.886,1.725c7.315,0,5.717,0,18.564-.307,8.6-.2,9.376-.194,11.241-.427,1.946-.243,3.908-.369,5.856-.614a15.544,15.544,0,0,1,4.713-.282,6.853,6.853,0,0,1,4.283,1.747c1.266,1.338,1.347,2.994,1.463,5.02.1,1.637.307,5.284-2.151,8.212a8.97,8.97,0,0,1-1.776,1.619c-8.071,12.537-16.574,17.453-22.9,19.6C70.27,47.185,21.382,12.541,7.167,13.56,6.456,13.6,3.6,13.866,1.783,12.133Z" transform="translate(60.941 231.508)" fill="#753c13" stroke="#040505" stroke-miterlimit="10" stroke-width="2"/>
      <path id="Path_499" data-name="Path 499" d="M15.892,88.514q-3.883-18.74-7.471-38.275Q3.714,24.58,0,0A398.149,398.149,0,0,0,56.685,5.223a398.256,398.256,0,0,0,65.726-4.1c-3.549,23.293-9.945,63.483-15.53,86.752a17.048,17.048,0,0,1-1.413,3.767c-12.089,23.613-80.976,21.668-88.786,1.567a12.076,12.076,0,0,1-.789-4.691Z" transform="translate(64.558 243.45)" fill="#753c13" stroke="#040505" stroke-miterlimit="10" stroke-width="2"/>
      <g id="Group_124" data-name="Group 124" transform="translate(60.952 231.508)" opacity="0.38">
        <path id="Path_500" data-name="Path 500" d="M18.731,15.492c-1.186-3.6-2.513-7.143-2.384-11.007a7.435,7.435,0,0,1,1-3.539c-2.329-.184-4.3-.4-5.839-.657h0C10.275.082,4.463-.886,1.621,2.46c-2.292,2.7-2.077,7.521.16,9.674,1.812,1.747,4.673,1.462,5.385,1.41,2.765-.2,6.848.962,11.862,2.869C18.928,16.106,18.839,15.8,18.731,15.492Z" transform="translate(0 0)" fill="#4e2a14"/>
        <path id="Path_501" data-name="Path 501" d="M0,.108C.311.086.618.031.9,0h.05C.2-.018-.033.061,0,.108Z" transform="translate(121.329 0.834)" fill="#4e2a14"/>
        <path id="Path_502" data-name="Path 502" d="M30.6,95.609c-.372-2.151-.682-4.3-.993-6.433a.24.24,0,0,0-.015-.1v-.04c-.144-.857-.273-1.708-.393-2.568-.15-1.072-.307-2.151-.464-3.217-1.164-7.908-2.025-15.8-2.922-23.735-.446-3.92-.993-7.828-1.6-11.723-.021-.123-.332-2.04-.1-.642l-.24-1.456q-.218-1.309-.443-2.617c-.329-1.942-.673-3.88-1.017-5.819-1.456-8.166-3.072-16.326-4.23-24.537-.25-1.767-.353-3.543-.562-5.315,0-.018-.111-.651-.15-.922a3.11,3.11,0,0,0-.117-.507c-.2-.826-.442-1.641-.71-2.458q-.231-.7-.467-1.407Q7.825,1.149,0,0,5.011,25.09,9.942,50.2,13.7,69.338,17.413,88.476a12.073,12.073,0,0,0,.783,4.7c1.951,5.017,7.7,8.91,15.428,11.542A28.689,28.689,0,0,1,30.6,95.61Z" transform="translate(2.091 11.973)" fill="#4e2a14"/>
      </g>
      <path id="Path_503" data-name="Path 503" d="M0,100.115c16.648-46.808,22.82-60.8,24.239-60.559.1.018,1.189.273,1.512-.194s-.349-1.478-.467-1.677C21.407,31.111,50.863,6.334,50.863,6.334,58.129.224,59.351-.348,60.217.131c4.359,2.409-5.839,28.286-10.372,27.763-.464-.055-1.843-.5-2.043-.132s.832.836.986,1.911c.08.54-.092.977-.593,1.979a22.731,22.731,0,0,1-1.582,2.9c-3.039,4.264-10.729,19.355-15.18,18.236-.51-.129-1.478-.593-1.73-.273-.307.39.7,1.637.789,1.754C31.554,55.723,25.637,66.107,0,100.115Z" transform="translate(52.448 110.469)" fill="#157332" stroke="#040505" stroke-miterlimit="10" stroke-width="1"/>
      <path id="Path_504" data-name="Path 504" d="M0,75.552S24.027,18.987,46.673,0" transform="translate(62.279 117)" fill="none" stroke="#a0c749" stroke-miterlimit="10" stroke-width="1"/>
      <path id="Path_505" data-name="Path 505" d="M0,114C.823,64.327,2.2,49.1,3.622,48.872c.1-.015,1.214-.123,1.37-.664s-.8-1.293-.977-1.441c-5.776-5,14.222-37.88,14.222-37.88C23.171.774,24.148-.157,25.124.018c4.9.891,3.5,28.669-.962,29.622-.458.1-1.917.123-1.982.528s1.06.525,1.536,1.5a3.3,3.3,0,0,1,.071,2.061,22.371,22.371,0,0,1-.574,3.257C21.7,41.995,19.221,58.741,14.654,59.1c-.522.043-1.588-.089-1.724.307-.166.467,1.186,1.324,1.305,1.41C15.733,61.855,13.441,73.584,0,114Z" transform="translate(88.411 116.998)" fill="#157332" stroke="#040505" stroke-miterlimit="10" stroke-width="1"/>
      <path id="Path_506" data-name="Path 506" d="M0,86.5S4.7,25.226,20.086,0" transform="translate(91.962 124.272)" fill="none" stroke="#a0c749" stroke-miterlimit="10" stroke-width="1"/>
      <path id="Path_507" data-name="Path 507" d="M0,91.4C22.667,47.187,30.626,34.133,31.99,34.559c.092.027,1.14.427,1.536,0s-.15-1.515-.243-1.727C30.307,25.8,62.776,5.121,62.776,5.121c8.009-5.1,9.3-5.505,10.092-4.915C76.86,3.168,63.36,27.478,58.929,26.363c-.449-.114-1.773-.738-2.006-.4s.716.922.728,2.025c0,.549-.221.956-.848,1.883a22.936,22.936,0,0,1-1.951,2.667C51.279,36.366,41.667,50.3,37.4,48.615c-.489-.191-1.389-.78-1.677-.495-.353.349.479,1.711.549,1.843C37.136,51.549,29.906,61.066,0,91.4Z" transform="translate(35.204 105.498)" fill="#157332" stroke="#040505" stroke-miterlimit="10" stroke-width="1"/>
      <path id="Path_508" data-name="Path 508" d="M0,68.746S31.269,15.834,56.215,0" transform="translate(47.321 111.569)" fill="none" stroke="#a0c749" stroke-miterlimit="10" stroke-width="1"/>
      <path id="Path_509" data-name="Path 509" d="M0,0C49.428,5,64.491,7.656,64.592,9.091c0,.1.018,1.229.549,1.422s1.355-.694,1.518-.854c5.462-5.337,36.559,17.358,36.559,17.358,7.68,5.6,8.516,6.651,8.255,7.607-1.3,4.808-28.86,1.081-29.434-3.45-.058-.464.04-1.92-.359-2.016s-.614,1.008-1.619,1.416A3.283,3.283,0,0,1,78,30.47a22.824,22.824,0,0,1-3.194-.845c-4.866-1.932-21.349-5.807-21.333-10.39,0-.526.221-1.579-.15-1.747-.449-.2-1.422,1.072-1.515,1.183C50.641,20.064,39.143,16.8,0,0Z" transform="translate(5.297 78.309)" fill="#157332" stroke="#040505" stroke-miterlimit="10" stroke-width="1"/>
      <path id="Path_510" data-name="Path 510" d="M0,0S60.663,9.831,84.5,27.3" transform="translate(25.152 83.554)" fill="none" stroke="#a0c749" stroke-miterlimit="10" stroke-width="1"/>
      <path id="Path_511" data-name="Path 511" d="M0,15.6C48.233,3.673,63.308,1.107,63.9,2.426c.04.089.43,1.14,1,1.155s1.041-1.109,1.143-1.315c3.343-6.863,40.246,4.052,40.246,4.052,9.106,2.691,10.255,3.4,10.335,4.384.393,4.965-26.817,10.729-28.878,6.654-.212-.418-.614-1.822-1.017-1.779s-.237,1.158-1.05,1.88c-.406.362-.863.461-1.976.6a22.924,22.924,0,0,1-3.294.279c-5.223-.184-22.057,1.711-23.582-2.611-.175-.495-.322-1.557-.728-1.591-.492-.04-.977,1.487-1.026,1.622C54.439,17.464,42.513,18.241,0,15.6Z" transform="translate(0 104.102)" fill="#157332" stroke="#040505" stroke-miterlimit="10" stroke-width="1"/>
      <path id="Path_512" data-name="Path 512" d="M0,5.861S60.437-5.27,88.761,3.148" transform="translate(20.464 112.089)" fill="none" stroke="#a0c749" stroke-miterlimit="10" stroke-width="1"/>
      <path id="Path_513" data-name="Path 513" d="M61.278,100.121C44.63,53.313,38.458,39.32,37.039,39.556c-.1.015-1.189.273-1.512-.194s.349-1.478.467-1.677C39.871,31.111,10.418,6.334,10.415,6.334,3.149.224,1.927-.348,1.061.131-3.3,2.54,6.9,28.417,11.432,27.894c.464-.055,1.843-.5,2.046-.132s-.836.836-.989,1.911c-.08.54.092.977.593,1.979a22.735,22.735,0,0,0,1.582,2.9c3.039,4.264,10.729,19.355,15.18,18.236.51-.129,1.478-.593,1.73-.273.307.39-.7,1.637-.789,1.754C29.713,55.731,35.629,66.115,61.278,100.121Z" transform="translate(117.381 110.581)" fill="#157332" stroke="#040505" stroke-miterlimit="10" stroke-width="1"/>
      <path id="Path_514" data-name="Path 514" d="M46.675,75.548S22.645,18.986,0,0" transform="translate(122.156 117.12)" fill="none" stroke="#a0c749" stroke-miterlimit="10" stroke-width="1"/>
      <path id="Path_515" data-name="Path 515" d="M28.2,114c-.823-49.674-2.2-64.906-3.625-65.13-.1-.015-1.214-.123-1.37-.664s.8-1.293.977-1.441c5.776-5-14.222-37.88-14.222-37.88C5.022.775,4.045-.162,3.086.02c-4.9.891-3.505,28.669.962,29.622.455.1,1.914.123,1.979.528.055.359-1.057.525-1.536,1.5a3.3,3.3,0,0,0-.071,2.061,22.362,22.362,0,0,0,.574,3.257C6.509,42,8.986,58.743,13.553,59.1c.522.043,1.591-.089,1.727.307.163.467-1.189,1.324-1.309,1.41C12.461,61.852,14.763,73.57,28.2,114Z" transform="translate(114.49 117.12)" fill="#157332" stroke="#040505" stroke-miterlimit="10" stroke-width="1"/>
      <path id="Path_516" data-name="Path 516" d="M20.1,86.5S15.392,25.226,0,0" transform="translate(119.038 124.392)" fill="none" stroke="#a0c749" stroke-miterlimit="10" stroke-width="1"/>
      <path id="Path_517" data-name="Path 517" d="M73.607,91.394c-22.667-44.213-30.626-57.268-32-56.835-.092.027-1.143.427-1.536,0s.154-1.515.243-1.727C43.291,25.8,10.821,5.121,10.821,5.121,2.812.018,1.525-.384.729.206c-3.992,2.962,9.508,27.272,13.939,26.157.452-.114,1.772-.738,2.006-.4s-.716.937-.728,2.025c0,.549.221.956.851,1.883a22.658,22.658,0,0,0,1.946,2.667c3.573,3.828,13.186,17.765,17.45,16.076.489-.191,1.389-.78,1.677-.495.353.349-.479,1.711-.549,1.843C36.461,51.544,43.706,61.06,73.607,91.394Z" transform="translate(122.284 105.624)" fill="#157332" stroke="#040505" stroke-miterlimit="10" stroke-width="1"/>
      <path id="Path_518" data-name="Path 518" d="M56.221,68.746S24.952,15.84,0,0" transform="translate(127.553 111.688)" fill="none" stroke="#a0c749" stroke-miterlimit="10" stroke-width="1"/>
      <path id="Path_519" data-name="Path 519" d="M111.515,0C62.087,5,47.024,7.653,46.92,9.091c0,.1-.018,1.229-.549,1.422s-1.355-.694-1.518-.854C39.391,4.323,8.295,27.017,8.295,27.017.614,32.615-.221,33.668.04,34.624c1.3,4.808,28.86,1.081,29.434-3.45.058-.464-.04-1.92.359-2.016.353-.086.614,1.008,1.619,1.416a3.3,3.3,0,0,0,2.064-.1,22.822,22.822,0,0,0,3.194-.845c4.869-1.932,21.349-5.807,21.333-10.39,0-.525-.221-1.579.15-1.747.449-.2,1.422,1.072,1.515,1.183C60.876,20.066,72.372,16.8,111.515,0Z" transform="translate(114.283 78.429)" fill="#157332" stroke="#040505" stroke-miterlimit="10" stroke-width="1"/>
      <path id="Path_520" data-name="Path 520" d="M84.5,0S23.84,9.831,0,27.3" transform="translate(121.44 83.673)" fill="none" stroke="#a0c749" stroke-miterlimit="10" stroke-width="1"/>
      <path id="Path_521" data-name="Path 521" d="M89.987,0C46.223,23.517,33.32,31.729,33.766,33.094c.031.092.449,1.134.04,1.536s-1.518-.123-1.73-.209C24.99,31.579,4.94,64.433,4.94,64.433-.006,72.54-.387,73.834.218,74.62,3.257,78.562,27.3,64.583,26.1,60.181c-.123-.449-.771-1.757-.439-2s.952.7,2.04.688c.549,0,.953-.237,1.865-.885a22.363,22.363,0,0,0,2.63-2C35.951,52.337,49.7,42.467,47.932,38.227c-.2-.486-.808-1.373-.528-1.668.338-.359,1.721.446,1.843.513C50.863,37.9,60.234,30.485,89.987,0Z" transform="translate(114.099 35.828)" fill="#157332" stroke="#040505" stroke-miterlimit="10" stroke-width="1"/>
      <path id="Path_522" data-name="Path 522" d="M67.646,0S15.355,32.287,0,57.533" transform="translate(120.094 48.264)" fill="none" stroke="#a0c749" stroke-miterlimit="10" stroke-width="1"/>
      <path id="Path_523" data-name="Path 523" d="M0,0C39.736,29.825,51.256,39.88,50.6,41.169c-.043.086-.614,1.05-.264,1.5s1.515.1,1.739.05c7.431-1.747,22.319,33.751,22.319,33.751,3.687,8.756,3.852,10.092,3.137,10.779-3.593,3.443-25.265-13.991-23.416-18.164.191-.427,1.026-1.622.734-1.911s-1.044.549-2.12.375c-.537-.086-.9-.378-1.711-1.155a21.633,21.633,0,0,1-2.3-2.372c-3.167-4.172-15.275-16.006-12.9-19.92.273-.449,1-1.229.774-1.57-.282-.409-1.77.181-1.908.231C32.986,43.345,24.835,34.608,0,0Z" transform="translate(42.424 22.16)" fill="#157332" stroke="#040505" stroke-miterlimit="10" stroke-width="1"/>
      <path id="Path_524" data-name="Path 524" d="M0,0S46.848,39.784,58.233,67.053" transform="translate(54.316 37.388)" fill="none" stroke="#a0c749" stroke-miterlimit="10" stroke-width="1"/>
      <path id="Path_525" data-name="Path 525" d="M12.8,0c6.924,49.2,7.923,64.457,6.553,64.9-.092.031-1.177.307-1.248.872s1,1.148,1.189,1.269c6.482,4.034-8.157,39.631-8.157,39.631-3.61,8.78-4.43,9.853-5.422,9.831-4.977-.117-7.923-27.773-3.659-29.41.436-.166,1.874-.418,1.874-.829,0-.362-1.127-.353-1.764-1.229A3.4,3.4,0,0,1,1.776,83a22.907,22.907,0,0,1,.058-3.3c.719-5.19.556-22.12,5.014-23.192.51-.126,1.582-.163,1.656-.562.092-.486-1.376-1.124-1.509-1.189C5.367,53.96,5.806,42.015,12.8,0Z" transform="translate(111.683 0)" fill="#157332" stroke="#040505" stroke-miterlimit="10" stroke-width="1"/>
      <path id="Path_526" data-name="Path 526" d="M6.393,0S11.281,61.262,0,88.566" transform="translate(115.683 19.176)" fill="none" stroke="#a0c749" stroke-miterlimit="10" stroke-width="1"/>
      <path id="Path_527" data-name="Path 527" d="M116.6,15.607C68.367,3.675,53.313,1.107,52.72,2.427c-.037.086-.427,1.14-.993,1.152s-1.041-1.109-1.143-1.315C47.236-4.6,10.339,6.317,10.339,6.317,1.233,9.008.081,9.715,0,10.7c-.393,4.965,26.817,10.725,28.878,6.651.212-.415.614-1.819,1.017-1.776s.24,1.155,1.05,1.877c.409.366.866.461,1.979.6a22.439,22.439,0,0,0,3.291.279c5.223-.181,22.057,1.714,23.585-2.608.175-.495.307-1.56.725-1.6.495-.037.98,1.487,1.029,1.625C62.17,17.451,74.093,18.243,116.6,15.607Z" transform="translate(113.727 105.652)" fill="#157332" stroke="#040505" stroke-miterlimit="10" stroke-width="1"/>
      <path id="Path_528" data-name="Path 528" d="M88.752,5.866S28.316-5.274,0,3.15" transform="translate(121.879 112.207)" fill="none" stroke="#a0c749" stroke-miterlimit="10" stroke-width="1"/>
    </g>
    <g id="Kasettebåndafspiller" transform="translate(1376.818 2506.965) rotate(11)">
      <rect id="Rectangle_36" data-name="Rectangle 36" width="2.907" height="91.649" transform="translate(382.477 6.099) rotate(34.692)" fill="#b5b4b4" stroke="#1d1d1b" stroke-miterlimit="10" stroke-width="2"/>
      <rect id="Rectangle_37" data-name="Rectangle 37" width="5.906" height="9.479" transform="translate(385.136 0) rotate(34.692)" fill="#b5b4b4" stroke="#1d1d1b" stroke-miterlimit="10" stroke-width="2"/>
      <rect id="Rectangle_38" data-name="Rectangle 38" width="458.096" height="189.407" rx="16.23" transform="translate(0 60.949)" fill="#b5b4b4" stroke="#1d1d1b" stroke-miterlimit="10" stroke-width="4"/>
      <line id="Line_67" data-name="Line 67" y2="189.407" transform="translate(100.776 61.833)" fill="none" stroke="#1d1d1b" stroke-miterlimit="10" stroke-width="2"/>
      <line id="Line_68" data-name="Line 68" y2="189.407" transform="translate(351.901 61.833)" fill="none" stroke="#1d1d1b" stroke-miterlimit="10" stroke-width="2"/>
      <line id="Line_69" data-name="Line 69" y1="0.963" x2="251.125" transform="translate(100.885 133.613)" fill="none" stroke="#1d1d1b" stroke-miterlimit="10" stroke-width="2"/>
      <line id="Line_70" data-name="Line 70" y1="0.963" x2="251.125" transform="translate(101.024 170.152)" fill="none" stroke="#1d1d1b" stroke-miterlimit="10" stroke-width="2"/>
      <line id="Line_71" data-name="Line 71" y1="0.963" x2="251.125" transform="translate(100.744 97.074)" fill="none" stroke="#1d1d1b" stroke-miterlimit="10" stroke-width="2"/>
      <ellipse id="Ellipse_274" data-name="Ellipse 274" cx="17.965" cy="17.965" rx="17.965" ry="17.965" transform="translate(13.352 77.34)" fill="#383735" stroke="#1d1d1b" stroke-miterlimit="10" stroke-width="2"/>
      <path id="Path_489" data-name="Path 489" d="M2.618,134.181C.671,51.33,4.105,43.852,4.5,26.837A95.715,95.715,0,0,1,5.993,14.2c1.1-6.4,1.988-8.468,2.775-9.547.1-.132.216-.281.392-.483C12.764.022,18.6.408,18.57.172a12.476,12.476,0,0,0-2.268,0C14.6.191,14.254.1,12.084.094c-1.193,0-1.092.032-2.218.022C6.1.09,4.967-.271,3.3.429A4.8,4.8,0,0,0,1.445,1.6,5.347,5.347,0,0,0,.19,4.92c-.436,6.721.015,172.991,0,173.945v3.116c0,.448.038.725,0,1.16A5.1,5.1,0,0,0,.6,185.694a3.6,3.6,0,0,0,.96,1.352,7.526,7.526,0,0,0,1.684.969,4.4,4.4,0,0,0,1.022.241,18.933,18.933,0,0,0,3.161,0c1.355-.081.963.066,3.306.019,0,0,1.17-.022,2.929-.1h0l.094.028c-.941-2.029-2.265-5.122-3.657-8.957C3.368,160.627,2.872,145.023,2.618,134.181Z" transform="translate(0.471 61.501)" fill="#999"/>
      <path id="Path_490" data-name="Path 490" d="M23.589.068C18.5-.13-.621.173.016.129a31.243,31.243,0,0,1,10.1,1,24.606,24.606,0,0,1,7.245,2.978c6.06,4.2,6.335,13.582,6.461,16.275,0,0,7.214,158.717.712,163.4a12.093,12.093,0,0,1-3.522,1.687c-.314,0-.941.028-2.2.118a11.991,11.991,0,0,0-1.568.158c0,.046,1.1.025,2.776.046,3.644.044,5.018.229,6.517-.663a3.741,3.741,0,0,0,.555-.387,5.2,5.2,0,0,0,1.568-3.99V5.058a5.138,5.138,0,0,0-1.2-3.6A5.506,5.506,0,0,0,23.589.068Z" transform="translate(428.832 63.945)" fill="#999"/>
      <ellipse id="Ellipse_275" data-name="Ellipse 275" cx="5.827" cy="5.827" rx="5.827" ry="5.827" transform="translate(25.49 89.478)" fill="#4a4847"/>
      <ellipse id="Ellipse_276" data-name="Ellipse 276" cx="17.965" cy="17.965" rx="17.965" ry="17.965" transform="translate(405.741 78.836)" fill="#383735" stroke="#1d1d1b" stroke-miterlimit="10" stroke-width="2"/>
      <ellipse id="Ellipse_277" data-name="Ellipse 277" cx="5.827" cy="5.827" rx="5.827" ry="5.827" transform="translate(417.878 90.974)" fill="#4a4847"/>
      <ellipse id="Ellipse_278" data-name="Ellipse 278" cx="48.608" cy="48.608" rx="48.608" ry="48.608" transform="translate(0.678 138.534)" fill="#383735" stroke="#1d1d1b" stroke-miterlimit="10" stroke-width="2"/>
      <ellipse id="Ellipse_279" data-name="Ellipse 279" cx="12.53" cy="12.53" rx="12.53" ry="12.53" transform="translate(36.756 174.612)" fill="#4a4847"/>
      <ellipse id="Ellipse_280" data-name="Ellipse 280" cx="48.608" cy="48.608" rx="48.608" ry="48.608" transform="translate(355.743 138.534)" fill="#383735" stroke="#1d1d1b" stroke-miterlimit="10" stroke-width="2"/>
      <ellipse id="Ellipse_281" data-name="Ellipse 281" cx="12.53" cy="12.53" rx="12.53" ry="12.53" transform="translate(391.821 174.612)" fill="#4a4847"/>
      <ellipse id="Ellipse_282" data-name="Ellipse 282" cx="17.26" cy="17.26" rx="17.26" ry="17.26" transform="translate(56.308 92.36)" fill="none" stroke="#1d1d1b" stroke-miterlimit="10" stroke-width="2"/>
      <ellipse id="Ellipse_283" data-name="Ellipse 283" cx="17.26" cy="17.26" rx="17.26" ry="17.26" transform="translate(360.868 92.36)" fill="none" stroke="#1d1d1b" stroke-miterlimit="10" stroke-width="2"/>
      <path id="Path_491" data-name="Path 491" d="M9.387,12.521l-6.746-.842L0,5.416,4.1,0l6.746.842L13.49,7.1Z" transform="translate(371.381 103.362)" fill="#1d1d1b"/>
      <path id="Path_492" data-name="Path 492" d="M9.384,12.521l-6.743-.842L0,5.416,4.1,0l6.743.842,2.641,6.263Z" transform="translate(66.824 103.362)" fill="#1d1d1b"/>
      <line id="Line_72" data-name="Line 72" x2="186.422" transform="translate(113.588 77.337)" fill="none" stroke="#000" stroke-miterlimit="10" stroke-width="15"/>
      <line id="Line_73" data-name="Line 73" x2="186.422" transform="translate(113.588 87.207)" fill="none" stroke="#000" stroke-miterlimit="10" stroke-width="15"/>
      <ellipse id="Ellipse_284" data-name="Ellipse 284" cx="9.227" cy="9.227" rx="9.227" ry="9.227" transform="translate(315.544 73.908)" fill="#696868" stroke="#000" stroke-miterlimit="10" stroke-width="2"/>
      <ellipse id="Ellipse_285" data-name="Ellipse 285" cx="12.843" cy="12.843" rx="12.843" ry="12.843" transform="translate(302.701 104.843)" fill="#696868" stroke="#000" stroke-miterlimit="10" stroke-width="2"/>
      <ellipse id="Ellipse_286" data-name="Ellipse 286" cx="12.843" cy="12.843" rx="12.843" ry="12.843" transform="translate(308.311 183.708)" fill="#696868" stroke="#000" stroke-miterlimit="10" stroke-width="2"/>
      <rect id="Rectangle_39" data-name="Rectangle 39" width="120.597" height="21.669" transform="translate(113.801 142.568)" fill="#696868"/>
      <line id="Line_74" data-name="Line 74" y1="0.32" x2="107.306" transform="translate(120.955 149.662)" fill="none" stroke="#000" stroke-miterlimit="10" stroke-width="7"/>
      <line id="Line_75" data-name="Line 75" y1="0.32" x2="107.306" transform="translate(120.974 156.377)" fill="none" stroke="#000" stroke-miterlimit="10" stroke-width="7"/>
      <line id="Line_76" data-name="Line 76" x1="6.73" y2="0.079" transform="translate(126.56 149.916)" fill="none" stroke="#34a936" stroke-miterlimit="10" stroke-width="8"/>
      <line id="Line_77" data-name="Line 77" x1="6.73" y2="0.079" transform="translate(181.494 156.496)" fill="none" stroke="#34a936" stroke-miterlimit="10" stroke-width="8"/>
      <line id="Line_78" data-name="Line 78" y1="0.467" x2="51.252" transform="translate(259.33 234.439)" fill="none" stroke="#000" stroke-miterlimit="10" stroke-width="21"/>
      <line id="Line_79" data-name="Line 79" x1="3.218" transform="translate(292.473 234.59)" fill="none" stroke="#34a936" stroke-miterlimit="10" stroke-width="21"/>
      <rect id="Rectangle_40" data-name="Rectangle 40" width="25.226" height="6.58" transform="translate(257.247 149.957)" fill="#696868" stroke="#0b0b0b" stroke-miterlimit="10" stroke-width="1"/>
      <rect id="Rectangle_41" data-name="Rectangle 41" width="12.611" height="3.29" transform="translate(244.636 181.873)" fill="#696868" stroke="#0b0b0b" stroke-miterlimit="10" stroke-width="1"/>
      <rect id="Rectangle_42" data-name="Rectangle 42" width="12.611" height="3.29" transform="translate(263.555 181.873)" fill="#696868" stroke="#0b0b0b" stroke-miterlimit="10" stroke-width="1"/>
      <rect id="Rectangle_43" data-name="Rectangle 43" width="12.611" height="3.29" transform="translate(281.47 181.873)" fill="#696868" stroke="#0b0b0b" stroke-miterlimit="10" stroke-width="1"/>
      <rect id="Rectangle_44" data-name="Rectangle 44" width="12.611" height="3.29" transform="translate(244.636 191.286)" fill="#696868" stroke="#0b0b0b" stroke-miterlimit="10" stroke-width="1"/>
      <rect id="Rectangle_45" data-name="Rectangle 45" width="12.611" height="3.29" transform="translate(263.555 191.286)" fill="#696868" stroke="#0b0b0b" stroke-miterlimit="10" stroke-width="1"/>
      <rect id="Rectangle_46" data-name="Rectangle 46" width="12.611" height="3.29" transform="translate(281.47 191.286)" fill="#696868" stroke="#0b0b0b" stroke-miterlimit="10" stroke-width="1"/>
      <rect id="Rectangle_47" data-name="Rectangle 47" width="12.611" height="3.29" transform="translate(244.636 200.149)" fill="#696868" stroke="#0b0b0b" stroke-miterlimit="10" stroke-width="1"/>
      <rect id="Rectangle_48" data-name="Rectangle 48" width="12.611" height="3.29" transform="translate(263.555 200.149)" fill="#696868" stroke="#0b0b0b" stroke-miterlimit="10" stroke-width="1"/>
      <rect id="Rectangle_49" data-name="Rectangle 49" width="12.611" height="3.29" transform="translate(281.47 200.149)" fill="#696868" stroke="#0b0b0b" stroke-miterlimit="10" stroke-width="1"/>
      <rect id="Rectangle_50" data-name="Rectangle 50" width="12.611" height="3.29" transform="translate(244.636 209.395)" fill="#696868" stroke="#0b0b0b" stroke-miterlimit="10" stroke-width="1"/>
      <rect id="Rectangle_51" data-name="Rectangle 51" width="12.611" height="3.29" transform="translate(263.555 209.395)" fill="#696868" stroke="#0b0b0b" stroke-miterlimit="10" stroke-width="1"/>
      <rect id="Rectangle_52" data-name="Rectangle 52" width="12.611" height="3.29" transform="translate(281.47 209.395)" fill="#696868" stroke="#0b0b0b" stroke-miterlimit="10" stroke-width="1"/>
      <rect id="Rectangle_53" data-name="Rectangle 53" width="25.226" height="6.58" transform="translate(262.551 114.397)" fill="#696868" stroke="#0b0b0b" stroke-miterlimit="10" stroke-width="1"/>
      <rect id="Rectangle_54" data-name="Rectangle 54" width="25.226" height="6.58" transform="translate(300.009 150.114)" fill="#696868" stroke="#0b0b0b" stroke-miterlimit="10" stroke-width="1"/>
      <rect id="Rectangle_55" data-name="Rectangle 55" width="114.865" height="63.343" transform="translate(113.588 181.854)" fill="none" stroke="#0b0b0b" stroke-miterlimit="10" stroke-width="1"/>
      <rect id="Rectangle_56" data-name="Rectangle 56" width="90.329" height="36.235" transform="translate(125.838 187.101)" fill="#444242" stroke="#0b0b0b" stroke-miterlimit="10" stroke-width="1"/>
      <path id="Path_493" data-name="Path 493" d="M0,4.008H35.075V0l12.97,8.65H0Z" transform="translate(146.981 229.468)" fill="#1d1d1b" stroke="#b5b4b4" stroke-miterlimit="10" stroke-width="1"/>
      <ellipse id="Ellipse_287" data-name="Ellipse 287" cx="5.887" cy="5.887" rx="5.887" ry="5.887" transform="translate(189.141 200.911)" fill="#1d1d1b"/>
      <ellipse id="Ellipse_288" data-name="Ellipse 288" cx="5.887" cy="5.887" rx="5.887" ry="5.887" transform="translate(139.071 200.911)" fill="#1d1d1b"/>
      <ellipse id="Ellipse_289" data-name="Ellipse 289" cx="9.227" cy="9.227" rx="9.227" ry="9.227" transform="translate(116.288 106.741)" fill="#696868" stroke="#000" stroke-miterlimit="10" stroke-width="2"/>
      <line id="Line_80" data-name="Line 80" y1="12.301" x2="11.222" transform="translate(118.434 108.654)" fill="none" stroke="#000" stroke-miterlimit="10" stroke-width="3"/>
      <line id="Line_81" data-name="Line 81" y1="12.474" x2="11.043" transform="translate(120.287 110.153)" fill="none" stroke="#000" stroke-miterlimit="10" stroke-width="3"/>
      <line id="Line_82" data-name="Line 82" x2="2.381" y2="2.164" transform="translate(118.559 120.434)" fill="none" stroke="#000" stroke-miterlimit="10" stroke-width="3"/>
      <line id="Line_83" data-name="Line 83" x2="2.242" y2="2.033" transform="translate(128.994 108.672)" fill="none" stroke="#000" stroke-miterlimit="10" stroke-width="3"/>
      <ellipse id="Ellipse_290" data-name="Ellipse 290" cx="9.227" cy="9.227" rx="9.227" ry="9.227" transform="translate(143.434 107.164)" fill="#696868" stroke="#000" stroke-miterlimit="10" stroke-width="2"/>
      <line id="Line_84" data-name="Line 84" x1="16.087" y1="4.309" transform="translate(144.262 116.078)" fill="none" stroke="#000" stroke-miterlimit="10" stroke-width="3"/>
      <line id="Line_85" data-name="Line 85" x1="16.156" y1="4.074" transform="translate(144.823 113.898)" fill="none" stroke="#000" stroke-miterlimit="10" stroke-width="3"/>
      <line id="Line_86" data-name="Line 86" y1="3.108" x2="0.828" transform="translate(159.825 117.404)" fill="none" stroke="#000" stroke-miterlimit="10" stroke-width="3"/>
      <line id="Line_87" data-name="Line 87" y1="2.929" x2="0.772" transform="translate(144.585 113.729)" fill="none" stroke="#000" stroke-miterlimit="10" stroke-width="3"/>
      <ellipse id="Ellipse_291" data-name="Ellipse 291" cx="9.227" cy="9.227" rx="9.227" ry="9.227" transform="translate(171.003 107.584)" fill="#696868" stroke="#000" stroke-miterlimit="10" stroke-width="3"/>
      <line id="Line_88" data-name="Line 88" y1="15.24" x2="6.715" transform="translate(175.106 108.557)" fill="none" stroke="#000" stroke-miterlimit="10" stroke-width="3"/>
      <line id="Line_89" data-name="Line 89" y1="15.343" x2="6.493" transform="translate(177.395 109.444)" fill="none" stroke="#000" stroke-miterlimit="10" stroke-width="3"/>
      <line id="Line_90" data-name="Line 90" x2="2.948" y2="1.295" transform="translate(175.061 123.26)" fill="none" stroke="#000" stroke-miterlimit="10" stroke-width="3"/>
      <line id="Line_91" data-name="Line 91" x2="2.775" y2="1.211" transform="translate(181.2 108.785)" fill="none" stroke="#000" stroke-miterlimit="10" stroke-width="3"/>
      <ellipse id="Ellipse_292" data-name="Ellipse 292" cx="9.227" cy="9.227" rx="9.227" ry="9.227" transform="translate(197.571 108.004)" fill="#696868" stroke="#000" stroke-miterlimit="10" stroke-width="2"/>
      <line id="Line_92" data-name="Line 92" x1="11.796" y1="11.755" transform="translate(199.673 112.772)" fill="none" stroke="#000" stroke-miterlimit="10" stroke-width="3"/>
      <line id="Line_93" data-name="Line 93" x1="11.972" y1="11.583" transform="translate(201.247 111.166)" fill="none" stroke="#000" stroke-miterlimit="10" stroke-width="3"/>
      <line id="Line_94" data-name="Line 94" y1="2.283" x2="2.271" transform="translate(210.951 122.093)" fill="none" stroke="#000" stroke-miterlimit="10" stroke-width="3"/>
      <line id="Line_95" data-name="Line 95" y1="2.155" x2="2.133" transform="translate(199.66 111.282)" fill="none" stroke="#000" stroke-miterlimit="10" stroke-width="3"/>
      <ellipse id="Ellipse_293" data-name="Ellipse 293" cx="9.227" cy="9.227" rx="9.227" ry="9.227" transform="translate(225.172 108.004)" fill="#696868" stroke="#000" stroke-miterlimit="10" stroke-width="2"/>
      <line id="Line_96" data-name="Line 96" x2="16.642" y2="0.577" transform="translate(226.012 115.068)" fill="none" stroke="#000" stroke-miterlimit="10" stroke-width="3"/>
      <line id="Line_97" data-name="Line 97" x2="16.657" y2="0.333" transform="translate(225.94 117.562)" fill="none" stroke="#000" stroke-miterlimit="10" stroke-width="3"/>
      <line id="Line_98" data-name="Line 98" x1="0.107" y2="3.218" transform="translate(226.386 114.826)" fill="none" stroke="#000" stroke-miterlimit="10" stroke-width="3"/>
      <line id="Line_99" data-name="Line 99" x1="0.091" y2="3.029" transform="translate(242.117 115.149)" fill="none" stroke="#000" stroke-miterlimit="10" stroke-width="3"/>
    </g>
    <g id="ostehjul" transform="translate(1204.617 2719.897)">
      <g id="Group_56" data-name="Group 56" transform="translate(125.757 127.482)" opacity="0.5">
        <path id="Path_660" data-name="Path 660" d="M351.322,303.9c-5.13-3.96-5.825-10.757-6.137-12.591-2.693-15.861-41.816-43.647-66.68-32.812-21.493,9.37-30.569,37.2-28.838,44.212a14.627,14.627,0,0,1,.265,6.921,15.346,15.346,0,0,1-4.1,7.319c-45.236,8.095-88.378-10.4-106.52-43.817-17.156-31.6-7.688-68.73-3.074-78.158a78.657,78.657,0,0,1,11.723-17.139,70.746,70.746,0,0,1,5.655-5.344c9.442-7.916,20.149-11.535,26.941-13.666a404.727,404.727,0,0,1,47.549-11.587s14.249-1.768,29.851-3.12a337.846,337.846,0,0,1,37.966-.634c15.132.637,40.007,3.112,71.761,12.761a126.332,126.332,0,0,1,30.949,15.512,76.344,76.344,0,0,1,14.54,16.992,78.656,78.656,0,0,1,11.743,39.033c1.537,9.834,1.687,23.071-4.326,35.8a62.918,62.918,0,0,1-5.543,9.352c-1.687,2.411-8.337,10.526-21.707,20.556-4.816,3.613-20.259,14.6-33.824,13.332A15.227,15.227,0,0,1,351.322,303.9Z" transform="translate(-129.448 -143.222)" fill="#010101" stroke="#010101" stroke-miterlimit="10" stroke-width="1"/>
        <path id="Path_661" data-name="Path 661" d="M240.534,355.165a5.212,5.212,0,0,1-3.585-.683,48.467,48.467,0,0,0-6.745-3.57c-1.2-.528-2.411-1.021-3.634-1.491-.236-.092-.479-.19-.724-.288l-.107-.038c-.62-.225-1.24-.45-1.863-.669-2.382-.845-4.773-1.664-7.146-2.535a157.334,157.334,0,0,1-15.573-6.512,94.7,94.7,0,0,1-25.089-18.632c-7.386-7.5-13.736-16.351-16.219-26.722a144.681,144.681,0,0,1-3.481-33.386c0-5.459.208-10.918.577-16.363a70.877,70.877,0,0,1,2.111-13.981,61.876,61.876,0,0,1,12.689-24.406,47.97,47.97,0,0,1,7.1-6.679c-6.791,2.2-16.533,5.84-25.208,13.113a70.744,70.744,0,0,0-5.655,5.344,78.315,78.315,0,0,0-11.723,17.139c-4.629,9.439-14.1,46.571,3.066,78.181,17.643,32.5,58.937,50.882,102.8,44.411a5.54,5.54,0,0,1-1.595-2.232Z" transform="translate(-129.454 -183.064)" fill="#010101" stroke="#010101" stroke-miterlimit="10" stroke-width="1"/>
        <path id="Path_662" data-name="Path 662" d="M555.573,274.36A262.689,262.689,0,0,0,524.7,322.831q-.952,1.944-1.863,3.879a35.818,35.818,0,0,0-1.081,3.928c-.185.865-.329,1.673-.441,2.454-1.006,5.442-1.863,11.175-2.5,17.179q-.288,2.6-.49,5.153c-1.4,2.137,1.252,46.536,1.03,49.334a5.735,5.735,0,0,0,2.5,5.479c1.324.8,5.745-5.854,5.745-5.854l27.4-52.572Z" transform="translate(-405.881 -236.542)" fill="#010101" stroke="#010101" stroke-miterlimit="10" stroke-width="1"/>
        <path id="Path_663" data-name="Path 663" d="M647.34,351.831l65.679,42.617c1.681,1.012,11.279,6.688,16.282,5.54a6.975,6.975,0,0,0,1.474-.531c3.149-1.632,4-5.748,4.369-7.674,3.247-16.888,3.3-22.269,3.3-22.269.113-11.417.167-17.127-1.474-25.035-1.373-6.613-2.884-13.531-7.853-21.009a48.175,48.175,0,0,0-10.506-11.29c-2.44-1.3-6.362-3.4-11.192-5.99-8.839-4.741-15.284-8.228-16.787-9.032-6.823-3.68-19.094-10.229-43-22.8Z" transform="translate(-497.989 -236.542)" fill="#010101" stroke="#010101" stroke-miterlimit="10" stroke-width="1"/>
        <ellipse id="Ellipse_15" data-name="Ellipse 15" cx="2.451" cy="8.652" rx="2.451" ry="8.652" transform="translate(131.942 71.043)" fill="#010101" stroke="#010101" stroke-miterlimit="10" stroke-width="1"/>
        <ellipse id="Ellipse_16" data-name="Ellipse 16" cx="1.442" cy="6.489" rx="1.442" ry="6.489" transform="translate(118.388 98.728)" fill="#010101" stroke="#010101" stroke-miterlimit="10" stroke-width="1"/>
        <ellipse id="Ellipse_17" data-name="Ellipse 17" cx="1.73" cy="5.335" rx="1.73" ry="5.335" transform="translate(127.328 94.69)" fill="#010101" stroke="#010101" stroke-miterlimit="10" stroke-width="1"/>
        <ellipse id="Ellipse_18" data-name="Ellipse 18" cx="1.009" cy="3.749" rx="1.009" ry="3.749" transform="translate(137.133 98.728)" fill="#010101" stroke="#010101" stroke-miterlimit="10" stroke-width="1"/>
        <ellipse id="Ellipse_19" data-name="Ellipse 19" cx="0.865" cy="4.614" rx="0.865" ry="4.614" transform="translate(141.17 108.821)" fill="#010101" stroke="#010101" stroke-miterlimit="10" stroke-width="1"/>
        <ellipse id="Ellipse_20" data-name="Ellipse 20" cx="2.451" cy="9.805" rx="2.451" ry="9.805" transform="translate(129.635 113.435)" fill="#010101" stroke="#010101" stroke-miterlimit="10" stroke-width="1"/>
        <ellipse id="Ellipse_21" data-name="Ellipse 21" cx="2.307" cy="8.507" rx="2.307" ry="8.507" transform="translate(121.848 116.031)" fill="#010101" stroke="#010101" stroke-miterlimit="10" stroke-width="1"/>
        <ellipse id="Ellipse_22" data-name="Ellipse 22" cx="1.586" cy="4.326" rx="1.586" ry="4.326" transform="translate(142.035 79.694)" fill="#010101" stroke="#010101" stroke-miterlimit="10" stroke-width="1"/>
        <ellipse id="Ellipse_23" data-name="Ellipse 23" cx="1.73" cy="4.47" rx="1.73" ry="4.47" transform="translate(141.17 59.796)" fill="#010101" stroke="#010101" stroke-miterlimit="10" stroke-width="1"/>
        <ellipse id="Ellipse_24" data-name="Ellipse 24" cx="2.74" cy="4.614" rx="2.74" ry="4.614" transform="translate(160.492 57.2)" fill="#010101" stroke="#010101" stroke-miterlimit="10" stroke-width="1"/>
        <ellipse id="Ellipse_25" data-name="Ellipse 25" cx="5.768" cy="9.372" rx="5.768" ry="9.372" transform="translate(175.199 69.601)" fill="#010101" stroke="#010101" stroke-miterlimit="10" stroke-width="1"/>
        <ellipse id="Ellipse_26" data-name="Ellipse 26" cx="1.442" cy="5.768" rx="1.442" ry="5.768" transform="translate(118.388 144.292)" fill="#010101" stroke="#010101" stroke-miterlimit="10" stroke-width="1"/>
        <ellipse id="Ellipse_27" data-name="Ellipse 27" cx="6.056" cy="8.94" rx="6.056" ry="8.94" transform="translate(183.274 110.551)" fill="#010101" stroke="#010101" stroke-miterlimit="10" stroke-width="1"/>
        <ellipse id="Ellipse_28" data-name="Ellipse 28" cx="3.316" cy="5.768" rx="3.316" ry="5.768" transform="translate(164.529 88.346)" fill="#010101" stroke="#010101" stroke-miterlimit="10" stroke-width="1"/>
        <ellipse id="Ellipse_29" data-name="Ellipse 29" cx="2.019" cy="3.605" rx="2.019" ry="3.605" transform="translate(159.05 106.226)" fill="#010101" stroke="#010101" stroke-miterlimit="10" stroke-width="1"/>
        <ellipse id="Ellipse_30" data-name="Ellipse 30" cx="5.335" cy="8.507" rx="5.335" ry="8.507" transform="translate(201.154 96.132)" fill="#010101" stroke="#010101" stroke-miterlimit="10" stroke-width="1"/>
        <ellipse id="Ellipse_31" data-name="Ellipse 31" cx="4.903" cy="6.633" rx="4.903" ry="6.633" transform="translate(220.475 105.36)" fill="#010101" stroke="#010101" stroke-miterlimit="10" stroke-width="1"/>
        <ellipse id="Ellipse_32" data-name="Ellipse 32" cx="3.749" cy="5.335" rx="3.749" ry="5.335" transform="translate(211.824 131.603)" fill="#010101" stroke="#010101" stroke-miterlimit="10" stroke-width="1"/>
        <ellipse id="Ellipse_33" data-name="Ellipse 33" cx="3.028" cy="4.903" rx="3.028" ry="4.903" transform="translate(209.228 81.713)" fill="#010101" stroke="#010101" stroke-miterlimit="10" stroke-width="1"/>
        <path id="Path_664" data-name="Path 664" d="M589.391,408.935a22.739,22.739,0,0,1-.946-5.768c-.225-5.35-.392-6.443-.066-7.44a11.424,11.424,0,0,0,.493-2.125c.055-.4.078-.738.089-.952-.9,1.278-1.531,4.357-1.531,7.959,0,4.208.865,7.708,2.019,8.444A.405.405,0,0,1,589.391,408.935Z" transform="translate(-455.356 -320.719)" fill="#010101" stroke="#010101" stroke-miterlimit="10" stroke-width="1"/>
        <path id="Path_665" data-name="Path 665" d="M540.823,497.918c-.032-.156-.072-.309-.115-.459a1.226,1.226,0,0,1-.086-.288,4.522,4.522,0,0,1-.2-.865v-.029a.449.449,0,0,0-.038-.115,1.152,1.152,0,0,1-.164-.539c0-.326-.084-.646-.072-.975a3.191,3.191,0,0,1,.032-.369,3.569,3.569,0,0,1-.052-.5,1.211,1.211,0,0,1,.135-.557c0-.248-.02-.5-.02-.747a27.714,27.714,0,0,1,.133-2.768,16.088,16.088,0,0,1,.721-2.682,1.153,1.153,0,0,1,.461-.663c-.133-.2-.271-.306-.418-.306-.758,0-1.373,2.9-1.373,6.48s.614,6.48,1.373,6.48c.15,0,.288-.115.427-.323A.929.929,0,0,1,540.823,497.918Z" transform="translate(-421.44 -387.191)" fill="#010101" stroke="#010101" stroke-miterlimit="10" stroke-width="1"/>
        <path id="Path_666" data-name="Path 666" d="M572.294,481.739c0-.032-.032-.061-.046-.089a10.457,10.457,0,0,1-.709-4.164,13.2,13.2,0,0,1,.343-2.656q.11-1.073.311-2.125a1.027,1.027,0,0,1,.686-.784.692.692,0,0,0-.363-.11c-.981,0-1.776,2.373-1.776,5.3s.8,5.3,1.776,5.3a.621.621,0,0,0,.144-.02A1.023,1.023,0,0,1,572.294,481.739Z" transform="translate(-443.479 -377.051)" fill="#010101" stroke="#010101" stroke-miterlimit="10" stroke-width="1"/>
        <path id="Path_667" data-name="Path 667" d="M605.5,486.348a1.247,1.247,0,0,1,.061-.228h-.029c-.6,0-1.079,1.67-1.079,3.732s.482,3.732,1.079,3.732a.4.4,0,0,0,.173-.052A17.733,17.733,0,0,1,605.5,486.348Z" transform="translate(-467.467 -387.234)" fill="#010101" stroke="#010101" stroke-miterlimit="10" stroke-width="1"/>
        <path id="Path_668" data-name="Path 668" d="M619.224,524.8a21.542,21.542,0,0,1,.51-4.222.222.222,0,0,0-.159-.084c-.461,0-.836,2.065-.836,4.614s.375,4.614.836,4.614c.113,0,.216-.124.314-.343C619.072,528.011,619.167,526.33,619.224,524.8Z" transform="translate(-477.636 -411.692)" fill="#010101" stroke="#010101" stroke-miterlimit="10" stroke-width="1"/>
        <path id="Path_669" data-name="Path 669" d="M580.887,555.249a18.63,18.63,0,0,1-.487-4.715,28.039,28.039,0,0,1-.366-4.17c.13-1.575.15-3.172.317-4.732a20.886,20.886,0,0,1,1.107-4.395,1.153,1.153,0,0,1,.5-.649.666.666,0,0,0-.334-.1c-1.329,0-2.405,4.4-2.405,9.805s1.076,9.8,2.405,9.8a.672.672,0,0,0,.288-.078A1.079,1.079,0,0,1,580.887,555.249Z" transform="translate(-449.513 -423.078)" fill="#010101" stroke="#010101" stroke-miterlimit="10" stroke-width="1"/>
        <path id="Path_670" data-name="Path 670" d="M553.817,562.253c-.141-.937-.606-1.8-.764-2.743-.13-.753-.288-1.5-.4-2.255a21.323,21.323,0,0,1-.187-3.781,18.581,18.581,0,0,1,.026-3.3,29.24,29.24,0,0,1,.842-3.5,1.25,1.25,0,0,1,.063-.2c-.989,1.015-1.713,4.308-1.713,8.213,0,4.718,1.055,8.542,2.356,8.542a.74.74,0,0,0,.363-.1A1.185,1.185,0,0,1,553.817,562.253Z" transform="translate(-429.915 -430.18)" fill="#010101" stroke="#010101" stroke-miterlimit="10" stroke-width="1"/>
        <path id="Path_671" data-name="Path 671" d="M623.088,429.657a13.486,13.486,0,0,1-.678-7.267,7.578,7.578,0,0,0-.77,3.671c0,2.373.715,4.3,1.595,4.3a.681.681,0,0,0,.366-.118A1.194,1.194,0,0,1,623.088,429.657Z" transform="translate(-479.7 -341.882)" fill="#010101" stroke="#010101" stroke-miterlimit="10" stroke-width="1"/>
        <path id="Path_672" data-name="Path 672" d="M619.421,357.757c-.1-2.235.577-4.369.545-6.569v-.058c-.715.5-1.246,2.218-1.246,4.268a7.614,7.614,0,0,0,.822,3.8A12.72,12.72,0,0,1,619.421,357.757Z" transform="translate(-477.622 -291.173)" fill="#010101" stroke="#010101" stroke-miterlimit="10" stroke-width="1"/>
        <path id="Path_673" data-name="Path 673" d="M698.632,346a15.763,15.763,0,0,1-1.182,8.075c1.226-.47,2.14-2.307,2.14-4.542A6.376,6.376,0,0,0,698.632,346Z" transform="translate(-533.648 -287.522)" fill="#010101" stroke="#010101" stroke-miterlimit="10" stroke-width="1"/>
        <path id="Path_674" data-name="Path 674" d="M767.52,389.42a.291.291,0,0,1-.02.13,1.131,1.131,0,0,1,.2.265c1.491,2.734,1.26,6.056.822,9.035-.182,1.24-.412,2.466-.64,3.688.063.8.112,1.621.11,2.434a12.184,12.184,0,0,0,2.307-7.518C770.286,394.054,769.178,391.081,767.52,389.42Z" transform="translate(-583.496 -318.42)" fill="#010101" stroke="#010101" stroke-miterlimit="10" stroke-width="1"/>
        <path id="Path_675" data-name="Path 675" d="M541.045,655.4a38.124,38.124,0,0,1-.577-7.189,12.134,12.134,0,0,1,.2-3.2,4.423,4.423,0,0,1,.311-.8c-.683.334-1.211,2.757-1.211,5.7,0,3.149.606,5.7,1.358,5.739A1.278,1.278,0,0,1,541.045,655.4Z" transform="translate(-421.44 -499.74)" fill="#010101" stroke="#010101" stroke-miterlimit="10" stroke-width="1"/>
        <path id="Path_676" data-name="Path 676" d="M793.385,530.017a10.043,10.043,0,0,1,.352,1c.259.816.482,1.641.73,2.4a17.921,17.921,0,0,1,.9,6.748,24.756,24.756,0,0,1-.383,3.51,11.064,11.064,0,0,0,1.984-6.567c0-3.965-1.776-7.319-4.234-8.476A9.7,9.7,0,0,1,793.385,530.017Z" transform="translate(-601.451 -417.485)" fill="#010101" stroke="#010101" stroke-miterlimit="10" stroke-width="1"/>
        <path id="Path_677" data-name="Path 677" d="M715.182,460.59a8,8,0,0,0,1.22-4.487c0-2.794-1.136-5.127-2.642-5.673A16.194,16.194,0,0,1,715.182,460.59Z" transform="translate(-545.254 -361.836)" fill="#010101" stroke="#010101" stroke-miterlimit="10" stroke-width="1"/>
        <path id="Path_678" data-name="Path 678" d="M689.845,512.84a24.245,24.245,0,0,1,.231,3.005,4.545,4.545,0,0,1-.023,1.1,5.089,5.089,0,0,1-.6,2.653c.966-.288,1.7-1.73,1.7-3.461A4.046,4.046,0,0,0,689.845,512.84Z" transform="translate(-527.955 -406.248)" fill="#010101" stroke="#010101" stroke-miterlimit="10" stroke-width="1"/>
        <path id="Path_679" data-name="Path 679" d="M855.18,487.394a24.245,24.245,0,0,1-.384,7.567,10.92,10.92,0,0,0,2.094-6.783c0-3.256-1.154-6.091-2.82-7.538A26.85,26.85,0,0,1,855.18,487.394Z" transform="translate(-645.101 -383.334)" fill="#010101" stroke="#010101" stroke-miterlimit="10" stroke-width="1"/>
        <path id="Path_680" data-name="Path 680" d="M918.361,513.93a19.17,19.17,0,0,1,.092,6.16c-.161,1.745-.464,3.836-1.624,5.234,1.906-.9,3.276-3.374,3.276-6.29A7.8,7.8,0,0,0,918.361,513.93Z" transform="translate(-689.762 -407.024)" fill="#010101" stroke="#010101" stroke-miterlimit="10" stroke-width="1"/>
        <path id="Path_681" data-name="Path 681" d="M884.772,610.582a5.68,5.68,0,0,1-.334,2.134,3.647,3.647,0,0,1-.337,1.442,6.241,6.241,0,0,0,1.523-4.285,6.733,6.733,0,0,0-.926-3.513c.014.2.029.4.043.594A30.053,30.053,0,0,1,884.772,610.582Z" transform="translate(-666.471 -472.798)" fill="#010101" stroke="#010101" stroke-miterlimit="10" stroke-width="1"/>
        <path id="Path_682" data-name="Path 682" d="M871.2,430.74a4.9,4.9,0,0,1,.141,1.987h0a23.732,23.732,0,0,1-.707,6.151,5.551,5.551,0,0,0,1.73-4.349A6.291,6.291,0,0,0,871.2,430.74Z" transform="translate(-656.885 -347.824)" fill="#010101" stroke="#010101" stroke-miterlimit="10" stroke-width="1"/>
      </g>
      <path id="Path_683" data-name="Path 683" d="M346.129,281.781c-5.128-3.959-5.822-10.757-6.134-12.591-2.694-15.861-41.816-43.647-66.68-32.809-21.493,9.367-30.569,37.2-28.838,44.209a14.6,14.6,0,0,1,.262,6.921,15.369,15.369,0,0,1-4.1,7.319c-45.227,8.106-88.375-10.39-106.514-43.8-17.153-31.615-7.7-68.745-3.068-78.172a78.594,78.594,0,0,1,11.723-17.136,70.006,70.006,0,0,1,5.655-5.347c9.439-7.916,20.149-11.535,26.941-13.664a404.973,404.973,0,0,1,47.546-11.59s14.252-1.768,29.853-3.12a338.555,338.555,0,0,1,37.966-.634c15.131.637,40.007,3.112,71.758,12.761a126.459,126.459,0,0,1,30.949,15.512,76.421,76.421,0,0,1,14.543,17,78.656,78.656,0,0,1,11.743,39.033c1.537,9.834,1.687,23.071-4.326,35.8a62.917,62.917,0,0,1-5.548,9.352c-1.687,2.411-8.337,10.526-21.707,20.556-4.816,3.613-20.259,14.6-33.827,13.332A15.21,15.21,0,0,1,346.129,281.781Z" fill="#c4792c" stroke="#1f1c18" stroke-miterlimit="10" stroke-width="3"/>
      <path id="Path_684" data-name="Path 684" d="M195.972,317.3c-12.8-8.127-18.967-12.4-25.089-18.632-7.388-7.5-13.736-16.351-16.219-26.722a145.476,145.476,0,0,1-3.481-33.386c0-5.459.208-10.918.577-16.363a70.877,70.877,0,0,1,2.111-13.981,61.876,61.876,0,0,1,12.689-24.406,48.287,48.287,0,0,1,7.1-6.679c-6.791,2.2-16.536,5.84-25.208,13.113a70.005,70.005,0,0,0-5.655,5.347,78.253,78.253,0,0,0-11.723,17.136c-4.614,9.4-14.131,46.51,3.068,78.172,18.113,33.323,61.048,51.773,106.05,43.777-.975-.063-2.437-.179-4.2-.4C228.061,333.29,216.816,330.538,195.972,317.3Z" transform="translate(-0.002 -39.87)" fill="#342715" stroke="#1f1c18" stroke-miterlimit="10" stroke-width="1" opacity="0.23"/>
      <path id="Path_685" data-name="Path 685" d="M550.216,252.24a262.774,262.774,0,0,0-30.874,48.471q-.958,1.944-1.866,3.879a36.47,36.47,0,0,0-1.081,3.928c-.185.865-.329,1.673-.441,2.454-1.006,5.442-1.863,11.175-2.5,17.179q-.288,2.6-.49,5.156c-1.4,2.134,1.252,46.534,1.03,49.331a5.735,5.735,0,0,0,2.5,5.479c1.324.8,5.745-5.854,5.745-5.854l27.4-52.569Z" transform="translate(-276.312 -93.319)" fill="#f9af1e" stroke="#010101" stroke-miterlimit="10" stroke-width="3"/>
      <path id="Path_686" data-name="Path 686" d="M642.14,329.723l65.676,42.609c1.684,1.009,11.282,6.685,16.285,5.537a7.066,7.066,0,0,0,1.474-.528c3.146-1.635,4-5.747,4.366-7.674,3.25-16.888,3.3-22.272,3.3-22.272.115-11.417.17-17.124-1.471-25.035-1.373-6.61-2.884-13.528-7.856-21.009a48.117,48.117,0,0,0-10.5-11.29c-2.44-1.3-6.362-3.4-11.192-5.99-8.839-4.741-15.3-8.228-16.787-9.032-6.823-3.68-19.094-10.229-43-22.8Z" transform="translate(-368.531 -93.319)" fill="#f9af1e" stroke="#010101" stroke-miterlimit="10" stroke-width="3"/>
      <ellipse id="Ellipse_34" data-name="Ellipse 34" cx="2.454" cy="8.591" rx="2.454" ry="8.591" transform="translate(256.329 192.324)" fill="#a56d19"/>
      <ellipse id="Ellipse_35" data-name="Ellipse 35" cx="1.376" cy="6.48" rx="1.376" ry="6.48" transform="translate(242.585 219.911)" fill="#a56d19"/>
      <ellipse id="Ellipse_36" data-name="Ellipse 36" cx="1.776" cy="5.3" rx="1.776" ry="5.3" transform="translate(251.519 215.787)" fill="#a56d19"/>
      <ellipse id="Ellipse_37" data-name="Ellipse 37" cx="1.079" cy="3.732" rx="1.079" ry="3.732" transform="translate(261.24 219.911)" fill="#a56d19"/>
      <ellipse id="Ellipse_38" data-name="Ellipse 38" cx="0.833" cy="4.614" rx="0.833" ry="4.614" transform="translate(265.364 229.826)" fill="#a56d19"/>
      <ellipse id="Ellipse_39" data-name="Ellipse 39" cx="2.405" cy="9.817" rx="2.405" ry="9.817" transform="translate(253.973 234.44)" fill="#a56d19"/>
      <ellipse id="Ellipse_40" data-name="Ellipse 40" cx="2.356" cy="8.542" rx="2.356" ry="8.542" transform="translate(246.022 236.992)" fill="#a56d19"/>
      <ellipse id="Ellipse_41" data-name="Ellipse 41" cx="1.595" cy="4.294" rx="1.595" ry="4.294" transform="translate(266.198 200.915)" fill="#a56d19"/>
      <ellipse id="Ellipse_42" data-name="Ellipse 42" cx="1.67" cy="4.418" rx="1.67" ry="4.418" transform="translate(265.361 180.838)" fill="#a56d19"/>
      <ellipse id="Ellipse_43" data-name="Ellipse 43" cx="2.748" cy="4.663" rx="2.748" ry="4.663" transform="translate(284.703 178.384)" fill="#a56d19"/>
      <ellipse id="Ellipse_44" data-name="Ellipse 44" cx="5.808" cy="9.442" rx="5.808" ry="9.442" transform="translate(299.428 190.62)" fill="#a56d19"/>
      <ellipse id="Ellipse_45" data-name="Ellipse 45" cx="1.376" cy="5.742" rx="1.376" ry="5.742" transform="translate(242.585 265.464)" fill="#a56d19"/>
      <ellipse id="Ellipse_46" data-name="Ellipse 46" cx="6.111" cy="8.908" rx="6.111" ry="8.908" transform="translate(307.54 231.741)" fill="#a56d19"/>
      <ellipse id="Ellipse_47" data-name="Ellipse 47" cx="3.314" cy="5.794" rx="3.314" ry="5.794" transform="translate(288.775 209.503)" fill="#a56d19"/>
      <ellipse id="Ellipse_48" data-name="Ellipse 48" cx="2.062" cy="3.536" rx="2.062" ry="3.536" transform="translate(283.328 227.372)" fill="#a56d19"/>
      <ellipse id="Ellipse_49" data-name="Ellipse 49" cx="5.375" cy="8.565" rx="5.375" ry="8.565" transform="translate(325.296 217.31)" fill="#a56d19"/>
      <ellipse id="Ellipse_50" data-name="Ellipse 50" cx="4.859" cy="6.65" rx="4.859" ry="6.65" transform="translate(344.883 226.391)" fill="#a56d19"/>
      <ellipse id="Ellipse_51" data-name="Ellipse 51" cx="3.683" cy="5.3" rx="3.683" ry="5.3" transform="translate(336.047 252.798)" fill="#a56d19"/>
      <ellipse id="Ellipse_52" data-name="Ellipse 52" cx="3.091" cy="4.859" rx="3.091" ry="4.859" transform="translate(333.544 202.879)" fill="#a56d19"/>
      <path id="Path_687" data-name="Path 687" d="M584.154,386.815a22.739,22.739,0,0,1-.946-5.768c-.225-5.349-.392-6.443-.066-7.44a11.685,11.685,0,0,0,.493-2.125c.055-.4.078-.738.087-.952-.9,1.278-1.531,4.36-1.531,7.959,0,4.208.865,7.708,2.019,8.447A1.194,1.194,0,0,0,584.154,386.815Z" transform="translate(-325.87 -177.496)" fill="#2a1e12" opacity="0.3"/>
      <path id="Path_688" data-name="Path 688" d="M535.615,475.8c-.032-.156-.072-.306-.118-.459a1.381,1.381,0,0,1-.086-.288,4.51,4.51,0,0,1-.193-.865v-.029c-.014-.037-.026-.078-.037-.115a1.124,1.124,0,0,1-.164-.536c0-.329-.084-.649-.075-.978a2.667,2.667,0,0,1,.035-.369,3.169,3.169,0,0,1-.052-.5,1.176,1.176,0,0,1,.135-.557c0-.248-.02-.5-.02-.747q0-1.387.133-2.768a15.553,15.553,0,0,1,.721-2.682,1.153,1.153,0,0,1,.461-.663c-.133-.2-.274-.306-.418-.306-.758,0-1.376,2.9-1.376,6.48s.617,6.48,1.376,6.48c.147,0,.288-.115.424-.323A.926.926,0,0,1,535.615,475.8Z" transform="translate(-291.975 -243.968)" fill="#2a1e12" opacity="0.3"/>
      <path id="Path_689" data-name="Path 689" d="M567.094,459.619c0-.032-.032-.061-.046-.089a10.46,10.46,0,0,1-.709-4.164,13.009,13.009,0,0,1,.343-2.656q.1-1.073.311-2.125a1.03,1.03,0,0,1,.686-.784.692.692,0,0,0-.363-.11c-.981,0-1.776,2.373-1.776,5.3s.8,5.3,1.776,5.3a.62.62,0,0,0,.144-.02A1.024,1.024,0,0,1,567.094,459.619Z" transform="translate(-314.021 -233.828)" fill="#2a1e12" opacity="0.3"/>
      <path id="Path_690" data-name="Path 690" d="M600.29,464.228a1.049,1.049,0,0,1,.061-.228h-.029c-.6,0-1.081,1.673-1.081,3.732s.484,3.732,1.081,3.732a.343.343,0,0,0,.17-.052A17.783,17.783,0,0,1,600.29,464.228Z" transform="translate(-338.003 -244.011)" fill="#2a1e12" opacity="0.3"/>
      <path id="Path_691" data-name="Path 691" d="M614.032,502.676a21.3,21.3,0,0,1,.513-4.219.216.216,0,0,0-.159-.086c-.461,0-.836,2.065-.836,4.614s.375,4.614.836,4.614c.11,0,.216-.124.314-.343C613.876,505.894,613.968,504.21,614.032,502.676Z" transform="translate(-348.186 -268.469)" fill="#2a1e12" opacity="0.3"/>
      <path id="Path_692" data-name="Path 692" d="M575.72,533.129a18.621,18.621,0,0,1-.487-4.715,28.006,28.006,0,0,1-.366-4.17c.127-1.575.15-3.172.314-4.732a21.074,21.074,0,0,1,1.11-4.395,1.154,1.154,0,0,1,.5-.649.669.669,0,0,0-.337-.1c-1.327,0-2.405,4.395-2.405,9.805s1.079,9.805,2.405,9.805a.677.677,0,0,0,.3-.078,1.079,1.079,0,0,1-1.038-.773Z" transform="translate(-320.077 -279.855)" fill="#2a1e12" opacity="0.3"/>
      <path id="Path_693" data-name="Path 693" d="M548.614,540.133c-.138-.937-.6-1.8-.764-2.742-.127-.753-.288-1.5-.4-2.255a21.315,21.315,0,0,1-.187-3.781,18.564,18.564,0,0,1,.026-3.3,28.7,28.7,0,0,1,.842-3.5,1.341,1.341,0,0,1,.061-.2c-.986,1.015-1.71,4.308-1.71,8.216,0,4.715,1.056,8.539,2.356,8.539a.72.72,0,0,0,.361-.1A1.194,1.194,0,0,1,548.614,540.133Z" transform="translate(-300.458 -286.957)" fill="#2a1e12" opacity="0.3"/>
      <path id="Path_694" data-name="Path 694" d="M617.885,407.537a13.514,13.514,0,0,1-.675-7.267,7.583,7.583,0,0,0-.77,3.674c0,2.371.712,4.294,1.595,4.294a.681.681,0,0,0,.366-.118A1.211,1.211,0,0,1,617.885,407.537Z" transform="translate(-350.242 -198.66)" fill="#2a1e12" opacity="0.3"/>
      <path id="Path_695" data-name="Path 695" d="M614.271,335.647c-.1-2.235.577-4.366.545-6.569v-.058c-.715.5-1.246,2.218-1.246,4.268a7.634,7.634,0,0,0,.822,3.8A12.813,12.813,0,0,1,614.271,335.647Z" transform="translate(-348.2 -147.957)" fill="#2a1e12" opacity="0.3"/>
      <path id="Path_696" data-name="Path 696" d="M693.43,323.89a15.791,15.791,0,0,1-1.18,8.075c1.226-.47,2.14-2.307,2.14-4.542A6.36,6.36,0,0,0,693.43,323.89Z" transform="translate(-404.19 -144.306)" fill="#2a1e12" opacity="0.3"/>
      <path id="Path_697" data-name="Path 697" d="M762.317,367.3a.337.337,0,0,1-.017.13,1.2,1.2,0,0,1,.2.265c1.491,2.737,1.26,6.056.822,9.035-.185,1.24-.412,2.466-.643,3.688.064.8.115,1.624.112,2.434a12.183,12.183,0,0,0,2.307-7.518A11.568,11.568,0,0,0,762.317,367.3Z" transform="translate(-454.039 -175.198)" fill="#2a1e12" opacity="0.3"/>
      <path id="Path_698" data-name="Path 698" d="M535.848,633.273a38.606,38.606,0,0,1-.577-7.189,12.141,12.141,0,0,1,.2-3.2,4.212,4.212,0,0,1,.311-.8c-.683.334-1.214,2.757-1.214,5.7,0,3.149.608,5.7,1.361,5.739A1.126,1.126,0,0,1,535.848,633.273Z" transform="translate(-291.982 -356.51)" fill="#2a1e12" opacity="0.3"/>
      <path id="Path_699" data-name="Path 699" d="M788.155,507.9a10,10,0,0,1,.352,1c.26.816.482,1.641.727,2.4a17.879,17.879,0,0,1,.9,6.748,24.7,24.7,0,0,1-.384,3.51,11.057,11.057,0,0,0,1.984-6.566c0-3.965-1.779-7.319-4.233-8.476A9.7,9.7,0,0,1,788.155,507.9Z" transform="translate(-471.972 -274.262)" fill="#2a1e12" opacity="0.3"/>
      <path id="Path_700" data-name="Path 700" d="M709.982,438.47a8,8,0,0,0,1.217-4.487c0-2.794-1.133-5.127-2.639-5.673A16.217,16.217,0,0,1,709.982,438.47Z" transform="translate(-415.797 -218.613)" fill="#2a1e12" opacity="0.3"/>
      <path id="Path_701" data-name="Path 701" d="M684.642,490.72a23.169,23.169,0,0,1,.231,3,4.4,4.4,0,0,1-.02,1.1,5.163,5.163,0,0,1-.6,2.656c.963-.288,1.7-1.73,1.7-3.478A4.031,4.031,0,0,0,684.642,490.72Z" transform="translate(-398.497 -263.025)" fill="#2a1e12" opacity="0.3"/>
      <path id="Path_702" data-name="Path 702" d="M849.977,465.274a24.145,24.145,0,0,1-.381,7.567,10.935,10.935,0,0,0,2.094-6.78c0-3.259-1.154-6.091-2.82-7.541A26.964,26.964,0,0,1,849.977,465.274Z" transform="translate(-515.643 -240.111)" fill="#2a1e12" opacity="0.3"/>
      <path id="Path_703" data-name="Path 703" d="M913.151,491.81a19.175,19.175,0,0,1,.1,6.16c-.161,1.745-.467,3.835-1.627,5.234,1.909-.9,3.279-3.371,3.279-6.287A7.767,7.767,0,0,0,913.151,491.81Z" transform="translate(-560.297 -263.801)" fill="#2a1e12" opacity="0.3"/>
      <path id="Path_704" data-name="Path 704" d="M879.572,588.464a5.742,5.742,0,0,1-.337,2.134,3.594,3.594,0,0,1-.335,1.442,6.255,6.255,0,0,0,1.523-4.285,6.763,6.763,0,0,0-.917-3.524c0,.2.029.4.043.594A30.069,30.069,0,0,1,879.572,588.464Z" transform="translate(-537.013 -329.569)" fill="#2a1e12" opacity="0.3"/>
      <path id="Path_705" data-name="Path 705" d="M866,408.63a4.918,4.918,0,0,1,.141,1.984h0a23.726,23.726,0,0,1-.706,6.148,5.561,5.561,0,0,0,1.73-4.349A6.214,6.214,0,0,0,866,408.63Z" transform="translate(-527.428 -204.609)" fill="#2a1e12" opacity="0.3"/>
    </g>
  </g>
</svg>
