<svg xmlns="http://www.w3.org/2000/svg" width="397.987" height="194.098" viewBox="0 0 397.987 194.098">
  <g id="Group_77" data-name="Group 77" transform="translate(-2205.126 191.825)">
    <path id="Path_40" data-name="Path 40" d="M6.559,18S24.547,44.886,34.673,123,31.307,240.208,40.5,312.461,68,405.478,68,405.478L174.937,401.4,173.779,13.128l-58.916,1.715Z" transform="matrix(0.035, -0.999, 0.999, 0.035, 2191.777, -5.322)" fill="#42506b"/>
    <path id="Path_41" data-name="Path 41" d="M4.654,18.689s23.482,29.194,31.716,107.15-5.386,116.686,2.1,188.794,30.4,90.172,30.4,90.172l69.365-2.422-14-387.87Z" transform="matrix(0.035, -0.999, 0.999, 0.035, 2192.122, -54.183)" fill="#ef4b4c"/>
    <path id="Path_42" data-name="Path 42" d="M5.779,17.5S20.891,51.733,27.406,127.464,13.8,252.811,27.673,321.851c5.272,26.235,15.14,45.355,23.395,59.852,13.489,23.687,19.088,22.11,19.088,22.11l11.038-.385L67.909,15.329Z" transform="matrix(0.035, -0.999, 0.999, 0.035, 2193.023, -110.81)" fill="#3e619b"/>
  </g>
</svg>
