<svg xmlns="http://www.w3.org/2000/svg" width="1067.057" height="745.209" viewBox="0 0 1067.057 745.209">
  <g id="Group_76" data-name="Group 76" transform="translate(-1012.943 -68)">
    <path id="Path_769" data-name="Path 769" d="M.213,0H1063.705V745H289.526s72.328-78.213,0-264.463C255.749,393.558,106.163,305.245,46.312,212.413-22.4,105.831.213,0,.213,0Z" transform="translate(1016.295 68)" fill="#5f739b"/>
    <path id="Path_770" data-name="Path 770" d="M-.884,0H735.3V745H199.389s50.068-78.213,0-264.463C176.007,393.558,72.458,305.245,31.027,212.413-16.541,105.831-.884,0-.884,0Z" transform="translate(1276.532 68.209)" fill="#e45a5a"/>
    <path id="Path_771" data-name="Path 771" d="M-1.491,0H553.745V745H149.556s37.762-78.213,0-264.463C131.921,393.558,53.825,305.245,22.577,212.413-13.3,105.831-1.491,0-1.491,0Z" transform="translate(1526.255 68.209)" fill="#42506b"/>
  </g>
</svg>
