<?xml version="1.0" encoding="UTF-8"?>
<svg id="Layer_1" data-name="Layer 1" xmlns="http://www.w3.org/2000/svg" viewBox="0 0 40.68 32.12">
  <defs>
    <style>
      .cls-1 {
        fill: #1d1d1b;
      }
    </style>
  </defs>
  <path class="cls-1" d="M17.04,11.22c.02,.14-.12,.23-.02,.38,0,0-.05,.07-.05,.12-.14,.14-.26,.23-.37,.37-.12,.14-.16,.26-.07,.45,.05,.05,.05,.21-.05,.28-.14,.12-.14,.3-.21,.45-.07,.14-.07,.33-.26,.35-.02,.05-.12,.12-.12,.19,0,.16-.09,.21-.19,.3-.02,.07,.14,.19,0,.21-.07,.05-.09,.12-.14,.19l-.4,.56s.05,.07,.07,.07h.07c.54-.26,1.12-.33,1.66-.51,.07,0,.19,0,.3,.07,.09,.09,.19,.12,.28,.19,.07,.05,.14,.12,.07,.21-.02,.09,.07,.14,.14,.14,.19,.16,.14,.35,0,.44-.16,.16-.35,.14-.49,.16-.26,.07-.49,.19-.8,.19-.02-.05-.09,0-.19,.02-.14,.12-.35,.12-.49,.21-.12,.05-.23,.05-.3,0-.05-.02-.09-.02-.09,0-.19,.23-.59,.14-.75,.3-.07,.05-.12,0-.14,0-.12,.05-.28,.09-.33,.14-.09,.16-.23,.23-.26,.38-.09,.35-.3,.56-.49,.79-.14,.16-.26,.3-.37,.49-.02,.05-.02,.12-.07,.14-.09,.05-.23,.05-.21,.23,.02,.16-.16,.12-.16,.21-.02,.12-.14,.19-.21,.3t-.02,.05c-.07,.14-.12,.35-.26,.42-.19,.07-.23,.26-.42,.3-.12,.07-.12,.14-.02,.26,.02,.07-.09,.14-.12,.09-.16-.05-.21-.02-.26,.09-.07,.07-.12,.19-.16,.26,.05,0,.12,0,.16,.02,.05,0,.05,.12,.05,.12-.35,.19-.44,.47-.63,.77-.16,.19-.21,.35-.4,.52-.16,.14-.12,.37-.23,.56-.12,.09-.3,.21-.3,.4-.02,.14-.09,.21-.21,.26-.19,.07-.19,.09-.26,0-.07-.07-.14-.16-.19-.19-.02-.02-.02-.07-.02-.16,.02-.09,.02-.21,.02-.28s-.02-.07-.09-.02c-.14,.02-.19,.02-.19-.14-.05-.23,.05-.44,.14-.68,.4-.63,.84-1.24,1.29-1.83l.23-.3c.21-.38,.4-.73,.68-1.03l.12-.12c.23-.4,.47-.75,.77-1.1v-.09s-.05-.05-.09-.05-.14,.05-.21,.05c-.19,.02-.37,.14-.59,.16-.14,0-.28,.09-.4,.19-.07,.09-.14,.09-.26,.09-.21,0-.4,.14-.61,.16-.3,.07-.58,.23-.89,.19-.09,0-.14-.05-.19-.14-.05-.05-.12-.12-.14-.16-.12-.21-.12-.47,.02-.63,.16-.16,.33-.28,.51-.3,.54-.14,1.03-.3,1.54-.45,.8-.23,1.54-.51,2.32-.73,.09-.05,.19-.09,.23-.16l.26-.42c.05-.14,.14-.28,.28-.35,.05,0,.07-.05,.07-.09,.23-.47,.58-.82,.77-1.31,.26-.26,.3-.66,.51-.94,.07-.09,.07-.19,.12-.3,.07-.12,.07-.23,.19-.33,.3-.26,.35-.68,.54-1.03,.16-.38,.3-.77,.44-1.15,.12-.21,.14-.42,.21-.66,.09-.3,.14-.56,.19-.84,.09-.26,.12-.56,.19-.82,.05-.07,.05-.14,.05-.21,0-.19-.05-.38,.12-.54-.05-.28,0-.58-.05-.82-.05-.12-.05-.21,0-.3,.05-.05,0-.12,0-.14l-.19-.58c-.16-.38-.4-.66-.77-.8-.23-.05-.42-.14-.7-.14h-1.1c-.26,0-.47,.14-.73,.12-.4,.19-.89,.21-1.33,.42-.44,.19-.91,.35-1.4,.54-.28,.09-.54,.28-.8,.44l-.33,.19c-.12,0-.19,.05-.26,.14-.12,.07-.23,.14-.37,.19-.12,0-.21,.07-.3,.14-.28,.33-.77,.45-1.08,.75-.19,.02-.3,.14-.44,.26-.14,.09-.3,.14-.44,.23-.14,.09-.3,.19-.44,.3-.14,.09-.28,.23-.42,.33-.21,.19-.44,.35-.68,.44-.12,.07-.21,.12-.26,.26-.05,.05-.09,.07-.12,.07-.19,.02-.26,.16-.42,.26-.3,.3-.63,.59-1.03,.84-.28,.23-.54,.45-.8,.7-.09,.07-.23,.23-.33,.33-.14,.12-.26,.23-.4,.33-.12,.12-.14,.26-.33,.35-.16,.26-.44,.44-.56,.73-.07,.14-.05,.26,.07,.3,.28,.05,.33,.23,.28,.49q0,.19-.19,.23c-.16,0-.3-.05-.42-.14-.26-.19-.42-.42-.61-.68-.05-.07-.09-.19-.12-.26v-.23s.12-.14,.07-.23c-.05-.05-.05-.12,0-.19,.05-.02,.05-.12,.07-.19,.26-.26,.47-.56,.75-.82,.09-.09,.26-.19,.4-.33l.4-.3c.09-.09,.14-.23,.33-.23,.12,0,.12-.19,.26-.21,.09-.09,.23-.19,.3-.3,.07-.12,.21-.12,.28-.23,.09-.09,.23-.19,.4-.19v.19s-.07,.09-.07,.09c-.19-.09-.09,.07-.14,.14,.14,0,.35,0,.4-.14,.14-.19,.4-.28,.49-.44,.26,0,.35-.28,.58-.38,.07-.05,.09-.09,.19-.14,.07-.07,.16-.05,.21-.12,.09-.07,.4-.05,.26-.33,.05,0,.07-.05,.12-.05,.07,.05,.12,.12,.21,.05,.26-.26,.54-.44,.84-.58,.14-.07,.33-.16,.44-.3,.05-.05-.02-.09-.02-.14,.02-.05,.09-.14,.09-.12,.16,.07,.21,.05,.35-.02,.09-.05,.21-.07,.26-.21,.09,0,.19,0,.23-.09,.09-.19,.19-.26,.4-.26,.09,0,.16-.07,.23-.09,.44-.35,.96-.56,1.43-.87,.35-.21,.7-.35,1.08-.47,.33-.12,.63-.28,.94-.42,.4-.14,.77-.21,1.08-.35,.33-.09,.68-.14,.96-.26,.07-.02,.19-.02,.3-.02,.33-.05,.63-.05,.94-.05l.05-.05s-.05-.02-.05-.02h-1.31c-.16,0-.35,.12-.56,.12-.14,0-.33,.09-.49,.09-.14-.05-.28,.12-.44,.12-.19,0-.33,.19-.52,.19-.05,0-.09-.05-.12-.05,0,0,0-.02,.02-.02,0,0,0-.05,.05-.05,.14-.07,.28-.19,.44-.26,.19-.07,.42-.14,.58-.14,.14,0,.26-.12,.42-.12h.35c.14-.16,.33,0,.52-.12,.12-.05,.3,0,.44,0,.12-.05,.21,.14,.37,.05,.19,.09,.37,0,.54,.09,.14,.12,.33,0,.47,.16,.12,.09,.3,.14,.42,.26,.14,.07,.28,.19,.42,.26,.23,.14,.42,.3,.49,.56,.05,.05,.09,.09,.09,.19,.21,.14,.23,.3,.23,.54-.02,.09,0,.19,.12,.26,.09,.02,.23,.19,.09,.33-.02,.07,0,.14,.09,.19,.07,.07,.09,.14,.09,.3,.05,.16-.02,.4,.09,.58,.02,0,.02,.02,0,.05-.12,.23-.05,.49-.09,.7,0,.05-.05,.09-.09,.12-.12,.07-.19,.21-.19,.33-.05,.12,0,.28,.05,.37,.19,.05,.05,.19,.02,.26-.14,.33-.28,.68-.28,1.03-.05,.09-.19,.19-.09,.28,.09,.12,.05,.23-.05,.35-.09,.05-.14,.21-.23,.33-.16,.14-.19,.26-.07,.45,.02,.07,0,.16-.12,.16,0-.02,0-.09-.07-.02,.05,.02,.07,.02,.07,.02Zm-14.33-1.62l-.05-.02v.02h.05Zm.44-.35s-.14,0-.16,.05c.02,.02,.02,.05,.07,.05,0-.05,.05-.05,.09-.09Zm.09-.12q-.07,.02-.09,.12s.09-.05,.09-.12Zm.21-.42v-.14c.37-.3,.75-.54,1.12-.8h.14c-.09,.19-.23,.3-.37,.4-.14,.09-.3,.3-.47,.33-.05,0-.09,.05-.09,.07-.05,.19-.19,.14-.33,.14Zm1.26-.94v-.12c.09-.14,.26-.21,.44-.21l.05,.02v.05c-.14,.14-.28,.26-.49,.26Zm.66-.54s.05-.09,.07-.09h.12v.09s-.07,.09-.12,.09c-.02,0-.09-.05-.07-.09Zm.19-.09c.09-.21,.28-.3,.52-.33-.07,.23-.28,.28-.52,.33Zm.73-.35s-.14,.02-.21,.02c.02-.02,.02-.07,.02-.07,.14-.09,.3-.19,.37-.37,.05-.02,.12-.07,.19-.07,.02,0,.12,0,.16,.05,0,.02,0,.09-.05,.14-.19,.12-.33,.16-.49,.3Zm.89-.68s-.05-.07,0-.07l.19-.07c-.05,.07-.09,.09-.09,.14-.05,.05-.09,0-.09,0Zm.19-.14s.05-.05,.05-.07c.05,.07,0,.07-.05,.07Zm.3,.21s-.07-.02-.09-.02c.07-.07,.09-.02,.09,.02Zm.02-.35v-.07c.02-.14,.16-.23,.26-.3h.14s.05,0,.05,.02v.09l-.42,.28-.02-.02Zm.66-.42l-.05-.02c.09-.07,.09-.26,.23-.26,.07,0,.12,.05,.16,.07,0,0,0,.02-.05,.07-.07,.07-.19,.12-.26,.19l-.05-.05Zm.23,9.81h-.05l.05-.05s.02,.05,0,.05Zm.47-10.28c0-.12,.07-.14,.14-.19,.14-.07,.33-.16,.52-.21l.05,.05s.02,.05,0,.05c-.05,.05-.07,.12-.14,.16-.14,.07-.33,.14-.51,.21,0,0-.05-.02-.05-.07Zm1.26,15.99c-.09,0-.12,.12-.23,.02-.12-.02-.16,.09-.16,.19,.05,.12,.05,.19,0,.23-.35,.16-.54,.4-.68,.7l-.05,.05v.02s.05,.02,.09,.02c.21,0,.35-.19,.42-.33,.16-.16,.3-.35,.49-.54,.12-.12,.12-.21,.12-.38Zm-.3-16.48s.05-.05,.07-.09c.14-.07,.28-.07,.47-.16l.05,.05-.05,.05c-.09,.12-.28,.21-.47,.21,0,0-.02-.05-.07-.05Zm2.2,13.41c0,.28-.07,.49-.33,.61-.05,.02-.07,.07-.12,.12,0,.09-.09,.14-.19,.14-.02,0-.05,.02-.05,.02-.14,.23-.23,.45-.35,.68,.07,.09,0,.14-.09,.14s-.14,0-.09,.12c0,.09-.05,.14-.14,.14-.05,0-.07-.07-.12,.05-.02,.05-.09,.19-.09,.23,0,.21-.05,.26-.23,.35-.07,.05-.09,.14-.09,.26v.21c.14-.02,.19-.14,.23-.21,.35-.45,.63-.94,.98-1.38,.05-.09,.14-.21,.21-.3,.19-.3,.42-.49,.58-.77,.23-.4,.44-.75,.73-1.08,.05-.05,.12-.07,0-.12-.02-.02-.07-.02-.09-.02-.19,.07-.37,.14-.44,.37-.07,.14-.14,.26-.21,.35l-.09,.09Zm-1.47-13.72s.05-.14,.05-.16h.35c-.05,.12-.21,.16-.33,.19-.02,0-.07-.02-.07-.02Zm.4,16.6s-.09,0-.02,.05c0,0,0-.05,.02-.05Zm0-16.76c.09-.21,.26-.21,.44-.28,0,0,.05,.02,.09,.02v.07c-.14,.12-.3,.21-.54,.19Zm.94,12.43s-.09,0-.05,.07t.05-.07Zm.05,0s.14-.02,.21-.02t.07-.05h-.02c-.12-.05-.23-.09-.26,.07Zm.21,1.36s.05,.05,.07,.05c-.07,.05-.07,0-.07-.05Zm.23-1.52s.02,.05,.05,.05c0-.05,.05-.05,.09-.05,0-.02-.05-.02-.05-.02h-.07s-.02,.02-.02,.02Zm.33-.09s.02,.05,.07,.05c.02,0,.02-.05,.02-.05-.02,0-.07-.05-.09-.05v.05Zm.98-.66s-.05-.07-.05-.12l-.02,.05s0,.07,.02,.09c0-.02,.05-.02,.05-.02Zm3.49-6.74h-.05s-.05,.05-.05,.09c.02,.16-.05,.4-.16,.58-.05,.07-.05,.16-.07,.28,0,.02-.02,.12-.02,.16-.16,.02-.16,.14-.16,.21-.02,.14-.12,.23-.14,.4l-.19,.45c-.19,.37-.37,.77-.52,1.17-.21,.23-.3,.47-.47,.73-.19,.28-.33,.56-.49,.87-.09,.26-.23,.49-.37,.73-.16,.21-.21,.51-.4,.75-.05,0-.05,.05-.05,.09,0,.09,.14,.12,.19,.09,.16-.05,.3-.14,.4-.3,0-.14,.09-.28,.16-.44,.05-.16,.19-.26,.26-.38,.02-.07,.07-.09,.12-.19,.09-.26,.33-.47,.35-.77,.28-.3,.37-.7,.56-.98,.07-.12,.12-.21,.16-.35,.05-.19,.09-.42,.23-.61,.05-.02,.07-.12,.07-.14-.02-.14,.05-.26,.12-.42,.07-.21,.21-.44,.3-.68,.07-.38,.16-.8,.3-1.15,0-.05-.05-.09-.09-.19Zm-3.14,6.11s.05,.05,.05,0h-.05Zm.7,.94s-.12,.02-.02,.05c0,0,0-.02,.02-.05Zm.09-.09s-.05,.05-.07,.09c.28,0,.59-.16,.89-.16,.05-.07,.19-.02,.28-.19-.09-.02-.12-.07-.14-.07-.19,.12-.37,.05-.56,.14-.12,.12-.26,.14-.4,.19Zm.07-.28s.07-.05,0-.05v.05Zm.21-.12s0,.05,.05,.05,.05-.05,.07-.05l-.02-.05s-.09,.05-.09,.05Zm.37-11.91s-.05,0-.05-.02l-.02,.02s0,.02,.02,.02c0,0,0-.02,.05-.02Zm.4,9.71l-.05-.05v.05h.05Zm-.05,1.97v0Zm.09,.38h.14s.02-.02,0-.02v-.05c-.07-.02-.14,0-.14,.07Zm1.43-7.05s-.05-.05-.05-.05c0,0-.05,0-.05,.05v.26s.05,0,.05,.02c0-.02,.05-.02,.05-.02v-.09c0-.07,.05-.14,0-.16Zm.12-.28s-.05,0-.05-.02c0,0,0,.02-.02,.02,.02,0,.02,.05,.02,.05l.05-.05Zm.21-1.57l-.02-.05s-.05,.05-.05,.05v.28c0,.21-.05,.3,0,.4,0,.02,0,.05,.05,.05,0,0,.02-.02,.02-.05,0-.19,0-.35,.07-.54,.05,0-.05-.09-.07-.14Zm.07,.96s0-.05,0-.05c0,0-.05,0-.05,.05,0,.02,.05,.02,.05,0Z"/>
  <path class="cls-1" d="M40.44,15.25c-.21,.12-.42,.28-.56,.4-.52,.35-.96,.68-1.5,.91-.09,.02-.14,.07-.19,.12-.7,.56-1.54,.84-2.25,1.22-.58,.26-1.12,.52-1.64,.8l-.82,.38c-.21,.05-.4,.05-.56,0-.12-.05-.21-.12-.26-.16-.28-.26-.37-.58-.44-.94-.07-.33-.09-.73,0-1.1,.16-.47,.37-.96,.56-1.5v-.19c-.07,.05-.09,.05-.12,.05-.52,.19-.98,.42-1.43,.68-.28,.12-.56,.28-.8,.49-.33,.16-.63,.4-.91,.56l-.98,.58-1.45,1.03c-.07,.07-.16,.12-.26,.14-.26,.16-.47,.16-.63-.09-.12-.23-.26-.49-.33-.77-.09-.16,0-.38,.07-.56,.12-.23,.14-.47,.26-.73,.42-1.03,.75-2.15,1.12-3.21l.09-.42c-.19-.05-.26,.09-.33,.12-.14,.02-.23,.12-.33,.16-.05,.09-.14,.14-.21,.16-.14,.07-.21,.14-.3,.21-.14,.09-.19,.16-.3,.21-.56,.49-1.15,.96-1.76,1.43-.12,.12-.23,.19-.4,.33-.21,.35-.52,.58-.82,.84-.35,.28-.7,.66-1.08,1.05-.23,.23-.44,.51-.73,.77,0,0,0,.07-.02,.07-.54,.4-.96,1.03-1.5,1.5-.28,.19-.52,.42-.73,.66-.07,.07-.12,.09-.26,.09-.16,.09-.28-.02-.37-.09-.49-.47-.63-.98-.47-1.64,.12-.28,.19-.51,.28-.77,.28-.8,.7-1.52,1.15-2.22,.21-.4,.49-.66,.58-1.1,.09-.16,.3-.21,.42-.16,.26,.14,.47,.3,.59,.51,.16,.26,.16,.58-.05,.77-.23,.3-.37,.73-.66,.98-.12,.16-.21,.37-.33,.56-.28,.47-.51,.91-.77,1.33-.05,.07-.05,.16-.05,.23,.26-.16,.37-.3,.54-.44l2.41-2.46c.4-.38,.84-.7,1.26-1.1,.66-.58,1.36-1.15,2.04-1.71,.44-.3,.84-.61,1.26-.89,.23-.16,.54-.38,.84-.47,.23-.14,.49-.16,.7,.07,.02,.12,.14,.12,.16,.14,.33,.16,.47,.42,.37,.75-.09,.52-.12,1.05-.37,1.54-.12,.12-.14,.3-.16,.47-.05,.33-.3,.56-.44,.89-.07,.3-.09,.66-.21,.89-.16,.23-.19,.38-.28,.56v.05s.05,.05,.09,.05c.02,0,.02-.05,.12-.05,.94-.61,1.92-1.19,2.86-1.83,.77-.49,1.59-.87,2.43-1.15,.16-.07,.35-.19,.47-.26,.19-.12,.4-.09,.58-.05,.12,0,.16,.07,.16,.12,.02,.12,0,.19,.14,.19,.19,0,.28,.12,.28,.23,0,.16,0,.26-.02,.37-.12,.28-.21,.54-.28,.84-.12,.38-.33,.7-.54,1.08-.16,.37-.4,.73-.44,1.12,0,.12,.05,.21,.14,.14,.66-.23,1.24-.51,1.87-.82,.49-.23,.96-.42,1.36-.66,.96-.4,1.9-.91,2.79-1.5,.4-.21,.75-.42,1.15-.58,.16-.09,.28,0,.33,.16,.14,.26,.09,.42-.16,.58Zm-16.01-.75c-.19,0-.28,.16-.35,.26,.12,0,.3-.05,.35-.26Zm.59-.47c-.09,0-.16,0-.21,.16,.07,0,.14,0,.21-.16Zm.44-.33c-.12,0-.23,.05-.35,.21,.19,0,.28-.12,.35-.21Zm13.58,2.01c-.12,.02-.28,.09-.35,.28,.16-.07,.28-.09,.35-.28Zm.56-.35c-.12,0-.23,.05-.26,.23,.09,0,.23-.07,.26-.23Z"/>
</svg>