<svg xmlns="http://www.w3.org/2000/svg" width="580.669" height="676.322" viewBox="0 0 580.669 676.322">
  <g id="SPORTS_TOAST" data-name="SPORTS TOAST" transform="translate(-110.267 175.979) rotate(-34)">
    <path id="Path_567" data-name="Path 567" d="M152.215,989.9c7.142-4.893,55.886-42.9,125.452-97.484a20.09,20.09,0,0,1-1.292-13.857c2.709-9.257,12.457-14.021,19.522-14.736,10.605-1.073,19.048,6.586,26.608,13.758,31.212,29.614,46.353,48.572,46.353,48.572,19.229,24.075,30.385,39.039,42.408,58.44,14.8,23.885,18.88,35.085,14.435,44.036-2.533,5.109-9.046,11.958-18.053,12.746a21.828,21.828,0,0,1-13.5-3.536c-68.455,55.291-116.518,94.4-121.5,99.37-.784.784-3.373,3.261-6.853,3.343-6.517.155-11.725-9.132-11.88-9s2.981,3.7,2.843,3.842c-.711.715-81.313-98.147-99.383-123.6-3.511-4.936-10.222-14.939-6.806-20.245A5.85,5.85,0,0,1,152.215,989.9Z" transform="translate(-47.517 -468.162)" fill="#020202" opacity="0.32"/>
    <path id="Path_568" data-name="Path 568" d="M162.15,987.057c-1.094-2.718-2.115-5.41-1.77-8.809A17.713,17.713,0,0,1,163,970.925a23.692,23.692,0,0,1,3.343-4.105l.3-.293c3.683-3.506,12.578-9.834,12.578-9.834,7.715-5.488,9.7-7.53,17.661-12.643h0c1.521-.978-.323.168,21.787-16.8,17.868-13.724,29.868-22.765,37.549-29.011.818-.663,2.585-2.111,5.07-4.01,1.77-1.353,5.6-4.26,10.157-7.323,1.9-1.292,3.717-2.671,5.634-3.916a20.084,20.084,0,0,0,1.882-1.387,8.145,8.145,0,0,0,2.128-2.128c.646-1.2.19-2.154.047-4.23a17.41,17.41,0,0,1,.336-4.738,44,44,0,0,1,4.708-10.338,30.153,30.153,0,0,1,5.423-6.892c5.63-4.984,12.785-5.333,15.145-5.449,12.35-.6,23.33,10.549,31.1,18.63,12.427,12.923,27.008,28.77,42.946,47.482,8.326,11.238,15.24,20.948,20.543,28.52,1.452,2.072,7.2,11,18.695,28.86a77.783,77.783,0,0,1,8.9,18.018c1.49,4.415,2.231,6.625,2.438,9.33.831,11.036-6.659,25.923-19.905,29.226-7.267,1.818-13.711-.5-16.989-2.016-15.115,11.824-26.564,20.922-34.365,27.137-4.161,3.325-6.948,5.57-12.009,9.576-13.151,10.4-14.607,11.3-23.3,18.285-8.938,7.185-8.529,7.146-16.946,13.814-12.681,10.054-11.079,8.137-15.908,12.375-4.178,3.666-8.861,6.715-13.211,10.174-2.154,1.723-4.243,3.394-7.159,3.493-3.8.125-6.746-2.529-8.184-3.877-10.64-9.907-22.528-25.914-25.94-30.424-4.661-6.16-3.162-3.653-12.621-15.636-7.995-10.127-11.07-14.46-17.958-23.446-5.751-7.5-10.9-14.017-21.374-26.939-6.711-8.288-12.457-17.321-19.026-25.72a31.777,31.777,0,0,1-4.32-7.637Z" transform="translate(-53.601 -459.1)" fill="#6d4c16" stroke="#020202" stroke-miterlimit="10" stroke-width="1"/>
    <path id="Path_569" data-name="Path 569" d="M175.96,980.313c1.081-5.079,5.5-8.077,8.52-10.136,8.568-5.832,17.273-11.833,27.112-18.548,41.417-31.143,71.44-53.818,78.6-58.888a17.453,17.453,0,0,0,6.461-7.258c1.973-4.536,0-6.543,1.6-11.932a22.9,22.9,0,0,1,7.551-10.877,23.712,23.712,0,0,1,10.687-5.169c8.615-1.292,15.981,7.624,28.322,21.37,26.371,29.369,26.608,26.422,38.608,42.261,2.455,3.244,1.12,1.62,18.608,25.634,5.393,7.409,7.861,10.769,11.548,16.183,7.866,11.531,11.7,18.285,14.714,24.372,4.1,8.283,6.143,12.492,5.983,16.8-.276,7.474-4.738,16.606-13.784,20.521-9.477,4.122-18.3,0-19.66-.676-61.606,49.028-106.969,84.449-114.783,89.545a12.338,12.338,0,0,1-6.965,2.223c-6.961-.164-12.014-7.577-13.638-9.907-13.237-19.087-29.132-36.183-43.506-54.434,0,0-27.486-34.891-43.036-59.444C177.722,990.057,174.875,985.431,175.96,980.313Z" transform="translate(-62.371 -464.551)" fill="#e8bf89"/>
    <path id="Path_570" data-name="Path 570" d="M184.258,998.235c10.166-14.331,23.851-25.087,38.875-33.926,6.108-3.593,12.427-6.815,18.815-9.869,3.2-1.529,6.461-2.916,9.558-4.674.095-.056,1.969-1.232.732-.431-1.133.754.138-.09.431-.271q1.034-.668,2.05-1.357c1.564-1.068,3.089-2.184,4.592-3.334,5.893-4.523,11.355-9.567,16.847-14.555,5.32-4.829,10.833-9.433,16.071-14.353,1.292-1.21,2.559-2.438,3.8-3.7.306-.31.607-.625.913-.939,1.03-1.051.142-.095-.2.241a18.639,18.639,0,0,0,1.624-1.826,72.428,72.428,0,0,0,5.906-7.693q.818-1.241,1.581-2.516c.233-.383.457-.771.676-1.159.065-.116.22-.4.336-.629.2-.409.409-.818.607-1.228q.616-1.292,1.176-2.585c1.189-2.748,2.081-5.63,3.364-8.335,3.791-7.965,10.3-12.923,18.776-15.193a23.216,23.216,0,0,1,5.255-.784c-7.5-8.012-13.19-12.625-19.548-11.678a23.712,23.712,0,0,0-10.687,5.169,22.9,22.9,0,0,0-7.551,10.877c-1.607,5.389.37,7.4-1.6,11.932a17.225,17.225,0,0,1-6.461,7.258c-7.159,5.07-37.183,27.745-78.6,58.888-9.838,6.715-18.544,12.716-27.112,18.548-3.015,2.059-7.439,5.057-8.52,10.136s1.762,9.744,2.951,11.63c1.49,2.348,3.089,4.794,4.764,7.3a9.044,9.044,0,0,1,.581-.948Z" transform="translate(-62.373 -464.519)" fill="#967753" opacity="0.34"/>
    <path id="Path_571" data-name="Path 571" d="M499.053,1397.21l-.943,1.025q1.77-1.378,3.636-2.826C500.85,1396.013,499.954,1396.616,499.053,1397.21Z" transform="translate(-245.892 -770.822)" fill="#967753" opacity="0.34"/>
    <g id="Group_25" data-name="Group 25" transform="translate(98.928 387.039)" opacity="0.23">
      <path id="Path_572" data-name="Path 572" d="M142.454,981.373a6.031,6.031,0,0,0,2.649,1.9,34.026,34.026,0,0,0,8.512,1.064s-2.778,3.825-1.322,7.792c.551,1.49,1.9,2.154,6.892,5.875a6.951,6.951,0,0,0,.831.521,7.122,7.122,0,0,0,.861.362c1.521.526,7.181-.706,9.619,1.508a1.908,1.908,0,0,1,.53.612c1.18,2.632-7.413,7.81.5,10.454,8.576,2.873,7.995.043,11.949,3.808s4,2.662,2.985,7.952,9.477,7.969,10.062,7.379,16.369,9.24,12.117,13.681,13,15.033,13.9,11.079,11.406,5.169,11.2,9.546,7.99,15.313,13.065,9.477-2.386,12.531,4.488,14.827,8.344-6.659,13.431-5.139,0,10.562-1.65,11.768,13.625,16.834,13.922,5.432-.943,3.691,5.673,3.226,9.554-7.379,10.489-11.561,9.718-4.307,11.781-6.629,15.572-8.589,9.769-20.181,1.292,1.245,1.292,1.245,6.315,3.244,8.482-9.382c0,0,15.628-6.375,13.134-14.478,0,0,18.522-13.711,11.863-20.5,0,0,9.61,2.089,12.061-5.8,0,0,10.062-2.989,8.921-9.778,0,0,13.431-9.011,8.865-12.41s1.633-1.788,1.633-1.788,7.082,7.168,9.072-.616,6.595-5.85,8.482-6.461,7.534,5.384,11.454-.37,2.193,3.278,3.92-5.75,13.078,1.068,3.722-7.835-1.994-1.2-1.994-1.2,12.492,8.8,4.687-4.308c-4.308-7.232-2.3-9.166-3.058-11.682-1.745-5.772-11.161-10.019-12.255-10.45-20.986-8.3-78.362-104.918-123.161-100.477-11.8,1.167-11.169,8.21-44.828,43.075C192.844,932.883,138.453,975.959,142.454,981.373Z" transform="translate(-142.246 -843.935)" fill="#060707"/>
      <line id="Line_8" data-name="Line 8" transform="translate(194.103 97.903)" fill="#060707"/>
      <path id="Path_573" data-name="Path 573" d="M268.031,1257.384c-.155.185.711-1.176.823-1.383a15.149,15.149,0,0,0,.655-1.383h0c-.37.8-.306.112-.181-.237a3.873,3.873,0,0,0-.345-.375c-.09-.086-.7-.582-1-.862-.28-.151-.862-.5-1.085-.633a67.538,67.538,0,0,1-10.011,3.08c-3.308.59-7.133-2.856-7.06-6.173a25.435,25.435,0,0,0-1.1-7.112,16.492,16.492,0,0,1-3.877-.215,13.533,13.533,0,0,1-9-6.358c-1-1.637-1.826-3.36-2.9-4.958-.5-.75-1.042-1.478-1.572-2.21-.177-.241-1.292-1.645-.81-1.1a22.293,22.293,0,0,0-2.925-2.636c.065.056-.646-.353-.612-.336-.319-.155-.625-.327-.948-.478-.211-.1-.431-.2-.646-.289l-.336-.052c-3.261-.586-6.427-.978-9.046-3.252s-4.127-5.7-5.371-8.86c-.547-1.387-1.034-2.8-1.585-4.183-.22-.56-.431-1.12-.7-1.667,0,0-.526-.909-.629-1.068-.207-.327-.431-.655-.668-.965l-.1-.095c-.224-.22-.457-.431-.689-.629a15.959,15.959,0,0,0-1.452-.75c-.159-.073-.814-.336-1.111-.461l-.569-.194-.861-.267c-.56-.181-1.124-.357-1.68-.547a29.484,29.484,0,0,1-4.549-1.779,15.3,15.3,0,0,1-6.961-7.409c-1.163-2.619-1.391-5.333-2.748-6.939a5.485,5.485,0,0,1-.862-.861,13.462,13.462,0,0,0-2.012-1c1.034.482,0,.034-.5-.1s-1.029-.258-1.542-.4c-3.015-.827-5.975-2.029-7.732-4.777a12.042,12.042,0,0,1-1.292-8.921l-.034-.03.034.026h0l-.134-.086a14.149,14.149,0,0,0-1.973-1.047c-.073-.034-.457-.172-.732-.28a5.415,5.415,0,0,1-.569-.086c.982-.207-.388-.026-.818-.043a19.819,19.819,0,0,1-5.832-.823c-3.816-1.335-6.724-4.126-7.125-8.326-.095-.965.069-1.93,0-2.895a3.205,3.205,0,0,0-.047-.431,1.618,1.618,0,0,1-.129-.284c-.065-.146-.112-.3-.168-.431a2.106,2.106,0,0,1-.159-.267c-.043-.082-.073-.138-.09-.181a6.1,6.1,0,0,0-.564-.5c.62.521.254.263-.164,0-.086,0-.358-.086-.629-.146-.633.25-1.029.284-1.189.108q-.861-.943,7.232-9.907a57.707,57.707,0,0,1-5.634,2.033c-1.9.577-2.852.75-4.971,1.5-2.86,1.021-3.9,1.693-4.738,2.61-.642.711-1.5,1.658-1.361,2.494.159.939,1.7,2.429,11.161,2.964,0,0-2.778,3.825-1.322,7.792.551,1.49,1.9,2.154,6.892,5.875a6.937,6.937,0,0,0,.831.521,7.1,7.1,0,0,0,.862.362c1.521.526,7.181-.706,9.619,1.508a1.857,1.857,0,0,1,.53.612c1.18,2.632-7.413,7.81.5,10.454,8.576,2.873,7.995.043,11.949,3.808s4,2.662,2.985,7.952,9.477,7.969,10.062,7.379,16.369,9.24,12.117,13.681,13,15.033,13.9,11.079,11.406,5.169,11.2,9.546,7.99,15.313,13.065,9.476-2.386,12.531,4.488,14.827,8.344-6.659,13.431-5.139c2.029.6,2.434,2.408,2.093,4.432C267.377,1258.254,267.7,1257.823,268.031,1257.384Z" transform="translate(-142.461 -1014.132)" fill="#060707" opacity="0.51"/>
      <path id="Path_574" data-name="Path 574" d="M436.6,1428.465a21,21,0,0,1-4.058,2.206c-4.557,1.861-8.314-1.96-8.589-6.031a6.716,6.716,0,0,1-1.331,1.6c-1.654,1.206,13.625,16.834,13.922,5.432C436.585,1430.179,436.6,1429.146,436.6,1428.465Z" transform="translate(-301.78 -1174.5)" fill="#060707" opacity="0.51"/>
      <path id="Path_575" data-name="Path 575" d="M493.118,1354.332c-.75-1.495-1.292-2.584-1.646-3.343l-.37-.185a7.934,7.934,0,0,1-.862-.534,33.739,33.739,0,0,1-.517,4.307c0,.078-.06.4-.108.676,0,.349-.039,1.245-.039,1.4a20.112,20.112,0,0,1-.383,4.493c-1.654,6.892-8.184,11.3-14.366,13.84a9.9,9.9,0,0,0-2.395,1.2l-.073.047c-.233.551-.482,1.1-.719,1.65a16.011,16.011,0,0,1-.965,1.921c.431-.724.293-.918-.022.022a12.33,12.33,0,0,1-2.339,4.764c-3.446,3.76-7.818,2.955-11.062.3l-.267.215c-.431.353-.862.689-1.327,1,.431,2.059,1.624,6.849,5.4,6.582,6.612-.465,9.554-7.379,10.489-11.561s9.718-4.307,11.781-6.629S498.92,1365.923,493.118,1354.332Z" transform="translate(-320.656 -1132.165)" fill="#060707" opacity="0.51"/>
      <path id="Path_576" data-name="Path 576" d="M644.2,1132.209c3.188,1.822,8.184,3.8,2.516-5.686-.362-.6-.676-1.172-.952-1.723-.862,2.193-2.128,4.217-3.114,6.362q-.474,1.292-.194.482c-.194.56-.388,1.116-.586,1.676a16.644,16.644,0,0,1-.814,1.99,14.786,14.786,0,0,1-3.239,4.191c-.616.538-1.025.892-1.223,1.06s-.452.431-.681.625a6.865,6.865,0,0,1-7.568,4.187,11.061,11.061,0,0,1-1.62-.431,6.5,6.5,0,0,1-3.015-1.383h-.53l-.676.047c-.551.039-1.107.095-1.658.164-.332.043-.659.095-.991.146a6.956,6.956,0,0,1-.771.638l-.159.112c-.069.129-.129.25-.151.284-.357.767-.689,1.551-1.107,2.283a10.1,10.1,0,0,1-5.492,4.962,8.944,8.944,0,0,1-7.142-1.06c-.185-.1-.836-.431-1.154-.637-.215-.078-.487-.181-.56-.2-.431-.125-.862-.237-1.292-.345-.2-.052-.4-.1-.612-.142a5.172,5.172,0,0,1,.09.762c.116.357.215.719.314,1.085a6.191,6.191,0,0,1,.345,8.951,18.816,18.816,0,0,1-3.231,2.727c-.469.319-.952.625-1.421.943-.133.086-.185.112-.2.108-.047.06-.125.146-.258.289a6.76,6.76,0,0,1-3.17,1.913,9.385,9.385,0,0,1-.956,3.623c-1.469,2.895-4.307,4.045-6.75,5.936-2.3,1.8-5.01,3.446-8.034,3.446-.039,0-1.206,0-2.227-.086a7.863,7.863,0,0,1-2.274,1.831,15.371,15.371,0,0,1,.788,2.068,11.716,11.716,0,0,1-1.813,10.622c-2.154,2.826-5.376,4.066-8.283,5.88.026,0-.991.659-1.1.715-.388.327-.375.56-.749,1.525.431-1.1-.155.612-.228.862-.276.922-.577,1.826-.9,2.735-1.521,4.368-4.441,6.72-8.641,8.438-.25.1-2.533,1.18-1.292.474a6.351,6.351,0,0,1-.681.3l.159-.06-.146.172c-.1.233-.177.392-.224.491-.06.31-.116.62-.185.93-1.133,4.833-5.6,8.344-10.42,6.362,1.055,1.8,2.485,4.381,2.485,4.381s6.315,3.244,8.482-9.382c0,0,15.628-6.375,13.134-14.478,0,0,18.522-13.711,11.863-20.5,0,0,9.61,2.089,12.061-5.8,0,0,10.062-2.989,8.921-9.778,0,0,13.431-9.011,8.865-12.41s1.633-1.788,1.633-1.788,7.082,7.168,9.072-.616,6.595-5.85,8.482-6.461,7.534,5.385,11.454-.37,2.193,3.278,3.92-5.75S653.218,1140.824,644.2,1132.209Z" transform="translate(-368.627 -1003.817)" fill="#060707" opacity="0.51"/>
    </g>
    <path id="Path_577" data-name="Path 577" d="M143.043,961.395a5.952,5.952,0,0,0,2.649,1.9,34.019,34.019,0,0,0,8.512,1.064s-2.778,3.825-1.322,7.792c.547,1.49,1.891,2.154,6.892,5.875a6.6,6.6,0,0,0,.831.521,7.132,7.132,0,0,0,.862.362c1.516.526,7.181-.706,9.619,1.508a1.86,1.86,0,0,1,.53.612c1.18,2.632-7.413,7.809.491,10.454,8.581,2.873,8,.043,11.953,3.808s4,2.662,2.985,7.952,9.477,7.969,10.058,7.379,16.369,9.24,12.117,13.681,13,15.029,13.9,11.079,11.406,5.169,11.2,9.545,7.99,15.309,13.065,9.477-2.395,12.5,4.5,14.809,8.344-6.659,13.431-5.143,0,10.566-1.65,11.772,13.625,16.834,13.922,5.432-.943,3.692,5.669,3.226,9.55-7.379,10.485-11.561,9.722-4.307,11.785-6.629,15.572-8.589,9.769-20.181,1.292,1.245,1.292,1.245,6.311,3.244,8.482-9.382c0,0,15.628-6.375,13.129-14.478,0,0,18.522-13.711,11.867-20.5,0,0,9.61,2.089,12.061-5.8,0,0,10.062-2.989,8.917-9.778,0,0,13.435-9.011,8.869-12.41s1.628-1.788,1.628-1.788,7.082,7.168,9.076-.616,6.595-5.85,8.482-6.461,7.534,5.384,11.454-.37,2.193,3.278,3.916-5.75,13.078,1.068,3.726-7.835-2-1.2-2-1.2,12.492,8.8,4.691-4.308c-4.308-7.232-2.3-9.166-3.058-11.682-1.723-5.772-11.161-10.019-12.255-10.45-20.986-8.3-78.362-104.918-123.161-100.482-11.777,1.172-11.144,8.193-44.8,43.058C193.432,912.909,139.028,955.985,143.043,961.395Z" transform="translate(-43.652 -445.512)" fill="#f9af1d"/>
    <line id="Line_9" data-name="Line 9" transform="translate(293.281 476.353)" fill="none"/>
    <path id="Path_578" data-name="Path 578" d="M268.6,1237.45c-.159.185.711-1.176.823-1.383.241-.431.431-.913.655-1.383h0c-.37.8-.31.112-.181-.237a4.52,4.52,0,0,0-.345-.375c-.09-.086-.7-.582-1-.862-.28-.151-.862-.5-1.085-.633a67.448,67.448,0,0,1-10.015,3.08c-3.3.59-7.133-2.86-7.06-6.173a25.409,25.409,0,0,0-1.094-7.112,16.545,16.545,0,0,1-3.877-.215,13.556,13.556,0,0,1-9-6.358c-1-1.637-1.822-3.36-2.9-4.958-.5-.75-1.038-1.478-1.568-2.21-.177-.241-1.292-1.646-.81-1.1a22.292,22.292,0,0,0-2.925-2.636c.06.056-.65-.353-.616-.336-.319-.155-.625-.327-.943-.478-.211-.1-.431-.2-.646-.289a1.015,1.015,0,0,1-.336-.056c-3.261-.582-6.431-.974-9.046-3.248s-4.131-5.7-5.371-8.86c-.547-1.387-1.034-2.8-1.585-4.183-.224-.56-.431-1.12-.7-1.667,0,0-.526-.909-.629-1.068-.207-.327-.431-.655-.668-.965l-.1-.095c-.228-.22-.457-.431-.694-.629a15.287,15.287,0,0,0-1.447-.75c-.159-.073-.818-.336-1.111-.461l-.569-.194-.861-.267c-.56-.181-1.12-.357-1.676-.547a30.163,30.163,0,0,1-4.553-1.779,15.318,15.318,0,0,1-6.957-7.409c-1.163-2.619-1.391-5.333-2.748-6.939.194.228-1.029-.917-.861-.862a13.512,13.512,0,0,0-2.016-1c1.038.478,0,.034-.5-.1s-1.03-.263-1.542-.4c-3.015-.827-5.975-2.029-7.754-4.781a12.031,12.031,0,0,1-1.292-8.917l-.034-.03.034.026h0l-.129-.086a14.147,14.147,0,0,0-1.973-1.047c-.073-.035-.457-.177-.737-.28a4.136,4.136,0,0,1-.564-.09c.982-.2-.392,0-.823-.039a19.952,19.952,0,0,1-5.828-.823c-3.821-1.335-6.724-4.126-7.129-8.326-.09-.965.073-1.93,0-2.895a3.13,3.13,0,0,0-.047-.431,1.453,1.453,0,0,1-.134-.284c-.06-.146-.112-.3-.164-.431a2.106,2.106,0,0,1-.159-.267l-.095-.181a6.079,6.079,0,0,0-.56-.5c.62.521.254.263-.168,0-.086,0-.358-.082-.625-.142-.633.25-1.029.284-1.189.108q-.862-.943,7.228-9.907a57.731,57.731,0,0,1-5.63,2.033c-1.9.577-2.856.75-4.971,1.5-2.86,1.021-3.907,1.689-4.738,2.61-.646.711-1.5,1.658-1.361,2.494.159.939,1.7,2.429,11.161,2.964,0,0-2.778,3.825-1.322,7.792.547,1.49,1.891,2.154,6.892,5.875a6.6,6.6,0,0,0,.831.521,7.1,7.1,0,0,0,.861.362c1.516.526,7.181-.706,9.619,1.508a1.861,1.861,0,0,1,.53.612c1.18,2.632-7.413,7.81.491,10.454,8.581,2.873,8,.043,11.953,3.808s4,2.662,2.985,7.952,9.477,7.969,10.058,7.379,16.369,9.24,12.117,13.681,13,15.029,13.9,11.079,11.406,5.169,11.2,9.545,7.99,15.309,13.065,9.477-2.352,12.5,4.54,14.809,8.344-6.659,13.431-5.143c2.025.607,2.434,2.412,2.089,4.437C267.945,1238.32,268.281,1237.889,268.6,1237.45Z" transform="translate(-43.851 -615.748)" fill="#c68d25" opacity="0.51"/>
    <path id="Path_579" data-name="Path 579" d="M437.192,1408.525a20.911,20.911,0,0,1-4.062,2.205c-4.553,1.861-8.309-1.96-8.585-6.031a6.894,6.894,0,0,1-1.331,1.6c-1.654,1.206,13.625,16.834,13.922,5.432C437.175,1410.24,437.184,1409.206,437.192,1408.525Z" transform="translate(-203.187 -776.11)" fill="#c68d25" opacity="0.51"/>
    <path id="Path_580" data-name="Path 580" d="M493.759,1334.392c-.75-1.495-1.292-2.584-1.645-3.343l-.37-.185a8.735,8.735,0,0,1-.84-.534,33.734,33.734,0,0,1-.517,4.329c0,.078-.06.4-.108.676,0,.349-.039,1.245-.043,1.4a20.107,20.107,0,0,1-.379,4.493c-1.654,6.892-8.184,11.3-14.366,13.84a9.9,9.9,0,0,0-2.395,1.2l-.078.047c-.228.551-.482,1.1-.715,1.65a15.427,15.427,0,0,1-.969,1.921c.431-.724.3-.918,0,0a12.388,12.388,0,0,1-2.339,4.764c-3.468,3.76-7.818,2.955-11.066.3l-.263.215c-.431.353-.862.689-1.327,1,.4,2.059,1.624,6.849,5.393,6.582,6.616-.465,9.558-7.379,10.489-11.561s9.722-4.307,11.785-6.629S499.562,1345.983,493.759,1334.392Z" transform="translate(-222.115 -733.775)" fill="#c68d25" opacity="0.51"/>
    <path id="Path_581" data-name="Path 581" d="M644.778,1112.289c3.188,1.818,8.184,3.8,2.516-5.686-.362-.6-.676-1.172-.956-1.723-.861,2.193-2.128,4.217-3.11,6.362q-.478,1.292-.194.482c-.194.556-.388,1.116-.586,1.676a16.634,16.634,0,0,1-.814,1.99,14.765,14.765,0,0,1-3.239,4.187l-1.223,1.064c-.224.211-.431.431-.681.625a6.868,6.868,0,0,1-7.573,4.187,11.137,11.137,0,0,1-1.615-.431,6.513,6.513,0,0,1-3.015-1.383h-.53l-.672.047c-.556.039-1.107.095-1.658.164-.332.043-.663.095-.991.142a6.933,6.933,0,0,1-.771.642l-.159.112-.151.284c-.358.767-.689,1.551-1.111,2.283a10.119,10.119,0,0,1-5.488,4.962,8.959,8.959,0,0,1-7.142-1.06c-.185-.1-.862-.457-1.154-.638-.215-.082-.487-.181-.56-.2-.431-.125-.862-.237-1.292-.345-.2-.052-.431-.1-.612-.142a6.69,6.69,0,0,1,.09.762c.116.358.215.719.314,1.086a6.191,6.191,0,0,1,.345,8.951,19.033,19.033,0,0,1-3.235,2.727c-.47.319-.948.625-1.422.943-.129.086-.181.112-.2.108l-.258.289a6.814,6.814,0,0,1-3.17,1.912,9.348,9.348,0,0,1-.956,3.618c-1.469,2.9-4.308,4.049-6.75,5.94-2.3,1.8-5.01,3.446-8.034,3.446-.043,0-1.21,0-2.231-.086a7.849,7.849,0,0,1-2.27,1.831,15.353,15.353,0,0,1,.788,2.068,11.7,11.7,0,0,1-1.818,10.622c-2.154,2.826-5.376,4.066-8.279,5.88.026,0-.991.659-1.1.715-.383.323-.37.56-.745,1.525.431-1.1-.159.612-.228.861-.276.922-.577,1.826-.9,2.735-1.525,4.368-4.445,6.72-8.641,8.438-.25.1-2.533,1.18-1.292.474a6.477,6.477,0,0,1-.685.3l.159-.06-.146.172q-.151.34-.22.491c-.065.31-.116.62-.19.93-1.129,4.833-5.6,8.339-10.416,6.362,1.055,1.8,2.485,4.381,2.485,4.381s6.31,3.244,8.482-9.382c0,0,15.628-6.375,13.129-14.478,0,0,18.522-13.711,11.867-20.5,0,0,9.61,2.089,12.061-5.8,0,0,10.062-2.989,8.917-9.778,0,0,13.435-9.011,8.869-12.41s1.628-1.788,1.628-1.788,7.082,7.168,9.076-.616,6.595-5.85,8.482-6.461,7.534,5.384,11.454-.37,2.193,3.278,3.916-5.751S653.8,1120.87,644.778,1112.289Z" transform="translate(-270.028 -605.439)" fill="#c68d25" opacity="0.51"/>
    <g id="Group_26" data-name="Group 26" transform="translate(132.391 366.963)" opacity="0.26">
      <path id="Path_582" data-name="Path 582" d="M294.782,875.343c19.082-9.632,44.281-19.143,73.081-43.7a237.181,237.181,0,0,0,19.048-18.165s17.071-20.543,31.746-15.3,34.434,18.953,39.47,12.987,19.815,15.05,19.815,15.05-28.042,14.008-32.194,23-46.3,46.952-51,46.87-34.706,11.23-38.923,24.247-33.383,35.395-40.448,36.967-44.5,15.783-51.148,34.46a4.675,4.675,0,0,1-2.2,2.735c-8.331,3.877-36.571-26.276-41.886-60.62-.108-.676-.181-1.215-.215-1.456C248.674,901.933,275.437,885.113,294.782,875.343Z" transform="translate(-219.93 -797.329)" fill="#161616"/>
      <path id="Path_583" data-name="Path 583" d="M234.54,940.225c24.247-28.813,46.952-42.42,63.751-49.5,12.276-5.169,39.323-14.413,66.973-38.8.935-.823,1.7-1.512,2.21-1.977,12.625-11.1,21.387-18.88,26.035-23.019,13.254-11.794,22.89-25.307,29.4-18.092,4.307,4.738,12.707,2.533,12.707,2.533a477.193,477.193,0,0,0-51.837,36.9c-14.771,12.061-11.63,10.937-20.887,18.044-28.994,22.223-53.9,28.619-86.4,48.7-7.013,4.338-11.169,7.323-15.425,11.346-5.725,5.4-16.024,15.132-17.9,20.026a1.783,1.783,0,0,1-.892,1.086C240.519,948.155,237.323,944.231,234.54,940.225Z" transform="translate(-228.247 -802.728)" fill="#161616"/>
      <path id="Path_584" data-name="Path 584" d="M285.33,1006.191c24.247-28.809,46.952-42.416,63.777-49.5,12.276-5.169,39.319-14.409,66.969-38.8.939-.823,1.7-1.516,2.21-1.977,12.63-11.1,21.387-18.88,26.035-23.019,13.254-11.794,22.895-25.307,29.4-18.092,4.307,4.738,12.707,2.533,12.707,2.533a476.76,476.76,0,0,0-51.854,36.89c-14.775,12.061-11.63,10.937-20.892,18.044C384.692,954.5,359.777,960.9,327.285,981c-7.013,4.333-11.165,7.323-15.425,11.346-5.72,5.4-16.024,15.132-17.9,20.026a1.778,1.778,0,0,1-.892,1.085C291.309,1014.125,288.1,1010.2,285.33,1006.191Z" transform="translate(-257.159 -840.282)" fill="#161616"/>
    </g>
    <g id="Group_27" data-name="Group 27" transform="translate(80.089 286.335)" opacity="0.26">
      <path id="Path_585" data-name="Path 585" d="M173.375,688.176c19.074-9.632,44.277-19.138,73.094-43.708A237.2,237.2,0,0,0,265.517,626.3s17.071-20.542,31.751-15.3,34.43,18.953,39.466,12.987,19.815,15.05,19.815,15.05-28.038,14.008-32.194,23-46.3,46.952-50.992,46.874-34.727,11.225-38.953,24.243-33.388,35.395-40.452,36.967-44.5,15.783-51.148,34.46a4.675,4.675,0,0,1-2.2,2.735c-8.331,3.877-36.571-26.276-41.886-60.62-.1-.676-.181-1.215-.211-1.456C127.263,714.758,154.025,697.958,173.375,688.176Z" transform="translate(-98.51 -610.149)" fill="#161616"/>
      <path id="Path_586" data-name="Path 586" d="M113.14,753.075c24.247-28.813,46.952-42.421,63.773-49.5,12.281-5.169,39.323-14.413,66.973-38.8.935-.823,1.7-1.512,2.21-1.977,12.625-11.113,21.387-18.867,26.035-23.019,13.254-11.794,22.89-25.307,29.4-18.092,4.308,4.738,12.707,2.533,12.707,2.533a476.788,476.788,0,0,0-51.85,36.9c-14.775,12.061-11.63,10.937-20.891,18.044-29,22.222-53.9,28.619-86.4,48.7-7.013,4.338-11.169,7.323-15.425,11.346-5.72,5.4-16.024,15.132-17.9,20.026a1.766,1.766,0,0,1-.892,1.086C119.11,761.005,115.905,757.081,113.14,753.075Z" transform="translate(-106.838 -615.566)" fill="#161616"/>
      <path id="Path_587" data-name="Path 587" d="M163.93,819.045c24.247-28.813,46.982-42.42,63.781-49.5,12.276-5.169,39.323-14.409,66.973-38.8.935-.823,1.7-1.516,2.205-1.977,12.625-11.1,21.383-18.88,26.017-23.019,13.254-11.794,22.89-25.307,29.4-18.092,4.308,4.738,12.707,2.533,12.707,2.533a476.755,476.755,0,0,0-51.854,36.894c-14.775,12.061-11.63,10.937-20.887,18.044-29,22.218-53.909,28.619-86.4,48.7-7.013,4.333-11.165,7.323-15.425,11.346-5.72,5.4-16.02,15.132-17.9,20.026a1.783,1.783,0,0,1-.892,1.085C169.909,826.975,166.7,823.047,163.93,819.045Z" transform="translate(-135.75 -653.119)" fill="#161616"/>
    </g>
    <path id="Path_588" data-name="Path 588" d="M299.276,844.262c19.074-9.636,44.281-19.113,73.077-43.7A237.183,237.183,0,0,0,391.4,782.393s17.071-20.543,31.751-15.3,34.43,18.953,39.466,12.987,19.815,15.046,19.815,15.046-28.042,14.008-32.2,23-46.3,46.952-50.992,46.874-34.71,11.23-38.923,24.247-33.383,35.4-40.452,36.967-44.5,15.778-51.148,34.46a4.651,4.651,0,0,1-2.2,2.735c-8.331,3.877-36.571-26.276-41.886-60.615-.1-.676-.181-1.215-.211-1.456C253.164,870.856,279.927,854.031,299.276,844.262Z" transform="translate(-90.095 -412.668)" fill="#7c4016"/>
    <path id="Path_589" data-name="Path 589" d="M239,909.158c24.247-28.809,46.952-42.416,63.777-49.5,12.276-5.169,39.319-14.409,66.969-38.8.935-.827,1.723-1.516,2.21-1.981,12.63-11.1,21.387-18.876,26.035-23.015,13.254-11.794,22.895-25.311,29.4-18.092,4.308,4.738,12.7,2.537,12.7,2.537a477.233,477.233,0,0,0-51.837,36.9c-14.775,12.061-11.63,10.941-20.892,18.049-29,22.218-53.909,28.615-86.4,48.7-7.013,4.333-11.169,7.323-15.425,11.342-5.72,5.406-16.024,15.137-17.9,20.03a1.77,1.77,0,0,1-.892,1.081C244.992,917.093,241.778,913.164,239,909.158Z" transform="translate(-98.394 -418.082)" fill="#e8bf89"/>
    <path id="Path_590" data-name="Path 590" d="M289.83,975.128c24.247-28.813,46.952-42.416,63.773-49.5,12.276-5.169,39.323-14.409,66.973-38.8.935-.827,1.7-1.516,2.21-1.981,12.625-11.1,21.383-18.88,26.035-23.015,13.254-11.8,22.89-25.311,29.4-18.092,4.307,4.76,12.707,2.533,12.707,2.533a478.366,478.366,0,0,0-51.854,36.915c-14.775,12.061-11.63,10.937-20.887,18.049-29,22.218-53.909,28.615-86.4,48.7-7.017,4.333-11.169,7.323-15.425,11.342-5.725,5.406-16.024,15.137-17.9,20.026a1.783,1.783,0,0,1-.892,1.086C295.809,983.058,292.6,979.134,289.83,975.128Z" transform="translate(-127.329 -455.635)" fill="#e8bf89"/>
    <path id="Path_591" data-name="Path 591" d="M140.98,690.1c19.074-9.627,44.277-19.138,73.077-43.7a237.188,237.188,0,0,0,19.048-18.165s17.071-20.543,31.751-15.3,34.43,18.953,39.466,12.987,19.815,15.046,19.815,15.046-28.038,14.008-32.194,23-46.3,46.943-50.971,46.874-34.71,11.23-38.923,24.247S168.66,770.489,161.6,772.061s-44.5,15.778-51.148,34.46a4.651,4.651,0,0,1-2.2,2.735c-8.331,3.877-36.571-26.276-41.886-60.615-.1-.676-.181-1.215-.211-1.456C94.868,716.718,121.652,699.871,140.98,690.1Z" transform="translate(0 -324.913)" fill="#7c4016"/>
    <path id="Path_592" data-name="Path 592" d="M80.7,755c24.247-28.809,46.952-42.416,63.773-49.5,12.281-5.169,39.323-14.409,66.973-38.8.935-.827,1.7-1.516,2.21-1.981,12.625-11.079,21.383-18.88,26.035-23.015,13.254-11.8,22.89-25.311,29.4-18.092,4.308,4.76,12.707,2.533,12.707,2.533a478.007,478.007,0,0,0-51.849,36.894c-14.775,12.061-11.63,10.937-20.892,18.049-29,22.218-53.909,28.615-86.4,48.7-7.013,4.333-11.169,7.323-15.425,11.342-5.72,5.406-16.024,15.137-17.9,20.026a1.766,1.766,0,0,1-.892,1.085C86.679,762.928,83.465,759,80.7,755Z" transform="translate(-8.283 -330.327)" fill="#e8bf89"/>
    <path id="Path_593" data-name="Path 593" d="M131.49,820.968c24.247-28.813,46.952-42.416,63.777-49.5,12.276-5.169,39.323-14.409,66.973-38.8.935-.827,1.7-1.516,2.205-1.981,12.63-11.1,21.387-18.88,26.039-23.015,13.254-11.8,22.89-25.311,29.4-18.092,4.308,4.738,12.707,2.533,12.707,2.533a477.961,477.961,0,0,0-51.841,36.894c-14.775,12.061-11.63,10.937-20.887,18.044-29,22.223-53.909,28.619-86.4,48.705-7.013,4.333-11.165,7.323-15.425,11.342-5.72,5.406-16.02,15.137-17.9,20.026a1.783,1.783,0,0,1-.892,1.086C137.469,828.9,134.26,824.974,131.49,820.968Z" transform="translate(-37.195 -367.88)" fill="#e8bf89"/>
    <g id="Group_28" data-name="Group 28" transform="translate(188.277 218.548)" opacity="0.37">
      <path id="Path_594" data-name="Path 594" d="M351.8,573.839s39.1-31.837,54.882-62.7,58.009-55.4,58.009-55.4c19.436,16.959,36.235,33.375,33.422,37.531a1.68,1.68,0,0,1-.569.521c-19.918,11.673-35.92,29.037-54.589,42.614-39.836,28.981-37.906,67.977-58.582,68.287C376.6,604.81,365.5,599.456,351.8,573.839Z" transform="translate(-350.882 -454.465)" fill="#040505" stroke="#040505" stroke-miterlimit="10" stroke-width="1"/>
      <path id="Path_595" data-name="Path 595" d="M396.39,598.219s41.257-38.225,42.868-42.433,31.54-57.587,45.449-57.6" transform="translate(-376.265 -478.63)" fill="#040505" stroke="#040505" stroke-miterlimit="10" stroke-width="15"/>
      <path id="Path_596" data-name="Path 596" d="M419.63,618.749c22.171-16.119,34.956-32.229,42.61-44.294,5.6-8.852,9.86-17.7,19.871-30.066a169.385,169.385,0,0,1,25.845-25.669" transform="translate(-389.494 -490.316)" fill="#040505" stroke="#040505" stroke-miterlimit="10" stroke-width="15"/>
      <path id="Path_597" data-name="Path 597" d="M357.24,575.707A127.947,127.947,0,0,0,392.088,543c11.712-16.2,9.257-21.081,23.192-39.2a176.986,176.986,0,0,1,32.647-32.263A174.9,174.9,0,0,1,464.6,460.3" transform="translate(-353.979 -457.061)" fill="#040505"/>
      <path id="Path_598" data-name="Path 598" d="M354.55,574.218a135.88,135.88,0,0,0,27.926-23.747,108.916,108.916,0,0,0,16.412-23.877c1.757-3.575,3.347-7.232,5.216-10.769a103.214,103.214,0,0,1,8.96-13.784l.724-.952-.228.3.534-.685q.646-.814,1.292-1.62,1.684-2.089,3.446-4.122,4.859-5.63,10.187-10.829a180.94,180.94,0,0,1,14.559-12.8c.353-.276.7-.564,1.064-.831l.065-.047.543-.431q1.079-.821,2.154-1.624,2.046-1.512,4.144-2.964,3.618-2.507,7.366-4.833,1.486-.922,3.015-1.818a3.231,3.231,0,0,0-3.261-5.578,181.21,181.21,0,0,0-30.794,23.088,171.864,171.864,0,0,0-18.285,19.763,121.907,121.907,0,0,0-9.141,13.108c-2.119,3.592-3.9,7.357-5.673,11.131a103.667,103.667,0,0,1-6.276,11.63c-1.4,2.21-2.9,4.359-4.467,6.461-.31.431-.625.836-.943,1.253-.095.125-.642.836-.237.31s.082-.1,0,0l-.336.431q-1.055,1.34-2.154,2.649a124.355,124.355,0,0,1-10.631,11.251q-3.308,3.093-6.823,5.949-.846.691-1.723,1.365l-.478.375-.159.125c-.271.211-.211.168.172-.134a9.182,9.182,0,0,0-1.142.862q-2.025,1.525-4.1,2.972t-4.2,2.821a3.231,3.231,0,1,0,3.261,5.578Z" transform="translate(-349.67 -452.78)" fill="#040505"/>
      <path id="Path_599" data-name="Path 599" d="M538.577,538.91c-22.11,20.749-38.109,33.478-49.106,41.512-5.087,3.713-12.44,8.856-20.116,18.027a171.241,171.241,0,0,0-15.727,23.2c-4.131,7.366-5.423,11.859-10.618,17.286a44.064,44.064,0,0,1-11.85,8.749" transform="translate(-396.058 -501.809)" fill="#040505"/>
      <path id="Path_600" data-name="Path 600" d="M532.088,532.4c-8.8,8.253-17.773,16.33-27.012,24.092q-5.328,4.48-10.769,8.8-1.185.935-2.373,1.865l-1.146.887c.986-.762.224-.172,0,0l-.646.5q-2.1,1.611-4.217,3.183c-3.446,2.585-7,5.061-10.338,7.775a91.749,91.749,0,0,0-12.806,12.569,157.769,157.769,0,0,0-15.99,23.493c-2.417,4.277-4.308,8.882-7.064,12.966-.314.465-.638.922-.973,1.37-.138.185-.53.638.121-.151-.1.121-.2.25-.3.375-.241.3-.487.594-.737.862a39.709,39.709,0,0,1-3.2,3.287c-.573.53-1.163,1.042-1.762,1.538a11.069,11.069,0,0,0-.862.7c.711-.625.254-.194.078-.06l-.573.431q-1.589,1.154-3.278,2.154-1.409.862-2.877,1.594a3.258,3.258,0,0,0-1.159,4.424,3.308,3.308,0,0,0,4.42,1.159,45.854,45.854,0,0,0,13.681-10.545,39.974,39.974,0,0,0,4.712-6.694c1.292-2.274,2.4-4.631,3.61-6.944,1.533-2.942,3.2-5.8,4.945-8.615,2.882-4.687,5.94-9.274,9.27-13.651l.34-.431c.431-.543-.47.6-.047.06l.693-.861c.5-.633,1.012-1.258,1.525-1.878,1.068-1.292,2.154-2.533,3.308-3.747a89.266,89.266,0,0,1,6.517-6.315q1.465-1.292,2.985-2.507c.47-.383.948-.758,1.426-1.133l.349-.271-.431.327.233-.177.788-.6c1.585-1.2,3.2-2.356,4.8-3.532,6.677-4.889,13.181-10.011,19.552-15.287,8.921-7.387,17.588-15.076,26.086-22.95q1.874-1.723,3.739-3.485a3.261,3.261,0,0,0,0-4.57,3.3,3.3,0,0,0-4.57,0Z" transform="translate(-391.852 -497.583)" fill="#040505"/>
    </g>
    <path id="Path_601" data-name="Path 601" d="M344,550.449s39.1-31.846,54.874-62.683,58.009-55.416,58.009-55.416c19.414,16.959,36.231,33.375,33.422,37.531a1.68,1.68,0,0,1-.569.521c-19.918,11.673-35.92,29.037-54.589,42.614C395.311,542,397.241,580.994,376.565,581.3,368.794,581.42,357.694,576.07,344,550.449Z" transform="translate(-158.165 -222.602)" fill="#a3ce8d"/>
    <path id="Path_602" data-name="Path 602" d="M388.57,574.821s41.257-38.225,42.868-42.433,31.54-57.579,45.449-57.587" transform="translate(-183.537 -246.767)" fill="none" stroke="#acd4a7" stroke-miterlimit="10" stroke-width="15"/>
    <path id="Path_603" data-name="Path 603" d="M411.81,595.359c22.171-16.119,34.956-32.229,42.61-44.294,5.6-8.852,9.86-17.7,19.871-30.066a169.392,169.392,0,0,1,25.845-25.669" transform="translate(-196.766 -258.454)" fill="none" stroke="#acd4a7" stroke-miterlimit="10" stroke-width="15"/>
    <g id="Group_29" data-name="Group 29" transform="translate(210.538 299.542)" opacity="0.22">
      <path id="Path_604" data-name="Path 604" d="M414.622,697.583l-5.931-46.87-.862-6.672a3.343,3.343,0,0,0-3.231-3.231c-1.577,0-3.446,1.486-3.231,3.231l5.931,46.866.862,6.677a3.34,3.34,0,0,0,3.231,3.231C412.968,700.814,414.837,699.323,414.622,697.583Z" transform="translate(-401.35 -640.81)" fill="#3d2b15"/>
    </g>
    <g id="Group_30" data-name="Group 30" transform="translate(231.154 266.781)" opacity="0.22">
      <path id="Path_605" data-name="Path 605" d="M456.248,636.426l-.5-59.935-.073-8.615c-.034-4.157-6.5-4.165-6.461,0l.5,59.922.073,8.615c.034,4.157,6.5,4.165,6.461,0Z" transform="translate(-449.21 -564.755)" fill="#3d2b15"/>
    </g>
    <g id="Group_31" data-name="Group 31" transform="translate(253.82 234.505)" opacity="0.22">
      <path id="Path_606" data-name="Path 606" d="M508.269,562.96l.862-61.244.121-8.77c.06-4.161-6.4-4.161-6.461,0l-.84,61.244-.121,8.77c-.056,4.157,6.405,4.161,6.461,0Z" transform="translate(-501.829 -489.825)" fill="#3d2b15"/>
    </g>
    <g id="Group_32" data-name="Group 32" transform="translate(276.605 217.756)" opacity="0.22">
      <path id="Path_607" data-name="Path 607" d="M563.08,518.5l-1.658-56.454-.233-7.986c-.125-4.148-6.586-4.165-6.461,0l1.654,56.454.237,7.986C556.739,522.649,563.2,522.666,563.08,518.5Z" transform="translate(-554.726 -450.943)" fill="#3d2b15"/>
    </g>
    <g id="Group_33" data-name="Group 33" transform="translate(292.288 208.468)" opacity="0.22">
      <path id="Path_608" data-name="Path 608" d="M603.322,490.293l-5.005-50.514-.711-7.168a3.33,3.33,0,0,0-3.231-3.231,3.254,3.254,0,0,0-3.231,3.231l5.005,50.519.711,7.163a3.33,3.33,0,0,0,3.231,3.231,3.251,3.251,0,0,0,3.231-3.231Z" transform="translate(-591.133 -429.38)" fill="#3d2b15"/>
    </g>
    <path id="Path_609" data-name="Path 609" d="M339.534,543.727a149.556,149.556,0,0,0,29.27-24.51,114.186,114.186,0,0,0,17.273-24.152c1.865-3.605,3.558-7.323,5.539-10.851,1.232-2.21,2.563-4.364,3.972-6.461.836-1.245,1.7-2.468,2.585-3.679.452-.612.9-1.223,1.365-1.826l.392-.517c.1-.134.547-.754.034-.047.314-.431.655-.862.986-1.258A181.355,181.355,0,0,1,417.935,451.9c4.906-4.691,10.062-9.11,15.412-13.293.625-.491-.556.431.078-.06l.556-.431.93-.711c.8-.6,1.611-1.2,2.421-1.792q2.111-1.542,4.269-3.015,3.739-2.584,7.6-4.992,1.6-1,3.231-1.973a3.233,3.233,0,0,0-3.261-5.583,202.745,202.745,0,0,0-32.268,24,185.927,185.927,0,0,0-19.216,20.164,127.8,127.8,0,0,0-9.576,13.19c-2.274,3.666-4.191,7.512-6.1,11.376a105.744,105.744,0,0,1-6.69,11.8c-.81,1.21-1.65,2.408-2.507,3.588-.4.551-.81,1.1-1.223,1.65l-.457.607c-.078.1-.155.2-.237.3-.457.6.431-.556.112-.138q-2.055,2.641-4.243,5.169a134.547,134.547,0,0,1-11.251,11.57q-3.446,3.132-7.056,6.031l-.956.762-.487.379c-.086.069-.379.375-.487.383l.323-.254-.246.194-.431.314c-.392.3-.784.6-1.18.892q-2.089,1.555-4.226,3.05-2.231,1.559-4.519,3.015a3.231,3.231,0,1,0,3.261,5.578Z" transform="translate(-152.838 -215.364)" fill="#244f24"/>
    <path id="Path_610" data-name="Path 610" d="M528.586,505.5c-9.2,8.572-18.574,16.95-28.223,25.01q-5.492,4.579-11.1,9.011-1.292,1.008-2.585,2.007l-.3.233c.861-.681.431-.349.258-.2l-.594.452-1.163.892q-2.223,1.693-4.476,3.36c-3.584,2.649-7.228,5.208-10.7,7.995a95.736,95.736,0,0,0-13.28,12.923,163.392,163.392,0,0,0-16.8,24.432c-2.5,4.381-4.471,9.089-7.293,13.276-.353.53-.728,1.042-1.107,1.551s.5-.629.108-.138l-.31.392c-.254.31-.508.612-.771.913a40.071,40.071,0,0,1-3.33,3.4q-.9.818-1.839,1.59c-.3.245-.616.474-.909.728.711-.612.22-.172.052-.047l-.594.431q-1.663,1.2-3.416,2.253c-.982.59-1.981,1.137-3.015,1.658a3.253,3.253,0,0,0-1.159,4.419,3.308,3.308,0,0,0,4.476,1.176,47.883,47.883,0,0,0,14.215-10.907,41.415,41.415,0,0,0,4.9-6.892c1.335-2.352,2.511-4.79,3.769-7.176,1.628-3.084,3.4-6.087,5.242-9.046q2.093-3.368,4.308-6.651,1.249-1.844,2.541-3.644c.935-1.292,1.947-2.554,2.865-3.877-.594.861.177-.224.332-.431l.724-.913q.724-.9,1.473-1.792,1.723-2.055,3.567-4.01a92.887,92.887,0,0,1,6.75-6.461q1.516-1.318,3.088-2.585c.487-.392.982-.775,1.473-1.163-.918.724-.03.026.185-.138l.814-.62c1.671-1.253,3.368-2.464,5.057-3.7,6.892-5.027,13.616-10.295,20.207-15.718,9.317-7.667,18.376-15.654,27.254-23.825q1.951-1.8,3.877-3.6a3.265,3.265,0,0,0,0-4.57,3.3,3.3,0,0,0-4.57,0Z" transform="translate(-198.919 -263.722)" fill="#244f24"/>
    <g id="Group_34" data-name="Group 34" transform="translate(91.176 224.336)" opacity="0.37">
      <path id="Path_611" data-name="Path 611" d="M126.41,587.249s39.1-31.846,54.878-62.7,58.014-55.4,58.014-55.4c19.414,16.959,36.231,33.375,33.422,37.531a1.723,1.723,0,0,1-.569.521c-19.918,11.673-35.92,29.037-54.589,42.614C177.73,578.8,179.66,617.794,158.983,618.1,151.217,618.22,140.112,612.866,126.41,587.249Z" transform="translate(-125.478 -467.886)" fill="#040505" stroke="#040505" stroke-miterlimit="10" stroke-width="1"/>
      <path id="Path_612" data-name="Path 612" d="M171,611.624s41.262-38.225,42.868-42.433,31.54-57.587,45.436-57.6" transform="translate(-150.861 -492.045)" fill="#040505" stroke="#040505" stroke-miterlimit="10" stroke-width="15"/>
      <path id="Path_613" data-name="Path 613" d="M194.23,632.159c22.175-16.119,34.96-32.229,42.614-44.294,5.6-8.852,9.86-17.7,19.866-30.066a169.37,169.37,0,0,1,25.845-25.669" transform="translate(-164.085 -503.738)" fill="#040505" stroke="#040505" stroke-miterlimit="10" stroke-width="15"/>
      <path id="Path_614" data-name="Path 614" d="M131.85,589.117A128.077,128.077,0,0,0,166.7,556.41c11.708-16.2,9.253-21.081,23.192-39.2a176.691,176.691,0,0,1,32.647-32.263,174.343,174.343,0,0,1,16.674-11.238" transform="translate(-128.575 -470.482)" fill="#040505"/>
      <path id="Path_615" data-name="Path 615" d="M129.15,587.643A135.991,135.991,0,0,0,157.076,563.9a109.064,109.064,0,0,0,16.412-23.877c1.757-3.575,3.347-7.232,5.216-10.769a102.519,102.519,0,0,1,8.96-13.784c.237-.319.482-.637.724-.952l-.228.3.534-.685q.646-.814,1.292-1.62,1.689-2.093,3.446-4.122,4.85-5.656,10.179-10.825a180.94,180.94,0,0,1,14.559-12.8c.353-.276.7-.564,1.064-.831-.7.513-.065.052.065-.047l.543-.431c.715-.547,1.439-1.09,2.154-1.624q2.055-1.512,4.148-2.964,3.618-2.507,7.366-4.833,1.486-.922,2.994-1.818a3.231,3.231,0,0,0-3.261-5.578,181.242,181.242,0,0,0-30.8,23.088,171.85,171.85,0,0,0-18.281,19.763,121.906,121.906,0,0,0-9.141,13.108c-2.119,3.592-3.9,7.357-5.673,11.131a104.379,104.379,0,0,1-6.276,11.63c-1.409,2.21-2.908,4.359-4.467,6.461q-.465.629-.943,1.253c-.095.125-.646.836-.237.31s.082-.108,0,0l-.336.431q-1.055,1.335-2.154,2.649A124.367,124.367,0,0,1,144.3,567.716q-3.274,3.08-6.806,5.953c-.564.461-1.137.913-1.723,1.365l-.478.375-.159.125.172-.134a8.868,8.868,0,0,0-1.142.862q-2.025,1.525-4.1,2.972t-4.2,2.821a3.231,3.231,0,1,0,3.261,5.578Z" transform="translate(-124.247 -466.217)" fill="#040505"/>
      <path id="Path_616" data-name="Path 616" d="M313.181,552.32c-22.111,20.745-38.109,33.478-49.106,41.512-5.087,3.713-12.44,8.856-20.116,18.023a172.46,172.46,0,0,0-15.731,23.2c-4.127,7.37-5.423,11.863-10.614,17.29A44.01,44.01,0,0,1,205.76,661.1" transform="translate(-170.648 -515.231)" fill="#040505"/>
      <path id="Path_617" data-name="Path 617" d="M306.669,545.848c-8.8,8.253-17.777,16.33-27.012,24.092q-5.328,4.476-10.79,8.8-1.18.939-2.373,1.861l-1.146.892c.986-.762.224-.172,0,0l-.65.5q-2.093,1.607-4.213,3.179c-3.468,2.584-7,5.066-10.338,7.779A91.271,91.271,0,0,0,237.34,605.52a157.439,157.439,0,0,0-15.989,23.493c-2.417,4.277-4.308,8.882-7.064,12.966-.314.465-.638.922-.973,1.37-.142.185-.53.637.121-.151-.1.121-.2.25-.3.375-.241.3-.487.594-.737.883a39.711,39.711,0,0,1-3.2,3.287c-.573.53-1.163,1.042-1.762,1.538-.289.233-.594.452-.862.7.711-.629.254-.194.078-.06l-.573.431q-1.589,1.163-3.278,2.18-1.409.862-2.877,1.594a3.254,3.254,0,0,0-1.159,4.42,3.3,3.3,0,0,0,4.42,1.159,45.825,45.825,0,0,0,13.681-10.541,40.061,40.061,0,0,0,4.712-6.7c1.292-2.27,2.4-4.626,3.605-6.939,1.533-2.942,3.209-5.8,4.945-8.615,2.886-4.687,5.944-9.274,9.274-13.655l.34-.431c.431-.547-.47.6-.047.06.228-.293.461-.59.694-.862.5-.633,1.008-1.262,1.525-1.878q1.6-1.917,3.308-3.752a90.129,90.129,0,0,1,6.517-6.311q1.465-1.292,2.985-2.507c.47-.383.943-.758,1.421-1.133l.349-.271-.431.327.228-.177.793-.6c1.585-1.2,3.2-2.356,4.8-3.532,6.677-4.889,13.181-10.011,19.552-15.292,8.921-7.387,17.588-15.076,26.082-22.946q1.882-1.723,3.743-3.485a3.232,3.232,0,0,0-4.57-4.57Z" transform="translate(-166.42 -511.05)" fill="#040505"/>
    </g>
    <path id="Path_618" data-name="Path 618" d="M118.59,563.859s39.1-31.845,54.882-62.7,58.009-55.4,58.009-55.4c19.414,16.959,36.231,33.375,33.422,37.531a1.724,1.724,0,0,1-.569.521c-19.918,11.673-35.92,29.037-54.589,42.6C169.91,555.4,171.84,594.391,151.163,594.7,143.388,594.83,132.292,589.476,118.59,563.859Z" transform="translate(-29.851 -230.236)" fill="#a3ce8d"/>
    <path id="Path_619" data-name="Path 619" d="M163.18,588.234s41.257-38.225,42.864-42.433,31.544-57.587,45.453-57.6" transform="translate(-55.234 -254.395)" fill="none" stroke="#acd4a7" stroke-miterlimit="10" stroke-width="15"/>
    <path id="Path_620" data-name="Path 620" d="M186.41,608.809c22.175-16.119,34.96-32.229,42.614-44.294,5.6-8.852,9.86-17.7,19.866-30.067a169.377,169.377,0,0,1,25.845-25.669" transform="translate(-68.458 -266.11)" fill="none" stroke="#acd4a7" stroke-miterlimit="10" stroke-width="15"/>
    <g id="Group_35" data-name="Group 35" transform="translate(113.451 305.314)" opacity="0.22">
      <path id="Path_621" data-name="Path 621" d="M189.232,710.979,183.3,664.117l-.862-6.677a3.343,3.343,0,0,0-3.231-3.231c-1.577,0-3.446,1.49-3.231,3.231l5.931,46.87.861,6.677A3.34,3.34,0,0,0,186,714.218c1.577,0,3.446-1.49,3.231-3.231Z" transform="translate(-175.96 -654.21)" fill="#3d2b15"/>
    </g>
    <g id="Group_36" data-name="Group 36" transform="translate(134.071 272.571)" opacity="0.22">
      <path id="Path_622" data-name="Path 622" d="M230.864,649.853l-.5-59.922-.073-8.615c-.034-4.157-6.5-4.165-6.461,0l.5,59.922.073,8.615c.034,4.157,6.5,4.165,6.461,0Z" transform="translate(-223.83 -578.195)" fill="#3d2b15"/>
    </g>
    <g id="Group_37" data-name="Group 37" transform="translate(156.711 240.273)" opacity="0.22">
      <path id="Path_623" data-name="Path 623" d="M282.851,576.35l.84-61.244.121-8.77c.056-4.161-6.405-4.161-6.461,0l-.84,61.244-.121,8.77C276.334,580.507,282.795,580.511,282.851,576.35Z" transform="translate(-276.389 -503.215)" fill="#3d2b15"/>
    </g>
    <g id="Group_38" data-name="Group 38" transform="translate(179.514 223.533)" opacity="0.22">
      <path id="Path_624" data-name="Path 624" d="M337.684,531.911l-1.658-56.459-.237-7.982c-.121-4.148-6.582-4.165-6.461,0l1.658,56.454.237,7.986C331.344,536.059,337.805,536.076,337.684,531.911Z" transform="translate(-329.326 -464.352)" fill="#3d2b15"/>
    </g>
    <g id="Group_39" data-name="Group 39" transform="translate(195.2 214.245)" opacity="0.22">
      <path id="Path_625" data-name="Path 625" d="M377.915,503.7l-4.988-50.514-.711-7.168a3.331,3.331,0,0,0-3.231-3.231,3.254,3.254,0,0,0-3.231,3.231l5.005,50.519.694,7.163a3.331,3.331,0,0,0,3.231,3.231A3.251,3.251,0,0,0,377.915,503.7Z" transform="translate(-365.743 -442.79)" fill="#3d2b15"/>
    </g>
    <path id="Path_626" data-name="Path 626" d="M114.142,557.117a150.313,150.313,0,0,0,29.291-24.51A114.124,114.124,0,0,0,160.7,508.455c1.869-3.605,3.562-7.3,5.544-10.851,1.232-2.21,2.563-4.364,3.972-6.461.836-1.245,1.7-2.468,2.585-3.679.431-.612.9-1.223,1.365-1.826l.392-.517c.1-.134.547-.754.034-.047.31-.431.655-.862.986-1.258a181.813,181.813,0,0,1,16.98-18.522c4.911-4.687,10.067-9.106,15.412-13.289.629-.491-.556.431.082-.06l.551-.431.935-.711q1.2-.9,2.417-1.8,2.119-1.546,4.269-3.015,3.748-2.585,7.6-4.992c1.068-.672,2.154-1.327,3.226-1.977a3.24,3.24,0,0,0-3.282-5.587,202.887,202.887,0,0,0-32.268,24,186.305,186.305,0,0,0-19.2,20.172,127.168,127.168,0,0,0-9.576,13.19c-2.274,3.666-4.2,7.512-6.1,11.376a105.048,105.048,0,0,1-6.694,11.811q-1.215,1.822-2.5,3.593c-.4.551-.81,1.1-1.223,1.65-.151.2-.306.4-.461.6l-.233.306c-.461.6.431-.556.112-.138-1.374,1.762-2.783,3.493-4.243,5.169a135.2,135.2,0,0,1-11.251,11.57q-3.446,3.131-7.056,6.031l-.956.762-.487.379c-.09.069-.383.375-.491.379l.327-.25c-.082.065-.164.129-.25.19l-.431.319c-.392.3-.784.594-1.18.892q-2.085,1.559-4.226,3.05c-1.49,1.038-3.015,2.046-4.519,3.015a3.231,3.231,0,0,0,3.261,5.578Z" transform="translate(-24.533 -222.977)" fill="#244f24"/>
    <path id="Path_627" data-name="Path 627" d="M303.219,518.859c-9.2,8.563-18.574,16.95-28.223,25.009q-5.492,4.583-11.1,9.011l-2.585,2-.3.233.258-.2-.594.457-1.163.892q-2.223,1.693-4.476,3.36c-3.584,2.645-7.228,5.208-10.7,7.995a95.5,95.5,0,0,0-13.28,12.923,163.391,163.391,0,0,0-16.8,24.432c-2.5,4.376-4.471,9.089-7.293,13.276q-.538.788-1.107,1.551c-.375.5.5-.629.108-.138-.1.129-.207.263-.314.392-.25.31-.5.612-.767.913a41.418,41.418,0,0,1-3.334,3.4c-.594.547-1.21,1.077-1.835,1.589-.3.246-.616.474-.909.728.711-.616.22-.172.052-.047s-.4.3-.6.431q-1.654,1.2-3.416,2.257-1.469.861-2.994,1.658a3.253,3.253,0,0,0-1.159,4.42,3.308,3.308,0,0,0,4.42,1.159,47.882,47.882,0,0,0,14.215-10.907,41.664,41.664,0,0,0,4.945-6.918c1.335-2.352,2.511-4.79,3.769-7.181,1.628-3.084,3.4-6.082,5.242-9.046q2.093-3.368,4.308-6.651,1.245-1.839,2.541-3.644c.935-1.292,1.947-2.554,2.865-3.877-.594.862.177-.224.332-.431.237-.3.478-.607.724-.909q.724-.9,1.469-1.792,1.723-2.055,3.571-4.01a91.349,91.349,0,0,1,6.75-6.461q1.521-1.318,3.089-2.584c.487-.392.982-.775,1.473-1.163-.918.724-.03.026.181-.138l.818-.62c1.671-1.253,3.368-2.464,5.053-3.7,6.892-5.027,13.62-10.295,20.211-15.718,9.317-7.667,18.372-15.654,27.254-23.825q1.938-1.8,3.877-3.6a3.265,3.265,0,0,0,0-4.57,3.3,3.3,0,0,0-4.57,0Z" transform="translate(-70.639 -271.305)" fill="#244f24"/>
    <g id="Group_40" data-name="Group 40" transform="translate(163.822 307.569)" opacity="0.37">
      <path id="Path_628" data-name="Path 628" d="M295.07,780.484s39.1-31.85,54.882-62.7,58.014-55.4,58.014-55.4c19.41,16.963,36.226,33.379,33.418,37.531a1.678,1.678,0,0,1-.569.521c-19.914,11.673-35.92,29.037-54.585,42.619-39.84,28.981-37.906,67.977-58.582,68.287C319.873,811.455,308.772,806.088,295.07,780.484Z" transform="translate(-294.134 -661.115)" fill="#040505" stroke="#040505" stroke-miterlimit="10" stroke-width="1"/>
      <path id="Path_629" data-name="Path 629" d="M339.66,804.859s41.262-38.221,42.868-42.433,31.54-57.583,45.449-57.6" transform="translate(-319.517 -685.28)" fill="#040505" stroke="#040505" stroke-miterlimit="10" stroke-width="15"/>
      <path id="Path_630" data-name="Path 630" d="M362.9,825.394c22.171-16.123,34.956-32.233,42.614-44.3,5.6-8.848,9.856-17.7,19.866-30.066a169.385,169.385,0,0,1,25.845-25.669" transform="translate(-332.746 -696.967)" fill="#040505" stroke="#040505" stroke-miterlimit="10" stroke-width="15"/>
      <path id="Path_631" data-name="Path 631" d="M300.51,782.363a128.078,128.078,0,0,0,34.848-32.707c11.712-16.209,9.257-21.081,23.192-39.2A176.911,176.911,0,0,1,391.2,678.194a174.2,174.2,0,0,1,16.67-11.234" transform="translate(-297.231 -663.722)" fill="#040505"/>
      <path id="Path_632" data-name="Path 632" d="M297.8,780.871a135.749,135.749,0,0,0,27.926-23.747,108.555,108.555,0,0,0,16.412-23.877c1.757-3.575,3.347-7.228,5.216-10.747a103.254,103.254,0,0,1,8.96-13.806l.724-.948c.431-.556-.409.53-.228.293l.534-.685q.646-.814,1.292-1.615,1.689-2.093,3.446-4.127,4.859-5.63,10.187-10.829a181.723,181.723,0,0,1,14.572-12.8c.353-.28.7-.569,1.064-.831-.7.508-.065.047.065-.052l.543-.431c.719-.547,1.439-1.086,2.154-1.624,1.365-1,2.748-1.994,4.144-2.959q3.618-2.511,7.366-4.837c.991-.616,1.99-1.219,3.015-1.818a3.227,3.227,0,1,0-3.274-5.561,181.209,181.209,0,0,0-30.812,23.071,172.208,172.208,0,0,0-18.294,19.78,121.664,121.664,0,0,0-9.136,13.108c-2.124,3.6-3.907,7.357-5.677,11.131a102.672,102.672,0,0,1-6.276,11.63c-1.4,2.205-2.9,4.359-4.467,6.461-.31.431-.625.836-.939,1.249-.1.125-.646.861-.237.31s.078-.1,0,0l-.336.431c-.7.892-1.413,1.775-2.154,2.645a124.4,124.4,0,0,1-10.631,11.256q-3.308,3.088-6.819,5.944c-.569.461-1.137.918-1.723,1.37l-.474.37-.164.125c-.267.211-.211.168.172-.129a8.422,8.422,0,0,0-1.141.861q-2.02,1.516-4.1,2.968t-4.2,2.821a3.231,3.231,0,1,0,3.261,5.578Z" transform="translate(-292.897 -659.444)" fill="#040505"/>
      <path id="Path_633" data-name="Path 633" d="M481.857,745.56c-22.115,20.745-38.113,33.474-49.106,41.507-5.087,3.713-12.44,8.856-20.116,18.027a171.529,171.529,0,0,0-15.727,23.2c-4.127,7.366-5.423,11.863-10.618,17.286a44.064,44.064,0,0,1-11.85,8.749" transform="translate(-339.315 -708.465)" fill="#040505"/>
      <path id="Path_634" data-name="Path 634" d="M475.3,739.052c-8.8,8.257-17.773,16.33-27.012,24.092q-5.328,4.484-10.769,8.809c-.788.62-1.577,1.245-2.373,1.861l-1.167.883c.986-.762.224-.177,0,0l-.646.5q-2.1,1.6-4.217,3.179c-3.446,2.584-6.991,5.066-10.338,7.779a91.267,91.267,0,0,0-12.828,12.578,157.733,157.733,0,0,0-15.99,23.489c-2.412,4.282-4.308,8.882-7.064,12.966-.31.465-.638.922-.974,1.374-.138.181-.53.638.121-.155-.1.125-.2.254-.3.375-.241.3-.487.594-.737.887a39.676,39.676,0,0,1-3.2,3.287q-.862.788-1.762,1.534c-.289.237-.594.457-.862.7.711-.629.254-.2.078-.065l-.573.431q-1.589,1.154-3.278,2.154c-.939.569-1.9,1.1-2.877,1.6a3.254,3.254,0,0,0-1.159,4.42,3.308,3.308,0,0,0,4.42,1.159,45.837,45.837,0,0,0,13.689-10.523,40.284,40.284,0,0,0,4.717-6.7c1.292-2.274,2.4-4.631,3.605-6.939,1.533-2.942,3.2-5.807,4.945-8.615,2.882-4.682,5.94-9.27,9.27-13.651l.34-.431c.431-.543-.47.6-.047.065l.693-.862q.758-.952,1.529-1.878,1.594-1.921,3.3-3.748a89.267,89.267,0,0,1,6.5-6.388q1.464-1.292,2.985-2.507c.47-.379.948-.758,1.426-1.129l.366-.241-.431.327.233-.177.788-.6c1.585-1.2,3.2-2.356,4.8-3.528,6.672-4.889,13.177-10.015,19.552-15.292,8.917-7.387,17.583-15.076,26.082-22.946q1.874-1.723,3.739-3.489a3.261,3.261,0,0,0,0-4.57,3.3,3.3,0,0,0-4.57,0Z" transform="translate(-335.047 -704.245)" fill="#040505"/>
    </g>
    <path id="Path_635" data-name="Path 635" d="M287.25,757.1s39.091-31.85,54.882-62.7S400.146,639,400.146,639c19.41,16.963,36.231,33.379,33.418,37.531a1.679,1.679,0,0,1-.569.521c-19.914,11.673-35.92,29.037-54.585,42.619-39.84,28.981-37.906,67.977-58.582,68.287C312.053,788.07,300.952,782.712,287.25,757.1Z" transform="translate(-125.861 -340.237)" fill="#a3ce8d"/>
    <path id="Path_636" data-name="Path 636" d="M331.84,781.469s41.262-38.221,42.868-42.433,31.54-57.583,45.453-57.6" transform="translate(-151.243 -364.396)" fill="none" stroke="#acd4a7" stroke-miterlimit="10" stroke-width="15"/>
    <path id="Path_637" data-name="Path 637" d="M355.08,802c22.175-16.123,34.956-32.233,42.614-44.3,5.6-8.848,9.86-17.7,19.866-30.067a169.387,169.387,0,0,1,25.845-25.669" transform="translate(-164.473 -376.083)" fill="none" stroke="#acd4a7" stroke-miterlimit="10" stroke-width="15"/>
    <g id="Group_41" data-name="Group 41" transform="translate(186.102 388.553)" opacity="0.22">
      <path id="Path_638" data-name="Path 638" d="M357.892,904.223l-5.931-46.866-.861-6.677a3.34,3.34,0,0,0-3.231-3.231c-1.577,0-3.446,1.486-3.231,3.231l5.931,46.866.861,6.677a3.34,3.34,0,0,0,3.231,3.231C356.238,907.454,358.107,905.968,357.892,904.223Z" transform="translate(-344.62 -847.45)" fill="#3d2b15"/>
    </g>
    <g id="Group_42" data-name="Group 42" transform="translate(206.717 355.811)" opacity="0.22">
      <path id="Path_639" data-name="Path 639" d="M399.518,843.091l-.5-59.918-.073-8.615c-.034-4.152-6.5-4.165-6.461,0l.5,59.922.073,8.615c.034,4.157,6.5,4.17,6.461,0Z" transform="translate(-392.48 -771.439)" fill="#3d2b15"/>
    </g>
    <g id="Group_43" data-name="Group 43" transform="translate(229.344 323.517)" opacity="0.22">
      <path id="Path_640" data-name="Path 640" d="M451.492,769.6l.836-61.244.121-8.77c.056-4.157-6.405-4.161-6.461,0l-.862,61.244-.116,8.77c-.06,4.161,6.4,4.161,6.461,0Z" transform="translate(-445.009 -696.469)" fill="#3d2b15"/>
    </g>
    <g id="Group_44" data-name="Group 44" transform="translate(252.169 306.767)" opacity="0.22">
      <path id="Path_641" data-name="Path 641" d="M506.35,725.141l-1.658-56.454-.233-7.986c-.121-4.148-6.586-4.165-6.461,0l1.654,56.454.237,7.986C500.009,729.289,506.47,729.306,506.35,725.141Z" transform="translate(-497.996 -657.583)" fill="#3d2b15"/>
    </g>
    <g id="Group_45" data-name="Group 45" transform="translate(267.851 297.483)" opacity="0.22">
      <path id="Path_642" data-name="Path 642" d="M546.592,696.943l-5.005-50.519-.711-7.163a3.331,3.331,0,0,0-3.231-3.231,3.251,3.251,0,0,0-3.231,3.231l5.01,50.514.706,7.168a3.334,3.334,0,0,0,3.231,3.231C544.977,700.173,546.769,698.687,546.592,696.943Z" transform="translate(-534.403 -636.03)" fill="#3d2b15"/>
    </g>
    <path id="Path_643" data-name="Path 643" d="M282.833,750.369a150.313,150.313,0,0,0,29.291-24.51A114.186,114.186,0,0,0,329.4,701.707c1.869-3.605,3.558-7.3,5.539-10.846,1.232-2.21,2.563-4.364,3.971-6.461q1.262-1.87,2.585-3.679c.452-.612.9-1.219,1.365-1.826l.392-.517c.1-.134.547-.75.034-.043.314-.431.655-.861.986-1.262a181.348,181.348,0,0,1,16.985-18.522,199.615,199.615,0,0,1,15.412-13.293c.629-.491-.556.431.078-.06l.556-.431c.31-.237.62-.474.935-.706q1.2-.913,2.417-1.8,2.115-1.542,4.269-3.015,3.739-2.585,7.6-5,1.6-1,3.231-1.973a3.231,3.231,0,0,0-3.261-5.578A202.448,202.448,0,0,0,360.2,650.71,186.343,186.343,0,0,0,341,670.883a127.594,127.594,0,0,0-9.571,13.19c-2.274,3.666-4.2,7.517-6.108,11.376a105.36,105.36,0,0,1-6.69,11.8c-.81,1.215-1.65,2.408-2.507,3.588q-.6.836-1.223,1.654l-.457.6-.233.306c-.461.6.431-.556.108-.142q-2.055,2.649-4.239,5.169A135.252,135.252,0,0,1,298.822,730q-3.446,3.136-7.056,6.031l-.956.762-.487.379c-.086.073-.379.379-.487.383l.323-.25-.246.19-.431.319-1.167.892q-2.089,1.564-4.23,3.05-2.231,1.555-4.519,3.015a3.231,3.231,0,1,0,3.261,5.578Z" transform="translate(-120.573 -332.995)" fill="#244f24"/>
    <path id="Path_644" data-name="Path 644" d="M471.85,712.132c-9.2,8.572-18.574,16.954-28.223,25.009q-5.492,4.588-11.1,9.011-1.292,1.008-2.585,2.007l-.3.233c.862-.681.431-.349.258-.2s-.4.3-.59.457l-1.167.887q-2.223,1.7-4.476,3.36c-3.58,2.649-7.224,5.208-10.7,8a95.486,95.486,0,0,0-13.28,12.923,163.9,163.9,0,0,0-16.8,24.428c-2.5,4.381-4.476,9.089-7.3,13.28-.353.526-.728,1.038-1.107,1.546s.5-.629.108-.134l-.31.388c-.25.31-.508.616-.771.918a41.355,41.355,0,0,1-3.33,3.4q-.9.818-1.839,1.59c-.3.245-.616.474-.909.724.711-.612.22-.172.052-.043l-.594.431q-1.658,1.2-3.416,2.257-1.473.862-3.015,1.654a3.254,3.254,0,0,0-1.159,4.419,3.3,3.3,0,0,0,4.42,1.159,47.94,47.94,0,0,0,14.215-10.9,41.72,41.72,0,0,0,4.9-6.892c1.335-2.348,2.507-4.786,3.765-7.176,1.628-3.084,3.4-6.082,5.242-9.046q2.093-3.369,4.308-6.651c.831-1.223,1.676-2.442,2.537-3.644.935-1.292,1.947-2.55,2.869-3.877-.6.862.172-.22.327-.431l.724-.913c.487-.6.974-1.2,1.473-1.792q1.723-2.055,3.571-4.01a91.9,91.9,0,0,1,6.746-6.461q1.516-1.318,3.089-2.584c.487-.392.982-.775,1.473-1.163-.917.724-.03.026.185-.138s.543-.431.818-.616c1.667-1.253,3.364-2.468,5.053-3.7,6.892-5.027,13.616-10.3,20.207-15.723,9.317-7.667,18.376-15.654,27.254-23.825q1.951-1.792,3.877-3.6a3.261,3.261,0,0,0,0-4.57,3.3,3.3,0,0,0-4.57,0Z" transform="translate(-166.62 -381.343)" fill="#244f24"/>
    <path id="Path_645" data-name="Path 645" d="M149.709,171.088c7.5-4.308,59.082-38.371,132.723-87.322a20.182,20.182,0,0,1-.215-13.918c3.446-9.016,13.521-13,20.616-13.155,10.661-.237,18.475,8.064,25.449,15.809,28.787,31.975,42.39,52.065,42.39,52.065,17.277,25.509,27.224,41.3,37.687,61.6,12.875,24.984,16.063,36.459,10.932,45.035-2.933,4.893-9.981,11.2-19,11.286a21.789,21.789,0,0,1-13.185-4.588c-72.586,49.735-123.553,84.944-128.933,89.506-.861.724-3.618,2.989-7.094,2.8-6.509-.358-10.971-10.024-11.139-9.907s2.684,3.924,2.533,4.053c-.762.655-73.348-104.242-89.364-131.022-3.106-5.2-9.011-15.7-5.169-20.7A5.863,5.863,0,0,1,149.709,171.088Z" transform="translate(-45.843 -8.758)" fill="#020202" opacity="0.32"/>
    <path id="Path_646" data-name="Path 646" d="M159.793,168.835c-.861-2.8-1.684-5.561-1.073-8.925a17.751,17.751,0,0,1,3.188-7.1,23.8,23.8,0,0,1,3.657-3.834l.323-.267c3.946-3.2,13.31-8.818,13.31-8.818,8.124-4.863,10.265-6.741,18.613-11.2h0c1.6-.862-.332.142,23.045-15.05,18.888-12.276,31.566-20.344,39.711-25.966.862-.6,2.744-1.9,5.371-3.6,1.869-1.21,5.893-3.812,10.7-6.517,1.994-1.12,3.916-2.369,5.927-3.446a20.945,20.945,0,0,0,1.982-1.236,7.813,7.813,0,0,0,2.287-1.951c.741-1.146.362-2.154.379-4.213a17.661,17.661,0,0,1,.711-4.738,43.964,43.964,0,0,1,5.509-9.946,30.059,30.059,0,0,1,5.944-6.461c6-4.523,13.168-4.308,15.533-4.239,12.354.37,22.425,12.35,29.532,21.012,11.372,13.87,24.665,30.807,39.082,50.712,7.418,11.859,13.547,22.076,18.238,30.045,1.292,2.18,6.311,11.531,16.369,30.23a77.8,77.8,0,0,1,7.452,18.66c1.137,4.523,1.723,6.784,1.7,9.5-.039,11.066-8.675,25.32-22.136,27.568-7.392,1.236-13.633-1.577-16.8-3.351-15.972,10.6-28.107,18.785-36.377,24.385-4.407,2.989-7.362,5.005-12.724,8.615-13.926,9.343-15.447,10.118-24.661,16.4-9.477,6.461-9.046,6.461-17.98,12.44-13.431,9.046-11.686,7.237-16.834,11.083-4.454,3.33-9.36,6-13.969,9.106-2.274,1.529-4.5,3.05-7.409,2.916-3.8-.172-6.526-3.05-7.853-4.493-9.83-10.734-20.426-27.641-23.472-32.38-4.157-6.5-2.86-3.877-11.35-16.575-7.172-10.73-9.9-15.3-16.076-24.777-5.139-7.922-9.765-14.831-19.186-28.537-6.031-8.787-11.062-18.242-16.95-27.137A31.643,31.643,0,0,1,159.793,168.835Z" transform="translate(-52.575)" fill="#6d4c16" stroke="#020202" stroke-miterlimit="10" stroke-width="1"/>
    <path id="Path_647" data-name="Path 647" d="M174.768,162.828c1.473-4.979,6.112-7.62,9.287-9.433,9-5.143,18.152-10.437,28.49-16.369,43.734-27.792,75.446-48.037,82.98-52.53a17.345,17.345,0,0,0,7-6.724c2.326-4.368.508-6.526,2.533-11.772a22.913,22.913,0,0,1,8.382-10.248A23.641,23.641,0,0,1,324.5,51.444c8.688-.6,15.33,8.856,26.556,23.528,23.98,31.35,24.449,28.43,35.167,45.164,2.193,3.446.991,1.723,16.537,27.017,4.8,7.81,6.991,11.363,10.243,17.041,6.935,12.117,10.23,19.147,12.755,25.453,3.446,8.581,5.135,12.957,4.644,17.23-.862,7.43-6.031,16.183-15.33,19.384-9.782,3.364-18.242-1.447-19.552-2.218-65.276,44.036-113.288,75.778-121.472,80.228a12.366,12.366,0,0,1-7.12,1.667c-6.927-.711-11.38-8.5-12.811-10.958-11.7-20.064-26.2-38.363-39.1-57.686,0,0-24.656-36.954-38.234-62.631C175.759,172.679,173.282,167.842,174.768,162.828Z" transform="translate(-61.567 -5.757)" fill="#e8bf89"/>
    <path id="Path_648" data-name="Path 648" d="M181.638,181.376c11.26-13.487,25.75-23.131,41.421-30.764,6.371-3.1,12.923-5.815,19.535-8.361,3.308-1.292,6.681-2.4,9.907-3.907.1-.047,2.059-1.073.762-.349-1.189.659.142-.082.431-.241.724-.383,1.439-.784,2.154-1.189q2.46-1.413,4.842-2.968c6.229-4.045,12.061-8.641,17.937-13.185,5.682-4.394,11.544-8.55,17.148-13.043,1.378-1.107,2.744-2.231,4.079-3.386l.982-.862c1.111-.969.151-.086-.22.22a18.678,18.678,0,0,0,1.766-1.689,72.421,72.421,0,0,0,6.487-7.206c.612-.784,1.2-1.577,1.779-2.386.258-.362.513-.732.762-1.1l.383-.6c.233-.4.474-.784.7-1.18.478-.818.935-1.645,1.378-2.477,1.4-2.649,2.511-5.453,4.006-8.046,4.4-7.642,11.281-12.061,19.909-13.672a23.489,23.489,0,0,1,5.3-.366C336.231,56.044,330.928,51,324.519,51.444a23.735,23.735,0,0,0-11.062,4.308A22.912,22.912,0,0,0,305.075,66c-2.025,5.247-.207,7.4-2.533,11.772a17.346,17.346,0,0,1-7,6.724c-7.534,4.493-39.246,24.738-82.98,52.552-10.338,5.927-19.492,11.221-28.49,16.369-3.175,1.813-7.814,4.454-9.287,9.433s.991,9.851,2.025,11.811c1.292,2.46,2.705,5.023,4.178,7.65a9.051,9.051,0,0,1,.65-.935Z" transform="translate(-61.58 -5.757)" fill="#967753" opacity="0.34"/>
    <path id="Path_649" data-name="Path 649" d="M476.861,589.461l-1.021.948,3.847-2.529Q478.278,588.677,476.861,589.461Z" transform="translate(-233.215 -311.138)" fill="#967753" opacity="0.34"/>
    <g id="Group_46" data-name="Group 46" transform="translate(244.568 70.714)" opacity="0.1">
      <path id="Path_650" data-name="Path 650" d="M523.852,112.2l-35.395-2.283-5-.323c-4.152-.267-4.14,6.194,0,6.461l35.391,2.283,5,.323C528,118.928,527.988,112.462,523.852,112.2Z" transform="translate(-480.351 -109.581)" fill="#3d2b15"/>
    </g>
    <g id="Group_47" data-name="Group 47" transform="translate(204.491 94.201)" opacity="0.1">
      <path id="Path_651" data-name="Path 651" d="M486.785,164.117l-32.517.806-51.875,1.292-11.962.3c-4.148.1-4.165,6.565,0,6.461l32.522-.818,51.871-1.292,11.962-.3c4.152-.108,4.165-6.569,0-6.461Z" transform="translate(-387.313 -164.107)" fill="#3d2b15"/>
    </g>
    <g id="Group_48" data-name="Group 48" transform="translate(173.454 114.684)" opacity="0.1">
      <path id="Path_652" data-name="Path 652" d="M459.523,213.585l-47.706-.65L335.8,211.9l-17.42-.237c-4.157-.056-4.161,6.405,0,6.461l47.71.65,76.019,1.038,17.415.237C463.684,220.1,463.684,213.641,459.523,213.585Z" transform="translate(-315.259 -211.659)" fill="#3d2b15"/>
    </g>
    <g id="Group_49" data-name="Group 49" transform="translate(143.345 132.919)" opacity="0.1">
      <path id="Path_653" data-name="Path 653" d="M430.945,259.107l-18.092-.5-43.7-1.223-52.659-1.469-45.531-1.271c-7.353-.207-14.809-.788-22.167-.62h-.319c-4.161-.116-4.157,6.345,0,6.461l18.092.5,43.678,1.215,52.664,1.469,45.526,1.292c7.357.207,14.809.788,22.167.62h.323c4.157.116,4.152-6.345,0-6.461Z" transform="translate(-245.359 -253.99)" fill="#3d2b15"/>
    </g>
    <g id="Group_50" data-name="Group 50" transform="translate(116.122 152.032)" opacity="0.1">
      <path id="Path_654" data-name="Path 654" d="M403.847,306.877l-21.8-.862-52.121-2.029-63.049-2.455L212.171,299.4c-8.8-.345-17.721-1.129-26.534-1.034h-.362c-4.157-.164-4.148,6.3,0,6.461l21.8.862,52.121,2.029,63.049,2.455,54.706,2.128c8.8.345,17.717,1.124,26.534,1.034h.358C408.008,313.5,408,307.041,403.847,306.877Z" transform="translate(-182.16 -298.362)" fill="#3d2b15"/>
    </g>
    <g id="Group_51" data-name="Group 51" transform="translate(123.727 173.482)" opacity="0.1">
      <path id="Path_655" data-name="Path 655" d="M422.731,352.722l-21.968-.452-52.341-1.077-63.7-1.314-54.706-1.129c-8.869-.185-17.825-.741-26.707-.551h-.379c-4.161-.086-4.161,6.375,0,6.461l21.968.457,52.336,1.077,63.7,1.292,54.706,1.129c8.869.181,17.825.737,26.707.547h.379c4.161.086,4.161-6.375,0-6.461Z" transform="translate(-199.815 -348.16)" fill="#3d2b15"/>
    </g>
    <g id="Group_52" data-name="Group 52" transform="translate(138.893 200.155)" opacity="0.1">
      <path id="Path_656" data-name="Path 656" d="M454.573,410.08l-21.473.039-51.785.1-62.459.121-54.154.1c-8.71,0-17.489-.284-26.194.052h-.362c-4.157,0-4.165,6.461,0,6.461l21.469-.039,51.789-.1,62.459-.121,54.159-.1c8.706,0,17.484.284,26.19-.052h.366c4.157,0,4.161-6.461,0-6.461Z" transform="translate(-235.025 -410.08)" fill="#3d2b15"/>
    </g>
    <g id="Group_53" data-name="Group 53" transform="translate(154.085 220.436)" opacity="0.1">
      <path id="Path_657" data-name="Path 657" d="M474.459,457.167l-20.034.694-48.1,1.658-57.949,1.994-50.118,1.723c-8.154.28-16.369.332-24.5.862h-.349c-4.148.146-4.165,6.608,0,6.461l20.034-.689,48.1-1.658,57.949-2,50.118-1.723c8.154-.28,16.369-.336,24.5-.862h.349c4.148-.142,4.165-6.6,0-6.461Z" transform="translate(-270.293 -457.165)" fill="#3d2b15"/>
    </g>
    <g id="Group_54" data-name="Group 54" transform="translate(166.27 245.167)" opacity="0.1">
      <path id="Path_658" data-name="Path 658" d="M426.664,514.583l-42.184,2.193-67.279,3.5-15.507.805c-4.14.215-4.165,6.677,0,6.461l42.179-2.193,67.284-3.5,15.507-.805C430.8,520.829,430.825,514.363,426.664,514.583Z" transform="translate(-298.58 -514.577)" fill="#3d2b15"/>
    </g>
    <g id="Group_55" data-name="Group 55" transform="translate(180.186 268.966)" opacity="0.1">
      <path id="Path_659" data-name="Path 659" d="M404.353,569.855l-61.671,3.209-8.684.431c-4.135.215-4.161,6.677,0,6.461l61.675-3.209,8.68-.452c4.139-.215,4.165-6.677,0-6.461Z" transform="translate(-330.887 -569.828)" fill="#3d2b15"/>
    </g>
  </g>
</svg>
