<svg xmlns="http://www.w3.org/2000/svg" xmlns:xlink="http://www.w3.org/1999/xlink" width="465.86" height="395.537" viewBox="0 0 465.86 395.537">
  <defs>
    <clipPath id="clip-path">
      <rect id="Rectangle_38" data-name="Rectangle 38" width="334.429" height="351.853" transform="translate(0 120)" fill="#fff" stroke="#000" stroke-width="1"/>
    </clipPath>
  </defs>
  <g id="stk_3" transform="translate(-53 -120)">
    <path id="Path_406" data-name="Path 406" d="M357.041,523.589a33,33,0,0,1-5.915,4.3c-20.33,11.355-24.81,21.83-82.777-1.484,0,0-39.081-17.905-83.642-5.911a78.122,78.122,0,0,1-46.279-1.374A87.386,87.386,0,0,1,108.4,501.109c-2.346-2.139-7.781-6.178-9.92-8.421-14.679-15.758-63.7-56.922-26.786-155.449l.527-1.437c1.518-4.391,13.857-34.865,60.981-25.368,42.83,8.6,69.171-32.3,76.354-45.2a50.867,50.867,0,0,0,5.1-12.778A110.49,110.49,0,0,1,236.125,211.7,104.466,104.466,0,0,1,271.9,184.09a102.836,102.836,0,0,1,43.892-9.7,106.636,106.636,0,0,1,44.42,9.884l.777.359c25.777,11.886,40.592,19.728,58.865,16.384s55.927-3.757,87.9,79.594-10.906,168.854-10.906,168.854-20.438,38.406-61.217,43.193a152.666,152.666,0,0,0-23.159,4.326C396.63,501.41,372.539,509.889,357.041,523.589Z" transform="translate(-0.742 -24.825)" fill="#e63f3f"/>
    <g id="Group_21" data-name="Group 21" transform="translate(53)" opacity="0.5" clip-path="url(#clip-path)">
      <path id="Path_407" data-name="Path 407" d="M148.892,242.966s1.309-3.335,4.068-3.044,5.955.942,5.955.942l-.82.46,3.511,1.373a.911.911,0,0,1-.449.992,2.853,2.853,0,0,1-1.848.14c-1.674-.431-3.4-.582-5.1-.953a12.261,12.261,0,0,0-5.325.084Z" transform="translate(-66.65 -34.152)" fill="none" stroke="#000" stroke-miterlimit="10" stroke-width="2"/>
      <path id="Path_408" data-name="Path 408" d="M163.18,242.252s.81.919,2.843.4c0,0,.6-.549,3.443.162l5.585.892s1.477.291,2.353.566,2.039.555,2.039.555v.666l-5.865.353,4.6,3.609-2.809.981a2.286,2.286,0,0,0-2.106-1.895l-1.967-.314s-.877.141-1.264,1.895a2.867,2.867,0,0,1-2.281,2.242,9.7,9.7,0,0,1-2.247,0,10.685,10.685,0,0,1-2.663-1.681,7.759,7.759,0,0,1-.747-1.575l-3.231,1.508v.314l2.388,1.334s-2.527,2-3.792-.314c0,0-.635-1.227,1.056-3.155a9.294,9.294,0,0,1,5.1-2.208c3.584-.593,7.551-.98,7.551-.98s-4.495-1.334-6.708-.981-1.618-1.738-1.264-2.359Z" transform="translate(-67.854 -34.486)" fill="none" stroke="#000" stroke-miterlimit="10" stroke-width="2"/>
      <path id="Path_409" data-name="Path 409" d="M177.154,252.08l2.815,1.177s-1.248,2.831-5.77,3.767a17.792,17.792,0,0,0-3.219.286c-.837.263-3.68-.482-3.68-.482v-.622s9.236-1.457,9.854-4.125Z" transform="translate(-69.271 -35.885)" fill="none" stroke="#000" stroke-miterlimit="10" stroke-width="2"/>
      <path id="Path_410" data-name="Path 410" d="M206.934,243.859l-3.888,2.354.275.353h2.2s-1.494,1.844.472,2.55a18.641,18.641,0,0,0,5.068.707s3.494-.236,4.6-1.06,1.337-.627.63-3.021a11.062,11.062,0,0,0-2.792,1.8c-1.022,1.021-3.629.079-3.629.079s-1.674-.117-2.933-3.761Z" transform="translate(-74.36 -34.715)" fill="none" stroke="#000" stroke-miterlimit="10" stroke-width="2"/>
      <path id="Path_411" data-name="Path 411" d="M216.553,239.31s5.894-2.471,9.59-2.039a3.85,3.85,0,0,0,0,1.687,1.155,1.155,0,0,1-.865,1.6s-1.039.213-1.14.274-.214.084-1.315-.5-4.933-.908-5.7-.42l-.568-.6Z" transform="translate(-76.283 -33.77)" fill="none" stroke="#000" stroke-miterlimit="10" stroke-width="2"/>
      <path id="Path_412" data-name="Path 412" d="M212.905,251.978v.616l-.657.533h5.191a3.316,3.316,0,0,1,1.236.864s2.062-1.026,2.472,1.07c0,0,.742,1.889,1.152,2.752a13.584,13.584,0,0,0,.494,1.687c.163.291,0,1.726-1.152,1.687,0,0-.41-.247-.826,3.491l-.741,5.218a3.084,3.084,0,0,0-2.888,1.732c-1.034,1.923-2.348,3.29-3.326,3.263a7.36,7.36,0,0,1-2.292-.639l-2.489-1.116a4.584,4.584,0,0,0-1.926-.168,10.443,10.443,0,0,1,1.2-2.981,4.613,4.613,0,0,0,1.539-2.931c.141-1.508.225-2.679-1.871-5.521a2.9,2.9,0,0,0-.337-1.895c-.533-.751-3.214-6.166-3.214-6.166s-.449-1.35,1.4-1.5,7.045,0,7.045,0Z" transform="translate(-74.556 -35.862)" fill="none" stroke="#000" stroke-miterlimit="10" stroke-width="2"/>
      <path id="Path_413" data-name="Path 413" d="M193.64,287.65l3.371.225v1.194l-3.371-.482Z" transform="translate(-73.021 -40.949)" fill="none" stroke="#000" stroke-miterlimit="10" stroke-width="2"/>
      <path id="Path_414" data-name="Path 414" d="M177.931,293.447l3.6.263s.371-.19.809.824c0,0-.511.437-.825.437s-3.7-.762-3.7-.762l.124-.762Z" transform="translate(-70.768 -41.774)" fill="none" stroke="#000" stroke-miterlimit="10" stroke-width="2"/>
      <path id="Path_415" data-name="Path 415" d="M212.073,320.477s3.011-3,6.394.947Z" transform="translate(-75.645 -45.467)" fill="none" stroke="#000" stroke-miterlimit="10" stroke-width="2"/>
      <path id="Path_416" data-name="Path 416" d="M216.916,327.873s2.135-1.289,2.286-1.322,1.7-1.514-.394-2.713a11.184,11.184,0,0,0-4.011-1.39s-2.011-.241-2.668.308,0,1.5,0,1.5a4.647,4.647,0,0,0,1.185,1.032c.792.5,3.6,2.594,3.6,2.594Z" transform="translate(-75.612 -45.895)" fill="none" stroke="#000" stroke-miterlimit="10" stroke-width="2"/>
      <path id="Path_417" data-name="Path 417" d="M126.991,241.644a4.379,4.379,0,0,1,1.264,2.169,2.722,2.722,0,0,1,2.011,2.684c.18,2.348.837,3.094.837,3.094l.68,1.357s-2.079.9-4.8-2.573-2.849-3.839-2.624-5.145,2.624-1.581,2.624-1.581Z" transform="translate(-63.148 -34.4)" fill="none" stroke="#000" stroke-miterlimit="10" stroke-width="2"/>
      <path id="Path_418" data-name="Path 418" d="M205.711,203.815a4.7,4.7,0,0,0,1.568-.986c1.2-.8-.124-1.216-.124-1.216l-7.174-1.126a7.715,7.715,0,0,0,1.81,2.034c2.331,1.687,3.848,1.3,3.848,1.3l.315.919c.415,1.075.668,1.053.668,1.053l10.708,6.591-.2.4-6.449-3.076-.7,1.827-3.146-.28,1.388,3.38,2.005.751.4,1.182a1.686,1.686,0,0,0,1.843,1.485,3.191,3.191,0,0,1,1.4.117l-4.506.937-1.1-.084-.516.818-1.011.365-.623-.045-.174.539.376.515.13.471c.017.812.118,1.933.118,1.933.269,1.62,3.106,1.592,3.106,1.592a8.559,8.559,0,0,1-2.461,2.685,59.109,59.109,0,0,0-9.219,5.521c-1.383,1.148-2.8,2.141-2.8,2.141a20.38,20.38,0,0,0-3.073,1.687c-1.383.958-4.225,4.983-4.995,6.093a9.755,9.755,0,0,0-1.331,4.2,10.1,10.1,0,0,0,.949,4.114,5.785,5.785,0,0,1,.073,1.665,4.583,4.583,0,0,1-.191,2.023c-.612,1.816.748,2.343.748,2.343a3.914,3.914,0,0,0,.376,2.623s.792,1.451.59,1.715a4.078,4.078,0,0,0-.219,1.389c.135,1.979,1.714,3.738,2.124,4.563s.208,1.115.208,1.115l-.225.135a2.094,2.094,0,0,0-.994,1.4,8.375,8.375,0,0,0,.28,2.528,3.3,3.3,0,0,1-.28,1.137l5.489,1.895c-.422.353-8.888,2.859-8.888,2.859-2.1.812-3.174.263-3.174.263-2.6-.835-8.051.308-8.051.308a14.038,14.038,0,0,0,1.961,1.39,3.758,3.758,0,0,0,2.769.37,6.111,6.111,0,0,1,2.1.331c1.236.46,5.472-.443,5.472-.443a1.258,1.258,0,0,1,1.124.089l1.41.751-.73.527,3.112.5a17.81,17.81,0,0,1-1.5,1.519,2.177,2.177,0,0,0-.242,2.467c.467.639,1.3,5.3,1.3,5.3a4.588,4.588,0,0,0,1.9-1.384l10.612-15.1a1.917,1.917,0,0,1,.882-.852c.641-.309.949.852.949.852s.135,1.833.376,5.817.4,4,.4,4,.2,2.309-2.888,2.55-8.208,3.805-9.837,5.7a4.4,4.4,0,0,1-3.859,1.715c-.354-.068-1.522-.112-1.877-.152a14.994,14.994,0,0,0-2.472.286c-.663.135-.484.173-.792.991s-.022,1.1-.022,1.1l5.152,7.561.179.051a9.229,9.229,0,0,0,2.8,3.918,7.136,7.136,0,0,1,2.057,2.612v.672a8.756,8.756,0,0,1-2.281.152c-1.011-.112-1.011.151-1.011.151-1.461,1.154-4.3,0-4.3,0a24.625,24.625,0,0,0-4.415-1.267,7.711,7.711,0,0,1-2.321-.487l-4.078-2.388a6.474,6.474,0,0,0-2.169-3.878,7.579,7.579,0,0,1-2.393-3.694h1.011a1.171,1.171,0,0,0-.028-.9c-.22-.477-1.112-2.286-1.242-2.416a16.592,16.592,0,0,0-2.073-2.768l-2.809-3.044-2.545-1.894-7.371-4.949s-5.432-4-5.787-4.411c0,0-4.545-4.321-5.022-4.887s-4.837-5.33-5.68-7.359c0,0-1.943-4.086-2.252-4.955s-2.832-8.272-2.832-8.272l-1.455-3.957a4.328,4.328,0,0,0-1.394-1.558c-.8-.425-3.949-2.275-4.938-3.861a29.77,29.77,0,0,1-1.859-3.694,3.494,3.494,0,0,0-1.163-1.619c-.859-.628-2.68-4.136-2.478-5.8,0,0-.017-2.214-.106-2.533a6.9,6.9,0,0,1-.079-2.505c.214-.4-.185-1.967-.185-1.967a14.424,14.424,0,0,1-.826-2.472s1.624-.365,3.967,1.362a9.864,9.864,0,0,0,4.118,2.063,7.628,7.628,0,0,0,2.068-3.559,2.8,2.8,0,0,1,.842-2.124,3.064,3.064,0,0,0,.916-1.435c-.017-.292.152-.734-1.208-1.5s-.473.045-1.225-.913l2.005.045-.826-1.1a37.545,37.545,0,0,1,2.158-5.666,6.151,6.151,0,0,1,2.635-2.107s1.668-.588,2.067-1.838a5.155,5.155,0,0,0,.2-.886l-4.3.319s.7-2.382.719-2.628.141-1.576,1.208-1.912a8.285,8.285,0,0,0,1.882-.471l1.944-1.037,2.679,2.522,1.136.594,1.961-1.2a10.554,10.554,0,0,0,1.314-1.312,2.945,2.945,0,0,1,2.068-.627,34.028,34.028,0,0,1,3.489,1.053,9.831,9.831,0,0,1,2.893-.639c.826.112.9.247.9.247l.124-.168-1.579-1.967s1.775-.488,1.916-.533a9.409,9.409,0,0,1,2.191-.2,12.9,12.9,0,0,0,2.815-.213,9.79,9.79,0,0,0,1.348-.656,7.361,7.361,0,0,1,3.8-.75c1.657.162,3.921.14,4.669.292s5.034.779,5.034.779,3.9-.2,4.269-.124,2.528.168,2.528.168a2.623,2.623,0,0,0,2.264-2.124l3.078,1.026,2.237-.823-.141.292-.337-.353a1.432,1.432,0,0,1-.826-.84l-.4-1.116.8-.213a1.128,1.128,0,0,1,.9.213c.477.336,3.258,1.833,3.258,1.833a1.881,1.881,0,0,0,1.517.168,2.751,2.751,0,0,0,1.179,2.321,3.454,3.454,0,0,0,2.725.734s3.843-.426,5.006-.426a10.829,10.829,0,0,1,1.915.319,2.154,2.154,0,0,0,1.253.079,2.05,2.05,0,0,1,.764.106s-1.438.028-1.545.964l-.017.073v.017" transform="translate(-62.659 -27.789)" fill="none" stroke="#000" stroke-miterlimit="10" stroke-width="2"/>
      <path id="Path_419" data-name="Path 419" d="M222.737,217.649l2.332-1.25.91,1.564-.691,1.334-.146.286" transform="translate(-77.163 -30.806)" fill="none" stroke="#000" stroke-miterlimit="10" stroke-width="2"/>
      <path id="Path_420" data-name="Path 420" d="M225.076,218.732l.545.9" transform="translate(-77.496 -31.138)" fill="none" stroke="#000" stroke-miterlimit="10" stroke-width="2"/>
      <path id="Path_421" data-name="Path 421" d="M220.56,225.712l4.6-1.928-.669-.745-.961.028-.579.717-.7.342-1.062.336.028.381.006.057-.365-.437-.579-.347" transform="translate(-76.813 -31.751)" fill="none" stroke="#000" stroke-miterlimit="10" stroke-width="2"/>
      <path id="Path_422" data-name="Path 422" d="M222.081,225.5l-.123-.084-.6-.342" transform="translate(-76.967 -32.04)" fill="none" stroke="#000" stroke-miterlimit="10" stroke-width="2"/>
      <path id="Path_423" data-name="Path 423" d="M220.923,224.294l.415.409h-.415Z" transform="translate(-76.905 -31.93)" fill="none" stroke="#000" stroke-miterlimit="10" stroke-width="2"/>
      <path id="Path_424" data-name="Path 424" d="M222.18,223.921l.337.33" transform="translate(-77.084 -31.877)" fill="none" stroke="#000" stroke-miterlimit="10" stroke-width="2"/>
      <path id="Path_425" data-name="Path 425" d="M222.783,222.967l.2.476.326.331" transform="translate(-77.17 -31.741)" fill="none" stroke="#000" stroke-miterlimit="10" stroke-width="2"/>
      <path id="Path_426" data-name="Path 426" d="M262.483,240.723l-7.427.919,1.809.32.039.325-5.624,1.631.13.341.714.236a26.833,26.833,0,0,0-5.258,2.667c-2.068,1.485-5.6,3.806-5.6,3.806a1.558,1.558,0,0,1-.214,2.152c-1.1,1.121-2.843,2.494-3.708,4.473,0,0-4.247,7.157-4.247,7.331a34.294,34.294,0,0,0-1.747,5.459,61.069,61.069,0,0,0-1.033,7.247,19.83,19.83,0,0,0,.174,4.579,44.874,44.874,0,0,0,4.157,11.007,2.968,2.968,0,0,1,.281,1.631,3.755,3.755,0,0,0-2.174,2.191c-.815,1.828-1.77,4.641-1.77,4.641a7.221,7.221,0,0,0-.236,3.738,7.754,7.754,0,0,0,1.163,2.645c1.011,1.615,3.489,5.633,3.489,5.633l.432-.28-.326-2.6.343-.2,1.938,2.13s1.938-.493.668-2.646-2.045-3.245-2.045-3.245a2.623,2.623,0,0,1-.494-1.5s2.82,1.569,3.382,1.895a10.694,10.694,0,0,1,1.1.751s1.056.644,1.657-.751c0,0,.562-2.578-.668-3.245s-2.91-3.222-2.91-3.222a5.825,5.825,0,0,0,1.23,2.835l2.286,3.419a3.761,3.761,0,0,1,1.079.515c.258.257,5.646,7.376,5.8,7.74a25.721,25.721,0,0,0,3.039,4.04c.584.387,5.342,4.125,5.342,4.125a26.506,26.506,0,0,1,3.063,2.684c.646.835,4.567,3.851,5.387,3.979,0,0,4.636,2.41,6.725,2.684a71.718,71.718,0,0,1,7.174,1.805s6.658,1.933,9.546,1.933,8.618-.454,9.59-.9c0,0,8.725-2.063,10.624-3.071s3.449-.947,5.151-2.578a5.229,5.229,0,0,1,2.2-1.373c1.117-.236,7.371-5.118,7.371-5.118l-.859-1.2.859-1.373s-2.09-1.031-1.033-4.04l-1.961-2.04s-1.118-.667-.927-4.214l-1.27-.152.388-.28-1.337-2.32a9.781,9.781,0,0,0-2.09-2.449c-1.247-.986-2.522-3.738-2.371-4.792a9.033,9.033,0,0,1,.562-3.548s-1.916-.431-2.2-.515a2.119,2.119,0,0,0-1.983.387,12.963,12.963,0,0,1-1.354.7c-.174.022-1.2.448-1.2.448s-1.022.168-1.253.168-2.932.488-2.932.488a8.15,8.15,0,0,1-2.057-.219s-.679-.2-.679-.28a1.106,1.106,0,0,0-1.045,0,4.475,4.475,0,0,1-.69-.033,7.1,7.1,0,0,1-3.124-.594c-.984-.644-2.383-1.793-2.383-1.793l-1.556-1.4a1.63,1.63,0,0,1-.376-.46c-.124-.252-1.337-1.895-1.337-1.895l-1.8-2.51L286.247,287s-1.725-2.5-1.815-2.668a14.159,14.159,0,0,1-1.214-2.561,9.764,9.764,0,0,1-.253-3.133l-1.326-.022s1.961-.908.2-2.416-2.775-2.208-2.775-2.208-2.18-1.833-4.22-1.373a9.056,9.056,0,0,0-2.809.981s.983-5.061,1.337-5.885a3.951,3.951,0,0,1,3.59-2.174l.033-1.043,1.388.1s.877.864,1.4.813a6.633,6.633,0,0,0,2.275-.634c.258-.268.033-.947.033-.947l-.106-.791a4.568,4.568,0,0,1-.107-1.737c.175-.583.5-1.648.5-1.648l3.748.292s-.365,2.22.23,2.876a8.141,8.141,0,0,0,1.545,1.227s-1.495,1.665-1.315,3.178a4.319,4.319,0,0,0,.69,2.343,6.616,6.616,0,0,0,1.275,1.261,2.168,2.168,0,0,1,1.057,1.384,13.78,13.78,0,0,1,.377,1.906,2.188,2.188,0,0,0,.708,1.25c.163.135,1.264.656,1.264.656a2.219,2.219,0,0,1,1.118,1.154c.449.925.719,1.541,1.214,1.833s.668.572,1.3.471a1.913,1.913,0,0,0,1.085-.863s.937-.886,1.19-.886.927-.9.927-.9a3.242,3.242,0,0,1,1.983-1.116,16.88,16.88,0,0,0,2.8-.594c.084-.062.438-.325,1.129.023s1.169.543,1.169.543l.168-.241-1.764-.835,2.2-.544a2.385,2.385,0,0,0,2.383,1.479,4.8,4.8,0,0,0,1.432-.51,2.141,2.141,0,0,1,1.91-.146,5.226,5.226,0,0,1,1.045,1.469l3.466,1.345-4.185.8s2.944,2.488,4.4,2.78a2.267,2.267,0,0,0,1.494.2c.888-.168.6-1.917.6-1.917s.28-1.3,2.056-1.1c0,0,3.039.948,3.331.959l-1.241.958s-.084.135.2.23a13.211,13.211,0,0,1,1.264.69.6.6,0,0,1,.208.779,1.08,1.08,0,0,1-.646.533,3.958,3.958,0,0,1-2.539-.208,5.758,5.758,0,0,1-1.337-1.126s-1.1-1.491-1.191-1.6-.045-.057-.045-.057" transform="translate(-78.234 -34.269)" fill="none" stroke="#000" stroke-miterlimit="10" stroke-width="2"/>
      <path id="Path_427" data-name="Path 427" d="M324.061,277.3l1.961-.319s.472,1.322,0,1.793-2.315.358-2.315.358a4.849,4.849,0,0,0,1.163-.756c.157-.258-.045-.611-.809-1.082Z" transform="translate(-91.537 -39.43)" fill="none" stroke="#000" stroke-miterlimit="10" stroke-width="2"/>
      <path id="Path_428" data-name="Path 428" d="M309.782,289.48v.707l.871,3.861s-3.242-.28-3.624-1.513-.023-1.676.527-2.079a12.552,12.552,0,0,1,2.231-.97Z" transform="translate(-89.14 -41.209)" fill="none" stroke="#000" stroke-miterlimit="10" stroke-width="2"/>
      <path id="Path_429" data-name="Path 429" d="M310.39,296.23l7.079-1.143a5.7,5.7,0,0,1-3,1.883,5.976,5.976,0,0,1-4.079-.74Z" transform="translate(-89.641 -42.008)" fill="none" stroke="#000" stroke-miterlimit="10" stroke-width="2"/>
      <path id="Path_430" data-name="Path 430" d="M272.063,283.5s.725-1,.972-1.322a2.323,2.323,0,0,1,2.084-.953,6.226,6.226,0,0,0,1.731-.14,3.8,3.8,0,0,1-1.394,2.836,2.637,2.637,0,0,1-2.157.566A6.631,6.631,0,0,1,272.063,283.5Z" transform="translate(-84.185 -40.015)" fill="none" stroke="#000" stroke-miterlimit="10" stroke-width="2"/>
      <path id="Path_431" data-name="Path 431" d="M255.981,272.929l10.972-7.056s1.674-1.194,1.742-1.329.309-.611,1.775.443l2.494,1.362a24.227,24.227,0,0,0-2.6,2.045,13.155,13.155,0,0,1-3.315,1.671,12.493,12.493,0,0,0-3.005,1.093,21.252,21.252,0,0,1-3.416,1.329c-.478.135-4.269,1.07-4.269,1.07l-.377-.628Z" transform="translate(-81.896 -37.628)" fill="none" stroke="#000" stroke-miterlimit="10" stroke-width="2"/>
      <path id="Path_432" data-name="Path 432" d="M282.993,255.283l.275,1.177-.8.274a1.78,1.78,0,0,1-.68-.157,1.821,1.821,0,0,0-2.118.588c-.574.937-2.1,3.811-2.1,3.811l.573.9,2.556.331-1.078.605.124.347,3.23-1.043-1.179-.5a3.948,3.948,0,0,0,.606-.538,5.28,5.28,0,0,1,1.022-.415,11.062,11.062,0,0,0,2.624-1.939,5.7,5.7,0,0,0,1.286-1.922,1.253,1.253,0,0,0-1.1-1.715l-3.247.19Z" transform="translate(-84.969 -36.313)" fill="none" stroke="#000" stroke-miterlimit="10" stroke-width="2"/>
      <path id="Path_433" data-name="Path 433" d="M275.017,263.085l.483-.829a4.847,4.847,0,0,1,.568-.74c.09-.033.163-.111.5.09a7.824,7.824,0,0,0,.764.387l-.4.067.967.712s-.068.824-.522,1.015a1.823,1.823,0,0,1-1.191-.174l-1.157-.521Z" transform="translate(-84.606 -37.222)" fill="none" stroke="#000" stroke-miterlimit="10" stroke-width="2"/>
      <path id="Path_434" data-name="Path 434" d="M286.343,268.186v-.045l.219-2.023,3.293.533c.039.006.062.011.062.011" transform="translate(-86.218 -37.884)" fill="none" stroke="#000" stroke-miterlimit="10" stroke-width="2"/>
      <path id="Path_435" data-name="Path 435" d="M278.469,244.362l5.775.376-.079.353-2.247.325,3.315,3.547a10.028,10.028,0,0,0-1.068.135c-.23.067-.258.2-1.039-.42s-1.758-1.256-1.758-1.256a10.356,10.356,0,0,1-2.016-2.483s-.826-.325-.876-.583Z" transform="translate(-85.097 -34.786)" fill="none" stroke="#000" stroke-miterlimit="10" stroke-width="2"/>
      <path id="Path_436" data-name="Path 436" d="M266.933,238.568l-4.225-4.046.191-.4,2.421.925-.073.123,2.888-1.048,2.635-1.619.326-.079.6-.5,2.028.684,1.135.011,1.663-1.827-.353-.37a5.994,5.994,0,0,1-.849.561,2.248,2.248,0,0,1-.988-.073,4.537,4.537,0,0,0-.607-.174l-.483-.376.91-.527,1.236-.571-1.967-1.6-.73-2.068-1.242.106a7.844,7.844,0,0,1-.562,1.081.469.469,0,0,1-.4.168.944.944,0,0,0-.8.835,2.64,2.64,0,0,0,.152,1.256l.584.42-.2.118-.169.1-.18-.566a6.859,6.859,0,0,0-.612-1.194,3.336,3.336,0,0,0-2.41-1.446l-1.859,1.581,2.3,3.323,2.646-1.653.585-.309.758-.073.921.09.169,1.8-1.635-.09-.326-1.636" transform="translate(-82.853 -32.115)" fill="none" stroke="#000" stroke-miterlimit="10" stroke-width="2"/>
      <path id="Path_437" data-name="Path 437" d="M274.933,228.031l-.877.393.079-.062-.618.011.208.869-.027.577h.421l-.388-.561" transform="translate(-84.392 -32.462)" fill="none" stroke="#000" stroke-miterlimit="10" stroke-width="2"/>
      <path id="Path_438" data-name="Path 438" d="M274.152,228.541v1.2l.057.19.641.8" transform="translate(-84.483 -32.534)" fill="none" stroke="#000" stroke-miterlimit="10" stroke-width="2"/>
      <path id="Path_439" data-name="Path 439" d="M276.972,229.628l-.051-.062a1.8,1.8,0,0,0-.887.028c-.354.145.033.773.033.773" transform="translate(-84.729 -32.674)" fill="none" stroke="#000" stroke-miterlimit="10" stroke-width="2"/>
      <path id="Path_440" data-name="Path 440" d="M275.324,231.646l-.647.476-.78-.073,1.449,1.446" transform="translate(-84.446 -32.976)" fill="none" stroke="#000" stroke-miterlimit="10" stroke-width="2"/>
      <path id="Path_441" data-name="Path 441" d="M271.525,233.486l-3.59-1.233s.242.017-.275,1.373.731,1.4.731,1.4h.511" transform="translate(-83.54 -33.063)" fill="none" stroke="#000" stroke-miterlimit="10" stroke-width="2"/>
      <path id="Path_442" data-name="Path 442" d="M276.74,232.367a3.74,3.74,0,0,1,1.663,0c.977.2,2.1.443,2.1.443a5.905,5.905,0,0,0,1.353.09,3.683,3.683,0,0,0,1.36-.387s.045-.112.337.022l.949.185,2.578.493s1.573.218,1.775.224a3.5,3.5,0,0,0,1.455-.263c.685-.28,1.286-.539,1.286-.539l-.079-.482-1.736-1.042a6.874,6.874,0,0,1-.5-1.048,3.072,3.072,0,0,0-.826-.97c-.241-.162-1.32-1.171-1.32-1.171l-1.326-1.155-1.068-.975-1.157-1.16a3.89,3.89,0,0,0-1.674-.864,5.536,5.536,0,0,0-.9-.045" transform="translate(-84.851 -31.848)" fill="none" stroke="#000" stroke-miterlimit="10" stroke-width="2"/>
      <path id="Path_443" data-name="Path 443" d="M274.257,223.952l1.13-.381.938-.2.527-.477.3-.05h1.163l3.438-.662-1.505-2.28s-1.085-1.5-1.18-1.575-.421-.593-.708-.684a11.518,11.518,0,0,1-1.478-1.053,1.094,1.094,0,0,1-.647.655,1.207,1.207,0,0,1-.8-.314,1.633,1.633,0,0,0-.759-.387l-.19-1.227,1.118-1.294,1.3,2.628" transform="translate(-84.497 -30.467)" fill="none" stroke="#000" stroke-miterlimit="10" stroke-width="2"/>
      <path id="Path_444" data-name="Path 444" d="M276.16,224.028l-1.668-1.166-.107.033s-1.461-.561-1.545-.566c0,0-.826-.2-.9-.2s-2.669-.448-2.669-.448l.376.936,2.039,1.62,2.646-1.312" transform="translate(-83.788 -31.558)" fill="none" stroke="#000" stroke-miterlimit="10" stroke-width="2"/>
      <path id="Path_445" data-name="Path 445" d="M272.157,225.069l-.674-.919s-1.411-.365-1.517-.409a6.364,6.364,0,0,1-.82-.358c-.158-.112-1.511-.891-1.511-.891l.848-1.059.033.011.568.23" transform="translate(-83.555 -31.522)" fill="none" stroke="#000" stroke-miterlimit="10" stroke-width="2"/>
      <path id="Path_446" data-name="Path 446" d="M267.034,226.153l-1.539-1.3-1.685-.908.432-.891.6-.039.062.05-.017.74,1.225-.09-.59,1.1" transform="translate(-83.01 -31.748)" fill="none" stroke="#000" stroke-miterlimit="10" stroke-width="2"/>
      <path id="Path_447" data-name="Path 447" d="M264.816,224.5l.252-.617h-.461l.231.644" transform="translate(-83.124 -31.871)" fill="none" stroke="#000" stroke-miterlimit="10" stroke-width="2"/>
      <path id="Path_448" data-name="Path 448" d="M264.23,223.02l.354.779-.775.151" transform="translate(-83.01 -31.748)" fill="none" stroke="#000" stroke-miterlimit="10" stroke-width="2"/>
      <path id="Path_449" data-name="Path 449" d="M265.473,223.065h.78l-.027.718-.4.011Z" transform="translate(-83.247 -31.755)" fill="none" stroke="#000" stroke-miterlimit="10" stroke-width="2"/>
      <path id="Path_450" data-name="Path 450" d="M265.946,220.993l-.9,1.541-.039.2.062.051.41.056-.073-.443.78.056Z" transform="translate(-83.181 -31.46)" fill="none" stroke="#000" stroke-miterlimit="10" stroke-width="2"/>
      <path id="Path_451" data-name="Path 451" d="M267.377,222.456l-.753-.342-.522-1.121,1.73.477-.045-.107h.483" transform="translate(-83.337 -31.46)" fill="none" stroke="#000" stroke-miterlimit="10" stroke-width="2"/>
      <path id="Path_452" data-name="Path 452" d="M266.656,222.635l.05-.387h-.421l.084.381" transform="translate(-83.363 -31.639)" fill="none" stroke="#000" stroke-miterlimit="10" stroke-width="2"/>
      <path id="Path_453" data-name="Path 453" d="M267.563,222.6l-1.062,1.154.185-.751Z" transform="translate(-83.393 -31.688)" fill="none" stroke="#000" stroke-miterlimit="10" stroke-width="2"/>
      <path id="Path_454" data-name="Path 454" d="M266.285,222.653h.421v.4h-.421Z" transform="translate(-83.363 -31.696)" fill="none" stroke="#000" stroke-miterlimit="10" stroke-width="2"/>
      <path id="Path_455" data-name="Path 455" d="M267.439,222.68l-.663.016" transform="translate(-83.432 -31.7)" fill="none" stroke="#000" stroke-miterlimit="10" stroke-width="2"/>
      <path id="Path_456" data-name="Path 456" d="M243.7,212.748l-.714-6.45-.652-2.6-3.708.039.5-.785-3.432-.593.725,1.889-6.877.022a1.56,1.56,0,0,1-.877-.387l-.331-.219,1.039-1.172-3.781.219,1.663-.666s2.1-2.181,2.427-2.668a14.385,14.385,0,0,0,.815-1.3,15.85,15.85,0,0,0,1.185-3.223c.18-1.11.365-2.864.365-2.864a19.469,19.469,0,0,0,.022-2.208,2.567,2.567,0,0,0-.674-1.373,13.538,13.538,0,0,1-1.236-1.569l-1.394-1.749-1.978-2.455-1.73-2.136-1.657-1.967-1.275-1.462-1.72-2.023-1.551-2.024-1.326-1.95s-2.033-2.724-2.219-2.819-1.467-1.491-1.467-1.491-2.163-1.822-2.354-1.945-1.949-1.413-1.949-1.413l-2.961-2.039s-2.815-1.8-2.91-1.822-2.432-1.362-2.432-1.362a5.458,5.458,0,0,1-.938-.617c-.118-.168-1.455-1.368-1.455-1.368a2.25,2.25,0,0,0-2.045-.213,3.167,3.167,0,0,0-2.09-1.939,4.66,4.66,0,0,1-2.63-2.164c-.185-.381-3.578-1.21-3.578-1.21s-6.416,2.163-7.534,2.286l-9.051,2.063s-8.162,2.432-9.7,3.43-8.674,3.172-8.674,3.172l-8.725,3.1s-4.236,1.563-5.107,1.457a12.06,12.06,0,0,1-3.7-1.026c-1.7-.745-6.337-2.074-6.337-2.074s-9.725-3.582-10.522-3.738-8.236-2.226-8.236-2.226l-1.258,5.353a13.835,13.835,0,0,1-1.618,1.844,3.873,3.873,0,0,1,.231,2.253c-.332.869-.949,1.844-.949,2.1s-.512,2.483-.512,2.483-3.157,10.907-3.926,11.955l-2.517,6.193a30.336,30.336,0,0,0-.618,3.228c-.129,1.256-1.567,6.529-2.8,7.606a7.74,7.74,0,0,0-1.157,2.562c-.258,1.305-.921,2.51-1.568,2.634a1.874,1.874,0,0,1-1.927-.74,1.141,1.141,0,0,0-.41-1.765l-1.36.078a3.454,3.454,0,0,0-1.028-.1c-.23.078-1.539.078-1.539-.079a17.749,17.749,0,0,1,2.59-1.026s-2.208-2.919-7.034-1.154l.562.667-1.719.208.208-1.026-.618-.667-1.438,1.435s-5.006-1.844-5.185-1.973a10.252,10.252,0,0,0-2.287-.9,18.955,18.955,0,0,1-2.539-.869,6.24,6.24,0,0,0-1.489-.717,11.345,11.345,0,0,0-2.719-.74,6.707,6.707,0,0,0-1.719.079,19.936,19.936,0,0,1-3.236-.28s-3.056-.74-3.258-.846-2.567-1.356-2.9-1.636a13.488,13.488,0,0,0-1.927-.919l-.3.617" transform="translate(-52.993 -21.449)" fill="none" stroke="#000" stroke-miterlimit="10" stroke-width="2"/>
      <path id="Path_457" data-name="Path 457" d="M62,200.2h5.32s-1.624.852-1.753.981a3.193,3.193,0,0,1-1.764.376c-.506-.141-1.933-.561-1.933-.561l.124-.8Z" transform="translate(-54.263 -28.5)" fill="none" stroke="#000" stroke-miterlimit="10" stroke-width="2"/>
      <path id="Path_458" data-name="Path 458" d="M83.82,206.279l1.14-1.172,1.522,1.306h-1.09l.461.913-.3.258Z" transform="translate(-57.387 -29.198)" fill="none" stroke="#000" stroke-miterlimit="10" stroke-width="2"/>
      <path id="Path_459" data-name="Path 459" d="M67.981,218.393l6.916,3.228s-4.708.953-6.916-3.228Z" transform="translate(-55.133 -31.09)" fill="none" stroke="#000" stroke-miterlimit="10" stroke-width="2"/>
      <path id="Path_460" data-name="Path 460" d="M61.725,215.817a2.692,2.692,0,0,1-1.73-.919c-1.034-.958-2.612,0-2.612,0l4.157,1.614Z" transform="translate(-53.624 -30.531)" fill="none" stroke="#000" stroke-miterlimit="10" stroke-width="2"/>
      <path id="Path_461" data-name="Path 461" d="M53,213.626l1.079.257s1.14-.919,1.764.219c0,0-.219.42.4,1.256a5,5,0,0,1,.809,1.86L53,215.374" transform="translate(-53 -30.398)" fill="none" stroke="#000" stroke-miterlimit="10" stroke-width="2"/>
      <path id="Path_462" data-name="Path 462" d="M164.916,169.661l3.157,2.2-.337.466-3.174-2.337Z" transform="translate(-68.882 -24.152)" fill="none" stroke="#000" stroke-miterlimit="10" stroke-width="2"/>
      <path id="Path_463" data-name="Path 463" d="M170.346,174.514s1.062-.426,2.674,1.115,2.084,2.13,2.1,2.321-4.775-3.431-4.775-3.431Z" transform="translate(-69.705 -24.836)" fill="none" stroke="#000" stroke-miterlimit="10" stroke-width="2"/>
      <path id="Path_464" data-name="Path 464" d="M262.938,316.893s4.994-8.093,5.483-8.183,3.478-4.8,7-4.893c0,0,.938-1.379,1.736-1.379s4.68.937,4.68.937,1.2,1.378,1.516,1.378a7.4,7.4,0,0,0,2.051,1.155c.579.045,3.163.8,2.944,4.8l.011.623.432.936,1.248-.443s2.14,2.09.624,4.046a17.133,17.133,0,0,0-3.208,5.56h-.489l-.489-1.2h-.4s.27,1.11-1.472,2.315-8.467,4.893-8.467,4.893-2.1,1.154-2.809-.8c0,0-.135-1.514.714-1.687s4.057-2.091,4.815-3.47a33.2,33.2,0,0,1,3.382-4.181v-.577l-4.584.8.315-.891a4.638,4.638,0,0,0-5.663,1.955l4.191-.666a14.376,14.376,0,0,1-9.894,3.29,2.586,2.586,0,0,1-2.23-2.046c-.36-1.866-1.427-2.269-1.427-2.269Z" transform="translate(-82.886 -43.054)" fill="none" stroke="#000" stroke-miterlimit="10" stroke-width="2"/>
      <path id="Path_465" data-name="Path 465" d="M272.571,315.553l1.112-4.091s-1.781-.353-2.275,2.981l.578,1.11h.585Z" transform="translate(-84.092 -44.337)" fill="none" stroke="#000" stroke-miterlimit="10" stroke-width="2"/>
      <path id="Path_466" data-name="Path 466" d="M267.228,330.288s2.057-.123,2.326-.168a2.366,2.366,0,0,1,1.764.88l-.978.88a10.981,10.981,0,0,1-1.763-.168c-.371-.129-.81-.1-1.349-1.424Z" transform="translate(-83.497 -46.994)" fill="none" stroke="#000" stroke-miterlimit="10" stroke-width="2"/>
      <path id="Path_467" data-name="Path 467" d="M337.649,281.987l.551-.1s-1.106.4-1.314-1.373-.394-2.388-.343-2.488-1.286-.623-1.365-.745a2.259,2.259,0,0,1-.949-1.228c-.393-.969-1.359-3.419-1.359-3.419l.286-.056-2.28-3.139s-1.208-1.373-1.242-1.822a1.378,1.378,0,0,1,.393-1.064,5.816,5.816,0,0,0,.618-1.065l.877-2.337s-.467-1.081-1.225-.19a1.968,1.968,0,0,1-.674.241,10.134,10.134,0,0,0-1.528.582l-.343-.533,1.292-1.389-5.9-3.128-.584.841,7.421,6.955" transform="translate(-91.373 -36.833)" fill="none" stroke="#000" stroke-miterlimit="10" stroke-width="2"/>
      <path id="Path_468" data-name="Path 468" d="M332.072,266.529a6.731,6.731,0,0,1,1.888-.353c.691.045,1.938.028,1.938.028a1.793,1.793,0,0,1,.775.151.211.211,0,0,1,.191.241,2.148,2.148,0,0,0,.388.751s.376.628,1.983.785c0,0,.343-.106,1.106.812l2.63.948.438,1.849s-.039.247.286.376l.326.129.949-1.726,2.534,3.761-1.011.286a3.089,3.089,0,0,0,1.579.23c1.2-.022,2.219.162,2.533,1.558a2.082,2.082,0,0,0,.449.162c.163.022,1.781.841,1.781.841a11.653,11.653,0,0,1,1.578,1.009c.865.65,2.208-.3,2.208-.3l.584,1.306-1.494,2.057s.011.269-.781.314h-.112c-.9.022-1.562,0-1.562,0l-2.7.3-.69-.152-.057-.358.427.23-.888.392-2.809.219.551.69a6.21,6.21,0,0,1,3.016-.286,30.559,30.559,0,0,1,4.281.93l1.067-1.009-2.225-.975" transform="translate(-92.728 -37.891)" fill="none" stroke="#000" stroke-miterlimit="10" stroke-width="2"/>
      <path id="Path_469" data-name="Path 469" d="M358.717,284.39l3.63.471.062.314-4.416,1.121s.742.134.86.179.337.106.415.263a3.069,3.069,0,0,0,.933.544,2.292,2.292,0,0,0,1.657-.286c.708-.431,1.618-1.031,1.618-1.031s-.141,1.076.219,1.3.9.5.9.5-1.415.184-1.837.885.124,1.923.124,1.923a1.536,1.536,0,0,1-.022.661l1.786-1.172,1.107,1.923-1.517.689a.377.377,0,0,0-.039.017c-.168.062-.8.235-.9-.409-.106-.745-.135-.9-.421-1.032" transform="translate(-96.418 -40.485)" fill="none" stroke="#000" stroke-miterlimit="10" stroke-width="2"/>
      <path id="Path_470" data-name="Path 470" d="M365.329,294.074s.888.179,1.185.292a5.257,5.257,0,0,1,.961.718,5.8,5.8,0,0,1,.8,1.075,2.487,2.487,0,0,1,.343,1.379,5.4,5.4,0,0,1-.326,1.474l1.365-.141,2.685,3.5-1.775.824,7.3,2.3s-.084.386-.089.459-.231.471-.332.684a3.372,3.372,0,0,0-.438,2.191,4.063,4.063,0,0,0,1,1.816,3.661,3.661,0,0,1,1.242,1.979,6.683,6.683,0,0,1,.179,1.429,3.1,3.1,0,0,0,.208,1.244,3.514,3.514,0,0,0,.775,1.154.79.79,0,0,0,.438.18c.258.016.91.257,1.027.521s.259.617-.179,1.6l1.764-.2a12.929,12.929,0,0,0,.859,1.7,1.925,1.925,0,0,0,.775.588,6.69,6.69,0,0,0,2.9-.51c1.039-.426,1.927-.269,2.169.3a2.909,2.909,0,0,1,.348.846.749.749,0,0,0,.337.5,3.762,3.762,0,0,1,.769.712c.264.365,2.051,2.309,2.051,2.309a18.262,18.262,0,0,1,1.944,2.646,8.254,8.254,0,0,1,.983,2.5l-1.264.734a4.131,4.131,0,0,1-.938.337.714.714,0,0,0-.579.756c.079.409.737.913.737.913a3.1,3.1,0,0,1,.494,2.175,18.3,18.3,0,0,0,.505,4.192l.6.078,1.152-3.39s.169-1.082.534-1.385a.691.691,0,0,1,.736-.111.564.564,0,0,0,.427-.09c.225-.146.871-.644.871-.644s-1.944.235-2.225-1a2.951,2.951,0,0,1,.09-.97c.124-.19-.136-.678-.383-.8a4.133,4.133,0,0,1-.747-.745s.882-.953,1-1.082a2.8,2.8,0,0,0,.354-.588,5.933,5.933,0,0,1,.764-1.289,1.407,1.407,0,0,1,1.337-.521,6.72,6.72,0,0,1,2.286,1l1.853.886,1.624.723a2.417,2.417,0,0,1,.321-1.407c.388-.487,1.657-.157,1.657-.157s.792,1.076,1.421,1.262a1.876,1.876,0,0,0,1.764-.342l-.045-.084-.674-1.294-2.5.549s.264-1.233.264-1.306.264-.98,1.466-.712a1.159,1.159,0,0,0,.377-.566L409,324.58l5.877-1.278v.117l.112,1.514-1-.263-1.039,1.642-.365-.111-.117-1.642a4.947,4.947,0,0,0-1.326,2.175,11.43,11.43,0,0,0-.13,1.883l2.219,1.121-.314,1.682a3.375,3.375,0,0,0,2.011,0,6.081,6.081,0,0,0,1.527-1.906l1.731-3.52-2.674-3.06-.551.454-.2-.179.646-.252-2.527-1.547-.231.269.444.073a1.629,1.629,0,0,1-.4-.858s-.084-.185.045-.252,1.006-.678,1.006-.678l1.343-.829a6.534,6.534,0,0,0,.685-.594c.112-.151.253-.23-.034-.56s-.331-.482-.741-.2-2.309,2.158-2.309,2.158l-.455-.275a2.161,2.161,0,0,0,1.033-1.351s.118-.33-.269-1.177a10.553,10.553,0,0,1-.612-1.39l-.7.426-.258-.426,3.135-1.563-3.394-.027,1.214.588s-3.342.14-3.741.224a7.95,7.95,0,0,0-2.473.583,14.028,14.028,0,0,0-3.039,1.676s-2.6,1.984-2.713,2.163a5.784,5.784,0,0,1-1.652.919,4.837,4.837,0,0,1-.612-1.945,15.376,15.376,0,0,1,.41-2.286c.141-.14-.18-.42.831-.807l.883-.488a1.644,1.644,0,0,1,1.78-.05,4.877,4.877,0,0,1,.848.717c.118.208.68.4,1.27-.011a20.542,20.542,0,0,1,2.983-1.906,20.245,20.245,0,0,1,4.534-1.485s5.731-1.305,6.517-1.305,1.9-.28,2.068-.667a2.737,2.737,0,0,0,.23-1.177,2.289,2.289,0,0,1,.612-1.138,3.2,3.2,0,0,0,.359,1.457,2.027,2.027,0,0,0,1.383.729s.758-.09,1.079-.141a10.158,10.158,0,0,1,4.252.577c1.6.707,3.725,1.5,3.725,1.5" transform="translate(-97.462 -41.863)" fill="none" stroke="#000" stroke-miterlimit="10" stroke-width="2"/>
      <path id="Path_471" data-name="Path 471" d="M441.68,317.74s-3.764-3.463-4.337-3.721c0,0-2.27-1.72-3.253-1.614" transform="translate(-107.251 -44.472)" fill="none" stroke="#000" stroke-miterlimit="10" stroke-width="2"/>
      <path id="Path_472" data-name="Path 472" d="M432.146,327.382s-1.365.32-1.264,1.25a3.371,3.371,0,0,0,.63,1.166,1.873,1.873,0,0,1,.494.869s-2.016-.97-2.056-1.816S430.236,327.136,432.146,327.382Z" transform="translate(-106.661 -46.599)" fill="none" stroke="#000" stroke-miterlimit="10" stroke-width="2"/>
      <path id="Path_473" data-name="Path 473" d="M409.539,332.567l2.174.247s-.174-.628-.214-.835-.057-.358-.753-.28-1.208.118-1.208.118v.75Z" transform="translate(-103.756 -47.217)" fill="none" stroke="#000" stroke-miterlimit="10" stroke-width="2"/>
      <path id="Path_474" data-name="Path 474" d="M137.1,349.432s15.63,15.166,22.057,26.487a195.991,195.991,0,0,1,11.348,24.565,2.034,2.034,0,0,0,1.972,1.5l1.051,3.951,3.59,5.8,1.915-.554a12.494,12.494,0,0,0-1.051,2.718,5.781,5.781,0,0,0,1.854,3.582c1.359,1.233,5.011,7.286,5.011,7.286a12.169,12.169,0,0,0,1.421,1.541c.927.864,7.427,6.485,9.034,8.7a5.71,5.71,0,0,0,3.466,2.472,7.314,7.314,0,0,1,1.545,1.6,8.39,8.39,0,0,0,2.972,1.172c1.056,0,5.753,2.163,6.315,2.718s3.652,3.335,4.331,4.26,2.539,2.286,3.343,2.225,12.314-5.93,12.314-5.93l21.6-12.039s.865-1.048,2.045.431a80.918,80.918,0,0,1,4.949,6.608c.185.617,3.589,5.678,3.961,6.177s3.59,3.335,4.331,5.616,9.967,12.717,9.967,12.717l.309-.864-7.427-12.1a17.52,17.52,0,0,0-1.545-1.541,15.647,15.647,0,0,1-1.669-3.088s-4.763-6.361-4.949-7.1-3.342-5.869-3.342-5.869l-1.669-1.664s-1.421-1.172,0-1.912,7.612-4.075,8.046-4.568,2.91-2.163,6.129.185,3.9,2.41,3.9,2.41l3.775.555s1.792-1.357,2.292.246v1.48l1.545,1.171-2.415.309s.617-.864-.927-1.479-.247-2.78-.247-2.78-.248-1.726-1.545-2.04a1.38,1.38,0,0,1-1.112-1.541l.427-.268.967.964.69-3.06,1.337.6-.185,2.371.416.163,1.247-3.172,1.612,2.645a3.851,3.851,0,0,1,1.545-.022c.578.185,9.382,3.425,10.713,3.542,0,0,3.388-4.091,1.27-6.209,0,0-2.883-.735-3.247-.9a4.6,4.6,0,0,1-1.248-.986,18.3,18.3,0,0,0-5.966-3.75l-.528.089-.09,1.244-3.938.045-3.871-2.713v-.415l2.4.117.394-1.216.106.062c.028.017.057.028.09.051a6.761,6.761,0,0,0,1.831.768,7.435,7.435,0,0,0,1.753-.162c.1-.045-.393-.6-1.135-1.244-1.068-.925-2.641-2.045-3.657-2.113,0,0-1.175-1.838-2.422-.852l1.062.874a1.291,1.291,0,0,1,.321.807c.022.51,1.972,1.839,1.972,1.839l.208-.908,2.433.353h.033l.028.011h.062" transform="translate(-64.973 -49.744)" fill="none" stroke="#000" stroke-miterlimit="10" stroke-width="2"/>
      <path id="Path_475" data-name="Path 475" d="M296.942,418.435l1.714,2.421a4.218,4.218,0,0,1-2.859-.13c-1.079-.661.051-1.418.051-1.418l1.1-.874Z" transform="translate(-87.497 -59.567)" fill="none" stroke="#000" stroke-miterlimit="10" stroke-width="2"/>
      <path id="Path_476" data-name="Path 476" d="M296.758,416.292a11.051,11.051,0,0,1,.612-2.2A2.866,2.866,0,0,1,298.983,413l-.8-1.262a2.694,2.694,0,0,0-.786-.762c-.354-.146-3.624-2.023-3.624-2.023l-1.686-.863.955-.325-2.033-1.508-2.017-1.536-2.831-2.18.225,2.836a6.2,6.2,0,0,1-2.062-.331c-1.231-.387-2.281-.678-2.281-.678a3.928,3.928,0,0,0-1.568-1.441,10.97,10.97,0,0,1-2.045-1.289l-1.921-.975a3.039,3.039,0,0,0-1.6,0l-1.219.129-.185.275,1.191,1.16-2.663-.14-1.09.033-2.006-.358h-.045l-.09-.022-3.467-.623.731-.14-.8.376s.461-1.642,1.635-.656l1.084.32.837.762.933-.4-1.933-.455-.915-.292.056-1.311,2.764,2.124,1.63-.4-3.731-1.261-.079-.039-.045-.045-.068.011" transform="translate(-83.218 -56.847)" fill="none" stroke="#000" stroke-miterlimit="10" stroke-width="2"/>
      <path id="Path_477" data-name="Path 477" d="M267.183,399.252l.314-1.043s2.416.084,3.506,1.043a4.5,4.5,0,0,1,.893.885c.253.4,1.871.785,1.871.785h-2.231l-.309,1.087" transform="translate(-83.49 -56.688)" fill="none" stroke="#000" stroke-miterlimit="10" stroke-width="2"/>
      <path id="Path_478" data-name="Path 478" d="M265.273,396.615s-2.421-3.3-2.7-3.531a1.662,1.662,0,0,0-2.057-.751,1.338,1.338,0,0,0-.725.69,5.592,5.592,0,0,1-.961,1.194s-.753-.662-1.062-.959a5.813,5.813,0,0,0-1.152-.684s-4.467-2.432-4.769-2.489a14.293,14.293,0,0,0-2.989-.65l.23,1.116-6.089-3.7s-.27-.022-.191-.381.2-.342.084-.6-.377-.381-.78-.409a1.413,1.413,0,0,1-.652-.2s-1.377-.555-1.41-.588-.163-.006,0-.482.483-.757.067-1.474a2.963,2.963,0,0,0-.882-1,2.359,2.359,0,0,1-.775-2.012l-.467-.1s-2.809-2-2.921-2.147-.843-.846-.843-.846a10.554,10.554,0,0,0-2.005-1.462,11.334,11.334,0,0,0-3.388-.97,2.761,2.761,0,0,1-2.4-1.283,3.094,3.094,0,0,1-.32-1.368s-.186-1.284-1.332-1.328a3.89,3.89,0,0,0-1.124.2c-.522.19-2.91.521-2.91.521a10.333,10.333,0,0,0-1.859.448,3.772,3.772,0,0,0-1.837,1.654c-.416.919-.147,1.194-.147,1.194l-2.714,1.749a12.013,12.013,0,0,0-1.64,1.238,5.18,5.18,0,0,0-.753,1.138,1.583,1.583,0,0,1-2.028.863s.472,1.1.084,1.48a3.918,3.918,0,0,1-1.848.493c-.393.039-.792.067-1.152.078l-.562,1.357a9.248,9.248,0,0,1,1.057.8c.242.257.6.414,1.13-.141a7.083,7.083,0,0,0,.876-1.126l-1.415-1" transform="translate(-74.823 -52.701)" fill="none" stroke="#000" stroke-miterlimit="10" stroke-width="2"/>
      <path id="Path_479" data-name="Path 479" d="M205.169,384.08l-1.432,1.116a8.444,8.444,0,0,0-1.321,1.137c-.23.353-.792,1.116-.848,1.178a1.564,1.564,0,0,1-1.033.555,2.518,2.518,0,0,1-1.388-.269l-.449-.628s3.168-2.449,3.236-2.455,1.4-1.262,1.7-1.491a2.524,2.524,0,0,1,2.107-.582,5.284,5.284,0,0,0,.871-1.262,1.665,1.665,0,0,1,1.73-.947l.444.252" transform="translate(-73.741 -54.155)" fill="none" stroke="#000" stroke-miterlimit="10" stroke-width="2"/>
      <path id="Path_480" data-name="Path 480" d="M199.626,375.382a3.308,3.308,0,0,1-.033-1.048,17.276,17.276,0,0,1,1.871-2.006l-8.225-4.215s-6.062-3.558-6.191-3.654-3.8-2.259-3.8-2.259-5.135-2.775-5.641-2.948-5.247-2.365-6.865-2.522a24.928,24.928,0,0,1-3.943-.88l-.332.533a10.612,10.612,0,0,1,2.124,2.3,3.172,3.172,0,0,1-1.505.219c-.612-.141-8.359-4.607-8.359-4.607s-3.691-2.757-6-.925a19.433,19.433,0,0,1-1.416-2.494c-.393-.958-2.449-.924-2.449-.924a8.044,8.044,0,0,0-3.612-2.914c-2.8-1.362-3.82-1.631-3.91-1.816l-.455.235.832,3.044-1.933-.785v.347l-2.388.376a.693.693,0,0,0,.141.471,10.852,10.852,0,0,1,1.152,1.451" transform="translate(-65.013 -49.145)" fill="none" stroke="#000" stroke-miterlimit="10" stroke-width="2"/>
      <path id="Path_481" data-name="Path 481" d="M131.089,344.258l2.6-1.328,1.7,3.514-.624.4Z" transform="translate(-64.117 -48.818)" fill="none" stroke="#000" stroke-miterlimit="10" stroke-width="2"/>
      <path id="Path_482" data-name="Path 482" d="M161.955,361.463l7.247,5.386S164.09,367.791,161.955,361.463Z" transform="translate(-68.51 -51.457)" fill="none" stroke="#000" stroke-miterlimit="10" stroke-width="2"/>
      <path id="Path_483" data-name="Path 483" d="M299.73,398.349s7.578,2.9,8.028,3.156a8.443,8.443,0,0,0,1.107.493,30.98,30.98,0,0,1,1.91,2.472l.163.213-.472.515-2.528-1.435-.685,5.229s-2.264-.2-2.972-1.34.3-.263-1.09-1.2l-7.859-5.744s-.753-.117-.163-1.2a5.936,5.936,0,0,1,.826-1.3s2.2,1.222,3.045,1.132l.685-.986Z" transform="translate(-87.442 -56.688)" fill="none" stroke="#000" stroke-miterlimit="10" stroke-width="2"/>
      <path id="Path_484" data-name="Path 484" d="M316.881,401.815l3.506-.476s-.708,1.25-1.483,1.278A4.823,4.823,0,0,1,316.881,401.815Z" transform="translate(-90.565 -57.133)" fill="none" stroke="#000" stroke-miterlimit="10" stroke-width="2"/>
      <path id="Path_485" data-name="Path 485" d="M98.572,375.092l.848-.454,1.309,2.746-.426.314Z" transform="translate(-59.487 -53.332)" fill="none" stroke="#000" stroke-miterlimit="10" stroke-width="2"/>
      <path id="Path_486" data-name="Path 486" d="M129.607,405.225a2.358,2.358,0,0,0,.888.426.682.682,0,0,0,.612-.23,2.254,2.254,0,0,0,.275-.807,1.065,1.065,0,0,1,.174-.566l.342-.538,2.039.846-1.28.762s.32.661.337.757l.4.818a2.617,2.617,0,0,1,.258.958,2.032,2.032,0,0,1-.641,1.384c-.551.612-1.426,1.508-1.426,1.508l2.809-1.384.315.476-2.118,3.6a4.969,4.969,0,0,1-2.005-.051,5.049,5.049,0,0,1-1.512-.7,5.986,5.986,0,0,1-1.3-1.524c-.315-.69-.371-.745-.416-.88a2.844,2.844,0,0,0-.978-.875,1.449,1.449,0,0,1-.562-.4,5.764,5.764,0,0,0-1.483,2.853,12.217,12.217,0,0,0-.191,2.835,4.95,4.95,0,0,0,1.135,2.618l-1.545.78s-.18,1.765-.247,2.012a6.473,6.473,0,0,1-.9,1.485,16.538,16.538,0,0,1-1.337,1.317,2.018,2.018,0,0,1-1.888.611,1.281,1.281,0,0,1-.753-.93,2.084,2.084,0,0,0-.781-1.166,28.927,28.927,0,0,1-1.927-2.606l.506-.437s.214-.179.568.045l1.685,1,.9-.768a19.635,19.635,0,0,1-.7-2.674c-.085-.812-.2-3.666-.2-3.666l-.163-3.967a5.813,5.813,0,0,0-.258-1.5,5.343,5.343,0,0,0-.978-1.11l-1.36-.8a2.315,2.315,0,0,1-1.179-1.659s-.118-.179,0-1.328a4.331,4.331,0,0,0-.107-1.765,22.9,22.9,0,0,1-.2-2.377,19.645,19.645,0,0,0-.495-2.982s-.758-2.286-.877-2.51-1.32-2.438-1.478-2.578a7.283,7.283,0,0,1-1.19-1.553c-.09-.341-1.028-2.074-1.028-2.074s-.674-.661-.141-1a4.629,4.629,0,0,1,1.938-.269l-2.146-5.913a7.681,7.681,0,0,0,1.59-3.049c.163-1.351.359-1.979.365-2.736a9.347,9.347,0,0,1,.371-1.978,12.162,12.162,0,0,0,.353-2.3,3.272,3.272,0,0,1-.151-1.1c.039-.286.556-1.989.123-2.4s-.7-.734-.7-.734a.557.557,0,0,1-.174-.5c.079-.263.174-2.163.174-2.163a22.217,22.217,0,0,1,2.354.762,14.027,14.027,0,0,0,3.516-.168,5.284,5.284,0,0,0,.967-.762c.028-.112.331.5.331.5s.141.46-.483.812-.916.527-.916.527l2.562.947.248-.684s.421.869.949.823,1.039-1.221,1.039-1.221l1.427,1.115a2.684,2.684,0,0,0-.494.975c-.028.371.494,1.054.494,1.054s.685-.42.759-.959a4.375,4.375,0,0,0-.062-1.21,5.151,5.151,0,0,1,.325-1.6c.22-.218.31-.448,1.585-.14l.809.14-1.242,1.413.371.157s.949-.975,1.708-.235a2.526,2.526,0,0,1,.685.712c.174.352,1.321.728,1.321.728s.775.521,1.488,1.054a5.453,5.453,0,0,1,1.152,1.009l-3,.824s.854-1.474.978-1.581a.719.719,0,0,1,.949-.1,9.221,9.221,0,0,1,1.2.953,4.571,4.571,0,0,0-1.567,3.312,29.723,29.723,0,0,0-.231,3.217s.4,2.068-1.6,2.164l2.1,1.591s.422,3.066.557,3.486,1.533,4.389,1.478,6.361-.152,2.836-2.916,2.22l-.039,4.557h.461l-.769.84,2.612,5-1.4.5,1.247,2.646-2.343,1.093-1.556-.443-1.112,3.239,3.185-.633-.517-1.569v-.684" transform="translate(-60.971 -51.475)" fill="none" stroke="#000" stroke-miterlimit="10" stroke-width="2"/>
      <path id="Path_487" data-name="Path 487" d="M139.474,376.986l1.208-3.721s1.208,1.255.708,2.28a3.434,3.434,0,0,1-1.915,1.441Z" transform="translate(-65.31 -53.137)" fill="none" stroke="#000" stroke-miterlimit="10" stroke-width="2"/>
      <path id="Path_488" data-name="Path 488" d="M151.381,417.191l1.955,4.192s-1.669.571-1.955-2.1S151.381,417.191,151.381,417.191Z" transform="translate(-66.987 -59.383)" fill="none" stroke="#000" stroke-miterlimit="10" stroke-width="2"/>
      <path id="Path_489" data-name="Path 489" d="M138.447,436.014l.865.364s-.937,3.811-1.477,4.232a2.052,2.052,0,0,1-.832.46l-.511-.672s-.269.1.135-.594S138.447,436.014,138.447,436.014Z" transform="translate(-64.873 -62.07)" fill="none" stroke="#000" stroke-miterlimit="10" stroke-width="2"/>
      <path id="Path_490" data-name="Path 490" d="M122.029,422.3l1.854,1.34-.3.779-1.557.09Z" transform="translate(-62.827 -60.117)" fill="none" stroke="#000" stroke-miterlimit="10" stroke-width="2"/>
      <path id="Path_491" data-name="Path 491" d="M145.277,520.423l.449-1.446,3.449-2.141s3.647-2.443,4.046-2.741,6.3-3.536,6.3-3.536l1.646-1.1.3.449-15.438,10.968-.747-.449Z" transform="translate(-66.136 -72.525)" fill="none" stroke="#000" stroke-miterlimit="10" stroke-width="2"/>
      <path id="Path_492" data-name="Path 492" d="M141.649,523.917l-4.3,3.088s2.4-.2,3.449-1.194,1.068-1.732,1.039-1.895-.191,0-.191,0Z" transform="translate(-65.008 -74.573)" fill="none" stroke="#000" stroke-miterlimit="10" stroke-width="2"/>
      <path id="Path_493" data-name="Path 493" d="M116.7,540.324l1.286-.482a7.471,7.471,0,0,1,.927,3.032c-.1,1.127-.22,2.527-.22,2.527l-2.315-1.485.764-3.391Z" transform="translate(-62.022 -76.85)" fill="none" stroke="#000" stroke-miterlimit="10" stroke-width="2"/>
      <path id="Path_494" data-name="Path 494" d="M68.9,525.8l.309-.549,2.466,1.289-.4.707Z" transform="translate(-55.263 -74.773)" fill="none" stroke="#000" stroke-miterlimit="10" stroke-width="2"/>
      <path id="Path_495" data-name="Path 495" d="M54.8,529.937a4.655,4.655,0,0,1,1.416-.46,4.431,4.431,0,0,0,3.27-1.906,2.069,2.069,0,0,0,0-2.735s-1.051-.246-1.6-2-.028-1.906-.893-3.536l1.2.151,7.955,7.045a4.7,4.7,0,0,1,.742,3.447c-.337,2.063-.556,3.166-.247,4.214s.494,1.048.865,1.261,5.455,2.091,5.455,2.091-.247-1.693.927-1.782,1.292.027,1.944-.493,1.478-1.233,2.157-1.2a1.5,1.5,0,0,0,.955-.184,1.811,1.811,0,0,1,.893.986,12.765,12.765,0,0,1,.618,1.692s.247.768-1.017,1.508l-1.174,1.076s-.927-.09-1.14,1.076l-.247,1.232,1.416.555h6.843s5.455-.274,6.135-.184,8.141.184,8.141.184h33.331a2.224,2.224,0,0,0-.37-3.262c-1.848-1.569-1.883-2.556-1.883-2.556l2.467,1.323.584-2.83a8.77,8.77,0,0,0,1.973.493c.618,0,2.376.247,2.376,1.384v1.6l2.068-1.222.832,1.5,1.511-2.556-3.208-1.508v-.891a12.978,12.978,0,0,0,2.253-.46c.557-.246,3.174.678,3.174.678s4.534,1.261,5.152,1.261,6.691.864,6.691.864l1.511-2.92,1.2.617s.124-2.673,1.478-3.509a3.115,3.115,0,0,0,1.848-.707,11.2,11.2,0,0,0,1.141-3.2l1.236.891-3.668-.555v-.678a8.121,8.121,0,0,1,5.826-.521,3.124,3.124,0,0,1,.185-1.536,4.287,4.287,0,0,0-.461-3.755c-.922-1.172.124-3.167,1.078-3.413s2.315-1.939,2.315-1.939a2.723,2.723,0,0,1,1.236-.152c.467.123,2.9-1.137,4.377.925l.708.027a5.958,5.958,0,0,0,.893.336c.214.028-.247,1.844-.247,1.844l-.865-.582,1.478.246a2.782,2.782,0,0,1,.865-.308,1.67,1.67,0,0,1,1.6.308c.674.583,1.758,1.755,3.359.493l-6.9-4.646.461-.953-1.663-.247s-2.342-2.612-1.635-5.413c0,0-2.438-2.029.77-4.428l.522,1.2s1.415-3.323,2.157-3.536,1.573.582,1.573.582l1.725,2.248.523-1.877s1.539,2.152,2.837-.617a21.59,21.59,0,0,1,2.988,3.536,3.468,3.468,0,0,0,2.562,1.474l.8-1.446s.337,1.076.461,1.289a4.8,4.8,0,0,1-1.292,2.494,7.771,7.771,0,0,1,.893,3.263,2.222,2.222,0,0,1-.741,1.692.78.78,0,0,0,.062,1.015,7.664,7.664,0,0,0,1.449,1.289c.214.09,1.2-1.446,1.2-1.446a1.541,1.541,0,0,1,.152-2.584,1.761,1.761,0,0,1,1.326,1.015c.31.864.557,1.877.557,1.877a.785.785,0,0,1-.371.892,8.536,8.536,0,0,0-1.325,1.446s-.371.37.337.863,2.651,1.322,2.865,1.754l.174.107,1.916-1.474.421.387s-1.82.549-.826,3.666l.826-2.635h.315v3.458l3.467-3.172.539.2-1.422,2.865,2.585-.908L203.232,522l2.472,1.586v-.4l4.775,1.558-3.837,1.188a13.57,13.57,0,0,0,2.443,1.335,2.212,2.212,0,0,0,1.933-.455s.741-.739,1.022.028l.258.594s5.18,2.051,5.7,2.1a21.705,21.705,0,0,1,4.606,1.389,18.031,18.031,0,0,0,5.13,1.216,3.979,3.979,0,0,1,2.7.74c.916.695,2.562.824,3-.65l2.607,1.256a7.862,7.862,0,0,0,3.388.739,5.2,5.2,0,0,1,3.174,1,7.872,7.872,0,0,0,4.214.823c2.516-.173,2.562.606,2.562.606s.741,1.3,2.91.477l1.478.907v-.476a20.282,20.282,0,0,0,3,.257c1.089-.045,2.045-.65,2.522-.173s.3,1.389,1.3,1.692l-.606,1.519a22.671,22.671,0,0,1,7.562.174,11.177,11.177,0,0,0,3.522,0,33.051,33.051,0,0,1,3.478-.65l-1.3,1.586,5.607-.33-.174-11.445.741-.129s.3.605.522,1.081a10.618,10.618,0,0,1,0,2.9c-.045.69.478,6.9,1.045,7.919l106.45.146s-.045.533-.4.661-333.85,0-333.85,0a3.117,3.117,0,0,1-.185-.717l16.045-.13a1.14,1.14,0,0,0,.736-.061,8.929,8.929,0,0,0,2.185-2.612c.146-.684-2.427-1.939-2.427-1.939s-4.258-1.305-5.039-2.006a30.253,30.253,0,0,1-2.472-2.147,6.83,6.83,0,0,0-2.2-1.227,9.349,9.349,0,0,1-2.376-1.576l-2.539.19-.112-.611Z" transform="translate(-53 -71.127)" fill="none" stroke="#000" stroke-miterlimit="10" stroke-width="2"/>
      <path id="Path_496" data-name="Path 496" d="M172.56,548.159l6.5-1.749a1.877,1.877,0,0,1,1.455,0,2.727,2.727,0,0,1,1.027,1.154s-.527.824-.842.875-8.135,0-8.135,0v-.281Z" transform="translate(-70.02 -77.763)" fill="none" stroke="#000" stroke-miterlimit="10" stroke-width="2"/>
      <path id="Path_497" data-name="Path 497" d="M214.836,526.941l1.511,1.985a5.577,5.577,0,0,0-1.039.622c-.179.208-1.9-.56-.472-2.6Z" transform="translate(-75.958 -75.014)" fill="none" stroke="#000" stroke-miterlimit="10" stroke-width="2"/>
      <path id="Path_498" data-name="Path 498" d="M206.774,522.369s1.039,2.394,1.9,2.987a17.48,17.48,0,0,0,2.932,1.328,1.4,1.4,0,0,0,.831-.56c.326-.471-.325-.768-.325-.768s-2.433-.622-2.017-2.426c0,0,.117-1.094-3.32-.561Z" transform="translate(-74.891 -74.342)" fill="none" stroke="#000" stroke-miterlimit="10" stroke-width="2"/>
      <path id="Path_499" data-name="Path 499" d="M207.086,538.446s5.315-2.483,6.169-2.516,6.426-1.922,6.426-1.922,1.573-.948,2.669,0,.949,1.418.949,1.418l-4.6.353-.18.414,10.522,1.895s-.062,1.3.888,1.273c0,0,1.421-.712,1.6-.146a3.66,3.66,0,0,0-.742,1.508c0,.56,1.039,1.037,1.039,1.037a7.626,7.626,0,0,1,1.658.5,14.02,14.02,0,0,0,1.3.8v.594h-1.629a37.037,37.037,0,0,1-4.652-.919,5.312,5.312,0,0,1-2.315-1.687l-4.859.146s-1.068.325-1.214.594a.821.821,0,0,1-1.511.028l-.09-.858a.925.925,0,0,1-1.039,1c-1.1-.062-.326-.5-1.78-.353l.8,1.625a29.266,29.266,0,0,1-5.1-1c-1.158-.533-4.326-3.784-4.326-3.784Z" transform="translate(-74.934 -75.96)" fill="none" stroke="#000" stroke-miterlimit="10" stroke-width="2"/>
    </g>
  </g>
</svg>
